<svg xmlns="http://www.w3.org/2000/svg" xmlns:rdkit="http://www.rdkit.org/xml" xmlns:xlink="http://www.w3.org/1999/xlink" version="1.1" baseProfile="full" xml:space="preserve" width="1200px" height="400px" viewBox="0 0 1200 400">
<!-- END OF HEADER -->
<rect style="opacity:1.0;fill:#FFFFFF;stroke:none" width="1200.0" height="400.0" x="0.0" y="0.0"> </rect>
<path class="bond-0 atom-0 atom-1" d="M 223.0,217.5 L 222.9,205.4" style="fill:none;fill-rule:evenodd;stroke:#FF0000;stroke-width:2.0px;stroke-linecap:butt;stroke-linejoin:miter;stroke-opacity:1"/>
<path class="bond-0 atom-0 atom-1" d="M 222.9,205.4 L 222.8,193.2" style="fill:none;fill-rule:evenodd;stroke:#000000;stroke-width:2.0px;stroke-linecap:butt;stroke-linejoin:miter;stroke-opacity:1"/>
<path class="bond-0 atom-0 atom-1" d="M 227.2,217.5 L 227.2,205.3" style="fill:none;fill-rule:evenodd;stroke:#FF0000;stroke-width:2.0px;stroke-linecap:butt;stroke-linejoin:miter;stroke-opacity:1"/>
<path class="bond-0 atom-0 atom-1" d="M 227.2,205.3 L 227.1,193.1" style="fill:none;fill-rule:evenodd;stroke:#000000;stroke-width:2.0px;stroke-linecap:butt;stroke-linejoin:miter;stroke-opacity:1"/>
<path class="bond-1 atom-1 atom-2" d="M 225.0,194.4 L 249.2,180.1" style="fill:none;fill-rule:evenodd;stroke:#000000;stroke-width:2.0px;stroke-linecap:butt;stroke-linejoin:miter;stroke-opacity:1"/>
<path class="bond-2 atom-2 atom-3" d="M 249.2,180.1 L 273.7,194.0" style="fill:none;fill-rule:evenodd;stroke:#000000;stroke-width:2.0px;stroke-linecap:butt;stroke-linejoin:miter;stroke-opacity:1"/>
<path class="bond-2 atom-2 atom-3" d="M 249.3,185.0 L 271.6,197.7" style="fill:none;fill-rule:evenodd;stroke:#000000;stroke-width:2.0px;stroke-linecap:butt;stroke-linejoin:miter;stroke-opacity:1"/>
<path class="bond-3 atom-3 atom-4" d="M 273.7,194.0 L 297.9,179.8" style="fill:none;fill-rule:evenodd;stroke:#000000;stroke-width:2.0px;stroke-linecap:butt;stroke-linejoin:miter;stroke-opacity:1"/>
<path class="bond-4 atom-4 atom-5" d="M 297.9,179.8 L 322.4,193.6" style="fill:none;fill-rule:evenodd;stroke:#000000;stroke-width:2.0px;stroke-linecap:butt;stroke-linejoin:miter;stroke-opacity:1"/>
<path class="bond-4 atom-4 atom-5" d="M 302.1,177.3 L 322.4,188.8" style="fill:none;fill-rule:evenodd;stroke:#000000;stroke-width:2.0px;stroke-linecap:butt;stroke-linejoin:miter;stroke-opacity:1"/>
<path class="bond-5 atom-5 atom-6" d="M 322.4,193.6 L 346.6,179.4" style="fill:none;fill-rule:evenodd;stroke:#000000;stroke-width:2.0px;stroke-linecap:butt;stroke-linejoin:miter;stroke-opacity:1"/>
<path class="bond-6 atom-6 atom-7" d="M 346.6,179.4 L 346.4,151.3" style="fill:none;fill-rule:evenodd;stroke:#000000;stroke-width:2.0px;stroke-linecap:butt;stroke-linejoin:miter;stroke-opacity:1"/>
<path class="bond-6 atom-6 atom-7" d="M 342.4,177.0 L 342.2,153.7" style="fill:none;fill-rule:evenodd;stroke:#000000;stroke-width:2.0px;stroke-linecap:butt;stroke-linejoin:miter;stroke-opacity:1"/>
<path class="bond-7 atom-7 atom-8" d="M 346.4,151.3 L 356.3,145.5" style="fill:none;fill-rule:evenodd;stroke:#000000;stroke-width:2.0px;stroke-linecap:butt;stroke-linejoin:miter;stroke-opacity:1"/>
<path class="bond-7 atom-7 atom-8" d="M 356.3,145.5 L 366.1,139.7" style="fill:none;fill-rule:evenodd;stroke:#FF0000;stroke-width:2.0px;stroke-linecap:butt;stroke-linejoin:miter;stroke-opacity:1"/>
<path class="bond-8 atom-7 atom-9" d="M 346.4,151.3 L 322.0,137.4" style="fill:none;fill-rule:evenodd;stroke:#000000;stroke-width:2.0px;stroke-linecap:butt;stroke-linejoin:miter;stroke-opacity:1"/>
<path class="bond-9 atom-9 atom-10" d="M 322.0,137.4 L 297.7,151.6" style="fill:none;fill-rule:evenodd;stroke:#000000;stroke-width:2.0px;stroke-linecap:butt;stroke-linejoin:miter;stroke-opacity:1"/>
<path class="bond-9 atom-9 atom-10" d="M 322.0,142.3 L 302.0,154.0" style="fill:none;fill-rule:evenodd;stroke:#000000;stroke-width:2.0px;stroke-linecap:butt;stroke-linejoin:miter;stroke-opacity:1"/>
<path class="bond-10 atom-1 atom-11" d="M 225.0,194.4 L 200.5,180.5" style="fill:none;fill-rule:evenodd;stroke:#000000;stroke-width:2.0px;stroke-linecap:butt;stroke-linejoin:miter;stroke-opacity:1"/>
<path class="bond-11 atom-11 atom-12" d="M 200.5,180.5 L 200.3,152.4" style="fill:none;fill-rule:evenodd;stroke:#000000;stroke-width:2.0px;stroke-linecap:butt;stroke-linejoin:miter;stroke-opacity:1"/>
<path class="bond-12 atom-12 atom-13" d="M 200.3,152.4 L 175.8,138.5" style="fill:none;fill-rule:evenodd;stroke:#000000;stroke-width:2.0px;stroke-linecap:butt;stroke-linejoin:miter;stroke-opacity:1"/>
<path class="bond-13 atom-13 atom-14" d="M 175.8,138.5 L 151.6,152.7" style="fill:none;fill-rule:evenodd;stroke:#000000;stroke-width:2.0px;stroke-linecap:butt;stroke-linejoin:miter;stroke-opacity:1"/>
<path class="bond-14 atom-14 atom-15" d="M 151.6,152.7 L 151.8,180.8" style="fill:none;fill-rule:evenodd;stroke:#000000;stroke-width:2.0px;stroke-linecap:butt;stroke-linejoin:miter;stroke-opacity:1"/>
<path class="bond-15 atom-15 atom-16" d="M 151.8,180.8 L 127.5,195.1" style="fill:none;fill-rule:evenodd;stroke:#000000;stroke-width:2.0px;stroke-linecap:butt;stroke-linejoin:miter;stroke-opacity:1"/>
<path class="bond-15 atom-15 atom-16" d="M 147.6,178.4 L 127.5,190.2" style="fill:none;fill-rule:evenodd;stroke:#000000;stroke-width:2.0px;stroke-linecap:butt;stroke-linejoin:miter;stroke-opacity:1"/>
<path class="bond-16 atom-16 atom-17" d="M 127.5,195.1 L 103.1,181.2" style="fill:none;fill-rule:evenodd;stroke:#000000;stroke-width:2.0px;stroke-linecap:butt;stroke-linejoin:miter;stroke-opacity:1"/>
<path class="bond-17 atom-17 atom-18" d="M 103.1,181.2 L 102.9,153.1" style="fill:none;fill-rule:evenodd;stroke:#000000;stroke-width:2.0px;stroke-linecap:butt;stroke-linejoin:miter;stroke-opacity:1"/>
<path class="bond-17 atom-17 atom-18" d="M 98.8,178.8 L 98.7,155.5" style="fill:none;fill-rule:evenodd;stroke:#000000;stroke-width:2.0px;stroke-linecap:butt;stroke-linejoin:miter;stroke-opacity:1"/>
<path class="bond-18 atom-18 atom-19" d="M 102.9,153.1 L 78.4,139.2" style="fill:none;fill-rule:evenodd;stroke:#000000;stroke-width:2.0px;stroke-linecap:butt;stroke-linejoin:miter;stroke-opacity:1"/>
<path class="bond-19 atom-19 atom-20" d="M 78.4,139.2 L 54.2,153.4" style="fill:none;fill-rule:evenodd;stroke:#000000;stroke-width:2.0px;stroke-linecap:butt;stroke-linejoin:miter;stroke-opacity:1"/>
<path class="bond-19 atom-19 atom-20" d="M 78.5,144.1 L 58.4,155.8" style="fill:none;fill-rule:evenodd;stroke:#000000;stroke-width:2.0px;stroke-linecap:butt;stroke-linejoin:miter;stroke-opacity:1"/>
<path class="bond-20 atom-20 atom-21" d="M 54.2,153.4 L 44.2,147.8" style="fill:none;fill-rule:evenodd;stroke:#000000;stroke-width:2.0px;stroke-linecap:butt;stroke-linejoin:miter;stroke-opacity:1"/>
<path class="bond-20 atom-20 atom-21" d="M 44.2,147.8 L 34.3,142.1" style="fill:none;fill-rule:evenodd;stroke:#FF0000;stroke-width:2.0px;stroke-linecap:butt;stroke-linejoin:miter;stroke-opacity:1"/>
<path class="bond-21 atom-20 atom-22" d="M 54.2,153.4 L 54.4,181.6" style="fill:none;fill-rule:evenodd;stroke:#000000;stroke-width:2.0px;stroke-linecap:butt;stroke-linejoin:miter;stroke-opacity:1"/>
<path class="bond-22 atom-22 atom-23" d="M 54.4,181.6 L 78.8,195.4" style="fill:none;fill-rule:evenodd;stroke:#000000;stroke-width:2.0px;stroke-linecap:butt;stroke-linejoin:miter;stroke-opacity:1"/>
<path class="bond-22 atom-22 atom-23" d="M 58.6,179.1 L 78.8,190.6" style="fill:none;fill-rule:evenodd;stroke:#000000;stroke-width:2.0px;stroke-linecap:butt;stroke-linejoin:miter;stroke-opacity:1"/>
<path class="bond-23 atom-15 atom-24" d="M 151.8,180.8 L 176.3,194.7" style="fill:none;fill-rule:evenodd;stroke:#000000;stroke-width:2.0px;stroke-linecap:butt;stroke-linejoin:miter;stroke-opacity:1"/>
<path class="bond-24 atom-24 atom-25" d="M 174.1,193.5 L 174.2,205.7" style="fill:none;fill-rule:evenodd;stroke:#000000;stroke-width:2.0px;stroke-linecap:butt;stroke-linejoin:miter;stroke-opacity:1"/>
<path class="bond-24 atom-24 atom-25" d="M 174.2,205.7 L 174.3,217.9" style="fill:none;fill-rule:evenodd;stroke:#FF0000;stroke-width:2.0px;stroke-linecap:butt;stroke-linejoin:miter;stroke-opacity:1"/>
<path class="bond-24 atom-24 atom-25" d="M 178.4,193.5 L 178.4,205.7" style="fill:none;fill-rule:evenodd;stroke:#000000;stroke-width:2.0px;stroke-linecap:butt;stroke-linejoin:miter;stroke-opacity:1"/>
<path class="bond-24 atom-24 atom-25" d="M 178.4,205.7 L 178.5,217.9" style="fill:none;fill-rule:evenodd;stroke:#FF0000;stroke-width:2.0px;stroke-linecap:butt;stroke-linejoin:miter;stroke-opacity:1"/>
<path class="bond-25 atom-10 atom-4" d="M 297.7,151.6 L 297.9,179.8" style="fill:none;fill-rule:evenodd;stroke:#000000;stroke-width:2.0px;stroke-linecap:butt;stroke-linejoin:miter;stroke-opacity:1"/>
<path class="bond-26 atom-24 atom-11" d="M 176.3,194.7 L 200.5,180.5" style="fill:none;fill-rule:evenodd;stroke:#000000;stroke-width:2.0px;stroke-linecap:butt;stroke-linejoin:miter;stroke-opacity:1"/>
<path class="bond-27 atom-23 atom-17" d="M 78.8,195.4 L 103.1,181.2" style="fill:none;fill-rule:evenodd;stroke:#000000;stroke-width:2.0px;stroke-linecap:butt;stroke-linejoin:miter;stroke-opacity:1"/>
<path d="M 226.2,193.6 L 225.0,194.4 L 223.7,193.7" style="fill:none;stroke:#000000;stroke-width:2.0px;stroke-linecap:butt;stroke-linejoin:miter;stroke-opacity:1;"/>
<path d="M 248.0,180.8 L 249.2,180.1 L 250.4,180.8" style="fill:none;stroke:#000000;stroke-width:2.0px;stroke-linecap:butt;stroke-linejoin:miter;stroke-opacity:1;"/>
<path d="M 272.5,193.3 L 273.7,194.0 L 274.9,193.3" style="fill:none;stroke:#000000;stroke-width:2.0px;stroke-linecap:butt;stroke-linejoin:miter;stroke-opacity:1;"/>
<path d="M 321.2,192.9 L 322.4,193.6 L 323.6,192.9" style="fill:none;stroke:#000000;stroke-width:2.0px;stroke-linecap:butt;stroke-linejoin:miter;stroke-opacity:1;"/>
<path d="M 345.4,180.1 L 346.6,179.4 L 346.6,178.0" style="fill:none;stroke:#000000;stroke-width:2.0px;stroke-linecap:butt;stroke-linejoin:miter;stroke-opacity:1;"/>
<path d="M 323.2,138.1 L 322.0,137.4 L 320.8,138.1" style="fill:none;stroke:#000000;stroke-width:2.0px;stroke-linecap:butt;stroke-linejoin:miter;stroke-opacity:1;"/>
<path d="M 298.9,150.9 L 297.7,151.6 L 297.7,153.0" style="fill:none;stroke:#000000;stroke-width:2.0px;stroke-linecap:butt;stroke-linejoin:miter;stroke-opacity:1;"/>
<path d="M 200.3,153.8 L 200.3,152.4 L 199.1,151.7" style="fill:none;stroke:#000000;stroke-width:2.0px;stroke-linecap:butt;stroke-linejoin:miter;stroke-opacity:1;"/>
<path d="M 177.1,139.2 L 175.8,138.5 L 174.6,139.2" style="fill:none;stroke:#000000;stroke-width:2.0px;stroke-linecap:butt;stroke-linejoin:miter;stroke-opacity:1;"/>
<path d="M 152.8,152.0 L 151.6,152.7 L 151.6,154.1" style="fill:none;stroke:#000000;stroke-width:2.0px;stroke-linecap:butt;stroke-linejoin:miter;stroke-opacity:1;"/>
<path d="M 128.8,194.4 L 127.5,195.1 L 126.3,194.4" style="fill:none;stroke:#000000;stroke-width:2.0px;stroke-linecap:butt;stroke-linejoin:miter;stroke-opacity:1;"/>
<path d="M 102.9,154.5 L 102.9,153.1 L 101.7,152.4" style="fill:none;stroke:#000000;stroke-width:2.0px;stroke-linecap:butt;stroke-linejoin:miter;stroke-opacity:1;"/>
<path d="M 79.6,139.9 L 78.4,139.2 L 77.2,139.9" style="fill:none;stroke:#000000;stroke-width:2.0px;stroke-linecap:butt;stroke-linejoin:miter;stroke-opacity:1;"/>
<path d="M 54.4,180.1 L 54.4,181.6 L 55.6,182.2" style="fill:none;stroke:#000000;stroke-width:2.0px;stroke-linecap:butt;stroke-linejoin:miter;stroke-opacity:1;"/>
<path d="M 77.6,194.7 L 78.8,195.4 L 80.0,194.7" style="fill:none;stroke:#000000;stroke-width:2.0px;stroke-linecap:butt;stroke-linejoin:miter;stroke-opacity:1;"/>
<path d="M 175.0,194.0 L 176.3,194.7 L 177.5,194.0" style="fill:none;stroke:#000000;stroke-width:2.0px;stroke-linecap:butt;stroke-linejoin:miter;stroke-opacity:1;"/>
<path class="atom-0" d="M 221.5 222.5 Q 221.5 220.6, 222.5 219.5 Q 223.4 218.5, 225.2 218.5 Q 226.9 218.5, 227.9 219.5 Q 228.8 220.6, 228.8 222.5 Q 228.8 224.4, 227.9 225.5 Q 226.9 226.6, 225.2 226.6 Q 223.4 226.6, 222.5 225.5 Q 221.5 224.5, 221.5 222.5 M 225.2 225.7 Q 226.4 225.7, 227.0 224.9 Q 227.7 224.1, 227.7 222.5 Q 227.7 220.9, 227.0 220.2 Q 226.4 219.4, 225.2 219.4 Q 224.0 219.4, 223.3 220.1 Q 222.6 220.9, 222.6 222.5 Q 222.6 224.1, 223.3 224.9 Q 224.0 225.7, 225.2 225.7 " fill="#FF0000"/>
<path class="atom-8" d="M 367.0 137.1 Q 367.0 135.1, 368.0 134.1 Q 368.9 133.0, 370.7 133.0 Q 372.5 133.0, 373.4 134.1 Q 374.3 135.1, 374.3 137.1 Q 374.3 139.0, 373.4 140.1 Q 372.4 141.2, 370.7 141.2 Q 368.9 141.2, 368.0 140.1 Q 367.0 139.0, 367.0 137.1 M 370.7 140.3 Q 371.9 140.3, 372.6 139.5 Q 373.2 138.7, 373.2 137.1 Q 373.2 135.5, 372.6 134.7 Q 371.9 133.9, 370.7 133.9 Q 369.5 133.9, 368.8 134.7 Q 368.2 135.5, 368.2 137.1 Q 368.2 138.7, 368.8 139.5 Q 369.5 140.3, 370.7 140.3 " fill="#FF0000"/>
<path class="atom-8" d="M 375.6 133.1 L 376.7 133.1 L 376.7 136.5 L 380.7 136.5 L 380.7 133.1 L 381.8 133.1 L 381.8 141.1 L 380.7 141.1 L 380.7 137.4 L 376.7 137.4 L 376.7 141.1 L 375.6 141.1 L 375.6 133.1 " fill="#FF0000"/>
<path class="atom-21" d="M 18.2 135.6 L 19.3 135.6 L 19.3 139.0 L 23.3 139.0 L 23.3 135.6 L 24.4 135.6 L 24.4 143.6 L 23.3 143.6 L 23.3 139.9 L 19.3 139.9 L 19.3 143.6 L 18.2 143.6 L 18.2 135.6 " fill="#FF0000"/>
<path class="atom-21" d="M 26.0 139.6 Q 26.0 137.7, 27.0 136.6 Q 27.9 135.5, 29.7 135.5 Q 31.5 135.5, 32.4 136.6 Q 33.4 137.7, 33.4 139.6 Q 33.4 141.5, 32.4 142.6 Q 31.4 143.7, 29.7 143.7 Q 27.9 143.7, 27.0 142.6 Q 26.0 141.5, 26.0 139.6 M 29.7 142.8 Q 30.9 142.8, 31.6 142.0 Q 32.2 141.2, 32.2 139.6 Q 32.2 138.0, 31.6 137.2 Q 30.9 136.4, 29.7 136.4 Q 28.5 136.4, 27.8 137.2 Q 27.2 138.0, 27.2 139.6 Q 27.2 141.2, 27.8 142.0 Q 28.5 142.8, 29.7 142.8 " fill="#FF0000"/>
<path class="atom-25" d="M 172.8 222.9 Q 172.8 221.0, 173.8 219.9 Q 174.7 218.8, 176.5 218.8 Q 178.2 218.8, 179.2 219.9 Q 180.1 221.0, 180.1 222.9 Q 180.1 224.8, 179.2 225.9 Q 178.2 227.0, 176.5 227.0 Q 174.7 227.0, 173.8 225.9 Q 172.8 224.8, 172.8 222.9 M 176.5 226.1 Q 177.7 226.1, 178.3 225.3 Q 179.0 224.5, 179.0 222.9 Q 179.0 221.3, 178.3 220.5 Q 177.7 219.7, 176.5 219.7 Q 175.2 219.7, 174.6 220.5 Q 173.9 221.3, 173.9 222.9 Q 173.9 224.5, 174.6 225.3 Q 175.2 226.1, 176.5 226.1 " fill="#FF0000"/>
<path class="note" d="M 261.4 182.8 Q 261.4 182.0, 261.6 181.3 Q 261.9 180.7, 262.3 179.9 L 262.6 180.1 Q 262.3 180.8, 262.1 181.4 Q 261.9 182.0, 261.9 182.8 Q 261.9 183.6, 262.1 184.2 Q 262.3 184.7, 262.6 185.4 L 262.3 185.6 Q 261.9 184.9, 261.6 184.3 Q 261.4 183.6, 261.4 182.8 " fill="#000000"/>
<path class="note" d="M 262.9 180.4 L 265.3 180.4 L 265.3 180.9 L 263.5 180.9 L 263.5 182.1 L 265.1 182.1 L 265.1 182.5 L 263.5 182.5 L 263.5 183.9 L 265.4 183.9 L 265.4 184.4 L 262.9 184.4 L 262.9 180.4 " fill="#000000"/>
<path class="note" d="M 267.1 182.8 Q 267.1 183.6, 266.8 184.3 Q 266.6 184.9, 266.1 185.6 L 265.8 185.4 Q 266.2 184.7, 266.4 184.2 Q 266.5 183.6, 266.5 182.8 Q 266.5 182.0, 266.4 181.4 Q 266.2 180.8, 265.8 180.1 L 266.1 179.9 Q 266.6 180.7, 266.8 181.3 Q 267.1 182.0, 267.1 182.8 " fill="#000000"/>
<path class="note" d="M 139.7 193.4 Q 139.7 192.6, 139.9 192.0 Q 140.2 191.3, 140.6 190.6 L 140.9 190.8 Q 140.6 191.5, 140.4 192.1 Q 140.2 192.7, 140.2 193.4 Q 140.2 194.2, 140.4 194.8 Q 140.6 195.4, 140.9 196.1 L 140.6 196.3 Q 140.2 195.6, 139.9 194.9 Q 139.7 194.2, 139.7 193.4 " fill="#000000"/>
<path class="note" d="M 141.2 191.1 L 143.6 191.1 L 143.6 191.5 L 141.8 191.5 L 141.8 192.7 L 143.4 192.7 L 143.4 193.2 L 141.8 193.2 L 141.8 194.6 L 143.7 194.6 L 143.7 195.0 L 141.2 195.0 L 141.2 191.1 " fill="#000000"/>
<path class="note" d="M 145.3 193.4 Q 145.3 194.2, 145.1 194.9 Q 144.9 195.6, 144.4 196.3 L 144.1 196.1 Q 144.5 195.4, 144.7 194.8 Q 144.8 194.2, 144.8 193.4 Q 144.8 192.7, 144.7 192.1 Q 144.5 191.5, 144.1 190.8 L 144.4 190.6 Q 144.9 191.3, 145.1 192.0 Q 145.3 192.6, 145.3 193.4 " fill="#000000"/>
<path class="legend" d="M 152.2 380.4 Q 152.2 377.6, 153.5 376.1 Q 154.8 374.6, 157.3 374.6 Q 159.6 374.6, 160.9 376.3 L 159.8 377.1 Q 158.9 375.9, 157.3 375.9 Q 155.6 375.9, 154.7 377.1 Q 153.8 378.2, 153.8 380.4 Q 153.8 382.6, 154.7 383.8 Q 155.7 384.9, 157.5 384.9 Q 158.7 384.9, 160.2 384.2 L 160.6 385.4 Q 160.0 385.8, 159.2 386.0 Q 158.3 386.2, 157.3 386.2 Q 154.8 386.2, 153.5 384.7 Q 152.2 383.2, 152.2 380.4 " fill="#000000"/>
<path class="legend" d="M 162.3 382.0 Q 162.3 380.0, 163.3 378.8 Q 164.4 377.7, 166.2 377.7 Q 168.1 377.7, 169.1 378.8 Q 170.1 380.0, 170.1 382.0 Q 170.1 384.0, 169.1 385.1 Q 168.1 386.2, 166.2 386.2 Q 164.4 386.2, 163.3 385.1 Q 162.3 384.0, 162.3 382.0 M 163.9 382.0 Q 163.9 383.5, 164.5 384.2 Q 165.1 385.0, 166.2 385.0 Q 167.4 385.0, 168.0 384.2 Q 168.6 383.5, 168.6 382.0 Q 168.6 380.4, 168.0 379.7 Q 167.4 378.9, 166.2 378.9 Q 165.1 378.9, 164.5 379.7 Q 163.9 380.4, 163.9 382.0 " fill="#000000"/>
<path class="legend" d="M 181.2 377.7 Q 182.6 377.7, 183.3 378.5 Q 184.0 379.2, 184.0 380.6 L 184.0 386.1 L 182.5 386.1 L 182.5 380.8 Q 182.5 379.8, 182.1 379.3 Q 181.7 378.9, 180.9 378.9 Q 180.2 378.9, 179.6 379.2 Q 179.0 379.6, 178.6 380.2 Q 178.6 380.3, 178.6 380.6 L 178.6 386.1 L 177.1 386.1 L 177.1 380.8 Q 177.1 379.8, 176.7 379.3 Q 176.3 378.9, 175.5 378.9 Q 174.8 378.9, 174.2 379.2 Q 173.6 379.6, 173.2 380.2 L 173.2 386.1 L 171.7 386.1 L 171.7 377.9 L 172.9 377.9 L 173.1 379.0 Q 174.2 377.7, 175.8 377.7 Q 177.7 377.7, 178.3 379.2 Q 179.4 377.7, 181.2 377.7 " fill="#000000"/>
<path class="legend" d="M 189.9 377.7 Q 191.6 377.7, 192.5 378.8 Q 193.5 379.8, 193.5 381.8 Q 193.5 383.9, 192.3 385.1 Q 191.2 386.2, 189.2 386.2 Q 188.3 386.2, 187.5 386.0 L 187.5 390.0 L 186.0 390.0 L 186.0 377.9 L 187.2 377.9 L 187.4 378.8 Q 187.9 378.3, 188.5 378.0 Q 189.1 377.7, 189.9 377.7 M 189.2 385.0 Q 190.5 385.0, 191.2 384.2 Q 191.9 383.3, 191.9 381.8 Q 191.9 380.4, 191.4 379.7 Q 190.8 378.9, 189.8 378.9 Q 188.9 378.9, 188.4 379.3 Q 187.8 379.8, 187.5 380.5 L 187.5 384.8 Q 188.4 385.0, 189.2 385.0 " fill="#000000"/>
<path class="legend" d="M 195.0 382.0 Q 195.0 380.0, 196.0 378.8 Q 197.0 377.7, 198.9 377.7 Q 200.8 377.7, 201.8 378.8 Q 202.8 380.0, 202.8 382.0 Q 202.8 384.0, 201.8 385.1 Q 200.8 386.2, 198.9 386.2 Q 197.0 386.2, 196.0 385.1 Q 195.0 384.0, 195.0 382.0 M 196.5 382.0 Q 196.5 383.5, 197.1 384.2 Q 197.8 385.0, 198.9 385.0 Q 200.0 385.0, 200.6 384.2 Q 201.3 383.5, 201.3 382.0 Q 201.3 380.4, 200.6 379.7 Q 200.0 378.9, 198.9 378.9 Q 197.8 378.9, 197.1 379.7 Q 196.5 380.4, 196.5 382.0 " fill="#000000"/>
<path class="legend" d="M 211.3 377.9 L 211.3 386.1 L 210.1 386.1 L 209.9 384.9 Q 208.9 386.2, 207.1 386.2 Q 205.8 386.2, 205.1 385.5 Q 204.3 384.7, 204.3 383.3 L 204.3 377.9 L 205.9 377.9 L 205.9 383.2 Q 205.9 384.2, 206.2 384.6 Q 206.6 385.0, 207.4 385.0 Q 208.2 385.0, 208.8 384.7 Q 209.4 384.4, 209.8 383.7 L 209.8 377.9 L 211.3 377.9 " fill="#000000"/>
<path class="legend" d="M 217.7 377.7 Q 219.1 377.7, 219.7 378.5 Q 220.4 379.2, 220.4 380.6 L 220.4 386.1 L 218.9 386.1 L 218.9 380.8 Q 218.9 379.8, 218.6 379.3 Q 218.2 378.9, 217.4 378.9 Q 216.6 378.9, 216.0 379.2 Q 215.4 379.6, 215.0 380.2 L 215.0 386.1 L 213.5 386.1 L 213.5 377.9 L 214.7 377.9 L 214.9 379.0 Q 216.0 377.7, 217.7 377.7 " fill="#000000"/>
<path class="legend" d="M 230.0 373.9 L 230.0 386.1 L 228.7 386.1 L 228.5 385.1 Q 227.6 386.2, 226.1 386.2 Q 224.4 386.2, 223.4 385.2 Q 222.5 384.1, 222.5 382.1 Q 222.5 380.0, 223.6 378.9 Q 224.7 377.7, 226.7 377.7 Q 227.6 377.7, 228.5 377.9 L 228.5 373.9 L 230.0 373.9 M 226.2 385.0 Q 227.0 385.0, 227.6 384.6 Q 228.2 384.1, 228.5 383.3 L 228.5 379.1 Q 227.6 378.9, 226.7 378.9 Q 225.5 378.9, 224.7 379.7 Q 224.0 380.6, 224.0 382.1 Q 224.0 383.5, 224.6 384.3 Q 225.2 385.0, 226.2 385.0 " fill="#000000"/>
<path class="legend" d="M 240.2 386.9 L 240.2 388.2 L 232.0 388.2 L 232.0 386.9 L 240.2 386.9 " fill="#000000"/>
<path class="legend" d="M 241.6 384.8 L 244.1 384.8 L 244.1 376.3 L 241.4 377.2 L 241.0 376.2 L 244.5 374.7 L 245.6 374.9 L 245.6 384.8 L 247.8 384.8 L 247.8 386.1 L 241.6 386.1 L 241.6 384.8 " fill="#000000"/>
<path class="bond-0 atom-0 atom-1" d="M 623.0,217.5 L 622.9,205.4" style="fill:none;fill-rule:evenodd;stroke:#FF0000;stroke-width:2.0px;stroke-linecap:butt;stroke-linejoin:miter;stroke-opacity:1"/>
<path class="bond-0 atom-0 atom-1" d="M 622.9,205.4 L 622.8,193.2" style="fill:none;fill-rule:evenodd;stroke:#000000;stroke-width:2.0px;stroke-linecap:butt;stroke-linejoin:miter;stroke-opacity:1"/>
<path class="bond-0 atom-0 atom-1" d="M 627.2,217.5 L 627.2,205.3" style="fill:none;fill-rule:evenodd;stroke:#FF0000;stroke-width:2.0px;stroke-linecap:butt;stroke-linejoin:miter;stroke-opacity:1"/>
<path class="bond-0 atom-0 atom-1" d="M 627.2,205.3 L 627.1,193.1" style="fill:none;fill-rule:evenodd;stroke:#000000;stroke-width:2.0px;stroke-linecap:butt;stroke-linejoin:miter;stroke-opacity:1"/>
<path class="bond-1 atom-1 atom-2" d="M 625.0,194.4 L 649.2,180.1" style="fill:none;fill-rule:evenodd;stroke:#000000;stroke-width:2.0px;stroke-linecap:butt;stroke-linejoin:miter;stroke-opacity:1"/>
<path class="bond-2 atom-2 atom-3" d="M 649.2,180.1 L 673.7,194.0" style="fill:none;fill-rule:evenodd;stroke:#000000;stroke-width:2.0px;stroke-linecap:butt;stroke-linejoin:miter;stroke-opacity:1"/>
<path class="bond-3 atom-3 atom-4" d="M 673.7,194.0 L 697.9,179.8" style="fill:none;fill-rule:evenodd;stroke:#000000;stroke-width:2.0px;stroke-linecap:butt;stroke-linejoin:miter;stroke-opacity:1"/>
<path class="bond-4 atom-4 atom-5" d="M 697.9,179.8 L 722.4,193.6" style="fill:none;fill-rule:evenodd;stroke:#000000;stroke-width:2.0px;stroke-linecap:butt;stroke-linejoin:miter;stroke-opacity:1"/>
<path class="bond-4 atom-4 atom-5" d="M 702.1,177.3 L 722.4,188.8" style="fill:none;fill-rule:evenodd;stroke:#000000;stroke-width:2.0px;stroke-linecap:butt;stroke-linejoin:miter;stroke-opacity:1"/>
<path class="bond-5 atom-5 atom-6" d="M 722.4,193.6 L 746.6,179.4" style="fill:none;fill-rule:evenodd;stroke:#000000;stroke-width:2.0px;stroke-linecap:butt;stroke-linejoin:miter;stroke-opacity:1"/>
<path class="bond-6 atom-6 atom-7" d="M 746.6,179.4 L 746.4,151.3" style="fill:none;fill-rule:evenodd;stroke:#000000;stroke-width:2.0px;stroke-linecap:butt;stroke-linejoin:miter;stroke-opacity:1"/>
<path class="bond-6 atom-6 atom-7" d="M 742.4,177.0 L 742.2,153.7" style="fill:none;fill-rule:evenodd;stroke:#000000;stroke-width:2.0px;stroke-linecap:butt;stroke-linejoin:miter;stroke-opacity:1"/>
<path class="bond-7 atom-7 atom-8" d="M 746.4,151.3 L 756.3,145.5" style="fill:none;fill-rule:evenodd;stroke:#000000;stroke-width:2.0px;stroke-linecap:butt;stroke-linejoin:miter;stroke-opacity:1"/>
<path class="bond-7 atom-7 atom-8" d="M 756.3,145.5 L 766.1,139.7" style="fill:none;fill-rule:evenodd;stroke:#FF0000;stroke-width:2.0px;stroke-linecap:butt;stroke-linejoin:miter;stroke-opacity:1"/>
<path class="bond-8 atom-7 atom-9" d="M 746.4,151.3 L 722.0,137.4" style="fill:none;fill-rule:evenodd;stroke:#000000;stroke-width:2.0px;stroke-linecap:butt;stroke-linejoin:miter;stroke-opacity:1"/>
<path class="bond-9 atom-9 atom-10" d="M 722.0,137.4 L 697.7,151.6" style="fill:none;fill-rule:evenodd;stroke:#000000;stroke-width:2.0px;stroke-linecap:butt;stroke-linejoin:miter;stroke-opacity:1"/>
<path class="bond-9 atom-9 atom-10" d="M 722.0,142.3 L 702.0,154.0" style="fill:none;fill-rule:evenodd;stroke:#000000;stroke-width:2.0px;stroke-linecap:butt;stroke-linejoin:miter;stroke-opacity:1"/>
<path class="bond-10 atom-1 atom-11" d="M 625.0,194.4 L 600.5,180.5" style="fill:none;fill-rule:evenodd;stroke:#000000;stroke-width:2.0px;stroke-linecap:butt;stroke-linejoin:miter;stroke-opacity:1"/>
<path class="bond-11 atom-11 atom-12" d="M 600.5,180.5 L 600.3,152.4" style="fill:none;fill-rule:evenodd;stroke:#000000;stroke-width:2.0px;stroke-linecap:butt;stroke-linejoin:miter;stroke-opacity:1"/>
<path class="bond-11 atom-11 atom-12" d="M 596.3,178.1 L 596.1,154.8" style="fill:none;fill-rule:evenodd;stroke:#000000;stroke-width:2.0px;stroke-linecap:butt;stroke-linejoin:miter;stroke-opacity:1"/>
<path class="bond-12 atom-12 atom-13" d="M 600.3,152.4 L 575.8,138.5" style="fill:none;fill-rule:evenodd;stroke:#000000;stroke-width:2.0px;stroke-linecap:butt;stroke-linejoin:miter;stroke-opacity:1"/>
<path class="bond-13 atom-13 atom-14" d="M 575.8,138.5 L 551.6,152.7" style="fill:none;fill-rule:evenodd;stroke:#000000;stroke-width:2.0px;stroke-linecap:butt;stroke-linejoin:miter;stroke-opacity:1"/>
<path class="bond-13 atom-13 atom-14" d="M 575.9,143.3 L 555.8,155.1" style="fill:none;fill-rule:evenodd;stroke:#000000;stroke-width:2.0px;stroke-linecap:butt;stroke-linejoin:miter;stroke-opacity:1"/>
<path class="bond-14 atom-14 atom-15" d="M 551.6,152.7 L 551.8,180.8" style="fill:none;fill-rule:evenodd;stroke:#000000;stroke-width:2.0px;stroke-linecap:butt;stroke-linejoin:miter;stroke-opacity:1"/>
<path class="bond-15 atom-15 atom-16" d="M 551.8,180.8 L 527.5,195.1" style="fill:none;fill-rule:evenodd;stroke:#000000;stroke-width:2.0px;stroke-linecap:butt;stroke-linejoin:miter;stroke-opacity:1"/>
<path class="bond-16 atom-16 atom-17" d="M 527.5,195.1 L 503.1,181.2" style="fill:none;fill-rule:evenodd;stroke:#000000;stroke-width:2.0px;stroke-linecap:butt;stroke-linejoin:miter;stroke-opacity:1"/>
<path class="bond-17 atom-17 atom-18" d="M 503.1,181.2 L 502.9,153.1" style="fill:none;fill-rule:evenodd;stroke:#000000;stroke-width:2.0px;stroke-linecap:butt;stroke-linejoin:miter;stroke-opacity:1"/>
<path class="bond-17 atom-17 atom-18" d="M 498.8,178.8 L 498.7,155.5" style="fill:none;fill-rule:evenodd;stroke:#000000;stroke-width:2.0px;stroke-linecap:butt;stroke-linejoin:miter;stroke-opacity:1"/>
<path class="bond-18 atom-18 atom-19" d="M 502.9,153.1 L 478.4,139.2" style="fill:none;fill-rule:evenodd;stroke:#000000;stroke-width:2.0px;stroke-linecap:butt;stroke-linejoin:miter;stroke-opacity:1"/>
<path class="bond-19 atom-19 atom-20" d="M 478.4,139.2 L 454.2,153.4" style="fill:none;fill-rule:evenodd;stroke:#000000;stroke-width:2.0px;stroke-linecap:butt;stroke-linejoin:miter;stroke-opacity:1"/>
<path class="bond-19 atom-19 atom-20" d="M 478.5,144.1 L 458.4,155.8" style="fill:none;fill-rule:evenodd;stroke:#000000;stroke-width:2.0px;stroke-linecap:butt;stroke-linejoin:miter;stroke-opacity:1"/>
<path class="bond-20 atom-20 atom-21" d="M 454.2,153.4 L 444.2,147.8" style="fill:none;fill-rule:evenodd;stroke:#000000;stroke-width:2.0px;stroke-linecap:butt;stroke-linejoin:miter;stroke-opacity:1"/>
<path class="bond-20 atom-20 atom-21" d="M 444.2,147.8 L 434.3,142.1" style="fill:none;fill-rule:evenodd;stroke:#FF0000;stroke-width:2.0px;stroke-linecap:butt;stroke-linejoin:miter;stroke-opacity:1"/>
<path class="bond-21 atom-20 atom-22" d="M 454.2,153.4 L 454.4,181.6" style="fill:none;fill-rule:evenodd;stroke:#000000;stroke-width:2.0px;stroke-linecap:butt;stroke-linejoin:miter;stroke-opacity:1"/>
<path class="bond-22 atom-22 atom-23" d="M 454.4,181.6 L 478.8,195.4" style="fill:none;fill-rule:evenodd;stroke:#000000;stroke-width:2.0px;stroke-linecap:butt;stroke-linejoin:miter;stroke-opacity:1"/>
<path class="bond-22 atom-22 atom-23" d="M 458.6,179.1 L 478.8,190.6" style="fill:none;fill-rule:evenodd;stroke:#000000;stroke-width:2.0px;stroke-linecap:butt;stroke-linejoin:miter;stroke-opacity:1"/>
<path class="bond-23 atom-15 atom-24" d="M 551.8,180.8 L 576.3,194.7" style="fill:none;fill-rule:evenodd;stroke:#000000;stroke-width:2.0px;stroke-linecap:butt;stroke-linejoin:miter;stroke-opacity:1"/>
<path class="bond-23 atom-15 atom-24" d="M 556.0,178.4 L 576.2,189.8" style="fill:none;fill-rule:evenodd;stroke:#000000;stroke-width:2.0px;stroke-linecap:butt;stroke-linejoin:miter;stroke-opacity:1"/>
<path class="bond-24 atom-24 atom-25" d="M 576.3,194.7 L 576.3,206.3" style="fill:none;fill-rule:evenodd;stroke:#000000;stroke-width:2.0px;stroke-linecap:butt;stroke-linejoin:miter;stroke-opacity:1"/>
<path class="bond-24 atom-24 atom-25" d="M 576.3,206.3 L 576.4,217.9" style="fill:none;fill-rule:evenodd;stroke:#FF0000;stroke-width:2.0px;stroke-linecap:butt;stroke-linejoin:miter;stroke-opacity:1"/>
<path class="bond-25 atom-10 atom-4" d="M 697.7,151.6 L 697.9,179.8" style="fill:none;fill-rule:evenodd;stroke:#000000;stroke-width:2.0px;stroke-linecap:butt;stroke-linejoin:miter;stroke-opacity:1"/>
<path class="bond-26 atom-24 atom-11" d="M 576.3,194.7 L 600.5,180.5" style="fill:none;fill-rule:evenodd;stroke:#000000;stroke-width:2.0px;stroke-linecap:butt;stroke-linejoin:miter;stroke-opacity:1"/>
<path class="bond-27 atom-23 atom-17" d="M 478.8,195.4 L 503.1,181.2" style="fill:none;fill-rule:evenodd;stroke:#000000;stroke-width:2.0px;stroke-linecap:butt;stroke-linejoin:miter;stroke-opacity:1"/>
<path d="M 626.2,193.6 L 625.0,194.4 L 623.7,193.7" style="fill:none;stroke:#000000;stroke-width:2.0px;stroke-linecap:butt;stroke-linejoin:miter;stroke-opacity:1;"/>
<path d="M 648.0,180.8 L 649.2,180.1 L 650.4,180.8" style="fill:none;stroke:#000000;stroke-width:2.0px;stroke-linecap:butt;stroke-linejoin:miter;stroke-opacity:1;"/>
<path d="M 672.5,193.3 L 673.7,194.0 L 674.9,193.3" style="fill:none;stroke:#000000;stroke-width:2.0px;stroke-linecap:butt;stroke-linejoin:miter;stroke-opacity:1;"/>
<path d="M 721.2,192.9 L 722.4,193.6 L 723.6,192.9" style="fill:none;stroke:#000000;stroke-width:2.0px;stroke-linecap:butt;stroke-linejoin:miter;stroke-opacity:1;"/>
<path d="M 745.4,180.1 L 746.6,179.4 L 746.6,178.0" style="fill:none;stroke:#000000;stroke-width:2.0px;stroke-linecap:butt;stroke-linejoin:miter;stroke-opacity:1;"/>
<path d="M 723.2,138.1 L 722.0,137.4 L 720.8,138.1" style="fill:none;stroke:#000000;stroke-width:2.0px;stroke-linecap:butt;stroke-linejoin:miter;stroke-opacity:1;"/>
<path d="M 698.9,150.9 L 697.7,151.6 L 697.7,153.0" style="fill:none;stroke:#000000;stroke-width:2.0px;stroke-linecap:butt;stroke-linejoin:miter;stroke-opacity:1;"/>
<path d="M 600.3,153.8 L 600.3,152.4 L 599.1,151.7" style="fill:none;stroke:#000000;stroke-width:2.0px;stroke-linecap:butt;stroke-linejoin:miter;stroke-opacity:1;"/>
<path d="M 577.1,139.2 L 575.8,138.5 L 574.6,139.2" style="fill:none;stroke:#000000;stroke-width:2.0px;stroke-linecap:butt;stroke-linejoin:miter;stroke-opacity:1;"/>
<path d="M 552.8,152.0 L 551.6,152.7 L 551.6,154.1" style="fill:none;stroke:#000000;stroke-width:2.0px;stroke-linecap:butt;stroke-linejoin:miter;stroke-opacity:1;"/>
<path d="M 528.8,194.4 L 527.5,195.1 L 526.3,194.4" style="fill:none;stroke:#000000;stroke-width:2.0px;stroke-linecap:butt;stroke-linejoin:miter;stroke-opacity:1;"/>
<path d="M 502.9,154.5 L 502.9,153.1 L 501.7,152.4" style="fill:none;stroke:#000000;stroke-width:2.0px;stroke-linecap:butt;stroke-linejoin:miter;stroke-opacity:1;"/>
<path d="M 479.6,139.9 L 478.4,139.2 L 477.2,139.9" style="fill:none;stroke:#000000;stroke-width:2.0px;stroke-linecap:butt;stroke-linejoin:miter;stroke-opacity:1;"/>
<path d="M 454.4,180.1 L 454.4,181.6 L 455.6,182.2" style="fill:none;stroke:#000000;stroke-width:2.0px;stroke-linecap:butt;stroke-linejoin:miter;stroke-opacity:1;"/>
<path d="M 477.6,194.7 L 478.8,195.4 L 480.0,194.7" style="fill:none;stroke:#000000;stroke-width:2.0px;stroke-linecap:butt;stroke-linejoin:miter;stroke-opacity:1;"/>
<path class="atom-0" d="M 621.5 222.5 Q 621.5 220.6, 622.5 219.5 Q 623.4 218.5, 625.2 218.5 Q 626.9 218.5, 627.9 219.5 Q 628.8 220.6, 628.8 222.5 Q 628.8 224.4, 627.9 225.5 Q 626.9 226.6, 625.2 226.6 Q 623.4 226.6, 622.5 225.5 Q 621.5 224.5, 621.5 222.5 M 625.2 225.7 Q 626.4 225.7, 627.0 224.9 Q 627.7 224.1, 627.7 222.5 Q 627.7 220.9, 627.0 220.2 Q 626.4 219.4, 625.2 219.4 Q 624.0 219.4, 623.3 220.1 Q 622.6 220.9, 622.6 222.5 Q 622.6 224.1, 623.3 224.9 Q 624.0 225.7, 625.2 225.7 " fill="#FF0000"/>
<path class="atom-8" d="M 767.0 137.1 Q 767.0 135.1, 768.0 134.1 Q 768.9 133.0, 770.7 133.0 Q 772.5 133.0, 773.4 134.1 Q 774.3 135.1, 774.3 137.1 Q 774.3 139.0, 773.4 140.1 Q 772.4 141.2, 770.7 141.2 Q 768.9 141.2, 768.0 140.1 Q 767.0 139.0, 767.0 137.1 M 770.7 140.3 Q 771.9 140.3, 772.6 139.5 Q 773.2 138.7, 773.2 137.1 Q 773.2 135.5, 772.6 134.7 Q 771.9 133.9, 770.7 133.9 Q 769.5 133.9, 768.8 134.7 Q 768.2 135.5, 768.2 137.1 Q 768.2 138.7, 768.8 139.5 Q 769.5 140.3, 770.7 140.3 " fill="#FF0000"/>
<path class="atom-8" d="M 775.6 133.1 L 776.7 133.1 L 776.7 136.5 L 780.7 136.5 L 780.7 133.1 L 781.8 133.1 L 781.8 141.1 L 780.7 141.1 L 780.7 137.4 L 776.7 137.4 L 776.7 141.1 L 775.6 141.1 L 775.6 133.1 " fill="#FF0000"/>
<path class="atom-21" d="M 418.2 135.6 L 419.3 135.6 L 419.3 139.0 L 423.3 139.0 L 423.3 135.6 L 424.4 135.6 L 424.4 143.6 L 423.3 143.6 L 423.3 139.9 L 419.3 139.9 L 419.3 143.6 L 418.2 143.6 L 418.2 135.6 " fill="#FF0000"/>
<path class="atom-21" d="M 426.0 139.6 Q 426.0 137.7, 427.0 136.6 Q 427.9 135.5, 429.7 135.5 Q 431.5 135.5, 432.4 136.6 Q 433.4 137.7, 433.4 139.6 Q 433.4 141.5, 432.4 142.6 Q 431.4 143.7, 429.7 143.7 Q 427.9 143.7, 427.0 142.6 Q 426.0 141.5, 426.0 139.6 M 429.7 142.8 Q 430.9 142.8, 431.6 142.0 Q 432.2 141.2, 432.2 139.6 Q 432.2 138.0, 431.6 137.2 Q 430.9 136.4, 429.7 136.4 Q 428.5 136.4, 427.8 137.2 Q 427.2 138.0, 427.2 139.6 Q 427.2 141.2, 427.8 142.0 Q 428.5 142.8, 429.7 142.8 " fill="#FF0000"/>
<path class="atom-25" d="M 572.8 222.9 Q 572.8 221.0, 573.8 219.9 Q 574.7 218.8, 576.5 218.8 Q 578.2 218.8, 579.2 219.9 Q 580.1 221.0, 580.1 222.9 Q 580.1 224.8, 579.2 225.9 Q 578.2 227.0, 576.5 227.0 Q 574.7 227.0, 573.8 225.9 Q 572.8 224.8, 572.8 222.9 M 576.5 226.1 Q 577.7 226.1, 578.3 225.3 Q 579.0 224.5, 579.0 222.9 Q 579.0 221.3, 578.3 220.5 Q 577.7 219.7, 576.5 219.7 Q 575.2 219.7, 574.6 220.5 Q 573.9 221.3, 573.9 222.9 Q 573.9 224.5, 574.6 225.3 Q 575.2 226.1, 576.5 226.1 " fill="#FF0000"/>
<path class="atom-25" d="M 581.4 218.9 L 582.4 218.9 L 582.4 222.3 L 586.5 222.3 L 586.5 218.9 L 587.6 218.9 L 587.6 226.9 L 586.5 226.9 L 586.5 223.2 L 582.4 223.2 L 582.4 226.9 L 581.4 226.9 L 581.4 218.9 " fill="#FF0000"/>
<path class="legend" d="M 551.7 380.4 Q 551.7 377.6, 553.0 376.1 Q 554.4 374.6, 556.9 374.6 Q 559.2 374.6, 560.5 376.3 L 559.4 377.1 Q 558.5 375.9, 556.9 375.9 Q 555.2 375.9, 554.3 377.1 Q 553.4 378.2, 553.4 380.4 Q 553.4 382.6, 554.3 383.8 Q 555.2 384.9, 557.1 384.9 Q 558.3 384.9, 559.8 384.2 L 560.2 385.4 Q 559.6 385.8, 558.7 386.0 Q 557.8 386.2, 556.8 386.2 Q 554.4 386.2, 553.0 384.7 Q 551.7 383.2, 551.7 380.4 " fill="#000000"/>
<path class="legend" d="M 561.9 382.0 Q 561.9 380.0, 562.9 378.8 Q 563.9 377.7, 565.8 377.7 Q 567.7 377.7, 568.7 378.8 Q 569.7 380.0, 569.7 382.0 Q 569.7 384.0, 568.7 385.1 Q 567.7 386.2, 565.8 386.2 Q 563.9 386.2, 562.9 385.1 Q 561.9 384.0, 561.9 382.0 M 563.4 382.0 Q 563.4 383.5, 564.1 384.2 Q 564.7 385.0, 565.8 385.0 Q 567.0 385.0, 567.6 384.2 Q 568.2 383.5, 568.2 382.0 Q 568.2 380.4, 567.6 379.7 Q 567.0 378.9, 565.8 378.9 Q 564.7 378.9, 564.1 379.7 Q 563.4 380.4, 563.4 382.0 " fill="#000000"/>
<path class="legend" d="M 580.8 377.7 Q 582.2 377.7, 582.9 378.5 Q 583.6 379.2, 583.6 380.6 L 583.6 386.1 L 582.1 386.1 L 582.1 380.8 Q 582.1 379.8, 581.7 379.3 Q 581.3 378.9, 580.5 378.9 Q 579.8 378.9, 579.1 379.2 Q 578.5 379.6, 578.2 380.2 Q 578.2 380.3, 578.2 380.6 L 578.2 386.1 L 576.7 386.1 L 576.7 380.8 Q 576.7 379.8, 576.3 379.3 Q 575.9 378.9, 575.1 378.9 Q 574.4 378.9, 573.8 379.2 Q 573.2 379.6, 572.8 380.2 L 572.8 386.1 L 571.3 386.1 L 571.3 377.9 L 572.5 377.9 L 572.7 379.0 Q 573.7 377.7, 575.4 377.7 Q 577.3 377.7, 577.9 379.2 Q 579.0 377.7, 580.8 377.7 " fill="#000000"/>
<path class="legend" d="M 589.4 377.7 Q 591.2 377.7, 592.1 378.8 Q 593.1 379.8, 593.1 381.8 Q 593.1 383.9, 591.9 385.1 Q 590.8 386.2, 588.8 386.2 Q 587.9 386.2, 587.1 386.0 L 587.1 390.0 L 585.6 390.0 L 585.6 377.9 L 586.8 377.9 L 587.0 378.8 Q 587.5 378.3, 588.1 378.0 Q 588.7 377.7, 589.4 377.7 M 588.8 385.0 Q 590.1 385.0, 590.8 384.2 Q 591.5 383.3, 591.5 381.8 Q 591.5 380.4, 590.9 379.7 Q 590.4 378.9, 589.3 378.9 Q 588.5 378.9, 587.9 379.3 Q 587.4 379.8, 587.1 380.5 L 587.1 384.8 Q 587.9 385.0, 588.8 385.0 " fill="#000000"/>
<path class="legend" d="M 594.6 382.0 Q 594.6 380.0, 595.6 378.8 Q 596.6 377.7, 598.5 377.7 Q 600.4 377.7, 601.4 378.8 Q 602.4 380.0, 602.4 382.0 Q 602.4 384.0, 601.4 385.1 Q 600.4 386.2, 598.5 386.2 Q 596.6 386.2, 595.6 385.1 Q 594.6 384.0, 594.6 382.0 M 596.1 382.0 Q 596.1 383.5, 596.7 384.2 Q 597.4 385.0, 598.5 385.0 Q 599.6 385.0, 600.2 384.2 Q 600.9 383.5, 600.9 382.0 Q 600.9 380.4, 600.2 379.7 Q 599.6 378.9, 598.5 378.9 Q 597.4 378.9, 596.7 379.7 Q 596.1 380.4, 596.1 382.0 " fill="#000000"/>
<path class="legend" d="M 610.9 377.9 L 610.9 386.1 L 609.7 386.1 L 609.5 384.9 Q 608.5 386.2, 606.8 386.2 Q 605.4 386.2, 604.7 385.5 Q 604.0 384.7, 604.0 383.3 L 604.0 377.9 L 605.5 377.9 L 605.5 383.2 Q 605.5 384.2, 605.8 384.6 Q 606.2 385.0, 607.0 385.0 Q 607.8 385.0, 608.4 384.7 Q 609.0 384.4, 609.4 383.7 L 609.4 377.9 L 610.9 377.9 " fill="#000000"/>
<path class="legend" d="M 617.4 377.7 Q 618.7 377.7, 619.4 378.5 Q 620.1 379.2, 620.1 380.6 L 620.1 386.1 L 618.6 386.1 L 618.6 380.8 Q 618.6 379.8, 618.2 379.3 Q 617.8 378.9, 617.0 378.9 Q 616.2 378.9, 615.6 379.2 Q 615.0 379.6, 614.6 380.2 L 614.6 386.1 L 613.1 386.1 L 613.1 377.9 L 614.3 377.9 L 614.5 379.0 Q 615.6 377.7, 617.4 377.7 " fill="#000000"/>
<path class="legend" d="M 629.6 373.9 L 629.6 386.1 L 628.4 386.1 L 628.2 385.1 Q 627.2 386.2, 625.7 386.2 Q 624.0 386.2, 623.0 385.2 Q 622.1 384.1, 622.1 382.1 Q 622.1 380.0, 623.2 378.9 Q 624.4 377.7, 626.3 377.7 Q 627.2 377.7, 628.1 377.9 L 628.1 373.9 L 629.6 373.9 M 625.8 385.0 Q 626.6 385.0, 627.2 384.6 Q 627.8 384.1, 628.1 383.3 L 628.1 379.1 Q 627.3 378.9, 626.3 378.9 Q 625.1 378.9, 624.4 379.7 Q 623.6 380.6, 623.6 382.1 Q 623.6 383.5, 624.2 384.3 Q 624.8 385.0, 625.8 385.0 " fill="#000000"/>
<path class="legend" d="M 639.8 386.9 L 639.8 388.2 L 631.7 388.2 L 631.7 386.9 L 639.8 386.9 " fill="#000000"/>
<path class="legend" d="M 640.7 376.9 Q 641.1 375.8, 642.1 375.2 Q 643.1 374.6, 644.5 374.6 Q 646.2 374.6, 647.1 375.6 Q 648.1 376.5, 648.1 378.1 Q 648.1 379.8, 646.8 381.4 Q 645.6 382.9, 643.0 384.8 L 648.3 384.8 L 648.3 386.1 L 640.6 386.1 L 640.6 385.0 Q 642.8 383.5, 644.0 382.4 Q 645.3 381.3, 645.9 380.3 Q 646.5 379.2, 646.5 378.2 Q 646.5 377.1, 645.9 376.5 Q 645.4 375.9, 644.5 375.9 Q 643.5 375.9, 642.9 376.3 Q 642.3 376.6, 641.9 377.5 L 640.7 376.9 " fill="#000000"/>
<path class="bond-0 atom-0 atom-1" d="M 1023.0,217.5 L 1022.9,205.4" style="fill:none;fill-rule:evenodd;stroke:#FF0000;stroke-width:2.0px;stroke-linecap:butt;stroke-linejoin:miter;stroke-opacity:1"/>
<path class="bond-0 atom-0 atom-1" d="M 1022.9,205.4 L 1022.8,193.2" style="fill:none;fill-rule:evenodd;stroke:#000000;stroke-width:2.0px;stroke-linecap:butt;stroke-linejoin:miter;stroke-opacity:1"/>
<path class="bond-0 atom-0 atom-1" d="M 1027.2,217.5 L 1027.2,205.3" style="fill:none;fill-rule:evenodd;stroke:#FF0000;stroke-width:2.0px;stroke-linecap:butt;stroke-linejoin:miter;stroke-opacity:1"/>
<path class="bond-0 atom-0 atom-1" d="M 1027.2,205.3 L 1027.1,193.1" style="fill:none;fill-rule:evenodd;stroke:#000000;stroke-width:2.0px;stroke-linecap:butt;stroke-linejoin:miter;stroke-opacity:1"/>
<path class="bond-1 atom-1 atom-2" d="M 1025.0,194.4 L 1049.2,180.1" style="fill:none;fill-rule:evenodd;stroke:#000000;stroke-width:2.0px;stroke-linecap:butt;stroke-linejoin:miter;stroke-opacity:1"/>
<path class="bond-2 atom-2 atom-3" d="M 1049.2,180.1 L 1073.7,194.0" style="fill:none;fill-rule:evenodd;stroke:#000000;stroke-width:2.0px;stroke-linecap:butt;stroke-linejoin:miter;stroke-opacity:1"/>
<path class="bond-3 atom-3 atom-4" d="M 1073.7,194.0 L 1097.9,179.8" style="fill:none;fill-rule:evenodd;stroke:#000000;stroke-width:2.0px;stroke-linecap:butt;stroke-linejoin:miter;stroke-opacity:1"/>
<path class="bond-4 atom-4 atom-5" d="M 1097.9,179.8 L 1122.4,193.6" style="fill:none;fill-rule:evenodd;stroke:#000000;stroke-width:2.0px;stroke-linecap:butt;stroke-linejoin:miter;stroke-opacity:1"/>
<path class="bond-4 atom-4 atom-5" d="M 1102.1,177.3 L 1122.4,188.8" style="fill:none;fill-rule:evenodd;stroke:#000000;stroke-width:2.0px;stroke-linecap:butt;stroke-linejoin:miter;stroke-opacity:1"/>
<path class="bond-5 atom-5 atom-6" d="M 1122.4,193.6 L 1146.6,179.4" style="fill:none;fill-rule:evenodd;stroke:#000000;stroke-width:2.0px;stroke-linecap:butt;stroke-linejoin:miter;stroke-opacity:1"/>
<path class="bond-6 atom-6 atom-7" d="M 1146.6,179.4 L 1146.4,151.3" style="fill:none;fill-rule:evenodd;stroke:#000000;stroke-width:2.0px;stroke-linecap:butt;stroke-linejoin:miter;stroke-opacity:1"/>
<path class="bond-6 atom-6 atom-7" d="M 1142.4,177.0 L 1142.2,153.7" style="fill:none;fill-rule:evenodd;stroke:#000000;stroke-width:2.0px;stroke-linecap:butt;stroke-linejoin:miter;stroke-opacity:1"/>
<path class="bond-7 atom-7 atom-8" d="M 1146.4,151.3 L 1156.3,145.5" style="fill:none;fill-rule:evenodd;stroke:#000000;stroke-width:2.0px;stroke-linecap:butt;stroke-linejoin:miter;stroke-opacity:1"/>
<path class="bond-7 atom-7 atom-8" d="M 1156.3,145.5 L 1166.1,139.7" style="fill:none;fill-rule:evenodd;stroke:#FF0000;stroke-width:2.0px;stroke-linecap:butt;stroke-linejoin:miter;stroke-opacity:1"/>
<path class="bond-8 atom-7 atom-9" d="M 1146.4,151.3 L 1122.0,137.4" style="fill:none;fill-rule:evenodd;stroke:#000000;stroke-width:2.0px;stroke-linecap:butt;stroke-linejoin:miter;stroke-opacity:1"/>
<path class="bond-9 atom-9 atom-10" d="M 1122.0,137.4 L 1097.7,151.6" style="fill:none;fill-rule:evenodd;stroke:#000000;stroke-width:2.0px;stroke-linecap:butt;stroke-linejoin:miter;stroke-opacity:1"/>
<path class="bond-9 atom-9 atom-10" d="M 1122.0,142.3 L 1102.0,154.0" style="fill:none;fill-rule:evenodd;stroke:#000000;stroke-width:2.0px;stroke-linecap:butt;stroke-linejoin:miter;stroke-opacity:1"/>
<path class="bond-10 atom-1 atom-11" d="M 1025.0,194.4 L 1000.5,180.5" style="fill:none;fill-rule:evenodd;stroke:#000000;stroke-width:2.0px;stroke-linecap:butt;stroke-linejoin:miter;stroke-opacity:1"/>
<path class="bond-11 atom-11 atom-12" d="M 1000.5,180.5 L 1000.3,152.4" style="fill:none;fill-rule:evenodd;stroke:#000000;stroke-width:2.0px;stroke-linecap:butt;stroke-linejoin:miter;stroke-opacity:1"/>
<path class="bond-12 atom-12 atom-13" d="M 1000.3,152.4 L 975.8,138.5" style="fill:none;fill-rule:evenodd;stroke:#000000;stroke-width:2.0px;stroke-linecap:butt;stroke-linejoin:miter;stroke-opacity:1"/>
<path class="bond-13 atom-13 atom-14" d="M 975.8,138.5 L 951.6,152.7" style="fill:none;fill-rule:evenodd;stroke:#000000;stroke-width:2.0px;stroke-linecap:butt;stroke-linejoin:miter;stroke-opacity:1"/>
<path class="bond-14 atom-14 atom-15" d="M 951.6,152.7 L 951.8,180.8" style="fill:none;fill-rule:evenodd;stroke:#000000;stroke-width:2.0px;stroke-linecap:butt;stroke-linejoin:miter;stroke-opacity:1"/>
<path class="bond-15 atom-15 atom-16" d="M 951.8,180.8 L 927.5,195.1" style="fill:none;fill-rule:evenodd;stroke:#000000;stroke-width:2.0px;stroke-linecap:butt;stroke-linejoin:miter;stroke-opacity:1"/>
<path class="bond-16 atom-16 atom-17" d="M 927.5,195.1 L 903.1,181.2" style="fill:none;fill-rule:evenodd;stroke:#000000;stroke-width:2.0px;stroke-linecap:butt;stroke-linejoin:miter;stroke-opacity:1"/>
<path class="bond-17 atom-17 atom-18" d="M 903.1,181.2 L 902.9,153.1" style="fill:none;fill-rule:evenodd;stroke:#000000;stroke-width:2.0px;stroke-linecap:butt;stroke-linejoin:miter;stroke-opacity:1"/>
<path class="bond-17 atom-17 atom-18" d="M 898.8,178.8 L 898.7,155.5" style="fill:none;fill-rule:evenodd;stroke:#000000;stroke-width:2.0px;stroke-linecap:butt;stroke-linejoin:miter;stroke-opacity:1"/>
<path class="bond-18 atom-18 atom-19" d="M 902.9,153.1 L 878.4,139.2" style="fill:none;fill-rule:evenodd;stroke:#000000;stroke-width:2.0px;stroke-linecap:butt;stroke-linejoin:miter;stroke-opacity:1"/>
<path class="bond-19 atom-19 atom-20" d="M 878.4,139.2 L 854.2,153.4" style="fill:none;fill-rule:evenodd;stroke:#000000;stroke-width:2.0px;stroke-linecap:butt;stroke-linejoin:miter;stroke-opacity:1"/>
<path class="bond-19 atom-19 atom-20" d="M 878.5,144.1 L 858.4,155.8" style="fill:none;fill-rule:evenodd;stroke:#000000;stroke-width:2.0px;stroke-linecap:butt;stroke-linejoin:miter;stroke-opacity:1"/>
<path class="bond-20 atom-20 atom-21" d="M 854.2,153.4 L 844.2,147.8" style="fill:none;fill-rule:evenodd;stroke:#000000;stroke-width:2.0px;stroke-linecap:butt;stroke-linejoin:miter;stroke-opacity:1"/>
<path class="bond-20 atom-20 atom-21" d="M 844.2,147.8 L 834.3,142.1" style="fill:none;fill-rule:evenodd;stroke:#FF0000;stroke-width:2.0px;stroke-linecap:butt;stroke-linejoin:miter;stroke-opacity:1"/>
<path class="bond-21 atom-20 atom-22" d="M 854.2,153.4 L 854.4,181.6" style="fill:none;fill-rule:evenodd;stroke:#000000;stroke-width:2.0px;stroke-linecap:butt;stroke-linejoin:miter;stroke-opacity:1"/>
<path class="bond-22 atom-22 atom-23" d="M 854.4,181.6 L 878.8,195.4" style="fill:none;fill-rule:evenodd;stroke:#000000;stroke-width:2.0px;stroke-linecap:butt;stroke-linejoin:miter;stroke-opacity:1"/>
<path class="bond-22 atom-22 atom-23" d="M 858.6,179.1 L 878.8,190.6" style="fill:none;fill-rule:evenodd;stroke:#000000;stroke-width:2.0px;stroke-linecap:butt;stroke-linejoin:miter;stroke-opacity:1"/>
<path class="bond-23 atom-15 atom-24" d="M 951.8,180.8 L 976.3,194.7" style="fill:none;fill-rule:evenodd;stroke:#000000;stroke-width:2.0px;stroke-linecap:butt;stroke-linejoin:miter;stroke-opacity:1"/>
<path class="bond-24 atom-24 atom-25" d="M 974.1,193.5 L 974.2,205.7" style="fill:none;fill-rule:evenodd;stroke:#000000;stroke-width:2.0px;stroke-linecap:butt;stroke-linejoin:miter;stroke-opacity:1"/>
<path class="bond-24 atom-24 atom-25" d="M 974.2,205.7 L 974.3,217.9" style="fill:none;fill-rule:evenodd;stroke:#FF0000;stroke-width:2.0px;stroke-linecap:butt;stroke-linejoin:miter;stroke-opacity:1"/>
<path class="bond-24 atom-24 atom-25" d="M 978.4,193.5 L 978.4,205.7" style="fill:none;fill-rule:evenodd;stroke:#000000;stroke-width:2.0px;stroke-linecap:butt;stroke-linejoin:miter;stroke-opacity:1"/>
<path class="bond-24 atom-24 atom-25" d="M 978.4,205.7 L 978.5,217.9" style="fill:none;fill-rule:evenodd;stroke:#FF0000;stroke-width:2.0px;stroke-linecap:butt;stroke-linejoin:miter;stroke-opacity:1"/>
<path class="bond-25 atom-10 atom-4" d="M 1097.7,151.6 L 1097.9,179.8" style="fill:none;fill-rule:evenodd;stroke:#000000;stroke-width:2.0px;stroke-linecap:butt;stroke-linejoin:miter;stroke-opacity:1"/>
<path class="bond-26 atom-24 atom-11" d="M 976.3,194.7 L 1000.5,180.5" style="fill:none;fill-rule:evenodd;stroke:#000000;stroke-width:2.0px;stroke-linecap:butt;stroke-linejoin:miter;stroke-opacity:1"/>
<path class="bond-27 atom-23 atom-17" d="M 878.8,195.4 L 903.1,181.2" style="fill:none;fill-rule:evenodd;stroke:#000000;stroke-width:2.0px;stroke-linecap:butt;stroke-linejoin:miter;stroke-opacity:1"/>
<path d="M 1026.2,193.6 L 1025.0,194.4 L 1023.7,193.7" style="fill:none;stroke:#000000;stroke-width:2.0px;stroke-linecap:butt;stroke-linejoin:miter;stroke-opacity:1;"/>
<path d="M 1048.0,180.8 L 1049.2,180.1 L 1050.4,180.8" style="fill:none;stroke:#000000;stroke-width:2.0px;stroke-linecap:butt;stroke-linejoin:miter;stroke-opacity:1;"/>
<path d="M 1072.5,193.3 L 1073.7,194.0 L 1074.9,193.3" style="fill:none;stroke:#000000;stroke-width:2.0px;stroke-linecap:butt;stroke-linejoin:miter;stroke-opacity:1;"/>
<path d="M 1121.2,192.9 L 1122.4,193.6 L 1123.6,192.9" style="fill:none;stroke:#000000;stroke-width:2.0px;stroke-linecap:butt;stroke-linejoin:miter;stroke-opacity:1;"/>
<path d="M 1145.4,180.1 L 1146.6,179.4 L 1146.6,178.0" style="fill:none;stroke:#000000;stroke-width:2.0px;stroke-linecap:butt;stroke-linejoin:miter;stroke-opacity:1;"/>
<path d="M 1123.2,138.1 L 1122.0,137.4 L 1120.8,138.1" style="fill:none;stroke:#000000;stroke-width:2.0px;stroke-linecap:butt;stroke-linejoin:miter;stroke-opacity:1;"/>
<path d="M 1098.9,150.9 L 1097.7,151.6 L 1097.7,153.0" style="fill:none;stroke:#000000;stroke-width:2.0px;stroke-linecap:butt;stroke-linejoin:miter;stroke-opacity:1;"/>
<path d="M 1000.3,153.8 L 1000.3,152.4 L 999.1,151.7" style="fill:none;stroke:#000000;stroke-width:2.0px;stroke-linecap:butt;stroke-linejoin:miter;stroke-opacity:1;"/>
<path d="M 977.1,139.2 L 975.8,138.5 L 974.6,139.2" style="fill:none;stroke:#000000;stroke-width:2.0px;stroke-linecap:butt;stroke-linejoin:miter;stroke-opacity:1;"/>
<path d="M 952.8,152.0 L 951.6,152.7 L 951.6,154.1" style="fill:none;stroke:#000000;stroke-width:2.0px;stroke-linecap:butt;stroke-linejoin:miter;stroke-opacity:1;"/>
<path d="M 928.8,194.4 L 927.5,195.1 L 926.3,194.4" style="fill:none;stroke:#000000;stroke-width:2.0px;stroke-linecap:butt;stroke-linejoin:miter;stroke-opacity:1;"/>
<path d="M 902.9,154.5 L 902.9,153.1 L 901.7,152.4" style="fill:none;stroke:#000000;stroke-width:2.0px;stroke-linecap:butt;stroke-linejoin:miter;stroke-opacity:1;"/>
<path d="M 879.6,139.9 L 878.4,139.2 L 877.2,139.9" style="fill:none;stroke:#000000;stroke-width:2.0px;stroke-linecap:butt;stroke-linejoin:miter;stroke-opacity:1;"/>
<path d="M 854.4,180.1 L 854.4,181.6 L 855.6,182.2" style="fill:none;stroke:#000000;stroke-width:2.0px;stroke-linecap:butt;stroke-linejoin:miter;stroke-opacity:1;"/>
<path d="M 877.6,194.7 L 878.8,195.4 L 880.0,194.7" style="fill:none;stroke:#000000;stroke-width:2.0px;stroke-linecap:butt;stroke-linejoin:miter;stroke-opacity:1;"/>
<path d="M 975.0,194.0 L 976.3,194.7 L 977.5,194.0" style="fill:none;stroke:#000000;stroke-width:2.0px;stroke-linecap:butt;stroke-linejoin:miter;stroke-opacity:1;"/>
<path class="atom-0" d="M 1021.5 222.5 Q 1021.5 220.6, 1022.5 219.5 Q 1023.4 218.5, 1025.2 218.5 Q 1026.9 218.5, 1027.9 219.5 Q 1028.8 220.6, 1028.8 222.5 Q 1028.8 224.4, 1027.9 225.5 Q 1026.9 226.6, 1025.2 226.6 Q 1023.4 226.6, 1022.5 225.5 Q 1021.5 224.5, 1021.5 222.5 M 1025.2 225.7 Q 1026.4 225.7, 1027.0 224.9 Q 1027.7 224.1, 1027.7 222.5 Q 1027.7 220.9, 1027.0 220.2 Q 1026.4 219.4, 1025.2 219.4 Q 1024.0 219.4, 1023.3 220.1 Q 1022.6 220.9, 1022.6 222.5 Q 1022.6 224.1, 1023.3 224.9 Q 1024.0 225.7, 1025.2 225.7 " fill="#FF0000"/>
<path class="atom-8" d="M 1167.0 137.1 Q 1167.0 135.1, 1168.0 134.1 Q 1168.9 133.0, 1170.7 133.0 Q 1172.5 133.0, 1173.4 134.1 Q 1174.3 135.1, 1174.3 137.1 Q 1174.3 139.0, 1173.4 140.1 Q 1172.4 141.2, 1170.7 141.2 Q 1168.9 141.2, 1168.0 140.1 Q 1167.0 139.0, 1167.0 137.1 M 1170.7 140.3 Q 1171.9 140.3, 1172.6 139.5 Q 1173.2 138.7, 1173.2 137.1 Q 1173.2 135.5, 1172.6 134.7 Q 1171.9 133.9, 1170.7 133.9 Q 1169.5 133.9, 1168.8 134.7 Q 1168.2 135.5, 1168.2 137.1 Q 1168.2 138.7, 1168.8 139.5 Q 1169.5 140.3, 1170.7 140.3 " fill="#FF0000"/>
<path class="atom-8" d="M 1175.6 133.1 L 1176.7 133.1 L 1176.7 136.5 L 1180.7 136.5 L 1180.7 133.1 L 1181.8 133.1 L 1181.8 141.1 L 1180.7 141.1 L 1180.7 137.4 L 1176.7 137.4 L 1176.7 141.1 L 1175.6 141.1 L 1175.6 133.1 " fill="#FF0000"/>
<path class="atom-21" d="M 818.2 135.6 L 819.3 135.6 L 819.3 139.0 L 823.3 139.0 L 823.3 135.6 L 824.4 135.6 L 824.4 143.6 L 823.3 143.6 L 823.3 139.9 L 819.3 139.9 L 819.3 143.6 L 818.2 143.6 L 818.2 135.6 " fill="#FF0000"/>
<path class="atom-21" d="M 826.0 139.6 Q 826.0 137.7, 827.0 136.6 Q 827.9 135.5, 829.7 135.5 Q 831.5 135.5, 832.4 136.6 Q 833.4 137.7, 833.4 139.6 Q 833.4 141.5, 832.4 142.6 Q 831.4 143.7, 829.7 143.7 Q 827.9 143.7, 827.0 142.6 Q 826.0 141.5, 826.0 139.6 M 829.7 142.8 Q 830.9 142.8, 831.6 142.0 Q 832.2 141.2, 832.2 139.6 Q 832.2 138.0, 831.6 137.2 Q 830.9 136.4, 829.7 136.4 Q 828.5 136.4, 827.8 137.2 Q 827.2 138.0, 827.2 139.6 Q 827.2 141.2, 827.8 142.0 Q 828.5 142.8, 829.7 142.8 " fill="#FF0000"/>
<path class="atom-25" d="M 972.8 222.9 Q 972.8 221.0, 973.8 219.9 Q 974.7 218.8, 976.5 218.8 Q 978.2 218.8, 979.2 219.9 Q 980.1 221.0, 980.1 222.9 Q 980.1 224.8, 979.2 225.9 Q 978.2 227.0, 976.5 227.0 Q 974.7 227.0, 973.8 225.9 Q 972.8 224.8, 972.8 222.9 M 976.5 226.1 Q 977.7 226.1, 978.3 225.3 Q 979.0 224.5, 979.0 222.9 Q 979.0 221.3, 978.3 220.5 Q 977.7 219.7, 976.5 219.7 Q 975.2 219.7, 974.6 220.5 Q 973.9 221.3, 973.9 222.9 Q 973.9 224.5, 974.6 225.3 Q 975.2 226.1, 976.5 226.1 " fill="#FF0000"/>
<path class="legend" d="M 951.7 380.4 Q 951.7 377.6, 953.0 376.1 Q 954.4 374.6, 956.9 374.6 Q 959.2 374.6, 960.5 376.3 L 959.4 377.1 Q 958.5 375.9, 956.9 375.9 Q 955.2 375.9, 954.3 377.1 Q 953.4 378.2, 953.4 380.4 Q 953.4 382.6, 954.3 383.8 Q 955.2 384.9, 957.1 384.9 Q 958.3 384.9, 959.8 384.2 L 960.2 385.4 Q 959.6 385.8, 958.7 386.0 Q 957.8 386.2, 956.8 386.2 Q 954.4 386.2, 953.0 384.7 Q 951.7 383.2, 951.7 380.4 " fill="#000000"/>
<path class="legend" d="M 961.9 382.0 Q 961.9 380.0, 962.9 378.8 Q 964.0 377.7, 965.8 377.7 Q 967.7 377.7, 968.7 378.8 Q 969.7 380.0, 969.7 382.0 Q 969.7 384.0, 968.7 385.1 Q 967.7 386.2, 965.8 386.2 Q 964.0 386.2, 962.9 385.1 Q 961.9 384.0, 961.9 382.0 M 963.5 382.0 Q 963.5 383.5, 964.1 384.2 Q 964.7 385.0, 965.8 385.0 Q 967.0 385.0, 967.6 384.2 Q 968.2 383.5, 968.2 382.0 Q 968.2 380.4, 967.6 379.7 Q 967.0 378.9, 965.8 378.9 Q 964.7 378.9, 964.1 379.7 Q 963.5 380.4, 963.5 382.0 " fill="#000000"/>
<path class="legend" d="M 980.8 377.7 Q 982.2 377.7, 982.9 378.5 Q 983.6 379.2, 983.6 380.6 L 983.6 386.1 L 982.1 386.1 L 982.1 380.8 Q 982.1 379.8, 981.7 379.3 Q 981.3 378.9, 980.5 378.9 Q 979.8 378.9, 979.2 379.2 Q 978.5 379.6, 978.2 380.2 Q 978.2 380.3, 978.2 380.6 L 978.2 386.1 L 976.7 386.1 L 976.7 380.8 Q 976.7 379.8, 976.3 379.3 Q 975.9 378.9, 975.1 378.9 Q 974.4 378.9, 973.8 379.2 Q 973.2 379.6, 972.8 380.2 L 972.8 386.1 L 971.3 386.1 L 971.3 377.9 L 972.5 377.9 L 972.7 379.0 Q 973.7 377.7, 975.4 377.7 Q 977.3 377.7, 977.9 379.2 Q 979.0 377.7, 980.8 377.7 " fill="#000000"/>
<path class="legend" d="M 989.5 377.7 Q 991.2 377.7, 992.1 378.8 Q 993.1 379.8, 993.1 381.8 Q 993.1 383.9, 991.9 385.1 Q 990.8 386.2, 988.8 386.2 Q 987.9 386.2, 987.1 386.0 L 987.1 390.0 L 985.6 390.0 L 985.6 377.9 L 986.8 377.9 L 987.0 378.8 Q 987.5 378.3, 988.1 378.0 Q 988.7 377.7, 989.5 377.7 M 988.8 385.0 Q 990.1 385.0, 990.8 384.2 Q 991.5 383.3, 991.5 381.8 Q 991.5 380.4, 991.0 379.7 Q 990.4 378.9, 989.4 378.9 Q 988.5 378.9, 987.9 379.3 Q 987.4 379.8, 987.1 380.5 L 987.1 384.8 Q 987.9 385.0, 988.8 385.0 " fill="#000000"/>
<path class="legend" d="M 994.6 382.0 Q 994.6 380.0, 995.6 378.8 Q 996.6 377.7, 998.5 377.7 Q 1000.4 377.7, 1001.4 378.8 Q 1002.4 380.0, 1002.4 382.0 Q 1002.4 384.0, 1001.4 385.1 Q 1000.4 386.2, 998.5 386.2 Q 996.6 386.2, 995.6 385.1 Q 994.6 384.0, 994.6 382.0 M 996.1 382.0 Q 996.1 383.5, 996.7 384.2 Q 997.4 385.0, 998.5 385.0 Q 999.6 385.0, 1000.2 384.2 Q 1000.9 383.5, 1000.9 382.0 Q 1000.9 380.4, 1000.2 379.7 Q 999.6 378.9, 998.5 378.9 Q 997.4 378.9, 996.7 379.7 Q 996.1 380.4, 996.1 382.0 " fill="#000000"/>
<path class="legend" d="M 1011.0 377.9 L 1011.0 386.1 L 1009.7 386.1 L 1009.5 384.9 Q 1008.5 386.2, 1006.8 386.2 Q 1005.4 386.2, 1004.7 385.5 Q 1004.0 384.7, 1004.0 383.3 L 1004.0 377.9 L 1005.5 377.9 L 1005.5 383.2 Q 1005.5 384.2, 1005.8 384.6 Q 1006.2 385.0, 1007.0 385.0 Q 1007.8 385.0, 1008.4 384.7 Q 1009.0 384.4, 1009.4 383.7 L 1009.4 377.9 L 1011.0 377.9 " fill="#000000"/>
<path class="legend" d="M 1017.4 377.7 Q 1018.7 377.7, 1019.4 378.5 Q 1020.1 379.2, 1020.1 380.6 L 1020.1 386.1 L 1018.6 386.1 L 1018.6 380.8 Q 1018.6 379.8, 1018.2 379.3 Q 1017.8 378.9, 1017.0 378.9 Q 1016.2 378.9, 1015.6 379.2 Q 1015.0 379.6, 1014.6 380.2 L 1014.6 386.1 L 1013.1 386.1 L 1013.1 377.9 L 1014.3 377.9 L 1014.5 379.0 Q 1015.6 377.7, 1017.4 377.7 " fill="#000000"/>
<path class="legend" d="M 1029.6 373.9 L 1029.6 386.1 L 1028.4 386.1 L 1028.2 385.1 Q 1027.2 386.2, 1025.7 386.2 Q 1024.0 386.2, 1023.1 385.2 Q 1022.1 384.1, 1022.1 382.1 Q 1022.1 380.0, 1023.2 378.9 Q 1024.4 377.7, 1026.3 377.7 Q 1027.2 377.7, 1028.1 377.9 L 1028.1 373.9 L 1029.6 373.9 M 1025.8 385.0 Q 1026.7 385.0, 1027.2 384.6 Q 1027.9 384.1, 1028.1 383.3 L 1028.1 379.1 Q 1027.3 378.9, 1026.4 378.9 Q 1025.1 378.9, 1024.4 379.7 Q 1023.6 380.6, 1023.6 382.1 Q 1023.6 383.5, 1024.2 384.3 Q 1024.8 385.0, 1025.8 385.0 " fill="#000000"/>
<path class="legend" d="M 1039.8 386.9 L 1039.8 388.2 L 1031.7 388.2 L 1031.7 386.9 L 1039.8 386.9 " fill="#000000"/>
<path class="legend" d="M 1046.1 380.1 Q 1047.2 380.4, 1047.7 381.2 Q 1048.3 381.9, 1048.3 383.0 Q 1048.3 383.9, 1047.8 384.7 Q 1047.3 385.4, 1046.4 385.8 Q 1045.5 386.2, 1044.4 386.2 Q 1043.2 386.2, 1042.3 385.8 Q 1041.4 385.4, 1040.7 384.5 L 1041.6 383.6 Q 1042.3 384.4, 1042.9 384.7 Q 1043.5 385.0, 1044.4 385.0 Q 1045.4 385.0, 1046.0 384.4 Q 1046.7 383.9, 1046.7 383.0 Q 1046.7 381.8, 1046.0 381.3 Q 1045.4 380.8, 1044.0 380.8 L 1043.2 380.8 L 1043.2 379.6 L 1043.9 379.6 Q 1045.1 379.6, 1045.8 379.1 Q 1046.4 378.5, 1046.4 377.5 Q 1046.4 376.8, 1045.9 376.4 Q 1045.3 375.9, 1044.4 375.9 Q 1043.5 375.9, 1042.9 376.2 Q 1042.3 376.6, 1041.9 377.4 L 1040.7 376.8 Q 1041.1 375.9, 1042.1 375.3 Q 1043.1 374.6, 1044.4 374.6 Q 1046.1 374.6, 1047.1 375.4 Q 1048.0 376.2, 1048.0 377.5 Q 1048.0 378.4, 1047.5 379.1 Q 1047.0 379.7, 1046.1 380.1 " fill="#000000"/>
</svg>