<svg xmlns="http://www.w3.org/2000/svg" xmlns:rdkit="http://www.rdkit.org/xml" xmlns:xlink="http://www.w3.org/1999/xlink" version="1.1" baseProfile="full" xml:space="preserve" width="1200px" height="400px" viewBox="0 0 1200 400">
<!-- END OF HEADER -->
<rect style="opacity:1.0;fill:#FFFFFF;stroke:none" width="1200.0" height="400.0" x="0.0" y="0.0"> </rect>
<path class="bond-0 atom-0 atom-1" d="M 228.3,224.0 L 228.2,208.9" style="fill:none;fill-rule:evenodd;stroke:#FF0000;stroke-width:2.0px;stroke-linecap:butt;stroke-linejoin:miter;stroke-opacity:1"/>
<path class="bond-0 atom-0 atom-1" d="M 228.2,208.9 L 228.0,193.7" style="fill:none;fill-rule:evenodd;stroke:#000000;stroke-width:2.0px;stroke-linecap:butt;stroke-linejoin:miter;stroke-opacity:1"/>
<path class="bond-0 atom-0 atom-1" d="M 233.6,224.0 L 233.4,208.8" style="fill:none;fill-rule:evenodd;stroke:#FF0000;stroke-width:2.0px;stroke-linecap:butt;stroke-linejoin:miter;stroke-opacity:1"/>
<path class="bond-0 atom-0 atom-1" d="M 233.4,208.8 L 233.2,193.7" style="fill:none;fill-rule:evenodd;stroke:#000000;stroke-width:2.0px;stroke-linecap:butt;stroke-linejoin:miter;stroke-opacity:1"/>
<path class="bond-1 atom-1 atom-2" d="M 230.6,195.2 L 260.7,177.4" style="fill:none;fill-rule:evenodd;stroke:#000000;stroke-width:2.0px;stroke-linecap:butt;stroke-linejoin:miter;stroke-opacity:1"/>
<path class="bond-2 atom-2 atom-3" d="M 260.7,177.4 L 291.1,194.6" style="fill:none;fill-rule:evenodd;stroke:#000000;stroke-width:2.0px;stroke-linecap:butt;stroke-linejoin:miter;stroke-opacity:1"/>
<path class="bond-2 atom-2 atom-3" d="M 260.8,183.5 L 288.6,199.1" style="fill:none;fill-rule:evenodd;stroke:#000000;stroke-width:2.0px;stroke-linecap:butt;stroke-linejoin:miter;stroke-opacity:1"/>
<path class="bond-3 atom-3 atom-4" d="M 291.1,194.6 L 321.2,176.8" style="fill:none;fill-rule:evenodd;stroke:#000000;stroke-width:2.0px;stroke-linecap:butt;stroke-linejoin:miter;stroke-opacity:1"/>
<path class="bond-4 atom-4 atom-5" d="M 321.2,176.8 L 351.7,193.9" style="fill:none;fill-rule:evenodd;stroke:#000000;stroke-width:2.0px;stroke-linecap:butt;stroke-linejoin:miter;stroke-opacity:1"/>
<path class="bond-4 atom-4 atom-5" d="M 326.4,173.7 L 351.6,187.9" style="fill:none;fill-rule:evenodd;stroke:#000000;stroke-width:2.0px;stroke-linecap:butt;stroke-linejoin:miter;stroke-opacity:1"/>
<path class="bond-5 atom-5 atom-6" d="M 351.7,193.9 L 381.7,176.1" style="fill:none;fill-rule:evenodd;stroke:#000000;stroke-width:2.0px;stroke-linecap:butt;stroke-linejoin:miter;stroke-opacity:1"/>
<path class="bond-6 atom-6 atom-7" d="M 381.7,176.1 L 381.4,141.2" style="fill:none;fill-rule:evenodd;stroke:#000000;stroke-width:2.0px;stroke-linecap:butt;stroke-linejoin:miter;stroke-opacity:1"/>
<path class="bond-6 atom-6 atom-7" d="M 376.5,173.2 L 376.2,144.3" style="fill:none;fill-rule:evenodd;stroke:#000000;stroke-width:2.0px;stroke-linecap:butt;stroke-linejoin:miter;stroke-opacity:1"/>
<path class="bond-7 atom-7 atom-8" d="M 381.4,141.2 L 350.9,124.0" style="fill:none;fill-rule:evenodd;stroke:#000000;stroke-width:2.0px;stroke-linecap:butt;stroke-linejoin:miter;stroke-opacity:1"/>
<path class="bond-8 atom-8 atom-9" d="M 350.9,124.0 L 320.8,141.8" style="fill:none;fill-rule:evenodd;stroke:#000000;stroke-width:2.0px;stroke-linecap:butt;stroke-linejoin:miter;stroke-opacity:1"/>
<path class="bond-8 atom-8 atom-9" d="M 351.0,130.1 L 326.1,144.8" style="fill:none;fill-rule:evenodd;stroke:#000000;stroke-width:2.0px;stroke-linecap:butt;stroke-linejoin:miter;stroke-opacity:1"/>
<path class="bond-9 atom-1 atom-10" d="M 230.6,195.2 L 200.2,178.1" style="fill:none;fill-rule:evenodd;stroke:#000000;stroke-width:2.0px;stroke-linecap:butt;stroke-linejoin:miter;stroke-opacity:1"/>
<path class="bond-10 atom-10 atom-11" d="M 200.2,178.1 L 199.8,143.1" style="fill:none;fill-rule:evenodd;stroke:#000000;stroke-width:2.0px;stroke-linecap:butt;stroke-linejoin:miter;stroke-opacity:1"/>
<path class="bond-11 atom-11 atom-12" d="M 199.8,143.1 L 169.4,126.0" style="fill:none;fill-rule:evenodd;stroke:#000000;stroke-width:2.0px;stroke-linecap:butt;stroke-linejoin:miter;stroke-opacity:1"/>
<path class="bond-12 atom-12 atom-13" d="M 169.4,126.0 L 139.3,143.8" style="fill:none;fill-rule:evenodd;stroke:#000000;stroke-width:2.0px;stroke-linecap:butt;stroke-linejoin:miter;stroke-opacity:1"/>
<path class="bond-13 atom-13 atom-14" d="M 139.3,143.8 L 139.7,178.7" style="fill:none;fill-rule:evenodd;stroke:#000000;stroke-width:2.0px;stroke-linecap:butt;stroke-linejoin:miter;stroke-opacity:1"/>
<path class="bond-14 atom-14 atom-15" d="M 139.7,178.7 L 109.6,196.5" style="fill:none;fill-rule:evenodd;stroke:#000000;stroke-width:2.0px;stroke-linecap:butt;stroke-linejoin:miter;stroke-opacity:1"/>
<path class="bond-14 atom-14 atom-15" d="M 134.4,175.7 L 109.5,190.4" style="fill:none;fill-rule:evenodd;stroke:#000000;stroke-width:2.0px;stroke-linecap:butt;stroke-linejoin:miter;stroke-opacity:1"/>
<path class="bond-15 atom-15 atom-16" d="M 109.6,196.5 L 79.2,179.4" style="fill:none;fill-rule:evenodd;stroke:#000000;stroke-width:2.0px;stroke-linecap:butt;stroke-linejoin:miter;stroke-opacity:1"/>
<path class="bond-16 atom-16 atom-17" d="M 79.2,179.4 L 78.8,144.4" style="fill:none;fill-rule:evenodd;stroke:#000000;stroke-width:2.0px;stroke-linecap:butt;stroke-linejoin:miter;stroke-opacity:1"/>
<path class="bond-16 atom-16 atom-17" d="M 73.9,176.4 L 73.6,147.5" style="fill:none;fill-rule:evenodd;stroke:#000000;stroke-width:2.0px;stroke-linecap:butt;stroke-linejoin:miter;stroke-opacity:1"/>
<path class="bond-17 atom-17 atom-18" d="M 78.8,144.4 L 48.3,127.3" style="fill:none;fill-rule:evenodd;stroke:#000000;stroke-width:2.0px;stroke-linecap:butt;stroke-linejoin:miter;stroke-opacity:1"/>
<path class="bond-18 atom-18 atom-19" d="M 48.3,127.3 L 18.3,145.1" style="fill:none;fill-rule:evenodd;stroke:#000000;stroke-width:2.0px;stroke-linecap:butt;stroke-linejoin:miter;stroke-opacity:1"/>
<path class="bond-18 atom-18 atom-19" d="M 48.4,133.3 L 23.5,148.0" style="fill:none;fill-rule:evenodd;stroke:#000000;stroke-width:2.0px;stroke-linecap:butt;stroke-linejoin:miter;stroke-opacity:1"/>
<path class="bond-19 atom-19 atom-20" d="M 18.3,145.1 L 18.6,180.0" style="fill:none;fill-rule:evenodd;stroke:#000000;stroke-width:2.0px;stroke-linecap:butt;stroke-linejoin:miter;stroke-opacity:1"/>
<path class="bond-20 atom-20 atom-21" d="M 18.6,180.0 L 49.1,197.1" style="fill:none;fill-rule:evenodd;stroke:#000000;stroke-width:2.0px;stroke-linecap:butt;stroke-linejoin:miter;stroke-opacity:1"/>
<path class="bond-20 atom-20 atom-21" d="M 23.8,176.9 L 49.0,191.1" style="fill:none;fill-rule:evenodd;stroke:#000000;stroke-width:2.0px;stroke-linecap:butt;stroke-linejoin:miter;stroke-opacity:1"/>
<path class="bond-21 atom-14 atom-22" d="M 139.7,178.7 L 170.1,195.9" style="fill:none;fill-rule:evenodd;stroke:#000000;stroke-width:2.0px;stroke-linecap:butt;stroke-linejoin:miter;stroke-opacity:1"/>
<path class="bond-22 atom-22 atom-23" d="M 167.5,194.4 L 167.6,209.5" style="fill:none;fill-rule:evenodd;stroke:#000000;stroke-width:2.0px;stroke-linecap:butt;stroke-linejoin:miter;stroke-opacity:1"/>
<path class="bond-22 atom-22 atom-23" d="M 167.6,209.5 L 167.8,224.7" style="fill:none;fill-rule:evenodd;stroke:#FF0000;stroke-width:2.0px;stroke-linecap:butt;stroke-linejoin:miter;stroke-opacity:1"/>
<path class="bond-22 atom-22 atom-23" d="M 172.7,194.3 L 172.9,209.5" style="fill:none;fill-rule:evenodd;stroke:#000000;stroke-width:2.0px;stroke-linecap:butt;stroke-linejoin:miter;stroke-opacity:1"/>
<path class="bond-22 atom-22 atom-23" d="M 172.9,209.5 L 173.0,224.6" style="fill:none;fill-rule:evenodd;stroke:#FF0000;stroke-width:2.0px;stroke-linecap:butt;stroke-linejoin:miter;stroke-opacity:1"/>
<path class="bond-23 atom-9 atom-4" d="M 320.8,141.8 L 321.2,176.8" style="fill:none;fill-rule:evenodd;stroke:#000000;stroke-width:2.0px;stroke-linecap:butt;stroke-linejoin:miter;stroke-opacity:1"/>
<path class="bond-24 atom-22 atom-10" d="M 170.1,195.9 L 200.2,178.1" style="fill:none;fill-rule:evenodd;stroke:#000000;stroke-width:2.0px;stroke-linecap:butt;stroke-linejoin:miter;stroke-opacity:1"/>
<path class="bond-25 atom-21 atom-16" d="M 49.1,197.1 L 79.2,179.4" style="fill:none;fill-rule:evenodd;stroke:#000000;stroke-width:2.0px;stroke-linecap:butt;stroke-linejoin:miter;stroke-opacity:1"/>
<path d="M 232.1,194.3 L 230.6,195.2 L 229.1,194.4" style="fill:none;stroke:#000000;stroke-width:2.0px;stroke-linecap:butt;stroke-linejoin:miter;stroke-opacity:1;"/>
<path d="M 259.2,178.3 L 260.7,177.4 L 262.2,178.3" style="fill:none;stroke:#000000;stroke-width:2.0px;stroke-linecap:butt;stroke-linejoin:miter;stroke-opacity:1;"/>
<path d="M 289.6,193.7 L 291.1,194.6 L 292.7,193.7" style="fill:none;stroke:#000000;stroke-width:2.0px;stroke-linecap:butt;stroke-linejoin:miter;stroke-opacity:1;"/>
<path d="M 350.1,193.1 L 351.7,193.9 L 353.2,193.0" style="fill:none;stroke:#000000;stroke-width:2.0px;stroke-linecap:butt;stroke-linejoin:miter;stroke-opacity:1;"/>
<path d="M 380.2,177.0 L 381.7,176.1 L 381.7,174.4" style="fill:none;stroke:#000000;stroke-width:2.0px;stroke-linecap:butt;stroke-linejoin:miter;stroke-opacity:1;"/>
<path d="M 381.4,142.9 L 381.4,141.2 L 379.8,140.3" style="fill:none;stroke:#000000;stroke-width:2.0px;stroke-linecap:butt;stroke-linejoin:miter;stroke-opacity:1;"/>
<path d="M 352.4,124.9 L 350.9,124.0 L 349.4,124.9" style="fill:none;stroke:#000000;stroke-width:2.0px;stroke-linecap:butt;stroke-linejoin:miter;stroke-opacity:1;"/>
<path d="M 322.4,140.9 L 320.8,141.8 L 320.9,143.6" style="fill:none;stroke:#000000;stroke-width:2.0px;stroke-linecap:butt;stroke-linejoin:miter;stroke-opacity:1;"/>
<path d="M 199.8,144.9 L 199.8,143.1 L 198.3,142.3" style="fill:none;stroke:#000000;stroke-width:2.0px;stroke-linecap:butt;stroke-linejoin:miter;stroke-opacity:1;"/>
<path d="M 170.9,126.8 L 169.4,126.0 L 167.9,126.9" style="fill:none;stroke:#000000;stroke-width:2.0px;stroke-linecap:butt;stroke-linejoin:miter;stroke-opacity:1;"/>
<path d="M 140.8,142.9 L 139.3,143.8 L 139.3,145.5" style="fill:none;stroke:#000000;stroke-width:2.0px;stroke-linecap:butt;stroke-linejoin:miter;stroke-opacity:1;"/>
<path d="M 111.1,195.6 L 109.6,196.5 L 108.1,195.6" style="fill:none;stroke:#000000;stroke-width:2.0px;stroke-linecap:butt;stroke-linejoin:miter;stroke-opacity:1;"/>
<path d="M 78.8,146.2 L 78.8,144.4 L 77.3,143.6" style="fill:none;stroke:#000000;stroke-width:2.0px;stroke-linecap:butt;stroke-linejoin:miter;stroke-opacity:1;"/>
<path d="M 49.9,128.1 L 48.3,127.3 L 46.8,128.2" style="fill:none;stroke:#000000;stroke-width:2.0px;stroke-linecap:butt;stroke-linejoin:miter;stroke-opacity:1;"/>
<path d="M 19.8,144.2 L 18.3,145.1 L 18.3,146.8" style="fill:none;stroke:#000000;stroke-width:2.0px;stroke-linecap:butt;stroke-linejoin:miter;stroke-opacity:1;"/>
<path d="M 18.6,178.2 L 18.6,180.0 L 20.2,180.9" style="fill:none;stroke:#000000;stroke-width:2.0px;stroke-linecap:butt;stroke-linejoin:miter;stroke-opacity:1;"/>
<path d="M 47.6,196.3 L 49.1,197.1 L 50.6,196.3" style="fill:none;stroke:#000000;stroke-width:2.0px;stroke-linecap:butt;stroke-linejoin:miter;stroke-opacity:1;"/>
<path d="M 168.6,195.0 L 170.1,195.9 L 171.6,195.0" style="fill:none;stroke:#000000;stroke-width:2.0px;stroke-linecap:butt;stroke-linejoin:miter;stroke-opacity:1;"/>
<path class="atom-0" d="M 226.5 230.2 Q 226.5 227.8, 227.6 226.5 Q 228.8 225.1, 231.0 225.1 Q 233.2 225.1, 234.4 226.5 Q 235.5 227.8, 235.5 230.2 Q 235.5 232.6, 234.4 234.0 Q 233.2 235.3, 231.0 235.3 Q 228.8 235.3, 227.6 234.0 Q 226.5 232.6, 226.5 230.2 M 231.0 234.2 Q 232.5 234.2, 233.3 233.2 Q 234.1 232.2, 234.1 230.2 Q 234.1 228.2, 233.3 227.3 Q 232.5 226.3, 231.0 226.3 Q 229.5 226.3, 228.7 227.2 Q 227.9 228.2, 227.9 230.2 Q 227.9 232.2, 228.7 233.2 Q 229.5 234.2, 231.0 234.2 " fill="#FF0000"/>
<path class="atom-23" d="M 165.9 230.8 Q 165.9 228.4, 167.1 227.1 Q 168.3 225.8, 170.5 225.8 Q 172.7 225.8, 173.9 227.1 Q 175.0 228.4, 175.0 230.8 Q 175.0 233.2, 173.8 234.6 Q 172.7 236.0, 170.5 236.0 Q 168.3 236.0, 167.1 234.6 Q 165.9 233.2, 165.9 230.8 M 170.5 234.8 Q 172.0 234.8, 172.8 233.8 Q 173.6 232.8, 173.6 230.8 Q 173.6 228.9, 172.8 227.9 Q 172.0 226.9, 170.5 226.9 Q 169.0 226.9, 168.2 227.9 Q 167.3 228.9, 167.3 230.8 Q 167.3 232.8, 168.2 233.8 Q 169.0 234.8, 170.5 234.8 " fill="#FF0000"/>
<path class="note" d="M 275.8 180.7 Q 275.8 179.7, 276.1 178.9 Q 276.4 178.0, 277.0 177.1 L 277.4 177.4 Q 276.9 178.2, 276.7 179.0 Q 276.5 179.7, 276.5 180.7 Q 276.5 181.6, 276.7 182.4 Q 276.9 183.1, 277.4 184.0 L 277.0 184.2 Q 276.4 183.3, 276.1 182.5 Q 275.8 181.7, 275.8 180.7 " fill="#000000"/>
<path class="note" d="M 277.8 177.7 L 280.7 177.7 L 280.7 178.3 L 278.4 178.3 L 278.4 179.8 L 280.5 179.8 L 280.5 180.4 L 278.4 180.4 L 278.4 182.1 L 280.8 182.1 L 280.8 182.7 L 277.8 182.7 L 277.8 177.7 " fill="#000000"/>
<path class="note" d="M 282.9 180.7 Q 282.9 181.7, 282.6 182.5 Q 282.3 183.3, 281.7 184.2 L 281.3 184.0 Q 281.8 183.1, 282.0 182.4 Q 282.2 181.6, 282.2 180.7 Q 282.2 179.7, 282.0 179.0 Q 281.8 178.2, 281.3 177.4 L 281.7 177.1 Q 282.3 178.0, 282.6 178.9 Q 282.9 179.7, 282.9 180.7 " fill="#000000"/>
<path class="note" d="M 124.7 194.4 Q 124.7 193.4, 125.0 192.6 Q 125.3 191.8, 125.8 190.9 L 126.2 191.1 Q 125.8 191.9, 125.5 192.7 Q 125.3 193.4, 125.3 194.4 Q 125.3 195.3, 125.5 196.1 Q 125.8 196.8, 126.2 197.7 L 125.8 197.9 Q 125.3 197.1, 125.0 196.2 Q 124.7 195.4, 124.7 194.4 " fill="#000000"/>
<path class="note" d="M 126.6 191.4 L 129.5 191.4 L 129.5 192.0 L 127.3 192.0 L 127.3 193.5 L 129.3 193.5 L 129.3 194.1 L 127.3 194.1 L 127.3 195.8 L 129.6 195.8 L 129.6 196.4 L 126.6 196.4 L 126.6 191.4 " fill="#000000"/>
<path class="note" d="M 131.7 194.4 Q 131.7 195.4, 131.4 196.2 Q 131.1 197.1, 130.6 197.9 L 130.2 197.7 Q 130.6 196.8, 130.8 196.1 Q 131.1 195.3, 131.1 194.4 Q 131.1 193.4, 130.8 192.7 Q 130.6 191.9, 130.2 191.1 L 130.6 190.9 Q 131.1 191.8, 131.4 192.6 Q 131.7 193.4, 131.7 194.4 " fill="#000000"/>
<path class="legend" d="M 152.2 380.4 Q 152.2 377.6, 153.5 376.1 Q 154.8 374.6, 157.3 374.6 Q 159.6 374.6, 160.9 376.3 L 159.8 377.1 Q 158.9 375.9, 157.3 375.9 Q 155.6 375.9, 154.7 377.1 Q 153.8 378.2, 153.8 380.4 Q 153.8 382.6, 154.7 383.8 Q 155.7 384.9, 157.5 384.9 Q 158.7 384.9, 160.2 384.2 L 160.6 385.4 Q 160.0 385.8, 159.2 386.0 Q 158.3 386.2, 157.3 386.2 Q 154.8 386.2, 153.5 384.7 Q 152.2 383.2, 152.2 380.4 " fill="#000000"/>
<path class="legend" d="M 162.3 382.0 Q 162.3 380.0, 163.3 378.8 Q 164.4 377.7, 166.2 377.7 Q 168.1 377.7, 169.1 378.8 Q 170.1 380.0, 170.1 382.0 Q 170.1 384.0, 169.1 385.1 Q 168.1 386.2, 166.2 386.2 Q 164.4 386.2, 163.3 385.1 Q 162.3 384.0, 162.3 382.0 M 163.9 382.0 Q 163.9 383.5, 164.5 384.2 Q 165.1 385.0, 166.2 385.0 Q 167.4 385.0, 168.0 384.2 Q 168.6 383.5, 168.6 382.0 Q 168.6 380.4, 168.0 379.7 Q 167.4 378.9, 166.2 378.9 Q 165.1 378.9, 164.5 379.7 Q 163.9 380.4, 163.9 382.0 " fill="#000000"/>
<path class="legend" d="M 181.2 377.7 Q 182.6 377.7, 183.3 378.5 Q 184.0 379.2, 184.0 380.6 L 184.0 386.1 L 182.5 386.1 L 182.5 380.8 Q 182.5 379.8, 182.1 379.3 Q 181.7 378.9, 180.9 378.9 Q 180.2 378.9, 179.6 379.2 Q 179.0 379.6, 178.6 380.2 Q 178.6 380.3, 178.6 380.6 L 178.6 386.1 L 177.1 386.1 L 177.1 380.8 Q 177.1 379.8, 176.7 379.3 Q 176.3 378.9, 175.5 378.9 Q 174.8 378.9, 174.2 379.2 Q 173.6 379.6, 173.2 380.2 L 173.2 386.1 L 171.7 386.1 L 171.7 377.9 L 172.9 377.9 L 173.1 379.0 Q 174.2 377.7, 175.8 377.7 Q 177.7 377.7, 178.3 379.2 Q 179.4 377.7, 181.2 377.7 " fill="#000000"/>
<path class="legend" d="M 189.9 377.7 Q 191.6 377.7, 192.5 378.8 Q 193.5 379.8, 193.5 381.8 Q 193.5 383.9, 192.3 385.1 Q 191.2 386.2, 189.2 386.2 Q 188.3 386.2, 187.5 386.0 L 187.5 390.0 L 186.0 390.0 L 186.0 377.9 L 187.2 377.9 L 187.4 378.8 Q 187.9 378.3, 188.5 378.0 Q 189.1 377.7, 189.9 377.7 M 189.2 385.0 Q 190.5 385.0, 191.2 384.2 Q 191.9 383.3, 191.9 381.8 Q 191.9 380.4, 191.4 379.7 Q 190.8 378.9, 189.8 378.9 Q 188.9 378.9, 188.4 379.3 Q 187.8 379.8, 187.5 380.5 L 187.5 384.8 Q 188.4 385.0, 189.2 385.0 " fill="#000000"/>
<path class="legend" d="M 195.0 382.0 Q 195.0 380.0, 196.0 378.8 Q 197.0 377.7, 198.9 377.7 Q 200.8 377.7, 201.8 378.8 Q 202.8 380.0, 202.8 382.0 Q 202.8 384.0, 201.8 385.1 Q 200.8 386.2, 198.9 386.2 Q 197.0 386.2, 196.0 385.1 Q 195.0 384.0, 195.0 382.0 M 196.5 382.0 Q 196.5 383.5, 197.1 384.2 Q 197.8 385.0, 198.9 385.0 Q 200.0 385.0, 200.6 384.2 Q 201.3 383.5, 201.3 382.0 Q 201.3 380.4, 200.6 379.7 Q 200.0 378.9, 198.9 378.9 Q 197.8 378.9, 197.1 379.7 Q 196.5 380.4, 196.5 382.0 " fill="#000000"/>
<path class="legend" d="M 211.3 377.9 L 211.3 386.1 L 210.1 386.1 L 209.9 384.9 Q 208.9 386.2, 207.1 386.2 Q 205.8 386.2, 205.1 385.5 Q 204.3 384.7, 204.3 383.3 L 204.3 377.9 L 205.9 377.9 L 205.9 383.2 Q 205.9 384.2, 206.2 384.6 Q 206.6 385.0, 207.4 385.0 Q 208.2 385.0, 208.8 384.7 Q 209.4 384.4, 209.8 383.7 L 209.8 377.9 L 211.3 377.9 " fill="#000000"/>
<path class="legend" d="M 217.7 377.7 Q 219.1 377.7, 219.7 378.5 Q 220.4 379.2, 220.4 380.6 L 220.4 386.1 L 218.9 386.1 L 218.9 380.8 Q 218.9 379.8, 218.6 379.3 Q 218.2 378.9, 217.4 378.9 Q 216.6 378.9, 216.0 379.2 Q 215.4 379.6, 215.0 380.2 L 215.0 386.1 L 213.5 386.1 L 213.5 377.9 L 214.7 377.9 L 214.9 379.0 Q 216.0 377.7, 217.7 377.7 " fill="#000000"/>
<path class="legend" d="M 230.0 373.9 L 230.0 386.1 L 228.7 386.1 L 228.5 385.1 Q 227.6 386.2, 226.1 386.2 Q 224.4 386.2, 223.4 385.2 Q 222.5 384.1, 222.5 382.1 Q 222.5 380.0, 223.6 378.9 Q 224.7 377.7, 226.7 377.7 Q 227.6 377.7, 228.5 377.9 L 228.5 373.9 L 230.0 373.9 M 226.2 385.0 Q 227.0 385.0, 227.6 384.6 Q 228.2 384.1, 228.5 383.3 L 228.5 379.1 Q 227.6 378.9, 226.7 378.9 Q 225.5 378.9, 224.7 379.7 Q 224.0 380.6, 224.0 382.1 Q 224.0 383.5, 224.6 384.3 Q 225.2 385.0, 226.2 385.0 " fill="#000000"/>
<path class="legend" d="M 240.2 386.9 L 240.2 388.2 L 232.0 388.2 L 232.0 386.9 L 240.2 386.9 " fill="#000000"/>
<path class="legend" d="M 241.6 384.8 L 244.1 384.8 L 244.1 376.3 L 241.4 377.2 L 241.0 376.2 L 244.5 374.7 L 245.6 374.9 L 245.6 384.8 L 247.8 384.8 L 247.8 386.1 L 241.6 386.1 L 241.6 384.8 " fill="#000000"/>
<path class="bond-0 atom-0 atom-1" d="M 628.7,224.7 L 628.4,209.5" style="fill:none;fill-rule:evenodd;stroke:#FF0000;stroke-width:2.0px;stroke-linecap:butt;stroke-linejoin:miter;stroke-opacity:1"/>
<path class="bond-0 atom-0 atom-1" d="M 628.4,209.5 L 628.2,194.4" style="fill:none;fill-rule:evenodd;stroke:#000000;stroke-width:2.0px;stroke-linecap:butt;stroke-linejoin:miter;stroke-opacity:1"/>
<path class="bond-0 atom-0 atom-1" d="M 633.9,224.6 L 633.7,209.5" style="fill:none;fill-rule:evenodd;stroke:#FF0000;stroke-width:2.0px;stroke-linecap:butt;stroke-linejoin:miter;stroke-opacity:1"/>
<path class="bond-0 atom-0 atom-1" d="M 633.7,209.5 L 633.4,194.3" style="fill:none;fill-rule:evenodd;stroke:#000000;stroke-width:2.0px;stroke-linecap:butt;stroke-linejoin:miter;stroke-opacity:1"/>
<path class="bond-1 atom-1 atom-2" d="M 630.8,195.9 L 660.8,177.9" style="fill:none;fill-rule:evenodd;stroke:#000000;stroke-width:2.0px;stroke-linecap:butt;stroke-linejoin:miter;stroke-opacity:1"/>
<path class="bond-2 atom-2 atom-3" d="M 660.8,177.9 L 691.3,194.9" style="fill:none;fill-rule:evenodd;stroke:#000000;stroke-width:2.0px;stroke-linecap:butt;stroke-linejoin:miter;stroke-opacity:1"/>
<path class="bond-3 atom-3 atom-4" d="M 691.3,194.9 L 721.3,176.9" style="fill:none;fill-rule:evenodd;stroke:#000000;stroke-width:2.0px;stroke-linecap:butt;stroke-linejoin:miter;stroke-opacity:1"/>
<path class="bond-4 atom-4 atom-5" d="M 721.3,176.9 L 751.8,193.9" style="fill:none;fill-rule:evenodd;stroke:#000000;stroke-width:2.0px;stroke-linecap:butt;stroke-linejoin:miter;stroke-opacity:1"/>
<path class="bond-4 atom-4 atom-5" d="M 726.5,173.8 L 751.7,187.9" style="fill:none;fill-rule:evenodd;stroke:#000000;stroke-width:2.0px;stroke-linecap:butt;stroke-linejoin:miter;stroke-opacity:1"/>
<path class="bond-5 atom-5 atom-6" d="M 751.8,193.9 L 781.8,176.0" style="fill:none;fill-rule:evenodd;stroke:#000000;stroke-width:2.0px;stroke-linecap:butt;stroke-linejoin:miter;stroke-opacity:1"/>
<path class="bond-6 atom-6 atom-7" d="M 781.8,176.0 L 781.3,141.0" style="fill:none;fill-rule:evenodd;stroke:#000000;stroke-width:2.0px;stroke-linecap:butt;stroke-linejoin:miter;stroke-opacity:1"/>
<path class="bond-6 atom-6 atom-7" d="M 776.5,173.0 L 776.1,144.1" style="fill:none;fill-rule:evenodd;stroke:#000000;stroke-width:2.0px;stroke-linecap:butt;stroke-linejoin:miter;stroke-opacity:1"/>
<path class="bond-7 atom-7 atom-8" d="M 781.3,141.0 L 750.7,124.0" style="fill:none;fill-rule:evenodd;stroke:#000000;stroke-width:2.0px;stroke-linecap:butt;stroke-linejoin:miter;stroke-opacity:1"/>
<path class="bond-8 atom-8 atom-9" d="M 750.7,124.0 L 720.7,142.0" style="fill:none;fill-rule:evenodd;stroke:#000000;stroke-width:2.0px;stroke-linecap:butt;stroke-linejoin:miter;stroke-opacity:1"/>
<path class="bond-8 atom-8 atom-9" d="M 750.8,130.1 L 726.0,144.9" style="fill:none;fill-rule:evenodd;stroke:#000000;stroke-width:2.0px;stroke-linecap:butt;stroke-linejoin:miter;stroke-opacity:1"/>
<path class="bond-9 atom-1 atom-10" d="M 630.8,195.9 L 600.3,178.9" style="fill:none;fill-rule:evenodd;stroke:#000000;stroke-width:2.0px;stroke-linecap:butt;stroke-linejoin:miter;stroke-opacity:1"/>
<path class="bond-10 atom-10 atom-11" d="M 600.3,178.9 L 599.7,143.9" style="fill:none;fill-rule:evenodd;stroke:#000000;stroke-width:2.0px;stroke-linecap:butt;stroke-linejoin:miter;stroke-opacity:1"/>
<path class="bond-10 atom-10 atom-11" d="M 595.0,175.9 L 594.5,147.1" style="fill:none;fill-rule:evenodd;stroke:#000000;stroke-width:2.0px;stroke-linecap:butt;stroke-linejoin:miter;stroke-opacity:1"/>
<path class="bond-11 atom-11 atom-12" d="M 599.7,143.9 L 569.2,127.0" style="fill:none;fill-rule:evenodd;stroke:#000000;stroke-width:2.0px;stroke-linecap:butt;stroke-linejoin:miter;stroke-opacity:1"/>
<path class="bond-12 atom-12 atom-13" d="M 569.2,127.0 L 539.2,144.9" style="fill:none;fill-rule:evenodd;stroke:#000000;stroke-width:2.0px;stroke-linecap:butt;stroke-linejoin:miter;stroke-opacity:1"/>
<path class="bond-12 atom-12 atom-13" d="M 569.3,133.0 L 544.5,147.9" style="fill:none;fill-rule:evenodd;stroke:#000000;stroke-width:2.0px;stroke-linecap:butt;stroke-linejoin:miter;stroke-opacity:1"/>
<path class="bond-13 atom-13 atom-14" d="M 539.2,144.9 L 539.8,179.9" style="fill:none;fill-rule:evenodd;stroke:#000000;stroke-width:2.0px;stroke-linecap:butt;stroke-linejoin:miter;stroke-opacity:1"/>
<path class="bond-14 atom-14 atom-15" d="M 539.8,179.9 L 509.8,197.8" style="fill:none;fill-rule:evenodd;stroke:#000000;stroke-width:2.0px;stroke-linecap:butt;stroke-linejoin:miter;stroke-opacity:1"/>
<path class="bond-15 atom-15 atom-16" d="M 509.8,197.8 L 479.3,180.8" style="fill:none;fill-rule:evenodd;stroke:#000000;stroke-width:2.0px;stroke-linecap:butt;stroke-linejoin:miter;stroke-opacity:1"/>
<path class="bond-16 atom-16 atom-17" d="M 479.3,180.8 L 478.7,145.9" style="fill:none;fill-rule:evenodd;stroke:#000000;stroke-width:2.0px;stroke-linecap:butt;stroke-linejoin:miter;stroke-opacity:1"/>
<path class="bond-16 atom-16 atom-17" d="M 474.0,177.9 L 473.5,149.0" style="fill:none;fill-rule:evenodd;stroke:#000000;stroke-width:2.0px;stroke-linecap:butt;stroke-linejoin:miter;stroke-opacity:1"/>
<path class="bond-17 atom-17 atom-18" d="M 478.7,145.9 L 448.2,128.9" style="fill:none;fill-rule:evenodd;stroke:#000000;stroke-width:2.0px;stroke-linecap:butt;stroke-linejoin:miter;stroke-opacity:1"/>
<path class="bond-18 atom-18 atom-19" d="M 448.2,128.9 L 418.2,146.9" style="fill:none;fill-rule:evenodd;stroke:#000000;stroke-width:2.0px;stroke-linecap:butt;stroke-linejoin:miter;stroke-opacity:1"/>
<path class="bond-18 atom-18 atom-19" d="M 448.3,135.0 L 423.5,149.8" style="fill:none;fill-rule:evenodd;stroke:#000000;stroke-width:2.0px;stroke-linecap:butt;stroke-linejoin:miter;stroke-opacity:1"/>
<path class="bond-19 atom-19 atom-20" d="M 418.2,146.9 L 418.7,181.8" style="fill:none;fill-rule:evenodd;stroke:#000000;stroke-width:2.0px;stroke-linecap:butt;stroke-linejoin:miter;stroke-opacity:1"/>
<path class="bond-20 atom-20 atom-21" d="M 418.7,181.8 L 449.3,198.8" style="fill:none;fill-rule:evenodd;stroke:#000000;stroke-width:2.0px;stroke-linecap:butt;stroke-linejoin:miter;stroke-opacity:1"/>
<path class="bond-20 atom-20 atom-21" d="M 423.9,178.7 L 449.2,192.7" style="fill:none;fill-rule:evenodd;stroke:#000000;stroke-width:2.0px;stroke-linecap:butt;stroke-linejoin:miter;stroke-opacity:1"/>
<path class="bond-21 atom-14 atom-22" d="M 539.8,179.9 L 570.3,196.8" style="fill:none;fill-rule:evenodd;stroke:#000000;stroke-width:2.0px;stroke-linecap:butt;stroke-linejoin:miter;stroke-opacity:1"/>
<path class="bond-21 atom-14 atom-22" d="M 545.0,176.7 L 570.2,190.8" style="fill:none;fill-rule:evenodd;stroke:#000000;stroke-width:2.0px;stroke-linecap:butt;stroke-linejoin:miter;stroke-opacity:1"/>
<path class="bond-22 atom-9 atom-4" d="M 720.7,142.0 L 721.3,176.9" style="fill:none;fill-rule:evenodd;stroke:#000000;stroke-width:2.0px;stroke-linecap:butt;stroke-linejoin:miter;stroke-opacity:1"/>
<path class="bond-23 atom-22 atom-10" d="M 570.3,196.8 L 600.3,178.9" style="fill:none;fill-rule:evenodd;stroke:#000000;stroke-width:2.0px;stroke-linecap:butt;stroke-linejoin:miter;stroke-opacity:1"/>
<path class="bond-24 atom-21 atom-16" d="M 449.3,198.8 L 479.3,180.8" style="fill:none;fill-rule:evenodd;stroke:#000000;stroke-width:2.0px;stroke-linecap:butt;stroke-linejoin:miter;stroke-opacity:1"/>
<path d="M 632.3,195.0 L 630.8,195.9 L 629.3,195.0" style="fill:none;stroke:#000000;stroke-width:2.0px;stroke-linecap:butt;stroke-linejoin:miter;stroke-opacity:1;"/>
<path d="M 659.3,178.8 L 660.8,177.9 L 662.3,178.8" style="fill:none;stroke:#000000;stroke-width:2.0px;stroke-linecap:butt;stroke-linejoin:miter;stroke-opacity:1;"/>
<path d="M 689.8,194.0 L 691.3,194.9 L 692.8,194.0" style="fill:none;stroke:#000000;stroke-width:2.0px;stroke-linecap:butt;stroke-linejoin:miter;stroke-opacity:1;"/>
<path d="M 750.3,193.1 L 751.8,193.9 L 753.3,193.0" style="fill:none;stroke:#000000;stroke-width:2.0px;stroke-linecap:butt;stroke-linejoin:miter;stroke-opacity:1;"/>
<path d="M 780.3,176.9 L 781.8,176.0 L 781.8,174.2" style="fill:none;stroke:#000000;stroke-width:2.0px;stroke-linecap:butt;stroke-linejoin:miter;stroke-opacity:1;"/>
<path d="M 781.3,142.8 L 781.3,141.0 L 779.7,140.2" style="fill:none;stroke:#000000;stroke-width:2.0px;stroke-linecap:butt;stroke-linejoin:miter;stroke-opacity:1;"/>
<path d="M 752.2,124.9 L 750.7,124.0 L 749.2,124.9" style="fill:none;stroke:#000000;stroke-width:2.0px;stroke-linecap:butt;stroke-linejoin:miter;stroke-opacity:1;"/>
<path d="M 722.2,141.1 L 720.7,142.0 L 720.8,143.7" style="fill:none;stroke:#000000;stroke-width:2.0px;stroke-linecap:butt;stroke-linejoin:miter;stroke-opacity:1;"/>
<path d="M 599.7,145.7 L 599.7,143.9 L 598.2,143.1" style="fill:none;stroke:#000000;stroke-width:2.0px;stroke-linecap:butt;stroke-linejoin:miter;stroke-opacity:1;"/>
<path d="M 570.7,127.8 L 569.2,127.0 L 567.7,127.9" style="fill:none;stroke:#000000;stroke-width:2.0px;stroke-linecap:butt;stroke-linejoin:miter;stroke-opacity:1;"/>
<path d="M 540.7,144.0 L 539.2,144.9 L 539.2,146.7" style="fill:none;stroke:#000000;stroke-width:2.0px;stroke-linecap:butt;stroke-linejoin:miter;stroke-opacity:1;"/>
<path d="M 511.3,196.9 L 509.8,197.8 L 508.3,197.0" style="fill:none;stroke:#000000;stroke-width:2.0px;stroke-linecap:butt;stroke-linejoin:miter;stroke-opacity:1;"/>
<path d="M 478.7,147.6 L 478.7,145.9 L 477.2,145.0" style="fill:none;stroke:#000000;stroke-width:2.0px;stroke-linecap:butt;stroke-linejoin:miter;stroke-opacity:1;"/>
<path d="M 449.7,129.8 L 448.2,128.9 L 446.7,129.8" style="fill:none;stroke:#000000;stroke-width:2.0px;stroke-linecap:butt;stroke-linejoin:miter;stroke-opacity:1;"/>
<path d="M 419.7,146.0 L 418.2,146.9 L 418.2,148.6" style="fill:none;stroke:#000000;stroke-width:2.0px;stroke-linecap:butt;stroke-linejoin:miter;stroke-opacity:1;"/>
<path d="M 418.7,180.0 L 418.7,181.8 L 420.3,182.6" style="fill:none;stroke:#000000;stroke-width:2.0px;stroke-linecap:butt;stroke-linejoin:miter;stroke-opacity:1;"/>
<path d="M 447.8,197.9 L 449.3,198.8 L 450.8,197.9" style="fill:none;stroke:#000000;stroke-width:2.0px;stroke-linecap:butt;stroke-linejoin:miter;stroke-opacity:1;"/>
<path d="M 568.8,196.0 L 570.3,196.8 L 571.8,195.9" style="fill:none;stroke:#000000;stroke-width:2.0px;stroke-linecap:butt;stroke-linejoin:miter;stroke-opacity:1;"/>
<path class="atom-0" d="M 626.8 230.8 Q 626.8 228.5, 628.0 227.1 Q 629.2 225.8, 631.4 225.8 Q 633.6 225.8, 634.7 227.1 Q 635.9 228.5, 635.9 230.8 Q 635.9 233.2, 634.7 234.6 Q 633.5 236.0, 631.4 236.0 Q 629.2 236.0, 628.0 234.6 Q 626.8 233.2, 626.8 230.8 M 631.4 234.8 Q 632.9 234.8, 633.7 233.8 Q 634.5 232.8, 634.5 230.8 Q 634.5 228.9, 633.7 227.9 Q 632.9 226.9, 631.4 226.9 Q 629.9 226.9, 629.0 227.9 Q 628.2 228.9, 628.2 230.8 Q 628.2 232.8, 629.0 233.8 Q 629.9 234.8, 631.4 234.8 " fill="#FF0000"/>
<path class="legend" d="M 551.7 380.4 Q 551.7 377.6, 553.0 376.1 Q 554.4 374.6, 556.9 374.6 Q 559.2 374.6, 560.5 376.3 L 559.4 377.1 Q 558.5 375.9, 556.9 375.9 Q 555.2 375.9, 554.3 377.1 Q 553.4 378.2, 553.4 380.4 Q 553.4 382.6, 554.3 383.8 Q 555.2 384.9, 557.1 384.9 Q 558.3 384.9, 559.8 384.2 L 560.2 385.4 Q 559.6 385.8, 558.7 386.0 Q 557.8 386.2, 556.8 386.2 Q 554.4 386.2, 553.0 384.7 Q 551.7 383.2, 551.7 380.4 " fill="#000000"/>
<path class="legend" d="M 561.9 382.0 Q 561.9 380.0, 562.9 378.8 Q 563.9 377.7, 565.8 377.7 Q 567.7 377.7, 568.7 378.8 Q 569.7 380.0, 569.7 382.0 Q 569.7 384.0, 568.7 385.1 Q 567.7 386.2, 565.8 386.2 Q 563.9 386.2, 562.9 385.1 Q 561.9 384.0, 561.9 382.0 M 563.4 382.0 Q 563.4 383.5, 564.1 384.2 Q 564.7 385.0, 565.8 385.0 Q 567.0 385.0, 567.6 384.2 Q 568.2 383.5, 568.2 382.0 Q 568.2 380.4, 567.6 379.7 Q 567.0 378.9, 565.8 378.9 Q 564.7 378.9, 564.1 379.7 Q 563.4 380.4, 563.4 382.0 " fill="#000000"/>
<path class="legend" d="M 580.8 377.7 Q 582.2 377.7, 582.9 378.5 Q 583.6 379.2, 583.6 380.6 L 583.6 386.1 L 582.1 386.1 L 582.1 380.8 Q 582.1 379.8, 581.7 379.3 Q 581.3 378.9, 580.5 378.9 Q 579.8 378.9, 579.1 379.2 Q 578.5 379.6, 578.2 380.2 Q 578.2 380.3, 578.2 380.6 L 578.2 386.1 L 576.7 386.1 L 576.7 380.8 Q 576.7 379.8, 576.3 379.3 Q 575.9 378.9, 575.1 378.9 Q 574.4 378.9, 573.8 379.2 Q 573.2 379.6, 572.8 380.2 L 572.8 386.1 L 571.3 386.1 L 571.3 377.9 L 572.5 377.9 L 572.7 379.0 Q 573.7 377.7, 575.4 377.7 Q 577.3 377.7, 577.9 379.2 Q 579.0 377.7, 580.8 377.7 " fill="#000000"/>
<path class="legend" d="M 589.4 377.7 Q 591.2 377.7, 592.1 378.8 Q 593.1 379.8, 593.1 381.8 Q 593.1 383.9, 591.9 385.1 Q 590.8 386.2, 588.8 386.2 Q 587.9 386.2, 587.1 386.0 L 587.1 390.0 L 585.6 390.0 L 585.6 377.9 L 586.8 377.9 L 587.0 378.8 Q 587.5 378.3, 588.1 378.0 Q 588.7 377.7, 589.4 377.7 M 588.8 385.0 Q 590.1 385.0, 590.8 384.2 Q 591.5 383.3, 591.5 381.8 Q 591.5 380.4, 590.9 379.7 Q 590.4 378.9, 589.3 378.9 Q 588.5 378.9, 587.9 379.3 Q 587.4 379.8, 587.1 380.5 L 587.1 384.8 Q 587.9 385.0, 588.8 385.0 " fill="#000000"/>
<path class="legend" d="M 594.6 382.0 Q 594.6 380.0, 595.6 378.8 Q 596.6 377.7, 598.5 377.7 Q 600.4 377.7, 601.4 378.8 Q 602.4 380.0, 602.4 382.0 Q 602.4 384.0, 601.4 385.1 Q 600.4 386.2, 598.5 386.2 Q 596.6 386.2, 595.6 385.1 Q 594.6 384.0, 594.6 382.0 M 596.1 382.0 Q 596.1 383.5, 596.7 384.2 Q 597.4 385.0, 598.5 385.0 Q 599.6 385.0, 600.2 384.2 Q 600.9 383.5, 600.9 382.0 Q 600.9 380.4, 600.2 379.7 Q 599.6 378.9, 598.5 378.9 Q 597.4 378.9, 596.7 379.7 Q 596.1 380.4, 596.1 382.0 " fill="#000000"/>
<path class="legend" d="M 610.9 377.9 L 610.9 386.1 L 609.7 386.1 L 609.5 384.9 Q 608.5 386.2, 606.8 386.2 Q 605.4 386.2, 604.7 385.5 Q 604.0 384.7, 604.0 383.3 L 604.0 377.9 L 605.5 377.9 L 605.5 383.2 Q 605.5 384.2, 605.8 384.6 Q 606.2 385.0, 607.0 385.0 Q 607.8 385.0, 608.4 384.7 Q 609.0 384.4, 609.4 383.7 L 609.4 377.9 L 610.9 377.9 " fill="#000000"/>
<path class="legend" d="M 617.4 377.7 Q 618.7 377.7, 619.4 378.5 Q 620.1 379.2, 620.1 380.6 L 620.1 386.1 L 618.6 386.1 L 618.6 380.8 Q 618.6 379.8, 618.2 379.3 Q 617.8 378.9, 617.0 378.9 Q 616.2 378.9, 615.6 379.2 Q 615.0 379.6, 614.6 380.2 L 614.6 386.1 L 613.1 386.1 L 613.1 377.9 L 614.3 377.9 L 614.5 379.0 Q 615.6 377.7, 617.4 377.7 " fill="#000000"/>
<path class="legend" d="M 629.6 373.9 L 629.6 386.1 L 628.4 386.1 L 628.2 385.1 Q 627.2 386.2, 625.7 386.2 Q 624.0 386.2, 623.0 385.2 Q 622.1 384.1, 622.1 382.1 Q 622.1 380.0, 623.2 378.9 Q 624.4 377.7, 626.3 377.7 Q 627.2 377.7, 628.1 377.9 L 628.1 373.9 L 629.6 373.9 M 625.8 385.0 Q 626.6 385.0, 627.2 384.6 Q 627.8 384.1, 628.1 383.3 L 628.1 379.1 Q 627.3 378.9, 626.3 378.9 Q 625.1 378.9, 624.4 379.7 Q 623.6 380.6, 623.6 382.1 Q 623.6 383.5, 624.2 384.3 Q 624.8 385.0, 625.8 385.0 " fill="#000000"/>
<path class="legend" d="M 639.8 386.9 L 639.8 388.2 L 631.7 388.2 L 631.7 386.9 L 639.8 386.9 " fill="#000000"/>
<path class="legend" d="M 640.7 376.9 Q 641.1 375.8, 642.1 375.2 Q 643.1 374.6, 644.5 374.6 Q 646.2 374.6, 647.1 375.6 Q 648.1 376.5, 648.1 378.1 Q 648.1 379.8, 646.8 381.4 Q 645.6 382.9, 643.0 384.8 L 648.3 384.8 L 648.3 386.1 L 640.6 386.1 L 640.6 385.0 Q 642.8 383.5, 644.0 382.4 Q 645.3 381.3, 645.9 380.3 Q 646.5 379.2, 646.5 378.2 Q 646.5 377.1, 645.9 376.5 Q 645.4 375.9, 644.5 375.9 Q 643.5 375.9, 642.9 376.3 Q 642.3 376.6, 641.9 377.5 L 640.7 376.9 " fill="#000000"/>
<path class="bond-0 atom-0 atom-1" d="M 1028.3,224.0 L 1028.2,208.9" style="fill:none;fill-rule:evenodd;stroke:#FF0000;stroke-width:2.0px;stroke-linecap:butt;stroke-linejoin:miter;stroke-opacity:1"/>
<path class="bond-0 atom-0 atom-1" d="M 1028.2,208.9 L 1028.0,193.7" style="fill:none;fill-rule:evenodd;stroke:#000000;stroke-width:2.0px;stroke-linecap:butt;stroke-linejoin:miter;stroke-opacity:1"/>
<path class="bond-0 atom-0 atom-1" d="M 1033.6,224.0 L 1033.4,208.8" style="fill:none;fill-rule:evenodd;stroke:#FF0000;stroke-width:2.0px;stroke-linecap:butt;stroke-linejoin:miter;stroke-opacity:1"/>
<path class="bond-0 atom-0 atom-1" d="M 1033.4,208.8 L 1033.2,193.7" style="fill:none;fill-rule:evenodd;stroke:#000000;stroke-width:2.0px;stroke-linecap:butt;stroke-linejoin:miter;stroke-opacity:1"/>
<path class="bond-1 atom-1 atom-2" d="M 1030.6,195.2 L 1060.7,177.4" style="fill:none;fill-rule:evenodd;stroke:#000000;stroke-width:2.0px;stroke-linecap:butt;stroke-linejoin:miter;stroke-opacity:1"/>
<path class="bond-2 atom-2 atom-3" d="M 1060.7,177.4 L 1091.1,194.6" style="fill:none;fill-rule:evenodd;stroke:#000000;stroke-width:2.0px;stroke-linecap:butt;stroke-linejoin:miter;stroke-opacity:1"/>
<path class="bond-3 atom-3 atom-4" d="M 1091.1,194.6 L 1121.2,176.8" style="fill:none;fill-rule:evenodd;stroke:#000000;stroke-width:2.0px;stroke-linecap:butt;stroke-linejoin:miter;stroke-opacity:1"/>
<path class="bond-4 atom-4 atom-5" d="M 1121.2,176.8 L 1151.7,193.9" style="fill:none;fill-rule:evenodd;stroke:#000000;stroke-width:2.0px;stroke-linecap:butt;stroke-linejoin:miter;stroke-opacity:1"/>
<path class="bond-4 atom-4 atom-5" d="M 1126.4,173.7 L 1151.6,187.9" style="fill:none;fill-rule:evenodd;stroke:#000000;stroke-width:2.0px;stroke-linecap:butt;stroke-linejoin:miter;stroke-opacity:1"/>
<path class="bond-5 atom-5 atom-6" d="M 1151.7,193.9 L 1181.7,176.1" style="fill:none;fill-rule:evenodd;stroke:#000000;stroke-width:2.0px;stroke-linecap:butt;stroke-linejoin:miter;stroke-opacity:1"/>
<path class="bond-6 atom-6 atom-7" d="M 1181.7,176.1 L 1181.4,141.2" style="fill:none;fill-rule:evenodd;stroke:#000000;stroke-width:2.0px;stroke-linecap:butt;stroke-linejoin:miter;stroke-opacity:1"/>
<path class="bond-6 atom-6 atom-7" d="M 1176.5,173.2 L 1176.2,144.3" style="fill:none;fill-rule:evenodd;stroke:#000000;stroke-width:2.0px;stroke-linecap:butt;stroke-linejoin:miter;stroke-opacity:1"/>
<path class="bond-7 atom-7 atom-8" d="M 1181.4,141.2 L 1150.9,124.0" style="fill:none;fill-rule:evenodd;stroke:#000000;stroke-width:2.0px;stroke-linecap:butt;stroke-linejoin:miter;stroke-opacity:1"/>
<path class="bond-8 atom-8 atom-9" d="M 1150.9,124.0 L 1120.8,141.8" style="fill:none;fill-rule:evenodd;stroke:#000000;stroke-width:2.0px;stroke-linecap:butt;stroke-linejoin:miter;stroke-opacity:1"/>
<path class="bond-8 atom-8 atom-9" d="M 1151.0,130.1 L 1126.1,144.8" style="fill:none;fill-rule:evenodd;stroke:#000000;stroke-width:2.0px;stroke-linecap:butt;stroke-linejoin:miter;stroke-opacity:1"/>
<path class="bond-9 atom-1 atom-10" d="M 1030.6,195.2 L 1000.2,178.1" style="fill:none;fill-rule:evenodd;stroke:#000000;stroke-width:2.0px;stroke-linecap:butt;stroke-linejoin:miter;stroke-opacity:1"/>
<path class="bond-10 atom-10 atom-11" d="M 1000.2,178.1 L 999.8,143.1" style="fill:none;fill-rule:evenodd;stroke:#000000;stroke-width:2.0px;stroke-linecap:butt;stroke-linejoin:miter;stroke-opacity:1"/>
<path class="bond-11 atom-11 atom-12" d="M 999.8,143.1 L 969.4,126.0" style="fill:none;fill-rule:evenodd;stroke:#000000;stroke-width:2.0px;stroke-linecap:butt;stroke-linejoin:miter;stroke-opacity:1"/>
<path class="bond-12 atom-12 atom-13" d="M 969.4,126.0 L 939.3,143.8" style="fill:none;fill-rule:evenodd;stroke:#000000;stroke-width:2.0px;stroke-linecap:butt;stroke-linejoin:miter;stroke-opacity:1"/>
<path class="bond-13 atom-13 atom-14" d="M 939.3,143.8 L 939.7,178.7" style="fill:none;fill-rule:evenodd;stroke:#000000;stroke-width:2.0px;stroke-linecap:butt;stroke-linejoin:miter;stroke-opacity:1"/>
<path class="bond-14 atom-14 atom-15" d="M 939.7,178.7 L 909.6,196.5" style="fill:none;fill-rule:evenodd;stroke:#000000;stroke-width:2.0px;stroke-linecap:butt;stroke-linejoin:miter;stroke-opacity:1"/>
<path class="bond-15 atom-15 atom-16" d="M 909.6,196.5 L 879.2,179.4" style="fill:none;fill-rule:evenodd;stroke:#000000;stroke-width:2.0px;stroke-linecap:butt;stroke-linejoin:miter;stroke-opacity:1"/>
<path class="bond-16 atom-16 atom-17" d="M 879.2,179.4 L 878.8,144.4" style="fill:none;fill-rule:evenodd;stroke:#000000;stroke-width:2.0px;stroke-linecap:butt;stroke-linejoin:miter;stroke-opacity:1"/>
<path class="bond-16 atom-16 atom-17" d="M 873.9,176.4 L 873.6,147.5" style="fill:none;fill-rule:evenodd;stroke:#000000;stroke-width:2.0px;stroke-linecap:butt;stroke-linejoin:miter;stroke-opacity:1"/>
<path class="bond-17 atom-17 atom-18" d="M 878.8,144.4 L 848.3,127.3" style="fill:none;fill-rule:evenodd;stroke:#000000;stroke-width:2.0px;stroke-linecap:butt;stroke-linejoin:miter;stroke-opacity:1"/>
<path class="bond-18 atom-18 atom-19" d="M 848.3,127.3 L 818.3,145.1" style="fill:none;fill-rule:evenodd;stroke:#000000;stroke-width:2.0px;stroke-linecap:butt;stroke-linejoin:miter;stroke-opacity:1"/>
<path class="bond-18 atom-18 atom-19" d="M 848.4,133.3 L 823.5,148.0" style="fill:none;fill-rule:evenodd;stroke:#000000;stroke-width:2.0px;stroke-linecap:butt;stroke-linejoin:miter;stroke-opacity:1"/>
<path class="bond-19 atom-19 atom-20" d="M 818.3,145.1 L 818.6,180.0" style="fill:none;fill-rule:evenodd;stroke:#000000;stroke-width:2.0px;stroke-linecap:butt;stroke-linejoin:miter;stroke-opacity:1"/>
<path class="bond-20 atom-20 atom-21" d="M 818.6,180.0 L 849.1,197.1" style="fill:none;fill-rule:evenodd;stroke:#000000;stroke-width:2.0px;stroke-linecap:butt;stroke-linejoin:miter;stroke-opacity:1"/>
<path class="bond-20 atom-20 atom-21" d="M 823.8,176.9 L 849.0,191.1" style="fill:none;fill-rule:evenodd;stroke:#000000;stroke-width:2.0px;stroke-linecap:butt;stroke-linejoin:miter;stroke-opacity:1"/>
<path class="bond-21 atom-14 atom-22" d="M 939.7,178.7 L 970.1,195.9" style="fill:none;fill-rule:evenodd;stroke:#000000;stroke-width:2.0px;stroke-linecap:butt;stroke-linejoin:miter;stroke-opacity:1"/>
<path class="bond-22 atom-22 atom-23" d="M 967.5,194.4 L 967.6,209.5" style="fill:none;fill-rule:evenodd;stroke:#000000;stroke-width:2.0px;stroke-linecap:butt;stroke-linejoin:miter;stroke-opacity:1"/>
<path class="bond-22 atom-22 atom-23" d="M 967.6,209.5 L 967.8,224.7" style="fill:none;fill-rule:evenodd;stroke:#FF0000;stroke-width:2.0px;stroke-linecap:butt;stroke-linejoin:miter;stroke-opacity:1"/>
<path class="bond-22 atom-22 atom-23" d="M 972.7,194.3 L 972.9,209.5" style="fill:none;fill-rule:evenodd;stroke:#000000;stroke-width:2.0px;stroke-linecap:butt;stroke-linejoin:miter;stroke-opacity:1"/>
<path class="bond-22 atom-22 atom-23" d="M 972.9,209.5 L 973.0,224.6" style="fill:none;fill-rule:evenodd;stroke:#FF0000;stroke-width:2.0px;stroke-linecap:butt;stroke-linejoin:miter;stroke-opacity:1"/>
<path class="bond-23 atom-9 atom-4" d="M 1120.8,141.8 L 1121.2,176.8" style="fill:none;fill-rule:evenodd;stroke:#000000;stroke-width:2.0px;stroke-linecap:butt;stroke-linejoin:miter;stroke-opacity:1"/>
<path class="bond-24 atom-22 atom-10" d="M 970.1,195.9 L 1000.2,178.1" style="fill:none;fill-rule:evenodd;stroke:#000000;stroke-width:2.0px;stroke-linecap:butt;stroke-linejoin:miter;stroke-opacity:1"/>
<path class="bond-25 atom-21 atom-16" d="M 849.1,197.1 L 879.2,179.4" style="fill:none;fill-rule:evenodd;stroke:#000000;stroke-width:2.0px;stroke-linecap:butt;stroke-linejoin:miter;stroke-opacity:1"/>
<path d="M 1032.1,194.3 L 1030.6,195.2 L 1029.1,194.4" style="fill:none;stroke:#000000;stroke-width:2.0px;stroke-linecap:butt;stroke-linejoin:miter;stroke-opacity:1;"/>
<path d="M 1059.2,178.3 L 1060.7,177.4 L 1062.2,178.3" style="fill:none;stroke:#000000;stroke-width:2.0px;stroke-linecap:butt;stroke-linejoin:miter;stroke-opacity:1;"/>
<path d="M 1089.6,193.7 L 1091.1,194.6 L 1092.7,193.7" style="fill:none;stroke:#000000;stroke-width:2.0px;stroke-linecap:butt;stroke-linejoin:miter;stroke-opacity:1;"/>
<path d="M 1150.1,193.1 L 1151.7,193.9 L 1153.2,193.0" style="fill:none;stroke:#000000;stroke-width:2.0px;stroke-linecap:butt;stroke-linejoin:miter;stroke-opacity:1;"/>
<path d="M 1180.2,177.0 L 1181.7,176.1 L 1181.7,174.4" style="fill:none;stroke:#000000;stroke-width:2.0px;stroke-linecap:butt;stroke-linejoin:miter;stroke-opacity:1;"/>
<path d="M 1181.4,142.9 L 1181.4,141.2 L 1179.8,140.3" style="fill:none;stroke:#000000;stroke-width:2.0px;stroke-linecap:butt;stroke-linejoin:miter;stroke-opacity:1;"/>
<path d="M 1152.4,124.9 L 1150.9,124.0 L 1149.4,124.9" style="fill:none;stroke:#000000;stroke-width:2.0px;stroke-linecap:butt;stroke-linejoin:miter;stroke-opacity:1;"/>
<path d="M 1122.4,140.9 L 1120.8,141.8 L 1120.9,143.6" style="fill:none;stroke:#000000;stroke-width:2.0px;stroke-linecap:butt;stroke-linejoin:miter;stroke-opacity:1;"/>
<path d="M 999.8,144.9 L 999.8,143.1 L 998.3,142.3" style="fill:none;stroke:#000000;stroke-width:2.0px;stroke-linecap:butt;stroke-linejoin:miter;stroke-opacity:1;"/>
<path d="M 970.9,126.8 L 969.4,126.0 L 967.9,126.9" style="fill:none;stroke:#000000;stroke-width:2.0px;stroke-linecap:butt;stroke-linejoin:miter;stroke-opacity:1;"/>
<path d="M 940.8,142.9 L 939.3,143.8 L 939.3,145.5" style="fill:none;stroke:#000000;stroke-width:2.0px;stroke-linecap:butt;stroke-linejoin:miter;stroke-opacity:1;"/>
<path d="M 911.1,195.6 L 909.6,196.5 L 908.1,195.6" style="fill:none;stroke:#000000;stroke-width:2.0px;stroke-linecap:butt;stroke-linejoin:miter;stroke-opacity:1;"/>
<path d="M 878.8,146.2 L 878.8,144.4 L 877.3,143.6" style="fill:none;stroke:#000000;stroke-width:2.0px;stroke-linecap:butt;stroke-linejoin:miter;stroke-opacity:1;"/>
<path d="M 849.9,128.1 L 848.3,127.3 L 846.8,128.2" style="fill:none;stroke:#000000;stroke-width:2.0px;stroke-linecap:butt;stroke-linejoin:miter;stroke-opacity:1;"/>
<path d="M 819.8,144.2 L 818.3,145.1 L 818.3,146.8" style="fill:none;stroke:#000000;stroke-width:2.0px;stroke-linecap:butt;stroke-linejoin:miter;stroke-opacity:1;"/>
<path d="M 818.6,178.2 L 818.6,180.0 L 820.2,180.9" style="fill:none;stroke:#000000;stroke-width:2.0px;stroke-linecap:butt;stroke-linejoin:miter;stroke-opacity:1;"/>
<path d="M 847.6,196.3 L 849.1,197.1 L 850.6,196.3" style="fill:none;stroke:#000000;stroke-width:2.0px;stroke-linecap:butt;stroke-linejoin:miter;stroke-opacity:1;"/>
<path d="M 968.6,195.0 L 970.1,195.9 L 971.6,195.0" style="fill:none;stroke:#000000;stroke-width:2.0px;stroke-linecap:butt;stroke-linejoin:miter;stroke-opacity:1;"/>
<path class="atom-0" d="M 1026.5 230.2 Q 1026.5 227.8, 1027.6 226.5 Q 1028.8 225.1, 1031.0 225.1 Q 1033.2 225.1, 1034.4 226.5 Q 1035.5 227.8, 1035.5 230.2 Q 1035.5 232.6, 1034.4 234.0 Q 1033.2 235.3, 1031.0 235.3 Q 1028.8 235.3, 1027.6 234.0 Q 1026.5 232.6, 1026.5 230.2 M 1031.0 234.2 Q 1032.5 234.2, 1033.3 233.2 Q 1034.1 232.2, 1034.1 230.2 Q 1034.1 228.2, 1033.3 227.3 Q 1032.5 226.3, 1031.0 226.3 Q 1029.5 226.3, 1028.7 227.2 Q 1027.9 228.2, 1027.9 230.2 Q 1027.9 232.2, 1028.7 233.2 Q 1029.5 234.2, 1031.0 234.2 " fill="#FF0000"/>
<path class="atom-23" d="M 965.9 230.8 Q 965.9 228.4, 967.1 227.1 Q 968.3 225.8, 970.5 225.8 Q 972.7 225.8, 973.9 227.1 Q 975.0 228.4, 975.0 230.8 Q 975.0 233.2, 973.8 234.6 Q 972.7 236.0, 970.5 236.0 Q 968.3 236.0, 967.1 234.6 Q 965.9 233.2, 965.9 230.8 M 970.5 234.8 Q 972.0 234.8, 972.8 233.8 Q 973.6 232.8, 973.6 230.8 Q 973.6 228.9, 972.8 227.9 Q 972.0 226.9, 970.5 226.9 Q 969.0 226.9, 968.2 227.9 Q 967.3 228.9, 967.3 230.8 Q 967.3 232.8, 968.2 233.8 Q 969.0 234.8, 970.5 234.8 " fill="#FF0000"/>
<path class="legend" d="M 951.7 380.4 Q 951.7 377.6, 953.0 376.1 Q 954.4 374.6, 956.9 374.6 Q 959.2 374.6, 960.5 376.3 L 959.4 377.1 Q 958.5 375.9, 956.9 375.9 Q 955.2 375.9, 954.3 377.1 Q 953.4 378.2, 953.4 380.4 Q 953.4 382.6, 954.3 383.8 Q 955.2 384.9, 957.1 384.9 Q 958.3 384.9, 959.8 384.2 L 960.2 385.4 Q 959.6 385.8, 958.7 386.0 Q 957.8 386.2, 956.8 386.2 Q 954.4 386.2, 953.0 384.7 Q 951.7 383.2, 951.7 380.4 " fill="#000000"/>
<path class="legend" d="M 961.9 382.0 Q 961.9 380.0, 962.9 378.8 Q 964.0 377.7, 965.8 377.7 Q 967.7 377.7, 968.7 378.8 Q 969.7 380.0, 969.7 382.0 Q 969.7 384.0, 968.7 385.1 Q 967.7 386.2, 965.8 386.2 Q 964.0 386.2, 962.9 385.1 Q 961.9 384.0, 961.9 382.0 M 963.5 382.0 Q 963.5 383.5, 964.1 384.2 Q 964.7 385.0, 965.8 385.0 Q 967.0 385.0, 967.6 384.2 Q 968.2 383.5, 968.2 382.0 Q 968.2 380.4, 967.6 379.7 Q 967.0 378.9, 965.8 378.9 Q 964.7 378.9, 964.1 379.7 Q 963.5 380.4, 963.5 382.0 " fill="#000000"/>
<path class="legend" d="M 980.8 377.7 Q 982.2 377.7, 982.9 378.5 Q 983.6 379.2, 983.6 380.6 L 983.6 386.1 L 982.1 386.1 L 982.1 380.8 Q 982.1 379.8, 981.7 379.3 Q 981.3 378.9, 980.5 378.9 Q 979.8 378.9, 979.2 379.2 Q 978.5 379.6, 978.2 380.2 Q 978.2 380.3, 978.2 380.6 L 978.2 386.1 L 976.7 386.1 L 976.7 380.8 Q 976.7 379.8, 976.3 379.3 Q 975.9 378.9, 975.1 378.9 Q 974.4 378.9, 973.8 379.2 Q 973.2 379.6, 972.8 380.2 L 972.8 386.1 L 971.3 386.1 L 971.3 377.9 L 972.5 377.9 L 972.7 379.0 Q 973.7 377.7, 975.4 377.7 Q 977.3 377.7, 977.9 379.2 Q 979.0 377.7, 980.8 377.7 " fill="#000000"/>
<path class="legend" d="M 989.5 377.7 Q 991.2 377.7, 992.1 378.8 Q 993.1 379.8, 993.1 381.8 Q 993.1 383.9, 991.9 385.1 Q 990.8 386.2, 988.8 386.2 Q 987.9 386.2, 987.1 386.0 L 987.1 390.0 L 985.6 390.0 L 985.6 377.9 L 986.8 377.9 L 987.0 378.8 Q 987.5 378.3, 988.1 378.0 Q 988.7 377.7, 989.5 377.7 M 988.8 385.0 Q 990.1 385.0, 990.8 384.2 Q 991.5 383.3, 991.5 381.8 Q 991.5 380.4, 991.0 379.7 Q 990.4 378.9, 989.4 378.9 Q 988.5 378.9, 987.9 379.3 Q 987.4 379.8, 987.1 380.5 L 987.1 384.8 Q 987.9 385.0, 988.8 385.0 " fill="#000000"/>
<path class="legend" d="M 994.6 382.0 Q 994.6 380.0, 995.6 378.8 Q 996.6 377.7, 998.5 377.7 Q 1000.4 377.7, 1001.4 378.8 Q 1002.4 380.0, 1002.4 382.0 Q 1002.4 384.0, 1001.4 385.1 Q 1000.4 386.2, 998.5 386.2 Q 996.6 386.2, 995.6 385.1 Q 994.6 384.0, 994.6 382.0 M 996.1 382.0 Q 996.1 383.5, 996.7 384.2 Q 997.4 385.0, 998.5 385.0 Q 999.6 385.0, 1000.2 384.2 Q 1000.9 383.5, 1000.9 382.0 Q 1000.9 380.4, 1000.2 379.7 Q 999.6 378.9, 998.5 378.9 Q 997.4 378.9, 996.7 379.7 Q 996.1 380.4, 996.1 382.0 " fill="#000000"/>
<path class="legend" d="M 1011.0 377.9 L 1011.0 386.1 L 1009.7 386.1 L 1009.5 384.9 Q 1008.5 386.2, 1006.8 386.2 Q 1005.4 386.2, 1004.7 385.5 Q 1004.0 384.7, 1004.0 383.3 L 1004.0 377.9 L 1005.5 377.9 L 1005.5 383.2 Q 1005.5 384.2, 1005.8 384.6 Q 1006.2 385.0, 1007.0 385.0 Q 1007.8 385.0, 1008.4 384.7 Q 1009.0 384.4, 1009.4 383.7 L 1009.4 377.9 L 1011.0 377.9 " fill="#000000"/>
<path class="legend" d="M 1017.4 377.7 Q 1018.7 377.7, 1019.4 378.5 Q 1020.1 379.2, 1020.1 380.6 L 1020.1 386.1 L 1018.6 386.1 L 1018.6 380.8 Q 1018.6 379.8, 1018.2 379.3 Q 1017.8 378.9, 1017.0 378.9 Q 1016.2 378.9, 1015.6 379.2 Q 1015.0 379.6, 1014.6 380.2 L 1014.6 386.1 L 1013.1 386.1 L 1013.1 377.9 L 1014.3 377.9 L 1014.5 379.0 Q 1015.6 377.7, 1017.4 377.7 " fill="#000000"/>
<path class="legend" d="M 1029.6 373.9 L 1029.6 386.1 L 1028.4 386.1 L 1028.2 385.1 Q 1027.2 386.2, 1025.7 386.2 Q 1024.0 386.2, 1023.1 385.2 Q 1022.1 384.1, 1022.1 382.1 Q 1022.1 380.0, 1023.2 378.9 Q 1024.4 377.7, 1026.3 377.7 Q 1027.2 377.7, 1028.1 377.9 L 1028.1 373.9 L 1029.6 373.9 M 1025.8 385.0 Q 1026.7 385.0, 1027.2 384.6 Q 1027.9 384.1, 1028.1 383.3 L 1028.1 379.1 Q 1027.3 378.9, 1026.4 378.9 Q 1025.1 378.9, 1024.4 379.7 Q 1023.6 380.6, 1023.6 382.1 Q 1023.6 383.5, 1024.2 384.3 Q 1024.8 385.0, 1025.8 385.0 " fill="#000000"/>
<path class="legend" d="M 1039.8 386.9 L 1039.8 388.2 L 1031.7 388.2 L 1031.7 386.9 L 1039.8 386.9 " fill="#000000"/>
<path class="legend" d="M 1046.1 380.1 Q 1047.2 380.4, 1047.7 381.2 Q 1048.3 381.9, 1048.3 383.0 Q 1048.3 383.9, 1047.8 384.7 Q 1047.3 385.4, 1046.4 385.8 Q 1045.5 386.2, 1044.4 386.2 Q 1043.2 386.2, 1042.3 385.8 Q 1041.4 385.4, 1040.7 384.5 L 1041.6 383.6 Q 1042.3 384.4, 1042.9 384.7 Q 1043.5 385.0, 1044.4 385.0 Q 1045.4 385.0, 1046.0 384.4 Q 1046.7 383.9, 1046.7 383.0 Q 1046.7 381.8, 1046.0 381.3 Q 1045.4 380.8, 1044.0 380.8 L 1043.2 380.8 L 1043.2 379.6 L 1043.9 379.6 Q 1045.1 379.6, 1045.8 379.1 Q 1046.4 378.5, 1046.4 377.5 Q 1046.4 376.8, 1045.9 376.4 Q 1045.3 375.9, 1044.4 375.9 Q 1043.5 375.9, 1042.9 376.2 Q 1042.3 376.6, 1041.9 377.4 L 1040.7 376.8 Q 1041.1 375.9, 1042.1 375.3 Q 1043.1 374.6, 1044.4 374.6 Q 1046.1 374.6, 1047.1 375.4 Q 1048.0 376.2, 1048.0 377.5 Q 1048.0 378.4, 1047.5 379.1 Q 1047.0 379.7, 1046.1 380.1 " fill="#000000"/>
</svg>