<?xml version="1.0" encoding="UTF-8" standalone="no"?>
<!DOCTYPE svg PUBLIC "-//W3C//DTD SVG 1.1//EN"
 "http://www.w3.org/Graphics/SVG/1.1/DTD/svg11.dtd">
<!-- Generated by graphviz version 7.0.0 (20221023.0053)
 -->
<!-- Title: Tree Pages: 1 -->
<svg width="819pt" height="373pt"
 viewBox="0.00 0.00 818.50 373.00" xmlns="http://www.w3.org/2000/svg" xmlns:xlink="http://www.w3.org/1999/xlink">
<g id="graph0" class="graph" transform="scale(1 1) rotate(0) translate(4 369)">
<title>Tree</title>
<polygon fill="white" stroke="none" points="-4,4 -4,-369 814.5,-369 814.5,4 -4,4"/>
<!-- 0 -->
<g id="node1" class="node">
<title>0</title>
<path fill="#f0b58b" stroke="black" d="M561,-365C561,-365 434,-365 434,-365 428,-365 422,-359 422,-353 422,-353 422,-309 422,-309 422,-303 428,-297 434,-297 434,-297 561,-297 561,-297 567,-297 573,-303 573,-309 573,-309 573,-353 573,-353 573,-359 567,-365 561,-365"/>
<text text-anchor="middle" x="497.5" y="-349.8" font-family="Helvetica,sans-Serif" font-size="14.00">clogp &lt;= 4.901</text>
<text text-anchor="middle" x="497.5" y="-334.8" font-family="Helvetica,sans-Serif" font-size="14.00">squared_error = 1.144</text>
<text text-anchor="middle" x="497.5" y="-319.8" font-family="Helvetica,sans-Serif" font-size="14.00">samples = 10</text>
<text text-anchor="middle" x="497.5" y="-304.8" font-family="Helvetica,sans-Serif" font-size="14.00">value = 6.228</text>
</g>
<!-- 1 -->
<g id="node2" class="node">
<title>1</title>
<path fill="#eca36f" stroke="black" d="M478.5,-261C478.5,-261 338.5,-261 338.5,-261 332.5,-261 326.5,-255 326.5,-249 326.5,-249 326.5,-205 326.5,-205 326.5,-199 332.5,-193 338.5,-193 338.5,-193 478.5,-193 478.5,-193 484.5,-193 490.5,-199 490.5,-205 490.5,-205 490.5,-249 490.5,-249 490.5,-255 484.5,-261 478.5,-261"/>
<text text-anchor="middle" x="408.5" y="-245.8" font-family="Helvetica,sans-Serif" font-size="14.00">n_aromatic_rings &lt;= 1.5</text>
<text text-anchor="middle" x="408.5" y="-230.8" font-family="Helvetica,sans-Serif" font-size="14.00">squared_error = 0.516</text>
<text text-anchor="middle" x="408.5" y="-215.8" font-family="Helvetica,sans-Serif" font-size="14.00">samples = 8</text>
<text text-anchor="middle" x="408.5" y="-200.8" font-family="Helvetica,sans-Serif" font-size="14.00">value = 6.656</text>
</g>
<!-- 0&#45;&gt;1 -->
<g id="edge1" class="edge">
<title>0&#45;&gt;1</title>
<path fill="none" stroke="black" d="M468.36,-296.6C460.98,-288.15 452.96,-278.96 445.26,-270.13"/>
<polygon fill="black" stroke="black" points="447.91,-267.85 438.7,-262.61 442.64,-272.45 447.91,-267.85"/>
<text text-anchor="middle" x="436.01" y="-282.72" font-family="Helvetica,sans-Serif" font-size="14.00">True</text>
</g>
<!-- 8 -->
<g id="node9" class="node">
<title>8</title>
<path fill="#fefbf9" stroke="black" d="M654.5,-261C654.5,-261 520.5,-261 520.5,-261 514.5,-261 508.5,-255 508.5,-249 508.5,-249 508.5,-205 508.5,-205 508.5,-199 514.5,-193 520.5,-193 520.5,-193 654.5,-193 654.5,-193 660.5,-193 666.5,-199 666.5,-205 666.5,-205 666.5,-249 666.5,-249 666.5,-255 660.5,-261 654.5,-261"/>
<text text-anchor="middle" x="587.5" y="-245.8" font-family="Helvetica,sans-Serif" font-size="14.00">n_hetero_atoms &lt;= 5.0</text>
<text text-anchor="middle" x="587.5" y="-230.8" font-family="Helvetica,sans-Serif" font-size="14.00">squared_error = 0.008</text>
<text text-anchor="middle" x="587.5" y="-215.8" font-family="Helvetica,sans-Serif" font-size="14.00">samples = 2</text>
<text text-anchor="middle" x="587.5" y="-200.8" font-family="Helvetica,sans-Serif" font-size="14.00">value = 4.52</text>
</g>
<!-- 0&#45;&gt;8 -->
<g id="edge8" class="edge">
<title>0&#45;&gt;8</title>
<path fill="none" stroke="black" d="M526.97,-296.6C534.51,-288.06 542.71,-278.77 550.57,-269.86"/>
<polygon fill="black" stroke="black" points="552.97,-272.42 556.96,-262.61 547.72,-267.79 552.97,-272.42"/>
<text text-anchor="middle" x="559.52" y="-282.72" font-family="Helvetica,sans-Serif" font-size="14.00">False</text>
</g>
<!-- 2 -->
<g id="node3" class="node">
<title>2</title>
<path fill="#f1ba92" stroke="black" d="M300.5,-157C300.5,-157 166.5,-157 166.5,-157 160.5,-157 154.5,-151 154.5,-145 154.5,-145 154.5,-101 154.5,-101 154.5,-95 160.5,-89 166.5,-89 166.5,-89 300.5,-89 300.5,-89 306.5,-89 312.5,-95 312.5,-101 312.5,-101 312.5,-145 312.5,-145 312.5,-151 306.5,-157 300.5,-157"/>
<text text-anchor="middle" x="233.5" y="-141.8" font-family="Helvetica,sans-Serif" font-size="14.00">n_hetero_atoms &lt;= 4.5</text>
<text text-anchor="middle" x="233.5" y="-126.8" font-family="Helvetica,sans-Serif" font-size="14.00">squared_error = 0.33</text>
<text text-anchor="middle" x="233.5" y="-111.8" font-family="Helvetica,sans-Serif" font-size="14.00">samples = 4</text>
<text text-anchor="middle" x="233.5" y="-96.8" font-family="Helvetica,sans-Serif" font-size="14.00">value = 6.111</text>
</g>
<!-- 1&#45;&gt;2 -->
<g id="edge2" class="edge">
<title>1&#45;&gt;2</title>
<path fill="none" stroke="black" d="M351.2,-192.6C335.03,-183.18 317.3,-172.84 300.61,-163.12"/>
<polygon fill="black" stroke="black" points="302.64,-160.25 292.24,-158.24 299.12,-166.3 302.64,-160.25"/>
</g>
<!-- 5 -->
<g id="node6" class="node">
<title>5</title>
<path fill="#e78d4c" stroke="black" d="M480,-157C480,-157 343,-157 343,-157 337,-157 331,-151 331,-145 331,-145 331,-101 331,-101 331,-95 337,-89 343,-89 343,-89 480,-89 480,-89 486,-89 492,-95 492,-101 492,-101 492,-145 492,-145 492,-151 486,-157 480,-157"/>
<text text-anchor="middle" x="411.5" y="-141.8" font-family="Helvetica,sans-Serif" font-size="14.00">n_aliphatic_rings &lt;= 1.5</text>
<text text-anchor="middle" x="411.5" y="-126.8" font-family="Helvetica,sans-Serif" font-size="14.00">squared_error = 0.108</text>
<text text-anchor="middle" x="411.5" y="-111.8" font-family="Helvetica,sans-Serif" font-size="14.00">samples = 4</text>
<text text-anchor="middle" x="411.5" y="-96.8" font-family="Helvetica,sans-Serif" font-size="14.00">value = 7.2</text>
</g>
<!-- 1&#45;&gt;5 -->
<g id="edge5" class="edge">
<title>1&#45;&gt;5</title>
<path fill="none" stroke="black" d="M409.48,-192.6C409.71,-185.03 409.95,-176.87 410.18,-168.9"/>
<polygon fill="black" stroke="black" points="413.68,-169.09 410.47,-158.99 406.68,-168.88 413.68,-169.09"/>
</g>
<!-- 3 -->
<g id="node4" class="node">
<title>3</title>
<path fill="#eeae7f" stroke="black" d="M139,-53C139,-53 12,-53 12,-53 6,-53 0,-47 0,-41 0,-41 0,-12 0,-12 0,-6 6,0 12,0 12,0 139,0 139,0 145,0 151,-6 151,-12 151,-12 151,-41 151,-41 151,-47 145,-53 139,-53"/>
<text text-anchor="middle" x="75.5" y="-37.8" font-family="Helvetica,sans-Serif" font-size="14.00">squared_error = 0.088</text>
<text text-anchor="middle" x="75.5" y="-22.8" font-family="Helvetica,sans-Serif" font-size="14.00">samples = 3</text>
<text text-anchor="middle" x="75.5" y="-7.8" font-family="Helvetica,sans-Serif" font-size="14.00">value = 6.407</text>
</g>
<!-- 2&#45;&gt;3 -->
<g id="edge3" class="edge">
<title>2&#45;&gt;3</title>
<path fill="none" stroke="black" d="M177.8,-88.68C161.76,-79.09 144.31,-68.65 128.44,-59.16"/>
<polygon fill="black" stroke="black" points="130.47,-56.3 120.09,-54.17 126.88,-62.31 130.47,-56.3"/>
</g>
<!-- 4 -->
<g id="node5" class="node">
<title>4</title>
<path fill="#f8decc" stroke="black" d="M293.5,-53C293.5,-53 181.5,-53 181.5,-53 175.5,-53 169.5,-47 169.5,-41 169.5,-41 169.5,-12 169.5,-12 169.5,-6 175.5,0 181.5,0 181.5,0 293.5,0 293.5,0 299.5,0 305.5,-6 305.5,-12 305.5,-12 305.5,-41 305.5,-41 305.5,-47 299.5,-53 293.5,-53"/>
<text text-anchor="middle" x="237.5" y="-37.8" font-family="Helvetica,sans-Serif" font-size="14.00">squared_error = 0.0</text>
<text text-anchor="middle" x="237.5" y="-22.8" font-family="Helvetica,sans-Serif" font-size="14.00">samples = 1</text>
<text text-anchor="middle" x="237.5" y="-7.8" font-family="Helvetica,sans-Serif" font-size="14.00">value = 5.222</text>
</g>
<!-- 2&#45;&gt;4 -->
<g id="edge4" class="edge">
<title>2&#45;&gt;4</title>
<path fill="none" stroke="black" d="M234.91,-88.68C235.24,-80.9 235.59,-72.56 235.93,-64.63"/>
<polygon fill="black" stroke="black" points="239.41,-65.05 236.34,-54.91 232.42,-64.75 239.41,-65.05"/>
</g>
<!-- 6 -->
<g id="node7" class="node">
<title>6</title>
<path fill="#ea995f" stroke="black" d="M471,-53C471,-53 344,-53 344,-53 338,-53 332,-47 332,-41 332,-41 332,-12 332,-12 332,-6 338,0 344,0 344,0 471,0 471,0 477,0 483,-6 483,-12 483,-12 483,-41 483,-41 483,-47 477,-53 471,-53"/>
<text text-anchor="middle" x="407.5" y="-37.8" font-family="Helvetica,sans-Serif" font-size="14.00">squared_error = 0.008</text>
<text text-anchor="middle" x="407.5" y="-22.8" font-family="Helvetica,sans-Serif" font-size="14.00">samples = 2</text>
<text text-anchor="middle" x="407.5" y="-7.8" font-family="Helvetica,sans-Serif" font-size="14.00">value = 6.908</text>
</g>
<!-- 5&#45;&gt;6 -->
<g id="edge6" class="edge">
<title>5&#45;&gt;6</title>
<path fill="none" stroke="black" d="M410.09,-88.68C409.76,-80.9 409.41,-72.56 409.07,-64.63"/>
<polygon fill="black" stroke="black" points="412.58,-64.75 408.66,-54.91 405.59,-65.05 412.58,-64.75"/>
</g>
<!-- 7 -->
<g id="node8" class="node">
<title>7</title>
<path fill="#e58139" stroke="black" d="M640,-53C640,-53 513,-53 513,-53 507,-53 501,-47 501,-41 501,-41 501,-12 501,-12 501,-6 507,0 513,0 513,0 640,0 640,0 646,0 652,-6 652,-12 652,-12 652,-41 652,-41 652,-47 646,-53 640,-53"/>
<text text-anchor="middle" x="576.5" y="-37.8" font-family="Helvetica,sans-Serif" font-size="14.00">squared_error = 0.038</text>
<text text-anchor="middle" x="576.5" y="-22.8" font-family="Helvetica,sans-Serif" font-size="14.00">samples = 2</text>
<text text-anchor="middle" x="576.5" y="-7.8" font-family="Helvetica,sans-Serif" font-size="14.00">value = 7.492</text>
</g>
<!-- 5&#45;&gt;7 -->
<g id="edge7" class="edge">
<title>5&#45;&gt;7</title>
<path fill="none" stroke="black" d="M469.67,-88.68C486.58,-79 504.99,-68.46 521.68,-58.9"/>
<polygon fill="black" stroke="black" points="523.04,-62.15 529.98,-54.15 519.56,-56.08 523.04,-62.15"/>
</g>
<!-- 9 -->
<g id="node10" class="node">
<title>9</title>
<path fill="#fef8f4" stroke="black" d="M640.5,-149.5C640.5,-149.5 528.5,-149.5 528.5,-149.5 522.5,-149.5 516.5,-143.5 516.5,-137.5 516.5,-137.5 516.5,-108.5 516.5,-108.5 516.5,-102.5 522.5,-96.5 528.5,-96.5 528.5,-96.5 640.5,-96.5 640.5,-96.5 646.5,-96.5 652.5,-102.5 652.5,-108.5 652.5,-108.5 652.5,-137.5 652.5,-137.5 652.5,-143.5 646.5,-149.5 640.5,-149.5"/>
<text text-anchor="middle" x="584.5" y="-134.3" font-family="Helvetica,sans-Serif" font-size="14.00">squared_error = 0.0</text>
<text text-anchor="middle" x="584.5" y="-119.3" font-family="Helvetica,sans-Serif" font-size="14.00">samples = 1</text>
<text text-anchor="middle" x="584.5" y="-104.3" font-family="Helvetica,sans-Serif" font-size="14.00">value = 4.607</text>
</g>
<!-- 8&#45;&gt;9 -->
<g id="edge9" class="edge">
<title>8&#45;&gt;9</title>
<path fill="none" stroke="black" d="M586.52,-192.6C586.22,-182.47 585.89,-171.28 585.59,-160.93"/>
<polygon fill="black" stroke="black" points="589.09,-161.11 585.3,-151.22 582.1,-161.32 589.09,-161.11"/>
</g>
<!-- 10 -->
<g id="node11" class="node">
<title>10</title>
<path fill="#ffffff" stroke="black" d="M798.5,-149.5C798.5,-149.5 682.5,-149.5 682.5,-149.5 676.5,-149.5 670.5,-143.5 670.5,-137.5 670.5,-137.5 670.5,-108.5 670.5,-108.5 670.5,-102.5 676.5,-96.5 682.5,-96.5 682.5,-96.5 798.5,-96.5 798.5,-96.5 804.5,-96.5 810.5,-102.5 810.5,-108.5 810.5,-108.5 810.5,-137.5 810.5,-137.5 810.5,-143.5 804.5,-149.5 798.5,-149.5"/>
<text text-anchor="middle" x="740.5" y="-134.3" font-family="Helvetica,sans-Serif" font-size="14.00">squared_error = &#45;0.0</text>
<text text-anchor="middle" x="740.5" y="-119.3" font-family="Helvetica,sans-Serif" font-size="14.00">samples = 1</text>
<text text-anchor="middle" x="740.5" y="-104.3" font-family="Helvetica,sans-Serif" font-size="14.00">value = 4.432</text>
</g>
<!-- 8&#45;&gt;10 -->
<g id="edge10" class="edge">
<title>8&#45;&gt;10</title>
<path fill="none" stroke="black" d="M637.6,-192.6C655.25,-180.84 675.03,-167.65 692.5,-156"/>
<polygon fill="black" stroke="black" points="694.3,-159 700.68,-150.55 690.42,-153.18 694.3,-159"/>
</g>
</g>
</svg>
