<?xml version="1.0" encoding="UTF-8" standalone="no"?>
<!DOCTYPE svg PUBLIC "-//W3C//DTD SVG 1.1//EN"
 "http://www.w3.org/Graphics/SVG/1.1/DTD/svg11.dtd">
<!-- Generated by graphviz version 7.0.0 (20221023.0053)
 -->
<!-- Title: Tree Pages: 1 -->
<svg width="809pt" height="373pt"
 viewBox="0.00 0.00 809.00 373.00" xmlns="http://www.w3.org/2000/svg" xmlns:xlink="http://www.w3.org/1999/xlink">
<g id="graph0" class="graph" transform="scale(1 1) rotate(0) translate(4 369)">
<title>Tree</title>
<polygon fill="white" stroke="none" points="-4,4 -4,-369 805,-369 805,4 -4,4"/>
<!-- 0 -->
<g id="node1" class="node">
<title>0</title>
<path fill="#f0b58b" stroke="black" d="M551.5,-365C551.5,-365 424.5,-365 424.5,-365 418.5,-365 412.5,-359 412.5,-353 412.5,-353 412.5,-309 412.5,-309 412.5,-303 418.5,-297 424.5,-297 424.5,-297 551.5,-297 551.5,-297 557.5,-297 563.5,-303 563.5,-309 563.5,-309 563.5,-353 563.5,-353 563.5,-359 557.5,-365 551.5,-365"/>
<text text-anchor="middle" x="488" y="-349.8" font-family="Helvetica,sans-Serif" font-size="14.00">clogp &lt;= 4.901</text>
<text text-anchor="middle" x="488" y="-334.8" font-family="Helvetica,sans-Serif" font-size="14.00">squared_error = 1.144</text>
<text text-anchor="middle" x="488" y="-319.8" font-family="Helvetica,sans-Serif" font-size="14.00">samples = 10</text>
<text text-anchor="middle" x="488" y="-304.8" font-family="Helvetica,sans-Serif" font-size="14.00">value = 6.228</text>
</g>
<!-- 1 -->
<g id="node2" class="node">
<title>1</title>
<path fill="#eca36f" stroke="black" d="M470,-261C470,-261 330,-261 330,-261 324,-261 318,-255 318,-249 318,-249 318,-205 318,-205 318,-199 324,-193 330,-193 330,-193 470,-193 470,-193 476,-193 482,-199 482,-205 482,-205 482,-249 482,-249 482,-255 476,-261 470,-261"/>
<text text-anchor="middle" x="400" y="-245.8" font-family="Helvetica,sans-Serif" font-size="14.00">n_aromatic_rings &lt;= 1.5</text>
<text text-anchor="middle" x="400" y="-230.8" font-family="Helvetica,sans-Serif" font-size="14.00">squared_error = 0.516</text>
<text text-anchor="middle" x="400" y="-215.8" font-family="Helvetica,sans-Serif" font-size="14.00">samples = 8</text>
<text text-anchor="middle" x="400" y="-200.8" font-family="Helvetica,sans-Serif" font-size="14.00">value = 6.656</text>
</g>
<!-- 0&#45;&gt;1 -->
<g id="edge1" class="edge">
<title>0&#45;&gt;1</title>
<path fill="none" stroke="black" d="M459.19,-296.6C451.89,-288.15 443.96,-278.96 436.35,-270.13"/>
<polygon fill="black" stroke="black" points="439.05,-267.9 429.87,-262.62 433.75,-272.48 439.05,-267.9"/>
<text text-anchor="middle" x="427.04" y="-282.71" font-family="Helvetica,sans-Serif" font-size="14.00">True</text>
</g>
<!-- 8 -->
<g id="node9" class="node">
<title>8</title>
<path fill="#fefbf9" stroke="black" d="M639.5,-261C639.5,-261 512.5,-261 512.5,-261 506.5,-261 500.5,-255 500.5,-249 500.5,-249 500.5,-205 500.5,-205 500.5,-199 506.5,-193 512.5,-193 512.5,-193 639.5,-193 639.5,-193 645.5,-193 651.5,-199 651.5,-205 651.5,-205 651.5,-249 651.5,-249 651.5,-255 645.5,-261 639.5,-261"/>
<text text-anchor="middle" x="576" y="-245.8" font-family="Helvetica,sans-Serif" font-size="14.00">qed &lt;= 0.458</text>
<text text-anchor="middle" x="576" y="-230.8" font-family="Helvetica,sans-Serif" font-size="14.00">squared_error = 0.008</text>
<text text-anchor="middle" x="576" y="-215.8" font-family="Helvetica,sans-Serif" font-size="14.00">samples = 2</text>
<text text-anchor="middle" x="576" y="-200.8" font-family="Helvetica,sans-Serif" font-size="14.00">value = 4.52</text>
</g>
<!-- 0&#45;&gt;8 -->
<g id="edge8" class="edge">
<title>0&#45;&gt;8</title>
<path fill="none" stroke="black" d="M516.81,-296.6C524.11,-288.15 532.04,-278.96 539.65,-270.13"/>
<polygon fill="black" stroke="black" points="542.25,-272.48 546.13,-262.62 536.95,-267.9 542.25,-272.48"/>
<text text-anchor="middle" x="548.96" y="-282.71" font-family="Helvetica,sans-Serif" font-size="14.00">False</text>
</g>
<!-- 2 -->
<g id="node3" class="node">
<title>2</title>
<path fill="#f1ba92" stroke="black" d="M288.5,-157C288.5,-157 169.5,-157 169.5,-157 163.5,-157 157.5,-151 157.5,-145 157.5,-145 157.5,-101 157.5,-101 157.5,-95 163.5,-89 169.5,-89 169.5,-89 288.5,-89 288.5,-89 294.5,-89 300.5,-95 300.5,-101 300.5,-101 300.5,-145 300.5,-145 300.5,-151 294.5,-157 288.5,-157"/>
<text text-anchor="middle" x="229" y="-141.8" font-family="Helvetica,sans-Serif" font-size="14.00">n_rings &lt;= 0.5</text>
<text text-anchor="middle" x="229" y="-126.8" font-family="Helvetica,sans-Serif" font-size="14.00">squared_error = 0.33</text>
<text text-anchor="middle" x="229" y="-111.8" font-family="Helvetica,sans-Serif" font-size="14.00">samples = 4</text>
<text text-anchor="middle" x="229" y="-96.8" font-family="Helvetica,sans-Serif" font-size="14.00">value = 6.111</text>
</g>
<!-- 1&#45;&gt;2 -->
<g id="edge2" class="edge">
<title>1&#45;&gt;2</title>
<path fill="none" stroke="black" d="M344.01,-192.6C328.21,-183.18 310.88,-172.84 294.58,-163.12"/>
<polygon fill="black" stroke="black" points="296.8,-160.37 286.42,-158.25 293.21,-166.38 296.8,-160.37"/>
</g>
<!-- 5 -->
<g id="node6" class="node">
<title>5</title>
<path fill="#e78d4c" stroke="black" d="M473.5,-157C473.5,-157 330.5,-157 330.5,-157 324.5,-157 318.5,-151 318.5,-145 318.5,-145 318.5,-101 318.5,-101 318.5,-95 324.5,-89 330.5,-89 330.5,-89 473.5,-89 473.5,-89 479.5,-89 485.5,-95 485.5,-101 485.5,-101 485.5,-145 485.5,-145 485.5,-151 479.5,-157 473.5,-157"/>
<text text-anchor="middle" x="402" y="-141.8" font-family="Helvetica,sans-Serif" font-size="14.00">n_saturated_rings &lt;= 0.5</text>
<text text-anchor="middle" x="402" y="-126.8" font-family="Helvetica,sans-Serif" font-size="14.00">squared_error = 0.108</text>
<text text-anchor="middle" x="402" y="-111.8" font-family="Helvetica,sans-Serif" font-size="14.00">samples = 4</text>
<text text-anchor="middle" x="402" y="-96.8" font-family="Helvetica,sans-Serif" font-size="14.00">value = 7.2</text>
</g>
<!-- 1&#45;&gt;5 -->
<g id="edge5" class="edge">
<title>1&#45;&gt;5</title>
<path fill="none" stroke="black" d="M400.65,-192.6C400.8,-185.03 400.96,-176.87 401.12,-168.9"/>
<polygon fill="black" stroke="black" points="404.62,-169.05 401.31,-158.99 397.62,-168.92 404.62,-169.05"/>
</g>
<!-- 3 -->
<g id="node4" class="node">
<title>3</title>
<path fill="#f8decc" stroke="black" d="M124,-53C124,-53 12,-53 12,-53 6,-53 0,-47 0,-41 0,-41 0,-12 0,-12 0,-6 6,0 12,0 12,0 124,0 124,0 130,0 136,-6 136,-12 136,-12 136,-41 136,-41 136,-47 130,-53 124,-53"/>
<text text-anchor="middle" x="68" y="-37.8" font-family="Helvetica,sans-Serif" font-size="14.00">squared_error = 0.0</text>
<text text-anchor="middle" x="68" y="-22.8" font-family="Helvetica,sans-Serif" font-size="14.00">samples = 1</text>
<text text-anchor="middle" x="68" y="-7.8" font-family="Helvetica,sans-Serif" font-size="14.00">value = 5.222</text>
</g>
<!-- 2&#45;&gt;3 -->
<g id="edge3" class="edge">
<title>2&#45;&gt;3</title>
<path fill="none" stroke="black" d="M172.24,-88.68C155.89,-79.09 138.12,-68.65 121.95,-59.16"/>
<polygon fill="black" stroke="black" points="123.82,-56.2 113.42,-54.16 120.27,-62.24 123.82,-56.2"/>
</g>
<!-- 4 -->
<g id="node5" class="node">
<title>4</title>
<path fill="#eeae7f" stroke="black" d="M293.5,-53C293.5,-53 166.5,-53 166.5,-53 160.5,-53 154.5,-47 154.5,-41 154.5,-41 154.5,-12 154.5,-12 154.5,-6 160.5,0 166.5,0 166.5,0 293.5,0 293.5,0 299.5,0 305.5,-6 305.5,-12 305.5,-12 305.5,-41 305.5,-41 305.5,-47 299.5,-53 293.5,-53"/>
<text text-anchor="middle" x="230" y="-37.8" font-family="Helvetica,sans-Serif" font-size="14.00">squared_error = 0.088</text>
<text text-anchor="middle" x="230" y="-22.8" font-family="Helvetica,sans-Serif" font-size="14.00">samples = 3</text>
<text text-anchor="middle" x="230" y="-7.8" font-family="Helvetica,sans-Serif" font-size="14.00">value = 6.407</text>
</g>
<!-- 2&#45;&gt;4 -->
<g id="edge4" class="edge">
<title>2&#45;&gt;4</title>
<path fill="none" stroke="black" d="M229.35,-88.68C229.43,-80.99 229.52,-72.76 229.6,-64.9"/>
<polygon fill="black" stroke="black" points="233.1,-64.94 229.71,-54.91 226.1,-64.87 233.1,-64.94"/>
</g>
<!-- 6 -->
<g id="node7" class="node">
<title>6</title>
<path fill="#ea995f" stroke="black" d="M464.5,-53C464.5,-53 337.5,-53 337.5,-53 331.5,-53 325.5,-47 325.5,-41 325.5,-41 325.5,-12 325.5,-12 325.5,-6 331.5,0 337.5,0 337.5,0 464.5,0 464.5,0 470.5,0 476.5,-6 476.5,-12 476.5,-12 476.5,-41 476.5,-41 476.5,-47 470.5,-53 464.5,-53"/>
<text text-anchor="middle" x="401" y="-37.8" font-family="Helvetica,sans-Serif" font-size="14.00">squared_error = 0.008</text>
<text text-anchor="middle" x="401" y="-22.8" font-family="Helvetica,sans-Serif" font-size="14.00">samples = 2</text>
<text text-anchor="middle" x="401" y="-7.8" font-family="Helvetica,sans-Serif" font-size="14.00">value = 6.908</text>
</g>
<!-- 5&#45;&gt;6 -->
<g id="edge6" class="edge">
<title>5&#45;&gt;6</title>
<path fill="none" stroke="black" d="M401.65,-88.68C401.57,-80.99 401.48,-72.76 401.4,-64.9"/>
<polygon fill="black" stroke="black" points="404.9,-64.87 401.29,-54.91 397.9,-64.94 404.9,-64.87"/>
</g>
<!-- 7 -->
<g id="node8" class="node">
<title>7</title>
<path fill="#e58139" stroke="black" d="M633.5,-53C633.5,-53 506.5,-53 506.5,-53 500.5,-53 494.5,-47 494.5,-41 494.5,-41 494.5,-12 494.5,-12 494.5,-6 500.5,0 506.5,0 506.5,0 633.5,0 633.5,0 639.5,0 645.5,-6 645.5,-12 645.5,-12 645.5,-41 645.5,-41 645.5,-47 639.5,-53 633.5,-53"/>
<text text-anchor="middle" x="570" y="-37.8" font-family="Helvetica,sans-Serif" font-size="14.00">squared_error = 0.038</text>
<text text-anchor="middle" x="570" y="-22.8" font-family="Helvetica,sans-Serif" font-size="14.00">samples = 2</text>
<text text-anchor="middle" x="570" y="-7.8" font-family="Helvetica,sans-Serif" font-size="14.00">value = 7.492</text>
</g>
<!-- 5&#45;&gt;7 -->
<g id="edge7" class="edge">
<title>5&#45;&gt;7</title>
<path fill="none" stroke="black" d="M461.23,-88.68C478.45,-79 497.19,-68.46 514.18,-58.9"/>
<polygon fill="black" stroke="black" points="515.65,-62.09 522.65,-54.14 512.22,-55.99 515.65,-62.09"/>
</g>
<!-- 9 -->
<g id="node10" class="node">
<title>9</title>
<path fill="#ffffff" stroke="black" d="M631,-149.5C631,-149.5 519,-149.5 519,-149.5 513,-149.5 507,-143.5 507,-137.5 507,-137.5 507,-108.5 507,-108.5 507,-102.5 513,-96.5 519,-96.5 519,-96.5 631,-96.5 631,-96.5 637,-96.5 643,-102.5 643,-108.5 643,-108.5 643,-137.5 643,-137.5 643,-143.5 637,-149.5 631,-149.5"/>
<text text-anchor="middle" x="575" y="-134.3" font-family="Helvetica,sans-Serif" font-size="14.00">squared_error = 0.0</text>
<text text-anchor="middle" x="575" y="-119.3" font-family="Helvetica,sans-Serif" font-size="14.00">samples = 1</text>
<text text-anchor="middle" x="575" y="-104.3" font-family="Helvetica,sans-Serif" font-size="14.00">value = 4.432</text>
</g>
<!-- 8&#45;&gt;9 -->
<g id="edge9" class="edge">
<title>8&#45;&gt;9</title>
<path fill="none" stroke="black" d="M575.67,-192.6C575.57,-182.47 575.46,-171.28 575.36,-160.93"/>
<polygon fill="black" stroke="black" points="578.86,-161.18 575.27,-151.22 571.87,-161.25 578.86,-161.18"/>
</g>
<!-- 10 -->
<g id="node11" class="node">
<title>10</title>
<path fill="#fef8f4" stroke="black" d="M789,-149.5C789,-149.5 673,-149.5 673,-149.5 667,-149.5 661,-143.5 661,-137.5 661,-137.5 661,-108.5 661,-108.5 661,-102.5 667,-96.5 673,-96.5 673,-96.5 789,-96.5 789,-96.5 795,-96.5 801,-102.5 801,-108.5 801,-108.5 801,-137.5 801,-137.5 801,-143.5 795,-149.5 789,-149.5"/>
<text text-anchor="middle" x="731" y="-134.3" font-family="Helvetica,sans-Serif" font-size="14.00">squared_error = &#45;0.0</text>
<text text-anchor="middle" x="731" y="-119.3" font-family="Helvetica,sans-Serif" font-size="14.00">samples = 1</text>
<text text-anchor="middle" x="731" y="-104.3" font-family="Helvetica,sans-Serif" font-size="14.00">value = 4.607</text>
</g>
<!-- 8&#45;&gt;10 -->
<g id="edge10" class="edge">
<title>8&#45;&gt;10</title>
<path fill="none" stroke="black" d="M626.75,-192.6C644.63,-180.84 664.67,-167.65 682.37,-156"/>
<polygon fill="black" stroke="black" points="684.24,-158.96 690.67,-150.54 680.4,-153.11 684.24,-158.96"/>
</g>
</g>
</svg>
