<?xml version="1.0" encoding="UTF-8" standalone="no"?>
<!DOCTYPE svg PUBLIC "-//W3C//DTD SVG 1.1//EN"
 "http://www.w3.org/Graphics/SVG/1.1/DTD/svg11.dtd">
<!-- Generated by graphviz version 7.0.0 (20221023.0053)
 -->
<!-- Title: Tree Pages: 1 -->
<svg width="813pt" height="373pt"
 viewBox="0.00 0.00 813.00 373.00" xmlns="http://www.w3.org/2000/svg" xmlns:xlink="http://www.w3.org/1999/xlink">
<g id="graph0" class="graph" transform="scale(1 1) rotate(0) translate(4 369)">
<title>Tree</title>
<polygon fill="white" stroke="none" points="-4,4 -4,-369 809,-369 809,4 -4,4"/>
<!-- 0 -->
<g id="node1" class="node">
<title>0</title>
<path fill="#f0b58b" stroke="black" d="M553.5,-365C553.5,-365 426.5,-365 426.5,-365 420.5,-365 414.5,-359 414.5,-353 414.5,-353 414.5,-309 414.5,-309 414.5,-303 420.5,-297 426.5,-297 426.5,-297 553.5,-297 553.5,-297 559.5,-297 565.5,-303 565.5,-309 565.5,-309 565.5,-353 565.5,-353 565.5,-359 559.5,-365 553.5,-365"/>
<text text-anchor="middle" x="490" y="-349.8" font-family="Helvetica,sans-Serif" font-size="14.00">clogp &lt;= 4.901</text>
<text text-anchor="middle" x="490" y="-334.8" font-family="Helvetica,sans-Serif" font-size="14.00">squared_error = 1.144</text>
<text text-anchor="middle" x="490" y="-319.8" font-family="Helvetica,sans-Serif" font-size="14.00">samples = 10</text>
<text text-anchor="middle" x="490" y="-304.8" font-family="Helvetica,sans-Serif" font-size="14.00">value = 6.228</text>
</g>
<!-- 1 -->
<g id="node2" class="node">
<title>1</title>
<path fill="#eca36f" stroke="black" d="M470,-261C470,-261 330,-261 330,-261 324,-261 318,-255 318,-249 318,-249 318,-205 318,-205 318,-199 324,-193 330,-193 330,-193 470,-193 470,-193 476,-193 482,-199 482,-205 482,-205 482,-249 482,-249 482,-255 476,-261 470,-261"/>
<text text-anchor="middle" x="400" y="-245.8" font-family="Helvetica,sans-Serif" font-size="14.00">n_aromatic_rings &lt;= 1.5</text>
<text text-anchor="middle" x="400" y="-230.8" font-family="Helvetica,sans-Serif" font-size="14.00">squared_error = 0.516</text>
<text text-anchor="middle" x="400" y="-215.8" font-family="Helvetica,sans-Serif" font-size="14.00">samples = 8</text>
<text text-anchor="middle" x="400" y="-200.8" font-family="Helvetica,sans-Serif" font-size="14.00">value = 6.656</text>
</g>
<!-- 0&#45;&gt;1 -->
<g id="edge1" class="edge">
<title>0&#45;&gt;1</title>
<path fill="none" stroke="black" d="M460.53,-296.6C452.99,-288.06 444.79,-278.77 436.93,-269.86"/>
<polygon fill="black" stroke="black" points="439.78,-267.79 430.54,-262.61 434.53,-272.42 439.78,-267.79"/>
<text text-anchor="middle" x="427.98" y="-282.72" font-family="Helvetica,sans-Serif" font-size="14.00">True</text>
</g>
<!-- 8 -->
<g id="node9" class="node">
<title>8</title>
<path fill="#fefbf9" stroke="black" d="M649.5,-261C649.5,-261 512.5,-261 512.5,-261 506.5,-261 500.5,-255 500.5,-249 500.5,-249 500.5,-205 500.5,-205 500.5,-199 506.5,-193 512.5,-193 512.5,-193 649.5,-193 649.5,-193 655.5,-193 661.5,-199 661.5,-205 661.5,-205 661.5,-249 661.5,-249 661.5,-255 655.5,-261 649.5,-261"/>
<text text-anchor="middle" x="581" y="-245.8" font-family="Helvetica,sans-Serif" font-size="14.00">n_aliphatic_rings &lt;= 0.5</text>
<text text-anchor="middle" x="581" y="-230.8" font-family="Helvetica,sans-Serif" font-size="14.00">squared_error = 0.008</text>
<text text-anchor="middle" x="581" y="-215.8" font-family="Helvetica,sans-Serif" font-size="14.00">samples = 2</text>
<text text-anchor="middle" x="581" y="-200.8" font-family="Helvetica,sans-Serif" font-size="14.00">value = 4.52</text>
</g>
<!-- 0&#45;&gt;8 -->
<g id="edge8" class="edge">
<title>0&#45;&gt;8</title>
<path fill="none" stroke="black" d="M519.8,-296.6C527.42,-288.06 535.71,-278.77 543.65,-269.86"/>
<polygon fill="black" stroke="black" points="546.08,-272.4 550.13,-262.6 540.86,-267.73 546.08,-272.4"/>
<text text-anchor="middle" x="552.56" y="-282.73" font-family="Helvetica,sans-Serif" font-size="14.00">False</text>
</g>
<!-- 2 -->
<g id="node3" class="node">
<title>2</title>
<path fill="#f1ba92" stroke="black" d="M287.5,-157C287.5,-157 168.5,-157 168.5,-157 162.5,-157 156.5,-151 156.5,-145 156.5,-145 156.5,-101 156.5,-101 156.5,-95 162.5,-89 168.5,-89 168.5,-89 287.5,-89 287.5,-89 293.5,-89 299.5,-95 299.5,-101 299.5,-101 299.5,-145 299.5,-145 299.5,-151 293.5,-157 287.5,-157"/>
<text text-anchor="middle" x="228" y="-141.8" font-family="Helvetica,sans-Serif" font-size="14.00">n_rings &lt;= 0.5</text>
<text text-anchor="middle" x="228" y="-126.8" font-family="Helvetica,sans-Serif" font-size="14.00">squared_error = 0.33</text>
<text text-anchor="middle" x="228" y="-111.8" font-family="Helvetica,sans-Serif" font-size="14.00">samples = 4</text>
<text text-anchor="middle" x="228" y="-96.8" font-family="Helvetica,sans-Serif" font-size="14.00">value = 6.111</text>
</g>
<!-- 1&#45;&gt;2 -->
<g id="edge2" class="edge">
<title>1&#45;&gt;2</title>
<path fill="none" stroke="black" d="M343.68,-192.6C327.79,-183.18 310.36,-172.84 293.96,-163.12"/>
<polygon fill="black" stroke="black" points="296.13,-160.34 285.75,-158.25 292.56,-166.36 296.13,-160.34"/>
</g>
<!-- 5 -->
<g id="node6" class="node">
<title>5</title>
<path fill="#e78d4c" stroke="black" d="M476.5,-157C476.5,-157 329.5,-157 329.5,-157 323.5,-157 317.5,-151 317.5,-145 317.5,-145 317.5,-101 317.5,-101 317.5,-95 323.5,-89 329.5,-89 329.5,-89 476.5,-89 476.5,-89 482.5,-89 488.5,-95 488.5,-101 488.5,-101 488.5,-145 488.5,-145 488.5,-151 482.5,-157 476.5,-157"/>
<text text-anchor="middle" x="403" y="-141.8" font-family="Helvetica,sans-Serif" font-size="14.00">n_rotatable_bonds &lt;= 2.0</text>
<text text-anchor="middle" x="403" y="-126.8" font-family="Helvetica,sans-Serif" font-size="14.00">squared_error = 0.108</text>
<text text-anchor="middle" x="403" y="-111.8" font-family="Helvetica,sans-Serif" font-size="14.00">samples = 4</text>
<text text-anchor="middle" x="403" y="-96.8" font-family="Helvetica,sans-Serif" font-size="14.00">value = 7.2</text>
</g>
<!-- 1&#45;&gt;5 -->
<g id="edge5" class="edge">
<title>1&#45;&gt;5</title>
<path fill="none" stroke="black" d="M400.98,-192.6C401.21,-185.03 401.45,-176.87 401.68,-168.9"/>
<polygon fill="black" stroke="black" points="405.18,-169.09 401.97,-158.99 398.18,-168.88 405.18,-169.09"/>
</g>
<!-- 3 -->
<g id="node4" class="node">
<title>3</title>
<path fill="#f8decc" stroke="black" d="M124,-53C124,-53 12,-53 12,-53 6,-53 0,-47 0,-41 0,-41 0,-12 0,-12 0,-6 6,0 12,0 12,0 124,0 124,0 130,0 136,-6 136,-12 136,-12 136,-41 136,-41 136,-47 130,-53 124,-53"/>
<text text-anchor="middle" x="68" y="-37.8" font-family="Helvetica,sans-Serif" font-size="14.00">squared_error = 0.0</text>
<text text-anchor="middle" x="68" y="-22.8" font-family="Helvetica,sans-Serif" font-size="14.00">samples = 1</text>
<text text-anchor="middle" x="68" y="-7.8" font-family="Helvetica,sans-Serif" font-size="14.00">value = 5.222</text>
</g>
<!-- 2&#45;&gt;3 -->
<g id="edge3" class="edge">
<title>2&#45;&gt;3</title>
<path fill="none" stroke="black" d="M171.59,-88.68C155.35,-79.09 137.68,-68.65 121.61,-59.16"/>
<polygon fill="black" stroke="black" points="123.53,-56.24 113.14,-54.16 119.97,-62.26 123.53,-56.24"/>
</g>
<!-- 4 -->
<g id="node5" class="node">
<title>4</title>
<path fill="#eeae7f" stroke="black" d="M293.5,-53C293.5,-53 166.5,-53 166.5,-53 160.5,-53 154.5,-47 154.5,-41 154.5,-41 154.5,-12 154.5,-12 154.5,-6 160.5,0 166.5,0 166.5,0 293.5,0 293.5,0 299.5,0 305.5,-6 305.5,-12 305.5,-12 305.5,-41 305.5,-41 305.5,-47 299.5,-53 293.5,-53"/>
<text text-anchor="middle" x="230" y="-37.8" font-family="Helvetica,sans-Serif" font-size="14.00">squared_error = 0.088</text>
<text text-anchor="middle" x="230" y="-22.8" font-family="Helvetica,sans-Serif" font-size="14.00">samples = 3</text>
<text text-anchor="middle" x="230" y="-7.8" font-family="Helvetica,sans-Serif" font-size="14.00">value = 6.407</text>
</g>
<!-- 2&#45;&gt;4 -->
<g id="edge4" class="edge">
<title>2&#45;&gt;4</title>
<path fill="none" stroke="black" d="M228.71,-88.68C228.87,-80.99 229.04,-72.76 229.21,-64.9"/>
<polygon fill="black" stroke="black" points="232.71,-64.98 229.42,-54.91 225.71,-64.83 232.71,-64.98"/>
</g>
<!-- 6 -->
<g id="node7" class="node">
<title>6</title>
<path fill="#ea995f" stroke="black" d="M465.5,-53C465.5,-53 338.5,-53 338.5,-53 332.5,-53 326.5,-47 326.5,-41 326.5,-41 326.5,-12 326.5,-12 326.5,-6 332.5,0 338.5,0 338.5,0 465.5,0 465.5,0 471.5,0 477.5,-6 477.5,-12 477.5,-12 477.5,-41 477.5,-41 477.5,-47 471.5,-53 465.5,-53"/>
<text text-anchor="middle" x="402" y="-37.8" font-family="Helvetica,sans-Serif" font-size="14.00">squared_error = 0.008</text>
<text text-anchor="middle" x="402" y="-22.8" font-family="Helvetica,sans-Serif" font-size="14.00">samples = 2</text>
<text text-anchor="middle" x="402" y="-7.8" font-family="Helvetica,sans-Serif" font-size="14.00">value = 6.908</text>
</g>
<!-- 5&#45;&gt;6 -->
<g id="edge6" class="edge">
<title>5&#45;&gt;6</title>
<path fill="none" stroke="black" d="M402.65,-88.68C402.57,-80.99 402.48,-72.76 402.4,-64.9"/>
<polygon fill="black" stroke="black" points="405.9,-64.87 402.29,-54.91 398.9,-64.94 405.9,-64.87"/>
</g>
<!-- 7 -->
<g id="node8" class="node">
<title>7</title>
<path fill="#e58139" stroke="black" d="M634.5,-53C634.5,-53 507.5,-53 507.5,-53 501.5,-53 495.5,-47 495.5,-41 495.5,-41 495.5,-12 495.5,-12 495.5,-6 501.5,0 507.5,0 507.5,0 634.5,0 634.5,0 640.5,0 646.5,-6 646.5,-12 646.5,-12 646.5,-41 646.5,-41 646.5,-47 640.5,-53 634.5,-53"/>
<text text-anchor="middle" x="571" y="-37.8" font-family="Helvetica,sans-Serif" font-size="14.00">squared_error = 0.038</text>
<text text-anchor="middle" x="571" y="-22.8" font-family="Helvetica,sans-Serif" font-size="14.00">samples = 2</text>
<text text-anchor="middle" x="571" y="-7.8" font-family="Helvetica,sans-Serif" font-size="14.00">value = 7.492</text>
</g>
<!-- 5&#45;&gt;7 -->
<g id="edge7" class="edge">
<title>5&#45;&gt;7</title>
<path fill="none" stroke="black" d="M462.23,-88.68C479.45,-79 498.19,-68.46 515.18,-58.9"/>
<polygon fill="black" stroke="black" points="516.65,-62.09 523.65,-54.14 513.22,-55.99 516.65,-62.09"/>
</g>
<!-- 9 -->
<g id="node10" class="node">
<title>9</title>
<path fill="#ffffff" stroke="black" d="M635,-149.5C635,-149.5 523,-149.5 523,-149.5 517,-149.5 511,-143.5 511,-137.5 511,-137.5 511,-108.5 511,-108.5 511,-102.5 517,-96.5 523,-96.5 523,-96.5 635,-96.5 635,-96.5 641,-96.5 647,-102.5 647,-108.5 647,-108.5 647,-137.5 647,-137.5 647,-143.5 641,-149.5 635,-149.5"/>
<text text-anchor="middle" x="579" y="-134.3" font-family="Helvetica,sans-Serif" font-size="14.00">squared_error = 0.0</text>
<text text-anchor="middle" x="579" y="-119.3" font-family="Helvetica,sans-Serif" font-size="14.00">samples = 1</text>
<text text-anchor="middle" x="579" y="-104.3" font-family="Helvetica,sans-Serif" font-size="14.00">value = 4.432</text>
</g>
<!-- 8&#45;&gt;9 -->
<g id="edge9" class="edge">
<title>8&#45;&gt;9</title>
<path fill="none" stroke="black" d="M580.35,-192.6C580.15,-182.47 579.93,-171.28 579.72,-160.93"/>
<polygon fill="black" stroke="black" points="583.23,-161.15 579.53,-151.22 576.23,-161.29 583.23,-161.15"/>
</g>
<!-- 10 -->
<g id="node11" class="node">
<title>10</title>
<path fill="#fef8f4" stroke="black" d="M793,-149.5C793,-149.5 677,-149.5 677,-149.5 671,-149.5 665,-143.5 665,-137.5 665,-137.5 665,-108.5 665,-108.5 665,-102.5 671,-96.5 677,-96.5 677,-96.5 793,-96.5 793,-96.5 799,-96.5 805,-102.5 805,-108.5 805,-108.5 805,-137.5 805,-137.5 805,-143.5 799,-149.5 793,-149.5"/>
<text text-anchor="middle" x="735" y="-134.3" font-family="Helvetica,sans-Serif" font-size="14.00">squared_error = &#45;0.0</text>
<text text-anchor="middle" x="735" y="-119.3" font-family="Helvetica,sans-Serif" font-size="14.00">samples = 1</text>
<text text-anchor="middle" x="735" y="-104.3" font-family="Helvetica,sans-Serif" font-size="14.00">value = 4.607</text>
</g>
<!-- 8&#45;&gt;10 -->
<g id="edge10" class="edge">
<title>8&#45;&gt;10</title>
<path fill="none" stroke="black" d="M631.43,-192.6C649.19,-180.84 669.1,-167.65 686.69,-156"/>
<polygon fill="black" stroke="black" points="688.52,-158.98 694.93,-150.54 684.66,-153.15 688.52,-158.98"/>
</g>
</g>
</svg>
