<?xml version="1.0" encoding="UTF-8" standalone="no"?>
<!DOCTYPE svg PUBLIC "-//W3C//DTD SVG 1.1//EN"
 "http://www.w3.org/Graphics/SVG/1.1/DTD/svg11.dtd">
<!-- Generated by graphviz version 7.0.0 (20221023.0053)
 -->
<!-- Title: Tree Pages: 1 -->
<svg width="963pt" height="373pt"
 viewBox="0.00 0.00 963.00 373.00" xmlns="http://www.w3.org/2000/svg" xmlns:xlink="http://www.w3.org/1999/xlink">
<g id="graph0" class="graph" transform="scale(1 1) rotate(0) translate(4 369)">
<title>Tree</title>
<polygon fill="white" stroke="none" points="-4,4 -4,-369 959,-369 959,4 -4,4"/>
<!-- 0 -->
<g id="node1" class="node">
<title>0</title>
<path fill="#efb185" stroke="black" d="M611.5,-365C611.5,-365 484.5,-365 484.5,-365 478.5,-365 472.5,-359 472.5,-353 472.5,-353 472.5,-309 472.5,-309 472.5,-303 478.5,-297 484.5,-297 484.5,-297 611.5,-297 611.5,-297 617.5,-297 623.5,-303 623.5,-309 623.5,-309 623.5,-353 623.5,-353 623.5,-359 617.5,-365 611.5,-365"/>
<text text-anchor="middle" x="548" y="-349.8" font-family="Helvetica,sans-Serif" font-size="14.00">clogp &lt;= 4.895</text>
<text text-anchor="middle" x="548" y="-334.8" font-family="Helvetica,sans-Serif" font-size="14.00">squared_error = 1.611</text>
<text text-anchor="middle" x="548" y="-319.8" font-family="Helvetica,sans-Serif" font-size="14.00">samples = 466</text>
<text text-anchor="middle" x="548" y="-304.8" font-family="Helvetica,sans-Serif" font-size="14.00">value = 6.317</text>
</g>
<!-- 1 -->
<g id="node2" class="node">
<title>1</title>
<path fill="#e89152" stroke="black" d="M520,-261C520,-261 380,-261 380,-261 374,-261 368,-255 368,-249 368,-249 368,-205 368,-205 368,-199 374,-193 380,-193 380,-193 520,-193 520,-193 526,-193 532,-199 532,-205 532,-205 532,-249 532,-249 532,-255 526,-261 520,-261"/>
<text text-anchor="middle" x="450" y="-245.8" font-family="Helvetica,sans-Serif" font-size="14.00">n_aromatic_rings &lt;= 1.5</text>
<text text-anchor="middle" x="450" y="-230.8" font-family="Helvetica,sans-Serif" font-size="14.00">squared_error = 0.345</text>
<text text-anchor="middle" x="450" y="-215.8" font-family="Helvetica,sans-Serif" font-size="14.00">samples = 320</text>
<text text-anchor="middle" x="450" y="-200.8" font-family="Helvetica,sans-Serif" font-size="14.00">value = 7.108</text>
</g>
<!-- 0&#45;&gt;1 -->
<g id="edge1" class="edge">
<title>0&#45;&gt;1</title>
<path fill="none" stroke="black" d="M515.91,-296.6C507.62,-287.97 498.59,-278.58 489.95,-269.58"/>
<polygon fill="black" stroke="black" points="492.66,-267.35 483.21,-262.57 487.61,-272.2 492.66,-267.35"/>
<text text-anchor="middle" x="481.66" y="-282.77" font-family="Helvetica,sans-Serif" font-size="14.00">True</text>
</g>
<!-- 8 -->
<g id="node9" class="node">
<title>8</title>
<path fill="#fef9f5" stroke="black" d="M771.5,-261C771.5,-261 616.5,-261 616.5,-261 610.5,-261 604.5,-255 604.5,-249 604.5,-249 604.5,-205 604.5,-205 604.5,-199 610.5,-193 616.5,-193 616.5,-193 771.5,-193 771.5,-193 777.5,-193 783.5,-199 783.5,-205 783.5,-205 783.5,-249 783.5,-249 783.5,-255 777.5,-261 771.5,-261"/>
<text text-anchor="middle" x="694" y="-245.8" font-family="Helvetica,sans-Serif" font-size="14.00">n_rotatable_bonds &lt;= 13.5</text>
<text text-anchor="middle" x="694" y="-230.8" font-family="Helvetica,sans-Serif" font-size="14.00">squared_error = 0.004</text>
<text text-anchor="middle" x="694" y="-215.8" font-family="Helvetica,sans-Serif" font-size="14.00">samples = 146</text>
<text text-anchor="middle" x="694" y="-200.8" font-family="Helvetica,sans-Serif" font-size="14.00">value = 4.582</text>
</g>
<!-- 0&#45;&gt;8 -->
<g id="edge8" class="edge">
<title>0&#45;&gt;8</title>
<path fill="none" stroke="black" d="M595.81,-296.6C608.91,-287.44 623.26,-277.42 636.83,-267.94"/>
<polygon fill="black" stroke="black" points="638.65,-270.94 644.85,-262.34 634.64,-265.2 638.65,-270.94"/>
<text text-anchor="middle" x="641.72" y="-282.39" font-family="Helvetica,sans-Serif" font-size="14.00">False</text>
</g>
<!-- 2 -->
<g id="node3" class="node">
<title>2</title>
<path fill="#f2c09b" stroke="black" d="M296,-157C296,-157 156,-157 156,-157 150,-157 144,-151 144,-145 144,-145 144,-101 144,-101 144,-95 150,-89 156,-89 156,-89 296,-89 296,-89 302,-89 308,-95 308,-101 308,-101 308,-145 308,-145 308,-151 302,-157 296,-157"/>
<text text-anchor="middle" x="226" y="-141.8" font-family="Helvetica,sans-Serif" font-size="14.00">n_aromatic_rings &lt;= 0.5</text>
<text text-anchor="middle" x="226" y="-126.8" font-family="Helvetica,sans-Serif" font-size="14.00">squared_error = 0.327</text>
<text text-anchor="middle" x="226" y="-111.8" font-family="Helvetica,sans-Serif" font-size="14.00">samples = 49</text>
<text text-anchor="middle" x="226" y="-96.8" font-family="Helvetica,sans-Serif" font-size="14.00">value = 5.972</text>
</g>
<!-- 1&#45;&gt;2 -->
<g id="edge2" class="edge">
<title>1&#45;&gt;2</title>
<path fill="none" stroke="black" d="M376.65,-192.6C355.29,-182.87 331.78,-172.17 309.81,-162.17"/>
<polygon fill="black" stroke="black" points="311.44,-159.06 300.89,-158.1 308.54,-165.43 311.44,-159.06"/>
</g>
<!-- 5 -->
<g id="node6" class="node">
<title>5</title>
<path fill="#e78845" stroke="black" d="M513.5,-157C513.5,-157 386.5,-157 386.5,-157 380.5,-157 374.5,-151 374.5,-145 374.5,-145 374.5,-101 374.5,-101 374.5,-95 380.5,-89 386.5,-89 386.5,-89 513.5,-89 513.5,-89 519.5,-89 525.5,-95 525.5,-101 525.5,-101 525.5,-145 525.5,-145 525.5,-151 519.5,-157 513.5,-157"/>
<text text-anchor="middle" x="450" y="-141.8" font-family="Helvetica,sans-Serif" font-size="14.00">n_lipinski_hbd &lt;= 1.5</text>
<text text-anchor="middle" x="450" y="-126.8" font-family="Helvetica,sans-Serif" font-size="14.00">squared_error = 0.072</text>
<text text-anchor="middle" x="450" y="-111.8" font-family="Helvetica,sans-Serif" font-size="14.00">samples = 271</text>
<text text-anchor="middle" x="450" y="-96.8" font-family="Helvetica,sans-Serif" font-size="14.00">value = 7.314</text>
</g>
<!-- 1&#45;&gt;5 -->
<g id="edge5" class="edge">
<title>1&#45;&gt;5</title>
<path fill="none" stroke="black" d="M450,-192.6C450,-185.03 450,-176.87 450,-168.9"/>
<polygon fill="black" stroke="black" points="453.5,-168.99 450,-158.99 446.5,-168.99 453.5,-168.99"/>
</g>
<!-- 3 -->
<g id="node4" class="node">
<title>3</title>
<path fill="#f8decc" stroke="black" d="M128,-53C128,-53 12,-53 12,-53 6,-53 0,-47 0,-41 0,-41 0,-12 0,-12 0,-6 6,0 12,0 12,0 128,0 128,0 134,0 140,-6 140,-12 140,-12 140,-41 140,-41 140,-47 134,-53 128,-53"/>
<text text-anchor="middle" x="70" y="-37.8" font-family="Helvetica,sans-Serif" font-size="14.00">squared_error = &#45;0.0</text>
<text text-anchor="middle" x="70" y="-22.8" font-family="Helvetica,sans-Serif" font-size="14.00">samples = 18</text>
<text text-anchor="middle" x="70" y="-7.8" font-family="Helvetica,sans-Serif" font-size="14.00">value = 5.222</text>
</g>
<!-- 2&#45;&gt;3 -->
<g id="edge3" class="edge">
<title>2&#45;&gt;3</title>
<path fill="none" stroke="black" d="M171,-88.68C155.16,-79.09 137.94,-68.65 122.27,-59.16"/>
<polygon fill="black" stroke="black" points="124.41,-56.37 114.04,-54.18 120.78,-62.35 124.41,-56.37"/>
</g>
<!-- 4 -->
<g id="node5" class="node">
<title>4</title>
<path fill="#eeae7f" stroke="black" d="M282,-53C282,-53 170,-53 170,-53 164,-53 158,-47 158,-41 158,-41 158,-12 158,-12 158,-6 164,0 170,0 170,0 282,0 282,0 288,0 294,-6 294,-12 294,-12 294,-41 294,-41 294,-47 288,-53 282,-53"/>
<text text-anchor="middle" x="226" y="-37.8" font-family="Helvetica,sans-Serif" font-size="14.00">squared_error = 0.0</text>
<text text-anchor="middle" x="226" y="-22.8" font-family="Helvetica,sans-Serif" font-size="14.00">samples = 31</text>
<text text-anchor="middle" x="226" y="-7.8" font-family="Helvetica,sans-Serif" font-size="14.00">value = 6.407</text>
</g>
<!-- 2&#45;&gt;4 -->
<g id="edge4" class="edge">
<title>2&#45;&gt;4</title>
<path fill="none" stroke="black" d="M226,-88.68C226,-80.99 226,-72.76 226,-64.9"/>
<polygon fill="black" stroke="black" points="229.5,-64.91 226,-54.91 222.5,-64.91 229.5,-64.91"/>
</g>
<!-- 6 -->
<g id="node7" class="node">
<title>6</title>
<path fill="#e58139" stroke="black" d="M436,-53C436,-53 324,-53 324,-53 318,-53 312,-47 312,-41 312,-41 312,-12 312,-12 312,-6 318,0 324,0 324,0 436,0 436,0 442,0 448,-6 448,-12 448,-12 448,-41 448,-41 448,-47 442,-53 436,-53"/>
<text text-anchor="middle" x="380" y="-37.8" font-family="Helvetica,sans-Serif" font-size="14.00">squared_error = 0.0</text>
<text text-anchor="middle" x="380" y="-22.8" font-family="Helvetica,sans-Serif" font-size="14.00">samples = 188</text>
<text text-anchor="middle" x="380" y="-7.8" font-family="Helvetica,sans-Serif" font-size="14.00">value = 7.492</text>
</g>
<!-- 5&#45;&gt;6 -->
<g id="edge6" class="edge">
<title>5&#45;&gt;6</title>
<path fill="none" stroke="black" d="M425.32,-88.68C419.02,-80.18 412.23,-71.01 405.87,-62.42"/>
<polygon fill="black" stroke="black" points="408.85,-60.56 400.08,-54.61 403.22,-64.73 408.85,-60.56"/>
</g>
<!-- 7 -->
<g id="node8" class="node">
<title>7</title>
<path fill="#ea995f" stroke="black" d="M594,-53C594,-53 478,-53 478,-53 472,-53 466,-47 466,-41 466,-41 466,-12 466,-12 466,-6 472,0 478,0 478,0 594,0 594,0 600,0 606,-6 606,-12 606,-12 606,-41 606,-41 606,-47 600,-53 594,-53"/>
<text text-anchor="middle" x="536" y="-37.8" font-family="Helvetica,sans-Serif" font-size="14.00">squared_error = &#45;0.0</text>
<text text-anchor="middle" x="536" y="-22.8" font-family="Helvetica,sans-Serif" font-size="14.00">samples = 83</text>
<text text-anchor="middle" x="536" y="-7.8" font-family="Helvetica,sans-Serif" font-size="14.00">value = 6.908</text>
</g>
<!-- 5&#45;&gt;7 -->
<g id="edge7" class="edge">
<title>5&#45;&gt;7</title>
<path fill="none" stroke="black" d="M480.32,-88.68C488.23,-79.99 496.76,-70.62 504.72,-61.87"/>
<polygon fill="black" stroke="black" points="507.27,-64.26 511.42,-54.51 502.1,-59.55 507.27,-64.26"/>
</g>
<!-- 9 -->
<g id="node10" class="node">
<title>9</title>
<path fill="#fef8f4" stroke="black" d="M785,-157C785,-157 603,-157 603,-157 597,-157 591,-151 591,-145 591,-145 591,-101 591,-101 591,-95 597,-89 603,-89 603,-89 785,-89 785,-89 791,-89 797,-95 797,-101 797,-101 797,-145 797,-145 797,-151 791,-157 785,-157"/>
<text text-anchor="middle" x="694" y="-141.8" font-family="Helvetica,sans-Serif" font-size="14.00">n_aromatic_carbocycles &lt;= 1.5</text>
<text text-anchor="middle" x="694" y="-126.8" font-family="Helvetica,sans-Serif" font-size="14.00">squared_error = 0.0</text>
<text text-anchor="middle" x="694" y="-111.8" font-family="Helvetica,sans-Serif" font-size="14.00">samples = 125</text>
<text text-anchor="middle" x="694" y="-96.8" font-family="Helvetica,sans-Serif" font-size="14.00">value = 4.607</text>
</g>
<!-- 8&#45;&gt;9 -->
<g id="edge9" class="edge">
<title>8&#45;&gt;9</title>
<path fill="none" stroke="black" d="M694,-192.6C694,-185.03 694,-176.87 694,-168.9"/>
<polygon fill="black" stroke="black" points="697.5,-168.99 694,-158.99 690.5,-168.99 697.5,-168.99"/>
</g>
<!-- 12 -->
<g id="node13" class="node">
<title>12</title>
<path fill="#ffffff" stroke="black" d="M943,-149.5C943,-149.5 827,-149.5 827,-149.5 821,-149.5 815,-143.5 815,-137.5 815,-137.5 815,-108.5 815,-108.5 815,-102.5 821,-96.5 827,-96.5 827,-96.5 943,-96.5 943,-96.5 949,-96.5 955,-102.5 955,-108.5 955,-108.5 955,-137.5 955,-137.5 955,-143.5 949,-149.5 943,-149.5"/>
<text text-anchor="middle" x="885" y="-134.3" font-family="Helvetica,sans-Serif" font-size="14.00">squared_error = &#45;0.0</text>
<text text-anchor="middle" x="885" y="-119.3" font-family="Helvetica,sans-Serif" font-size="14.00">samples = 21</text>
<text text-anchor="middle" x="885" y="-104.3" font-family="Helvetica,sans-Serif" font-size="14.00">value = 4.432</text>
</g>
<!-- 8&#45;&gt;12 -->
<g id="edge12" class="edge">
<title>8&#45;&gt;12</title>
<path fill="none" stroke="black" d="M756.54,-192.6C779.09,-180.56 804.43,-167.03 826.61,-155.18"/>
<polygon fill="black" stroke="black" points="828.05,-158.38 835.22,-150.58 824.75,-152.21 828.05,-158.38"/>
</g>
<!-- 10 -->
<g id="node11" class="node">
<title>10</title>
<path fill="#fef8f4" stroke="black" d="M752,-53C752,-53 636,-53 636,-53 630,-53 624,-47 624,-41 624,-41 624,-12 624,-12 624,-6 630,0 636,0 636,0 752,0 752,0 758,0 764,-6 764,-12 764,-12 764,-41 764,-41 764,-47 758,-53 752,-53"/>
<text text-anchor="middle" x="694" y="-37.8" font-family="Helvetica,sans-Serif" font-size="14.00">squared_error = &#45;0.0</text>
<text text-anchor="middle" x="694" y="-22.8" font-family="Helvetica,sans-Serif" font-size="14.00">samples = 11</text>
<text text-anchor="middle" x="694" y="-7.8" font-family="Helvetica,sans-Serif" font-size="14.00">value = 4.607</text>
</g>
<!-- 9&#45;&gt;10 -->
<g id="edge10" class="edge">
<title>9&#45;&gt;10</title>
<path fill="none" stroke="black" d="M694,-88.68C694,-80.99 694,-72.76 694,-64.9"/>
<polygon fill="black" stroke="black" points="697.5,-64.91 694,-54.91 690.5,-64.91 697.5,-64.91"/>
</g>
<!-- 11 -->
<g id="node12" class="node">
<title>11</title>
<path fill="#fef8f4" stroke="black" d="M910,-53C910,-53 794,-53 794,-53 788,-53 782,-47 782,-41 782,-41 782,-12 782,-12 782,-6 788,0 794,0 794,0 910,0 910,0 916,0 922,-6 922,-12 922,-12 922,-41 922,-41 922,-47 916,-53 910,-53"/>
<text text-anchor="middle" x="852" y="-37.8" font-family="Helvetica,sans-Serif" font-size="14.00">squared_error = &#45;0.0</text>
<text text-anchor="middle" x="852" y="-22.8" font-family="Helvetica,sans-Serif" font-size="14.00">samples = 114</text>
<text text-anchor="middle" x="852" y="-7.8" font-family="Helvetica,sans-Serif" font-size="14.00">value = 4.607</text>
</g>
<!-- 9&#45;&gt;11 -->
<g id="edge11" class="edge">
<title>9&#45;&gt;11</title>
<path fill="none" stroke="black" d="M749.7,-88.68C765.74,-79.09 783.19,-68.65 799.06,-59.16"/>
<polygon fill="black" stroke="black" points="800.62,-62.31 807.41,-54.17 797.03,-56.3 800.62,-62.31"/>
</g>
</g>
</svg>
