<?xml version="1.0" encoding="UTF-8" standalone="no"?>
<!DOCTYPE svg PUBLIC "-//W3C//DTD SVG 1.1//EN"
 "http://www.w3.org/Graphics/SVG/1.1/DTD/svg11.dtd">
<!-- Generated by graphviz version 7.0.0 (20221023.0053)
 -->
<!-- Title: Tree Pages: 1 -->
<svg width="944pt" height="373pt"
 viewBox="0.00 0.00 944.00 373.00" xmlns="http://www.w3.org/2000/svg" xmlns:xlink="http://www.w3.org/1999/xlink">
<g id="graph0" class="graph" transform="scale(1 1) rotate(0) translate(4 369)">
<title>Tree</title>
<polygon fill="white" stroke="none" points="-4,4 -4,-369 940,-369 940,4 -4,4"/>
<!-- 0 -->
<g id="node1" class="node">
<title>0</title>
<path fill="#f0b68c" stroke="black" d="M546.5,-365C546.5,-365 419.5,-365 419.5,-365 413.5,-365 407.5,-359 407.5,-353 407.5,-353 407.5,-309 407.5,-309 407.5,-303 413.5,-297 419.5,-297 419.5,-297 546.5,-297 546.5,-297 552.5,-297 558.5,-303 558.5,-309 558.5,-309 558.5,-353 558.5,-353 558.5,-359 552.5,-365 546.5,-365"/>
<text text-anchor="middle" x="483" y="-349.8" font-family="Helvetica,sans-Serif" font-size="14.00">clogp &lt;= 4.895</text>
<text text-anchor="middle" x="483" y="-334.8" font-family="Helvetica,sans-Serif" font-size="14.00">squared_error = 1.555</text>
<text text-anchor="middle" x="483" y="-319.8" font-family="Helvetica,sans-Serif" font-size="14.00">samples = 466</text>
<text text-anchor="middle" x="483" y="-304.8" font-family="Helvetica,sans-Serif" font-size="14.00">value = 6.209</text>
</g>
<!-- 1 -->
<g id="node2" class="node">
<title>1</title>
<path fill="#e99559" stroke="black" d="M465,-261C465,-261 325,-261 325,-261 319,-261 313,-255 313,-249 313,-249 313,-205 313,-205 313,-199 319,-193 325,-193 325,-193 465,-193 465,-193 471,-193 477,-199 477,-205 477,-205 477,-249 477,-249 477,-255 471,-261 465,-261"/>
<text text-anchor="middle" x="395" y="-245.8" font-family="Helvetica,sans-Serif" font-size="14.00">n_aromatic_rings &lt;= 1.5</text>
<text text-anchor="middle" x="395" y="-230.8" font-family="Helvetica,sans-Serif" font-size="14.00">squared_error = 0.243</text>
<text text-anchor="middle" x="395" y="-215.8" font-family="Helvetica,sans-Serif" font-size="14.00">samples = 320</text>
<text text-anchor="middle" x="395" y="-200.8" font-family="Helvetica,sans-Serif" font-size="14.00">value = 7.004</text>
</g>
<!-- 0&#45;&gt;1 -->
<g id="edge1" class="edge">
<title>0&#45;&gt;1</title>
<path fill="none" stroke="black" d="M454.19,-296.6C446.89,-288.15 438.96,-278.96 431.35,-270.13"/>
<polygon fill="black" stroke="black" points="434.05,-267.9 424.87,-262.62 428.75,-272.48 434.05,-267.9"/>
<text text-anchor="middle" x="422.04" y="-282.71" font-family="Helvetica,sans-Serif" font-size="14.00">True</text>
</g>
<!-- 8 -->
<g id="node9" class="node">
<title>8</title>
<path fill="#fffefd" stroke="black" d="M634.5,-261C634.5,-261 507.5,-261 507.5,-261 501.5,-261 495.5,-255 495.5,-249 495.5,-249 495.5,-205 495.5,-205 495.5,-199 501.5,-193 507.5,-193 507.5,-193 634.5,-193 634.5,-193 640.5,-193 646.5,-199 646.5,-205 646.5,-205 646.5,-249 646.5,-249 646.5,-255 640.5,-261 634.5,-261"/>
<text text-anchor="middle" x="571" y="-245.8" font-family="Helvetica,sans-Serif" font-size="14.00">qed &lt;= 0.457</text>
<text text-anchor="middle" x="571" y="-230.8" font-family="Helvetica,sans-Serif" font-size="14.00">squared_error = 0.005</text>
<text text-anchor="middle" x="571" y="-215.8" font-family="Helvetica,sans-Serif" font-size="14.00">samples = 146</text>
<text text-anchor="middle" x="571" y="-200.8" font-family="Helvetica,sans-Serif" font-size="14.00">value = 4.465</text>
</g>
<!-- 0&#45;&gt;8 -->
<g id="edge8" class="edge">
<title>0&#45;&gt;8</title>
<path fill="none" stroke="black" d="M511.81,-296.6C519.11,-288.15 527.04,-278.96 534.65,-270.13"/>
<polygon fill="black" stroke="black" points="537.25,-272.48 541.13,-262.62 531.95,-267.9 537.25,-272.48"/>
<text text-anchor="middle" x="543.96" y="-282.71" font-family="Helvetica,sans-Serif" font-size="14.00">False</text>
</g>
<!-- 2 -->
<g id="node3" class="node">
<title>2</title>
<path fill="#f0b990" stroke="black" d="M282.5,-157C282.5,-157 155.5,-157 155.5,-157 149.5,-157 143.5,-151 143.5,-145 143.5,-145 143.5,-101 143.5,-101 143.5,-95 149.5,-89 155.5,-89 155.5,-89 282.5,-89 282.5,-89 288.5,-89 294.5,-95 294.5,-101 294.5,-101 294.5,-145 294.5,-145 294.5,-151 288.5,-157 282.5,-157"/>
<text text-anchor="middle" x="219" y="-141.8" font-family="Helvetica,sans-Serif" font-size="14.00">n_rings &lt;= 0.5</text>
<text text-anchor="middle" x="219" y="-126.8" font-family="Helvetica,sans-Serif" font-size="14.00">squared_error = 0.245</text>
<text text-anchor="middle" x="219" y="-111.8" font-family="Helvetica,sans-Serif" font-size="14.00">samples = 49</text>
<text text-anchor="middle" x="219" y="-96.8" font-family="Helvetica,sans-Serif" font-size="14.00">value = 6.141</text>
</g>
<!-- 1&#45;&gt;2 -->
<g id="edge2" class="edge">
<title>1&#45;&gt;2</title>
<path fill="none" stroke="black" d="M337.37,-192.6C321.11,-183.18 303.28,-172.84 286.5,-163.12"/>
<polygon fill="black" stroke="black" points="288.48,-160.22 278.07,-158.23 284.97,-166.28 288.48,-160.22"/>
</g>
<!-- 5 -->
<g id="node6" class="node">
<title>5</title>
<path fill="#e88f4e" stroke="black" d="M467.5,-157C467.5,-157 324.5,-157 324.5,-157 318.5,-157 312.5,-151 312.5,-145 312.5,-145 312.5,-101 312.5,-101 312.5,-95 318.5,-89 324.5,-89 324.5,-89 467.5,-89 467.5,-89 473.5,-89 479.5,-95 479.5,-101 479.5,-101 479.5,-145 479.5,-145 479.5,-151 473.5,-157 467.5,-157"/>
<text text-anchor="middle" x="396" y="-141.8" font-family="Helvetica,sans-Serif" font-size="14.00">n_saturated_rings &lt;= 0.5</text>
<text text-anchor="middle" x="396" y="-126.8" font-family="Helvetica,sans-Serif" font-size="14.00">squared_error = 0.084</text>
<text text-anchor="middle" x="396" y="-111.8" font-family="Helvetica,sans-Serif" font-size="14.00">samples = 271</text>
<text text-anchor="middle" x="396" y="-96.8" font-family="Helvetica,sans-Serif" font-size="14.00">value = 7.161</text>
</g>
<!-- 1&#45;&gt;5 -->
<g id="edge5" class="edge">
<title>1&#45;&gt;5</title>
<path fill="none" stroke="black" d="M395.33,-192.6C395.4,-185.03 395.48,-176.87 395.56,-168.9"/>
<polygon fill="black" stroke="black" points="399.06,-169.02 395.66,-158.99 392.06,-168.95 399.06,-169.02"/>
</g>
<!-- 3 -->
<g id="node4" class="node">
<title>3</title>
<path fill="#f8decc" stroke="black" d="M124,-53C124,-53 12,-53 12,-53 6,-53 0,-47 0,-41 0,-41 0,-12 0,-12 0,-6 6,0 12,0 12,0 124,0 124,0 130,0 136,-6 136,-12 136,-12 136,-41 136,-41 136,-47 130,-53 124,-53"/>
<text text-anchor="middle" x="68" y="-37.8" font-family="Helvetica,sans-Serif" font-size="14.00">squared_error = 0.0</text>
<text text-anchor="middle" x="68" y="-22.8" font-family="Helvetica,sans-Serif" font-size="14.00">samples = 11</text>
<text text-anchor="middle" x="68" y="-7.8" font-family="Helvetica,sans-Serif" font-size="14.00">value = 5.222</text>
</g>
<!-- 2&#45;&gt;3 -->
<g id="edge3" class="edge">
<title>2&#45;&gt;3</title>
<path fill="none" stroke="black" d="M165.76,-88.68C150.58,-79.18 134.08,-68.85 119.03,-59.43"/>
<polygon fill="black" stroke="black" points="120.99,-56.53 110.66,-54.2 117.28,-62.47 120.99,-56.53"/>
</g>
<!-- 4 -->
<g id="node5" class="node">
<title>4</title>
<path fill="#eeae7f" stroke="black" d="M282,-53C282,-53 166,-53 166,-53 160,-53 154,-47 154,-41 154,-41 154,-12 154,-12 154,-6 160,0 166,0 166,0 282,0 282,0 288,0 294,-6 294,-12 294,-12 294,-41 294,-41 294,-47 288,-53 282,-53"/>
<text text-anchor="middle" x="224" y="-37.8" font-family="Helvetica,sans-Serif" font-size="14.00">squared_error = &#45;0.0</text>
<text text-anchor="middle" x="224" y="-22.8" font-family="Helvetica,sans-Serif" font-size="14.00">samples = 38</text>
<text text-anchor="middle" x="224" y="-7.8" font-family="Helvetica,sans-Serif" font-size="14.00">value = 6.407</text>
</g>
<!-- 2&#45;&gt;4 -->
<g id="edge4" class="edge">
<title>2&#45;&gt;4</title>
<path fill="none" stroke="black" d="M220.76,-88.68C221.17,-80.9 221.62,-72.56 222.04,-64.63"/>
<polygon fill="black" stroke="black" points="225.52,-65.08 222.55,-54.91 218.53,-64.71 225.52,-65.08"/>
</g>
<!-- 6 -->
<g id="node7" class="node">
<title>6</title>
<path fill="#ea995f" stroke="black" d="M449,-53C449,-53 333,-53 333,-53 327,-53 321,-47 321,-41 321,-41 321,-12 321,-12 321,-6 327,0 333,0 333,0 449,0 449,0 455,0 461,-6 461,-12 461,-12 461,-41 461,-41 461,-47 455,-53 449,-53"/>
<text text-anchor="middle" x="391" y="-37.8" font-family="Helvetica,sans-Serif" font-size="14.00">squared_error = &#45;0.0</text>
<text text-anchor="middle" x="391" y="-22.8" font-family="Helvetica,sans-Serif" font-size="14.00">samples = 154</text>
<text text-anchor="middle" x="391" y="-7.8" font-family="Helvetica,sans-Serif" font-size="14.00">value = 6.908</text>
</g>
<!-- 5&#45;&gt;6 -->
<g id="edge6" class="edge">
<title>5&#45;&gt;6</title>
<path fill="none" stroke="black" d="M394.24,-88.68C393.83,-80.9 393.38,-72.56 392.96,-64.63"/>
<polygon fill="black" stroke="black" points="396.47,-64.71 392.45,-54.91 389.48,-65.08 396.47,-64.71"/>
</g>
<!-- 7 -->
<g id="node8" class="node">
<title>7</title>
<path fill="#e58139" stroke="black" d="M603,-53C603,-53 491,-53 491,-53 485,-53 479,-47 479,-41 479,-41 479,-12 479,-12 479,-6 485,0 491,0 491,0 603,0 603,0 609,0 615,-6 615,-12 615,-12 615,-41 615,-41 615,-47 609,-53 603,-53"/>
<text text-anchor="middle" x="547" y="-37.8" font-family="Helvetica,sans-Serif" font-size="14.00">squared_error = 0.0</text>
<text text-anchor="middle" x="547" y="-22.8" font-family="Helvetica,sans-Serif" font-size="14.00">samples = 117</text>
<text text-anchor="middle" x="547" y="-7.8" font-family="Helvetica,sans-Serif" font-size="14.00">value = 7.492</text>
</g>
<!-- 5&#45;&gt;7 -->
<g id="edge7" class="edge">
<title>5&#45;&gt;7</title>
<path fill="none" stroke="black" d="M449.24,-88.68C464.42,-79.18 480.92,-68.85 495.97,-59.43"/>
<polygon fill="black" stroke="black" points="497.72,-62.47 504.34,-54.2 494.01,-56.53 497.72,-62.47"/>
</g>
<!-- 9 -->
<g id="node10" class="node">
<title>9</title>
<path fill="#ffffff" stroke="black" d="M628,-149.5C628,-149.5 512,-149.5 512,-149.5 506,-149.5 500,-143.5 500,-137.5 500,-137.5 500,-108.5 500,-108.5 500,-102.5 506,-96.5 512,-96.5 512,-96.5 628,-96.5 628,-96.5 634,-96.5 640,-102.5 640,-108.5 640,-108.5 640,-137.5 640,-137.5 640,-143.5 634,-149.5 628,-149.5"/>
<text text-anchor="middle" x="570" y="-134.3" font-family="Helvetica,sans-Serif" font-size="14.00">squared_error = &#45;0.0</text>
<text text-anchor="middle" x="570" y="-119.3" font-family="Helvetica,sans-Serif" font-size="14.00">samples = 118</text>
<text text-anchor="middle" x="570" y="-104.3" font-family="Helvetica,sans-Serif" font-size="14.00">value = 4.432</text>
</g>
<!-- 8&#45;&gt;9 -->
<g id="edge9" class="edge">
<title>8&#45;&gt;9</title>
<path fill="none" stroke="black" d="M570.67,-192.6C570.57,-182.47 570.46,-171.28 570.36,-160.93"/>
<polygon fill="black" stroke="black" points="573.86,-161.18 570.27,-151.22 566.87,-161.25 573.86,-161.18"/>
</g>
<!-- 10 -->
<g id="node11" class="node">
<title>10</title>
<path fill="#fef8f4" stroke="black" d="M782,-157C782,-157 670,-157 670,-157 664,-157 658,-151 658,-145 658,-145 658,-101 658,-101 658,-95 664,-89 670,-89 670,-89 782,-89 782,-89 788,-89 794,-95 794,-101 794,-101 794,-145 794,-145 794,-151 788,-157 782,-157"/>
<text text-anchor="middle" x="726" y="-141.8" font-family="Helvetica,sans-Serif" font-size="14.00">sas &lt;= 2.022</text>
<text text-anchor="middle" x="726" y="-126.8" font-family="Helvetica,sans-Serif" font-size="14.00">squared_error = 0.0</text>
<text text-anchor="middle" x="726" y="-111.8" font-family="Helvetica,sans-Serif" font-size="14.00">samples = 28</text>
<text text-anchor="middle" x="726" y="-96.8" font-family="Helvetica,sans-Serif" font-size="14.00">value = 4.607</text>
</g>
<!-- 8&#45;&gt;10 -->
<g id="edge10" class="edge">
<title>8&#45;&gt;10</title>
<path fill="none" stroke="black" d="M621.75,-192.6C635.8,-183.36 651.19,-173.23 665.73,-163.66"/>
<polygon fill="black" stroke="black" points="667.44,-166.73 673.87,-158.31 663.59,-160.88 667.44,-166.73"/>
</g>
<!-- 11 -->
<g id="node12" class="node">
<title>11</title>
<path fill="#fef8f4" stroke="black" d="M770,-53C770,-53 658,-53 658,-53 652,-53 646,-47 646,-41 646,-41 646,-12 646,-12 646,-6 652,0 658,0 658,0 770,0 770,0 776,0 782,-6 782,-12 782,-12 782,-41 782,-41 782,-47 776,-53 770,-53"/>
<text text-anchor="middle" x="714" y="-37.8" font-family="Helvetica,sans-Serif" font-size="14.00">squared_error = 0.0</text>
<text text-anchor="middle" x="714" y="-22.8" font-family="Helvetica,sans-Serif" font-size="14.00">samples = 1</text>
<text text-anchor="middle" x="714" y="-7.8" font-family="Helvetica,sans-Serif" font-size="14.00">value = 4.607</text>
</g>
<!-- 10&#45;&gt;11 -->
<g id="edge11" class="edge">
<title>10&#45;&gt;11</title>
<path fill="none" stroke="black" d="M721.77,-88.68C720.78,-80.9 719.72,-72.56 718.71,-64.63"/>
<polygon fill="black" stroke="black" points="722.21,-64.37 717.48,-54.9 715.27,-65.26 722.21,-64.37"/>
</g>
<!-- 12 -->
<g id="node13" class="node">
<title>12</title>
<path fill="#fef8f4" stroke="black" d="M924,-53C924,-53 812,-53 812,-53 806,-53 800,-47 800,-41 800,-41 800,-12 800,-12 800,-6 806,0 812,0 812,0 924,0 924,0 930,0 936,-6 936,-12 936,-12 936,-41 936,-41 936,-47 930,-53 924,-53"/>
<text text-anchor="middle" x="868" y="-37.8" font-family="Helvetica,sans-Serif" font-size="14.00">squared_error = 0.0</text>
<text text-anchor="middle" x="868" y="-22.8" font-family="Helvetica,sans-Serif" font-size="14.00">samples = 27</text>
<text text-anchor="middle" x="868" y="-7.8" font-family="Helvetica,sans-Serif" font-size="14.00">value = 4.607</text>
</g>
<!-- 10&#45;&gt;12 -->
<g id="edge12" class="edge">
<title>10&#45;&gt;12</title>
<path fill="none" stroke="black" d="M776.06,-88.68C790.21,-79.27 805.57,-69.05 819.61,-59.7"/>
<polygon fill="black" stroke="black" points="821.44,-62.69 827.83,-54.23 817.57,-56.86 821.44,-62.69"/>
</g>
</g>
</svg>
