<?xml version="1.0" encoding="UTF-8" standalone="no"?>
<!DOCTYPE svg PUBLIC "-//W3C//DTD SVG 1.1//EN"
 "http://www.w3.org/Graphics/SVG/1.1/DTD/svg11.dtd">
<!-- Generated by graphviz version 7.0.0 (20221023.0053)
 -->
<!-- Title: Tree Pages: 1 -->
<svg width="816pt" height="373pt"
 viewBox="0.00 0.00 816.00 373.00" xmlns="http://www.w3.org/2000/svg" xmlns:xlink="http://www.w3.org/1999/xlink">
<g id="graph0" class="graph" transform="scale(1 1) rotate(0) translate(4 369)">
<title>Tree</title>
<polygon fill="white" stroke="none" points="-4,4 -4,-369 812,-369 812,4 -4,4"/>
<!-- 0 -->
<g id="node1" class="node">
<title>0</title>
<path fill="#f0b489" stroke="black" d="M558.5,-365C558.5,-365 431.5,-365 431.5,-365 425.5,-365 419.5,-359 419.5,-353 419.5,-353 419.5,-309 419.5,-309 419.5,-303 425.5,-297 431.5,-297 431.5,-297 558.5,-297 558.5,-297 564.5,-297 570.5,-303 570.5,-309 570.5,-309 570.5,-353 570.5,-353 570.5,-359 564.5,-365 558.5,-365"/>
<text text-anchor="middle" x="495" y="-349.8" font-family="Helvetica,sans-Serif" font-size="14.00">clogp &lt;= 4.895</text>
<text text-anchor="middle" x="495" y="-334.8" font-family="Helvetica,sans-Serif" font-size="14.00">squared_error = 1.504</text>
<text text-anchor="middle" x="495" y="-319.8" font-family="Helvetica,sans-Serif" font-size="14.00">samples = 466</text>
<text text-anchor="middle" x="495" y="-304.8" font-family="Helvetica,sans-Serif" font-size="14.00">value = 6.254</text>
</g>
<!-- 1 -->
<g id="node2" class="node">
<title>1</title>
<path fill="#e99558" stroke="black" d="M477,-261C477,-261 337,-261 337,-261 331,-261 325,-255 325,-249 325,-249 325,-205 325,-205 325,-199 331,-193 337,-193 337,-193 477,-193 477,-193 483,-193 489,-199 489,-205 489,-205 489,-249 489,-249 489,-255 483,-261 477,-261"/>
<text text-anchor="middle" x="407" y="-245.8" font-family="Helvetica,sans-Serif" font-size="14.00">n_aromatic_rings &lt;= 1.5</text>
<text text-anchor="middle" x="407" y="-230.8" font-family="Helvetica,sans-Serif" font-size="14.00">squared_error = 0.359</text>
<text text-anchor="middle" x="407" y="-215.8" font-family="Helvetica,sans-Serif" font-size="14.00">samples = 320</text>
<text text-anchor="middle" x="407" y="-200.8" font-family="Helvetica,sans-Serif" font-size="14.00">value = 7.011</text>
</g>
<!-- 0&#45;&gt;1 -->
<g id="edge1" class="edge">
<title>0&#45;&gt;1</title>
<path fill="none" stroke="black" d="M466.19,-296.6C458.89,-288.15 450.96,-278.96 443.35,-270.13"/>
<polygon fill="black" stroke="black" points="446.05,-267.9 436.87,-262.62 440.75,-272.48 446.05,-267.9"/>
<text text-anchor="middle" x="434.04" y="-282.71" font-family="Helvetica,sans-Serif" font-size="14.00">True</text>
</g>
<!-- 8 -->
<g id="node9" class="node">
<title>8</title>
<path fill="#fef8f5" stroke="black" d="M646.5,-261C646.5,-261 519.5,-261 519.5,-261 513.5,-261 507.5,-255 507.5,-249 507.5,-249 507.5,-205 507.5,-205 507.5,-199 513.5,-193 519.5,-193 519.5,-193 646.5,-193 646.5,-193 652.5,-193 658.5,-199 658.5,-205 658.5,-205 658.5,-249 658.5,-249 658.5,-255 652.5,-261 646.5,-261"/>
<text text-anchor="middle" x="583" y="-245.8" font-family="Helvetica,sans-Serif" font-size="14.00">n_rings &lt;= 2.5</text>
<text text-anchor="middle" x="583" y="-230.8" font-family="Helvetica,sans-Serif" font-size="14.00">squared_error = 0.002</text>
<text text-anchor="middle" x="583" y="-215.8" font-family="Helvetica,sans-Serif" font-size="14.00">samples = 146</text>
<text text-anchor="middle" x="583" y="-200.8" font-family="Helvetica,sans-Serif" font-size="14.00">value = 4.594</text>
</g>
<!-- 0&#45;&gt;8 -->
<g id="edge8" class="edge">
<title>0&#45;&gt;8</title>
<path fill="none" stroke="black" d="M523.81,-296.6C531.11,-288.15 539.04,-278.96 546.65,-270.13"/>
<polygon fill="black" stroke="black" points="549.25,-272.48 553.13,-262.62 543.95,-267.9 549.25,-272.48"/>
<text text-anchor="middle" x="555.96" y="-282.71" font-family="Helvetica,sans-Serif" font-size="14.00">False</text>
</g>
<!-- 2 -->
<g id="node3" class="node">
<title>2</title>
<path fill="#f3c4a2" stroke="black" d="M304,-157C304,-157 122,-157 122,-157 116,-157 110,-151 110,-145 110,-145 110,-101 110,-101 110,-95 116,-89 122,-89 122,-89 304,-89 304,-89 310,-89 316,-95 316,-101 316,-101 316,-145 316,-145 316,-151 310,-157 304,-157"/>
<text text-anchor="middle" x="213" y="-141.8" font-family="Helvetica,sans-Serif" font-size="14.00">n_aromatic_carbocycles &lt;= 0.5</text>
<text text-anchor="middle" x="213" y="-126.8" font-family="Helvetica,sans-Serif" font-size="14.00">squared_error = 0.348</text>
<text text-anchor="middle" x="213" y="-111.8" font-family="Helvetica,sans-Serif" font-size="14.00">samples = 49</text>
<text text-anchor="middle" x="213" y="-96.8" font-family="Helvetica,sans-Serif" font-size="14.00">value = 5.875</text>
</g>
<!-- 1&#45;&gt;2 -->
<g id="edge2" class="edge">
<title>1&#45;&gt;2</title>
<path fill="none" stroke="black" d="M343.48,-192.6C325.31,-183.05 305.35,-172.55 286.62,-162.71"/>
<polygon fill="black" stroke="black" points="288.49,-159.73 278.01,-158.18 285.23,-165.93 288.49,-159.73"/>
</g>
<!-- 5 -->
<g id="node6" class="node">
<title>5</title>
<path fill="#e78c4b" stroke="black" d="M473.5,-157C473.5,-157 346.5,-157 346.5,-157 340.5,-157 334.5,-151 334.5,-145 334.5,-145 334.5,-101 334.5,-101 334.5,-95 340.5,-89 346.5,-89 346.5,-89 473.5,-89 473.5,-89 479.5,-89 485.5,-95 485.5,-101 485.5,-101 485.5,-145 485.5,-145 485.5,-151 479.5,-157 473.5,-157"/>
<text text-anchor="middle" x="410" y="-141.8" font-family="Helvetica,sans-Serif" font-size="14.00">clogp &lt;= 3.599</text>
<text text-anchor="middle" x="410" y="-126.8" font-family="Helvetica,sans-Serif" font-size="14.00">squared_error = 0.085</text>
<text text-anchor="middle" x="410" y="-111.8" font-family="Helvetica,sans-Serif" font-size="14.00">samples = 271</text>
<text text-anchor="middle" x="410" y="-96.8" font-family="Helvetica,sans-Serif" font-size="14.00">value = 7.217</text>
</g>
<!-- 1&#45;&gt;5 -->
<g id="edge5" class="edge">
<title>1&#45;&gt;5</title>
<path fill="none" stroke="black" d="M407.98,-192.6C408.21,-185.03 408.45,-176.87 408.68,-168.9"/>
<polygon fill="black" stroke="black" points="412.18,-169.09 408.97,-158.99 405.18,-168.88 412.18,-169.09"/>
</g>
<!-- 3 -->
<g id="node4" class="node">
<title>3</title>
<path fill="#f8decc" stroke="black" d="M124,-53C124,-53 12,-53 12,-53 6,-53 0,-47 0,-41 0,-41 0,-12 0,-12 0,-6 6,0 12,0 12,0 124,0 124,0 130,0 136,-6 136,-12 136,-12 136,-41 136,-41 136,-47 130,-53 124,-53"/>
<text text-anchor="middle" x="68" y="-37.8" font-family="Helvetica,sans-Serif" font-size="14.00">squared_error = 0.0</text>
<text text-anchor="middle" x="68" y="-22.8" font-family="Helvetica,sans-Serif" font-size="14.00">samples = 22</text>
<text text-anchor="middle" x="68" y="-7.8" font-family="Helvetica,sans-Serif" font-size="14.00">value = 5.222</text>
</g>
<!-- 2&#45;&gt;3 -->
<g id="edge3" class="edge">
<title>2&#45;&gt;3</title>
<path fill="none" stroke="black" d="M161.88,-88.68C147.3,-79.18 131.45,-68.85 117,-59.43"/>
<polygon fill="black" stroke="black" points="119.29,-56.75 109,-54.22 115.47,-62.61 119.29,-56.75"/>
</g>
<!-- 4 -->
<g id="node5" class="node">
<title>4</title>
<path fill="#eeae7f" stroke="black" d="M282,-53C282,-53 166,-53 166,-53 160,-53 154,-47 154,-41 154,-41 154,-12 154,-12 154,-6 160,0 166,0 166,0 282,0 282,0 288,0 294,-6 294,-12 294,-12 294,-41 294,-41 294,-47 288,-53 282,-53"/>
<text text-anchor="middle" x="224" y="-37.8" font-family="Helvetica,sans-Serif" font-size="14.00">squared_error = &#45;0.0</text>
<text text-anchor="middle" x="224" y="-22.8" font-family="Helvetica,sans-Serif" font-size="14.00">samples = 27</text>
<text text-anchor="middle" x="224" y="-7.8" font-family="Helvetica,sans-Serif" font-size="14.00">value = 6.407</text>
</g>
<!-- 2&#45;&gt;4 -->
<g id="edge4" class="edge">
<title>2&#45;&gt;4</title>
<path fill="none" stroke="black" d="M216.88,-88.68C217.78,-80.9 218.75,-72.56 219.68,-64.63"/>
<polygon fill="black" stroke="black" points="223.13,-65.23 220.81,-54.9 216.18,-64.43 223.13,-65.23"/>
</g>
<!-- 6 -->
<g id="node7" class="node">
<title>6</title>
<path fill="#ea995f" stroke="black" d="M456,-53C456,-53 344,-53 344,-53 338,-53 332,-47 332,-41 332,-41 332,-12 332,-12 332,-6 338,0 344,0 344,0 456,0 456,0 462,0 468,-6 468,-12 468,-12 468,-41 468,-41 468,-47 462,-53 456,-53"/>
<text text-anchor="middle" x="400" y="-37.8" font-family="Helvetica,sans-Serif" font-size="14.00">squared_error = 0.0</text>
<text text-anchor="middle" x="400" y="-22.8" font-family="Helvetica,sans-Serif" font-size="14.00">samples = 128</text>
<text text-anchor="middle" x="400" y="-7.8" font-family="Helvetica,sans-Serif" font-size="14.00">value = 6.908</text>
</g>
<!-- 5&#45;&gt;6 -->
<g id="edge6" class="edge">
<title>5&#45;&gt;6</title>
<path fill="none" stroke="black" d="M406.47,-88.68C405.65,-80.9 404.77,-72.56 403.93,-64.63"/>
<polygon fill="black" stroke="black" points="407.43,-64.48 402.9,-54.9 400.47,-65.21 407.43,-64.48"/>
</g>
<!-- 7 -->
<g id="node8" class="node">
<title>7</title>
<path fill="#e58139" stroke="black" d="M610,-53C610,-53 498,-53 498,-53 492,-53 486,-47 486,-41 486,-41 486,-12 486,-12 486,-6 492,0 498,0 498,0 610,0 610,0 616,0 622,-6 622,-12 622,-12 622,-41 622,-41 622,-47 616,-53 610,-53"/>
<text text-anchor="middle" x="554" y="-37.8" font-family="Helvetica,sans-Serif" font-size="14.00">squared_error = 0.0</text>
<text text-anchor="middle" x="554" y="-22.8" font-family="Helvetica,sans-Serif" font-size="14.00">samples = 143</text>
<text text-anchor="middle" x="554" y="-7.8" font-family="Helvetica,sans-Serif" font-size="14.00">value = 7.492</text>
</g>
<!-- 5&#45;&gt;7 -->
<g id="edge7" class="edge">
<title>5&#45;&gt;7</title>
<path fill="none" stroke="black" d="M460.77,-88.68C475.11,-79.27 490.69,-69.05 504.93,-59.7"/>
<polygon fill="black" stroke="black" points="506.84,-62.64 513.28,-54.22 503,-56.78 506.84,-62.64"/>
</g>
<!-- 9 -->
<g id="node10" class="node">
<title>9</title>
<path fill="#ffffff" stroke="black" d="M638,-149.5C638,-149.5 522,-149.5 522,-149.5 516,-149.5 510,-143.5 510,-137.5 510,-137.5 510,-108.5 510,-108.5 510,-102.5 516,-96.5 522,-96.5 522,-96.5 638,-96.5 638,-96.5 644,-96.5 650,-102.5 650,-108.5 650,-108.5 650,-137.5 650,-137.5 650,-143.5 644,-149.5 638,-149.5"/>
<text text-anchor="middle" x="580" y="-134.3" font-family="Helvetica,sans-Serif" font-size="14.00">squared_error = &#45;0.0</text>
<text text-anchor="middle" x="580" y="-119.3" font-family="Helvetica,sans-Serif" font-size="14.00">samples = 11</text>
<text text-anchor="middle" x="580" y="-104.3" font-family="Helvetica,sans-Serif" font-size="14.00">value = 4.432</text>
</g>
<!-- 8&#45;&gt;9 -->
<g id="edge9" class="edge">
<title>8&#45;&gt;9</title>
<path fill="none" stroke="black" d="M582.02,-192.6C581.72,-182.47 581.39,-171.28 581.09,-160.93"/>
<polygon fill="black" stroke="black" points="584.59,-161.11 580.8,-151.22 577.6,-161.32 584.59,-161.11"/>
</g>
<!-- 10 -->
<g id="node11" class="node">
<title>10</title>
<path fill="#fef8f4" stroke="black" d="M796,-149.5C796,-149.5 680,-149.5 680,-149.5 674,-149.5 668,-143.5 668,-137.5 668,-137.5 668,-108.5 668,-108.5 668,-102.5 674,-96.5 680,-96.5 680,-96.5 796,-96.5 796,-96.5 802,-96.5 808,-102.5 808,-108.5 808,-108.5 808,-137.5 808,-137.5 808,-143.5 802,-149.5 796,-149.5"/>
<text text-anchor="middle" x="738" y="-134.3" font-family="Helvetica,sans-Serif" font-size="14.00">squared_error = &#45;0.0</text>
<text text-anchor="middle" x="738" y="-119.3" font-family="Helvetica,sans-Serif" font-size="14.00">samples = 135</text>
<text text-anchor="middle" x="738" y="-104.3" font-family="Helvetica,sans-Serif" font-size="14.00">value = 4.607</text>
</g>
<!-- 8&#45;&gt;10 -->
<g id="edge10" class="edge">
<title>8&#45;&gt;10</title>
<path fill="none" stroke="black" d="M633.75,-192.6C651.63,-180.84 671.67,-167.65 689.37,-156"/>
<polygon fill="black" stroke="black" points="691.24,-158.96 697.67,-150.54 687.4,-153.11 691.24,-158.96"/>
</g>
</g>
</svg>
