<?xml version="1.0" encoding="UTF-8" standalone="no"?>
<!DOCTYPE svg PUBLIC "-//W3C//DTD SVG 1.1//EN"
 "http://www.w3.org/Graphics/SVG/1.1/DTD/svg11.dtd">
<!-- Generated by graphviz version 7.0.0 (20221023.0053)
 -->
<!-- Title: Tree Pages: 1 -->
<svg width="823pt" height="373pt"
 viewBox="0.00 0.00 823.00 373.00" xmlns="http://www.w3.org/2000/svg" xmlns:xlink="http://www.w3.org/1999/xlink">
<g id="graph0" class="graph" transform="scale(1 1) rotate(0) translate(4 369)">
<title>Tree</title>
<polygon fill="white" stroke="none" points="-4,4 -4,-369 819,-369 819,4 -4,4"/>
<!-- 0 -->
<g id="node1" class="node">
<title>0</title>
<path fill="#f0b58b" stroke="black" d="M567.5,-365C567.5,-365 440.5,-365 440.5,-365 434.5,-365 428.5,-359 428.5,-353 428.5,-353 428.5,-309 428.5,-309 428.5,-303 434.5,-297 440.5,-297 440.5,-297 567.5,-297 567.5,-297 573.5,-297 579.5,-303 579.5,-309 579.5,-309 579.5,-353 579.5,-353 579.5,-359 573.5,-365 567.5,-365"/>
<text text-anchor="middle" x="504" y="-349.8" font-family="Helvetica,sans-Serif" font-size="14.00">clogp &lt;= 4.901</text>
<text text-anchor="middle" x="504" y="-334.8" font-family="Helvetica,sans-Serif" font-size="14.00">squared_error = 1.144</text>
<text text-anchor="middle" x="504" y="-319.8" font-family="Helvetica,sans-Serif" font-size="14.00">samples = 10</text>
<text text-anchor="middle" x="504" y="-304.8" font-family="Helvetica,sans-Serif" font-size="14.00">value = 6.228</text>
</g>
<!-- 1 -->
<g id="node2" class="node">
<title>1</title>
<path fill="#eca36f" stroke="black" d="M486,-261C486,-261 346,-261 346,-261 340,-261 334,-255 334,-249 334,-249 334,-205 334,-205 334,-199 340,-193 346,-193 346,-193 486,-193 486,-193 492,-193 498,-199 498,-205 498,-205 498,-249 498,-249 498,-255 492,-261 486,-261"/>
<text text-anchor="middle" x="416" y="-245.8" font-family="Helvetica,sans-Serif" font-size="14.00">n_aromatic_rings &lt;= 1.5</text>
<text text-anchor="middle" x="416" y="-230.8" font-family="Helvetica,sans-Serif" font-size="14.00">squared_error = 0.516</text>
<text text-anchor="middle" x="416" y="-215.8" font-family="Helvetica,sans-Serif" font-size="14.00">samples = 8</text>
<text text-anchor="middle" x="416" y="-200.8" font-family="Helvetica,sans-Serif" font-size="14.00">value = 6.656</text>
</g>
<!-- 0&#45;&gt;1 -->
<g id="edge1" class="edge">
<title>0&#45;&gt;1</title>
<path fill="none" stroke="black" d="M475.19,-296.6C467.89,-288.15 459.96,-278.96 452.35,-270.13"/>
<polygon fill="black" stroke="black" points="455.05,-267.9 445.87,-262.62 449.75,-272.48 455.05,-267.9"/>
<text text-anchor="middle" x="443.04" y="-282.71" font-family="Helvetica,sans-Serif" font-size="14.00">True</text>
</g>
<!-- 8 -->
<g id="node9" class="node">
<title>8</title>
<path fill="#fefbf9" stroke="black" d="M655.5,-261C655.5,-261 528.5,-261 528.5,-261 522.5,-261 516.5,-255 516.5,-249 516.5,-249 516.5,-205 516.5,-205 516.5,-199 522.5,-193 528.5,-193 528.5,-193 655.5,-193 655.5,-193 661.5,-193 667.5,-199 667.5,-205 667.5,-205 667.5,-249 667.5,-249 667.5,-255 661.5,-261 655.5,-261"/>
<text text-anchor="middle" x="592" y="-245.8" font-family="Helvetica,sans-Serif" font-size="14.00">sas &lt;= 3.741</text>
<text text-anchor="middle" x="592" y="-230.8" font-family="Helvetica,sans-Serif" font-size="14.00">squared_error = 0.008</text>
<text text-anchor="middle" x="592" y="-215.8" font-family="Helvetica,sans-Serif" font-size="14.00">samples = 2</text>
<text text-anchor="middle" x="592" y="-200.8" font-family="Helvetica,sans-Serif" font-size="14.00">value = 4.52</text>
</g>
<!-- 0&#45;&gt;8 -->
<g id="edge8" class="edge">
<title>0&#45;&gt;8</title>
<path fill="none" stroke="black" d="M532.81,-296.6C540.11,-288.15 548.04,-278.96 555.65,-270.13"/>
<polygon fill="black" stroke="black" points="558.25,-272.48 562.13,-262.62 552.95,-267.9 558.25,-272.48"/>
<text text-anchor="middle" x="564.96" y="-282.71" font-family="Helvetica,sans-Serif" font-size="14.00">False</text>
</g>
<!-- 2 -->
<g id="node3" class="node">
<title>2</title>
<path fill="#f1ba92" stroke="black" d="M314,-157C314,-157 132,-157 132,-157 126,-157 120,-151 120,-145 120,-145 120,-101 120,-101 120,-95 126,-89 132,-89 132,-89 314,-89 314,-89 320,-89 326,-95 326,-101 326,-101 326,-145 326,-145 326,-151 320,-157 314,-157"/>
<text text-anchor="middle" x="223" y="-141.8" font-family="Helvetica,sans-Serif" font-size="14.00">n_aromatic_carbocycles &lt;= 0.5</text>
<text text-anchor="middle" x="223" y="-126.8" font-family="Helvetica,sans-Serif" font-size="14.00">squared_error = 0.33</text>
<text text-anchor="middle" x="223" y="-111.8" font-family="Helvetica,sans-Serif" font-size="14.00">samples = 4</text>
<text text-anchor="middle" x="223" y="-96.8" font-family="Helvetica,sans-Serif" font-size="14.00">value = 6.111</text>
</g>
<!-- 1&#45;&gt;2 -->
<g id="edge2" class="edge">
<title>1&#45;&gt;2</title>
<path fill="none" stroke="black" d="M352.8,-192.6C334.81,-183.09 315.05,-172.65 296.5,-162.85"/>
<polygon fill="black" stroke="black" points="298.15,-159.76 287.68,-158.18 294.88,-165.95 298.15,-159.76"/>
</g>
<!-- 5 -->
<g id="node6" class="node">
<title>5</title>
<path fill="#e78d4c" stroke="black" d="M483.5,-157C483.5,-157 356.5,-157 356.5,-157 350.5,-157 344.5,-151 344.5,-145 344.5,-145 344.5,-101 344.5,-101 344.5,-95 350.5,-89 356.5,-89 356.5,-89 483.5,-89 483.5,-89 489.5,-89 495.5,-95 495.5,-101 495.5,-101 495.5,-145 495.5,-145 495.5,-151 489.5,-157 483.5,-157"/>
<text text-anchor="middle" x="420" y="-141.8" font-family="Helvetica,sans-Serif" font-size="14.00">n_lipinski_hba &lt;= 3.0</text>
<text text-anchor="middle" x="420" y="-126.8" font-family="Helvetica,sans-Serif" font-size="14.00">squared_error = 0.108</text>
<text text-anchor="middle" x="420" y="-111.8" font-family="Helvetica,sans-Serif" font-size="14.00">samples = 4</text>
<text text-anchor="middle" x="420" y="-96.8" font-family="Helvetica,sans-Serif" font-size="14.00">value = 7.2</text>
</g>
<!-- 1&#45;&gt;5 -->
<g id="edge5" class="edge">
<title>1&#45;&gt;5</title>
<path fill="none" stroke="black" d="M417.31,-192.6C417.61,-185.03 417.93,-176.87 418.24,-168.9"/>
<polygon fill="black" stroke="black" points="421.73,-169.12 418.63,-158.99 414.74,-168.84 421.73,-169.12"/>
</g>
<!-- 3 -->
<g id="node4" class="node">
<title>3</title>
<path fill="#f8decc" stroke="black" d="M124,-53C124,-53 12,-53 12,-53 6,-53 0,-47 0,-41 0,-41 0,-12 0,-12 0,-6 6,0 12,0 12,0 124,0 124,0 130,0 136,-6 136,-12 136,-12 136,-41 136,-41 136,-47 130,-53 124,-53"/>
<text text-anchor="middle" x="68" y="-37.8" font-family="Helvetica,sans-Serif" font-size="14.00">squared_error = 0.0</text>
<text text-anchor="middle" x="68" y="-22.8" font-family="Helvetica,sans-Serif" font-size="14.00">samples = 1</text>
<text text-anchor="middle" x="68" y="-7.8" font-family="Helvetica,sans-Serif" font-size="14.00">value = 5.222</text>
</g>
<!-- 2&#45;&gt;3 -->
<g id="edge3" class="edge">
<title>2&#45;&gt;3</title>
<path fill="none" stroke="black" d="M168.35,-88.68C152.62,-79.09 135.5,-68.65 119.94,-59.16"/>
<polygon fill="black" stroke="black" points="122.12,-56.4 111.76,-54.18 118.48,-62.38 122.12,-56.4"/>
</g>
<!-- 4 -->
<g id="node5" class="node">
<title>4</title>
<path fill="#eeae7f" stroke="black" d="M293.5,-53C293.5,-53 166.5,-53 166.5,-53 160.5,-53 154.5,-47 154.5,-41 154.5,-41 154.5,-12 154.5,-12 154.5,-6 160.5,0 166.5,0 166.5,0 293.5,0 293.5,0 299.5,0 305.5,-6 305.5,-12 305.5,-12 305.5,-41 305.5,-41 305.5,-47 299.5,-53 293.5,-53"/>
<text text-anchor="middle" x="230" y="-37.8" font-family="Helvetica,sans-Serif" font-size="14.00">squared_error = 0.088</text>
<text text-anchor="middle" x="230" y="-22.8" font-family="Helvetica,sans-Serif" font-size="14.00">samples = 3</text>
<text text-anchor="middle" x="230" y="-7.8" font-family="Helvetica,sans-Serif" font-size="14.00">value = 6.407</text>
</g>
<!-- 2&#45;&gt;4 -->
<g id="edge4" class="edge">
<title>2&#45;&gt;4</title>
<path fill="none" stroke="black" d="M225.47,-88.68C226.04,-80.9 226.66,-72.56 227.25,-64.63"/>
<polygon fill="black" stroke="black" points="230.72,-65.13 227.97,-54.9 223.74,-64.62 230.72,-65.13"/>
</g>
<!-- 6 -->
<g id="node7" class="node">
<title>6</title>
<path fill="#ea995f" stroke="black" d="M476.5,-53C476.5,-53 349.5,-53 349.5,-53 343.5,-53 337.5,-47 337.5,-41 337.5,-41 337.5,-12 337.5,-12 337.5,-6 343.5,0 349.5,0 349.5,0 476.5,0 476.5,0 482.5,0 488.5,-6 488.5,-12 488.5,-12 488.5,-41 488.5,-41 488.5,-47 482.5,-53 476.5,-53"/>
<text text-anchor="middle" x="413" y="-37.8" font-family="Helvetica,sans-Serif" font-size="14.00">squared_error = 0.008</text>
<text text-anchor="middle" x="413" y="-22.8" font-family="Helvetica,sans-Serif" font-size="14.00">samples = 2</text>
<text text-anchor="middle" x="413" y="-7.8" font-family="Helvetica,sans-Serif" font-size="14.00">value = 6.908</text>
</g>
<!-- 5&#45;&gt;6 -->
<g id="edge6" class="edge">
<title>5&#45;&gt;6</title>
<path fill="none" stroke="black" d="M417.53,-88.68C416.96,-80.9 416.34,-72.56 415.75,-64.63"/>
<polygon fill="black" stroke="black" points="419.26,-64.62 415.03,-54.9 412.28,-65.13 419.26,-64.62"/>
</g>
<!-- 7 -->
<g id="node8" class="node">
<title>7</title>
<path fill="#e58139" stroke="black" d="M645.5,-53C645.5,-53 518.5,-53 518.5,-53 512.5,-53 506.5,-47 506.5,-41 506.5,-41 506.5,-12 506.5,-12 506.5,-6 512.5,0 518.5,0 518.5,0 645.5,0 645.5,0 651.5,0 657.5,-6 657.5,-12 657.5,-12 657.5,-41 657.5,-41 657.5,-47 651.5,-53 645.5,-53"/>
<text text-anchor="middle" x="582" y="-37.8" font-family="Helvetica,sans-Serif" font-size="14.00">squared_error = 0.038</text>
<text text-anchor="middle" x="582" y="-22.8" font-family="Helvetica,sans-Serif" font-size="14.00">samples = 2</text>
<text text-anchor="middle" x="582" y="-7.8" font-family="Helvetica,sans-Serif" font-size="14.00">value = 7.492</text>
</g>
<!-- 5&#45;&gt;7 -->
<g id="edge7" class="edge">
<title>5&#45;&gt;7</title>
<path fill="none" stroke="black" d="M477.12,-88.68C493.56,-79.09 511.45,-68.65 527.72,-59.16"/>
<polygon fill="black" stroke="black" points="529.43,-62.22 536.3,-54.16 525.9,-56.17 529.43,-62.22"/>
</g>
<!-- 9 -->
<g id="node10" class="node">
<title>9</title>
<path fill="#ffffff" stroke="black" d="M645,-149.5C645,-149.5 533,-149.5 533,-149.5 527,-149.5 521,-143.5 521,-137.5 521,-137.5 521,-108.5 521,-108.5 521,-102.5 527,-96.5 533,-96.5 533,-96.5 645,-96.5 645,-96.5 651,-96.5 657,-102.5 657,-108.5 657,-108.5 657,-137.5 657,-137.5 657,-143.5 651,-149.5 645,-149.5"/>
<text text-anchor="middle" x="589" y="-134.3" font-family="Helvetica,sans-Serif" font-size="14.00">squared_error = 0.0</text>
<text text-anchor="middle" x="589" y="-119.3" font-family="Helvetica,sans-Serif" font-size="14.00">samples = 1</text>
<text text-anchor="middle" x="589" y="-104.3" font-family="Helvetica,sans-Serif" font-size="14.00">value = 4.432</text>
</g>
<!-- 8&#45;&gt;9 -->
<g id="edge9" class="edge">
<title>8&#45;&gt;9</title>
<path fill="none" stroke="black" d="M591.02,-192.6C590.72,-182.47 590.39,-171.28 590.09,-160.93"/>
<polygon fill="black" stroke="black" points="593.59,-161.11 589.8,-151.22 586.6,-161.32 593.59,-161.11"/>
</g>
<!-- 10 -->
<g id="node11" class="node">
<title>10</title>
<path fill="#fef8f4" stroke="black" d="M803,-149.5C803,-149.5 687,-149.5 687,-149.5 681,-149.5 675,-143.5 675,-137.5 675,-137.5 675,-108.5 675,-108.5 675,-102.5 681,-96.5 687,-96.5 687,-96.5 803,-96.5 803,-96.5 809,-96.5 815,-102.5 815,-108.5 815,-108.5 815,-137.5 815,-137.5 815,-143.5 809,-149.5 803,-149.5"/>
<text text-anchor="middle" x="745" y="-134.3" font-family="Helvetica,sans-Serif" font-size="14.00">squared_error = &#45;0.0</text>
<text text-anchor="middle" x="745" y="-119.3" font-family="Helvetica,sans-Serif" font-size="14.00">samples = 1</text>
<text text-anchor="middle" x="745" y="-104.3" font-family="Helvetica,sans-Serif" font-size="14.00">value = 4.607</text>
</g>
<!-- 8&#45;&gt;10 -->
<g id="edge10" class="edge">
<title>8&#45;&gt;10</title>
<path fill="none" stroke="black" d="M642.1,-192.6C659.75,-180.84 679.53,-167.65 697,-156"/>
<polygon fill="black" stroke="black" points="698.8,-159 705.18,-150.55 694.92,-153.18 698.8,-159"/>
</g>
</g>
</svg>
