<?xml version="1.0" encoding="UTF-8" standalone="no"?>
<!DOCTYPE svg PUBLIC "-//W3C//DTD SVG 1.1//EN"
 "http://www.w3.org/Graphics/SVG/1.1/DTD/svg11.dtd">
<!-- Generated by graphviz version 7.0.0 (20221023.0053)
 -->
<!-- Title: Tree Pages: 1 -->
<svg width="926pt" height="373pt"
 viewBox="0.00 0.00 926.00 373.00" xmlns="http://www.w3.org/2000/svg" xmlns:xlink="http://www.w3.org/1999/xlink">
<g id="graph0" class="graph" transform="scale(1 1) rotate(0) translate(4 369)">
<title>Tree</title>
<polygon fill="white" stroke="none" points="-4,4 -4,-369 922,-369 922,4 -4,4"/>
<!-- 0 -->
<g id="node1" class="node">
<title>0</title>
<path fill="#f1b991" stroke="black" d="M665.5,-365C665.5,-365 538.5,-365 538.5,-365 532.5,-365 526.5,-359 526.5,-353 526.5,-353 526.5,-309 526.5,-309 526.5,-303 532.5,-297 538.5,-297 538.5,-297 665.5,-297 665.5,-297 671.5,-297 677.5,-303 677.5,-309 677.5,-309 677.5,-353 677.5,-353 677.5,-359 671.5,-365 665.5,-365"/>
<text text-anchor="middle" x="602" y="-349.8" font-family="Helvetica,sans-Serif" font-size="14.00">clogp &lt;= 4.895</text>
<text text-anchor="middle" x="602" y="-334.8" font-family="Helvetica,sans-Serif" font-size="14.00">squared_error = 1.469</text>
<text text-anchor="middle" x="602" y="-319.8" font-family="Helvetica,sans-Serif" font-size="14.00">samples = 466</text>
<text text-anchor="middle" x="602" y="-304.8" font-family="Helvetica,sans-Serif" font-size="14.00">value = 6.134</text>
</g>
<!-- 1 -->
<g id="node2" class="node">
<title>1</title>
<path fill="#ea9a61" stroke="black" d="M528,-261C528,-261 388,-261 388,-261 382,-261 376,-255 376,-249 376,-249 376,-205 376,-205 376,-199 382,-193 388,-193 388,-193 528,-193 528,-193 534,-193 540,-199 540,-205 540,-205 540,-249 540,-249 540,-255 534,-261 528,-261"/>
<text text-anchor="middle" x="458" y="-245.8" font-family="Helvetica,sans-Serif" font-size="14.00">n_aromatic_rings &lt;= 1.5</text>
<text text-anchor="middle" x="458" y="-230.8" font-family="Helvetica,sans-Serif" font-size="14.00">squared_error = 0.372</text>
<text text-anchor="middle" x="458" y="-215.8" font-family="Helvetica,sans-Serif" font-size="14.00">samples = 320</text>
<text text-anchor="middle" x="458" y="-200.8" font-family="Helvetica,sans-Serif" font-size="14.00">value = 6.877</text>
</g>
<!-- 0&#45;&gt;1 -->
<g id="edge1" class="edge">
<title>0&#45;&gt;1</title>
<path fill="none" stroke="black" d="M554.85,-296.6C541.92,-287.44 527.77,-277.42 514.38,-267.94"/>
<polygon fill="black" stroke="black" points="516.68,-265.27 506.49,-262.35 512.63,-270.98 516.68,-265.27"/>
<text text-anchor="middle" x="509.46" y="-282.42" font-family="Helvetica,sans-Serif" font-size="14.00">True</text>
</g>
<!-- 8 -->
<g id="node9" class="node">
<title>8</title>
<path fill="#fefcfa" stroke="black" d="M759,-261C759,-261 625,-261 625,-261 619,-261 613,-255 613,-249 613,-249 613,-205 613,-205 613,-199 619,-193 625,-193 625,-193 759,-193 759,-193 765,-193 771,-199 771,-205 771,-205 771,-249 771,-249 771,-255 765,-261 759,-261"/>
<text text-anchor="middle" x="692" y="-245.8" font-family="Helvetica,sans-Serif" font-size="14.00">n_hetero_atoms &lt;= 5.5</text>
<text text-anchor="middle" x="692" y="-230.8" font-family="Helvetica,sans-Serif" font-size="14.00">squared_error = 0.007</text>
<text text-anchor="middle" x="692" y="-215.8" font-family="Helvetica,sans-Serif" font-size="14.00">samples = 146</text>
<text text-anchor="middle" x="692" y="-200.8" font-family="Helvetica,sans-Serif" font-size="14.00">value = 4.505</text>
</g>
<!-- 0&#45;&gt;8 -->
<g id="edge8" class="edge">
<title>0&#45;&gt;8</title>
<path fill="none" stroke="black" d="M631.47,-296.6C639.01,-288.06 647.21,-278.77 655.07,-269.86"/>
<polygon fill="black" stroke="black" points="657.47,-272.42 661.46,-262.61 652.22,-267.79 657.47,-272.42"/>
<text text-anchor="middle" x="664.02" y="-282.72" font-family="Helvetica,sans-Serif" font-size="14.00">False</text>
</g>
<!-- 2 -->
<g id="node3" class="node">
<title>2</title>
<path fill="#f4ccae" stroke="black" d="M293,-157C293,-157 159,-157 159,-157 153,-157 147,-151 147,-145 147,-145 147,-101 147,-101 147,-95 153,-89 159,-89 159,-89 293,-89 293,-89 299,-89 305,-95 305,-101 305,-101 305,-145 305,-145 305,-151 299,-157 293,-157"/>
<text text-anchor="middle" x="226" y="-141.8" font-family="Helvetica,sans-Serif" font-size="14.00">n_hetero_atoms &lt;= 4.5</text>
<text text-anchor="middle" x="226" y="-126.8" font-family="Helvetica,sans-Serif" font-size="14.00">squared_error = 0.334</text>
<text text-anchor="middle" x="226" y="-111.8" font-family="Helvetica,sans-Serif" font-size="14.00">samples = 49</text>
<text text-anchor="middle" x="226" y="-96.8" font-family="Helvetica,sans-Serif" font-size="14.00">value = 5.682</text>
</g>
<!-- 1&#45;&gt;2 -->
<g id="edge2" class="edge">
<title>1&#45;&gt;2</title>
<path fill="none" stroke="black" d="M382.03,-192.6C359.8,-182.83 335.33,-172.07 312.5,-162.03"/>
<polygon fill="black" stroke="black" points="314.08,-158.9 303.52,-158.08 311.27,-165.31 314.08,-158.9"/>
</g>
<!-- 5 -->
<g id="node6" class="node">
<title>5</title>
<path fill="#e89153" stroke="black" d="M526.5,-157C526.5,-157 389.5,-157 389.5,-157 383.5,-157 377.5,-151 377.5,-145 377.5,-145 377.5,-101 377.5,-101 377.5,-95 383.5,-89 389.5,-89 389.5,-89 526.5,-89 526.5,-89 532.5,-89 538.5,-95 538.5,-101 538.5,-101 538.5,-145 538.5,-145 538.5,-151 532.5,-157 526.5,-157"/>
<text text-anchor="middle" x="458" y="-141.8" font-family="Helvetica,sans-Serif" font-size="14.00">n_aliphatic_rings &lt;= 1.5</text>
<text text-anchor="middle" x="458" y="-126.8" font-family="Helvetica,sans-Serif" font-size="14.00">squared_error = 0.074</text>
<text text-anchor="middle" x="458" y="-111.8" font-family="Helvetica,sans-Serif" font-size="14.00">samples = 271</text>
<text text-anchor="middle" x="458" y="-96.8" font-family="Helvetica,sans-Serif" font-size="14.00">value = 7.094</text>
</g>
<!-- 1&#45;&gt;5 -->
<g id="edge5" class="edge">
<title>1&#45;&gt;5</title>
<path fill="none" stroke="black" d="M458,-192.6C458,-185.03 458,-176.87 458,-168.9"/>
<polygon fill="black" stroke="black" points="461.5,-168.99 458,-158.99 454.5,-168.99 461.5,-168.99"/>
</g>
<!-- 3 -->
<g id="node4" class="node">
<title>3</title>
<path fill="#eeae7f" stroke="black" d="M128,-53C128,-53 12,-53 12,-53 6,-53 0,-47 0,-41 0,-41 0,-12 0,-12 0,-6 6,0 12,0 12,0 128,0 128,0 134,0 140,-6 140,-12 140,-12 140,-41 140,-41 140,-47 134,-53 128,-53"/>
<text text-anchor="middle" x="70" y="-37.8" font-family="Helvetica,sans-Serif" font-size="14.00">squared_error = &#45;0.0</text>
<text text-anchor="middle" x="70" y="-22.8" font-family="Helvetica,sans-Serif" font-size="14.00">samples = 19</text>
<text text-anchor="middle" x="70" y="-7.8" font-family="Helvetica,sans-Serif" font-size="14.00">value = 6.407</text>
</g>
<!-- 2&#45;&gt;3 -->
<g id="edge3" class="edge">
<title>2&#45;&gt;3</title>
<path fill="none" stroke="black" d="M171,-88.68C155.16,-79.09 137.94,-68.65 122.27,-59.16"/>
<polygon fill="black" stroke="black" points="124.41,-56.37 114.04,-54.18 120.78,-62.35 124.41,-56.37"/>
</g>
<!-- 4 -->
<g id="node5" class="node">
<title>4</title>
<path fill="#f8decc" stroke="black" d="M282,-53C282,-53 170,-53 170,-53 164,-53 158,-47 158,-41 158,-41 158,-12 158,-12 158,-6 164,0 170,0 170,0 282,0 282,0 288,0 294,-6 294,-12 294,-12 294,-41 294,-41 294,-47 288,-53 282,-53"/>
<text text-anchor="middle" x="226" y="-37.8" font-family="Helvetica,sans-Serif" font-size="14.00">squared_error = 0.0</text>
<text text-anchor="middle" x="226" y="-22.8" font-family="Helvetica,sans-Serif" font-size="14.00">samples = 30</text>
<text text-anchor="middle" x="226" y="-7.8" font-family="Helvetica,sans-Serif" font-size="14.00">value = 5.222</text>
</g>
<!-- 2&#45;&gt;4 -->
<g id="edge4" class="edge">
<title>2&#45;&gt;4</title>
<path fill="none" stroke="black" d="M226,-88.68C226,-80.99 226,-72.76 226,-64.9"/>
<polygon fill="black" stroke="black" points="229.5,-64.91 226,-54.91 222.5,-64.91 229.5,-64.91"/>
</g>
<!-- 6 -->
<g id="node7" class="node">
<title>6</title>
<path fill="#ea995f" stroke="black" d="M440,-53C440,-53 324,-53 324,-53 318,-53 312,-47 312,-41 312,-41 312,-12 312,-12 312,-6 318,0 324,0 324,0 440,0 440,0 446,0 452,-6 452,-12 452,-12 452,-41 452,-41 452,-47 446,-53 440,-53"/>
<text text-anchor="middle" x="382" y="-37.8" font-family="Helvetica,sans-Serif" font-size="14.00">squared_error = &#45;0.0</text>
<text text-anchor="middle" x="382" y="-22.8" font-family="Helvetica,sans-Serif" font-size="14.00">samples = 185</text>
<text text-anchor="middle" x="382" y="-7.8" font-family="Helvetica,sans-Serif" font-size="14.00">value = 6.908</text>
</g>
<!-- 5&#45;&gt;6 -->
<g id="edge6" class="edge">
<title>5&#45;&gt;6</title>
<path fill="none" stroke="black" d="M431.21,-88.68C424.29,-80.09 416.83,-70.81 409.86,-62.15"/>
<polygon fill="black" stroke="black" points="412.77,-60.17 403.77,-54.57 407.31,-64.56 412.77,-60.17"/>
</g>
<!-- 7 -->
<g id="node8" class="node">
<title>7</title>
<path fill="#e58139" stroke="black" d="M594,-53C594,-53 482,-53 482,-53 476,-53 470,-47 470,-41 470,-41 470,-12 470,-12 470,-6 476,0 482,0 482,0 594,0 594,0 600,0 606,-6 606,-12 606,-12 606,-41 606,-41 606,-47 600,-53 594,-53"/>
<text text-anchor="middle" x="538" y="-37.8" font-family="Helvetica,sans-Serif" font-size="14.00">squared_error = 0.0</text>
<text text-anchor="middle" x="538" y="-22.8" font-family="Helvetica,sans-Serif" font-size="14.00">samples = 86</text>
<text text-anchor="middle" x="538" y="-7.8" font-family="Helvetica,sans-Serif" font-size="14.00">value = 7.492</text>
</g>
<!-- 5&#45;&gt;7 -->
<g id="edge7" class="edge">
<title>5&#45;&gt;7</title>
<path fill="none" stroke="black" d="M486.21,-88.68C493.48,-80.09 501.33,-70.81 508.67,-62.15"/>
<polygon fill="black" stroke="black" points="511.31,-64.44 515.1,-54.55 505.97,-59.92 511.31,-64.44"/>
</g>
<!-- 9 -->
<g id="node10" class="node">
<title>9</title>
<path fill="#fef8f4" stroke="black" d="M748,-157C748,-157 636,-157 636,-157 630,-157 624,-151 624,-145 624,-145 624,-101 624,-101 624,-95 630,-89 636,-89 636,-89 748,-89 748,-89 754,-89 760,-95 760,-101 760,-101 760,-145 760,-145 760,-151 754,-157 748,-157"/>
<text text-anchor="middle" x="692" y="-141.8" font-family="Helvetica,sans-Serif" font-size="14.00">sas &lt;= 2.04</text>
<text text-anchor="middle" x="692" y="-126.8" font-family="Helvetica,sans-Serif" font-size="14.00">squared_error = 0.0</text>
<text text-anchor="middle" x="692" y="-111.8" font-family="Helvetica,sans-Serif" font-size="14.00">samples = 61</text>
<text text-anchor="middle" x="692" y="-96.8" font-family="Helvetica,sans-Serif" font-size="14.00">value = 4.607</text>
</g>
<!-- 8&#45;&gt;9 -->
<g id="edge9" class="edge">
<title>8&#45;&gt;9</title>
<path fill="none" stroke="black" d="M692,-192.6C692,-185.03 692,-176.87 692,-168.9"/>
<polygon fill="black" stroke="black" points="695.5,-168.99 692,-158.99 688.5,-168.99 695.5,-168.99"/>
</g>
<!-- 12 -->
<g id="node13" class="node">
<title>12</title>
<path fill="#ffffff" stroke="black" d="M906,-149.5C906,-149.5 790,-149.5 790,-149.5 784,-149.5 778,-143.5 778,-137.5 778,-137.5 778,-108.5 778,-108.5 778,-102.5 784,-96.5 790,-96.5 790,-96.5 906,-96.5 906,-96.5 912,-96.5 918,-102.5 918,-108.5 918,-108.5 918,-137.5 918,-137.5 918,-143.5 912,-149.5 906,-149.5"/>
<text text-anchor="middle" x="848" y="-134.3" font-family="Helvetica,sans-Serif" font-size="14.00">squared_error = &#45;0.0</text>
<text text-anchor="middle" x="848" y="-119.3" font-family="Helvetica,sans-Serif" font-size="14.00">samples = 85</text>
<text text-anchor="middle" x="848" y="-104.3" font-family="Helvetica,sans-Serif" font-size="14.00">value = 4.432</text>
</g>
<!-- 8&#45;&gt;12 -->
<g id="edge12" class="edge">
<title>8&#45;&gt;12</title>
<path fill="none" stroke="black" d="M743.08,-192.6C761,-180.89 781.08,-167.76 798.84,-156.14"/>
<polygon fill="black" stroke="black" points="800.71,-159.1 807.17,-150.7 796.88,-153.24 800.71,-159.1"/>
</g>
<!-- 10 -->
<g id="node11" class="node">
<title>10</title>
<path fill="#fef8f4" stroke="black" d="M748,-53C748,-53 636,-53 636,-53 630,-53 624,-47 624,-41 624,-41 624,-12 624,-12 624,-6 630,0 636,0 636,0 748,0 748,0 754,0 760,-6 760,-12 760,-12 760,-41 760,-41 760,-47 754,-53 748,-53"/>
<text text-anchor="middle" x="692" y="-37.8" font-family="Helvetica,sans-Serif" font-size="14.00">squared_error = 0.0</text>
<text text-anchor="middle" x="692" y="-22.8" font-family="Helvetica,sans-Serif" font-size="14.00">samples = 2</text>
<text text-anchor="middle" x="692" y="-7.8" font-family="Helvetica,sans-Serif" font-size="14.00">value = 4.607</text>
</g>
<!-- 9&#45;&gt;10 -->
<g id="edge10" class="edge">
<title>9&#45;&gt;10</title>
<path fill="none" stroke="black" d="M692,-88.68C692,-80.99 692,-72.76 692,-64.9"/>
<polygon fill="black" stroke="black" points="695.5,-64.91 692,-54.91 688.5,-64.91 695.5,-64.91"/>
</g>
<!-- 11 -->
<g id="node12" class="node">
<title>11</title>
<path fill="#fef8f4" stroke="black" d="M902,-53C902,-53 790,-53 790,-53 784,-53 778,-47 778,-41 778,-41 778,-12 778,-12 778,-6 784,0 790,0 790,0 902,0 902,0 908,0 914,-6 914,-12 914,-12 914,-41 914,-41 914,-47 908,-53 902,-53"/>
<text text-anchor="middle" x="846" y="-37.8" font-family="Helvetica,sans-Serif" font-size="14.00">squared_error = 0.0</text>
<text text-anchor="middle" x="846" y="-22.8" font-family="Helvetica,sans-Serif" font-size="14.00">samples = 59</text>
<text text-anchor="middle" x="846" y="-7.8" font-family="Helvetica,sans-Serif" font-size="14.00">value = 4.607</text>
</g>
<!-- 9&#45;&gt;11 -->
<g id="edge11" class="edge">
<title>9&#45;&gt;11</title>
<path fill="none" stroke="black" d="M746.29,-88.68C761.93,-79.09 778.93,-68.65 794.4,-59.16"/>
<polygon fill="black" stroke="black" points="795.82,-62.4 802.51,-54.19 792.16,-56.43 795.82,-62.4"/>
</g>
</g>
</svg>
