<?xml version="1.0" encoding="UTF-8" standalone="no"?>
<!DOCTYPE svg PUBLIC "-//W3C//DTD SVG 1.1//EN"
 "http://www.w3.org/Graphics/SVG/1.1/DTD/svg11.dtd">
<!-- Generated by graphviz version 7.0.0 (20221023.0053)
 -->
<!-- Title: Tree Pages: 1 -->
<svg width="914pt" height="373pt"
 viewBox="0.00 0.00 914.00 373.00" xmlns="http://www.w3.org/2000/svg" xmlns:xlink="http://www.w3.org/1999/xlink">
<g id="graph0" class="graph" transform="scale(1 1) rotate(0) translate(4 369)">
<title>Tree</title>
<polygon fill="white" stroke="none" points="-4,4 -4,-369 910,-369 910,4 -4,4"/>
<!-- 0 -->
<g id="node1" class="node">
<title>0</title>
<path fill="#eeae80" stroke="black" d="M656.5,-365C656.5,-365 529.5,-365 529.5,-365 523.5,-365 517.5,-359 517.5,-353 517.5,-353 517.5,-309 517.5,-309 517.5,-303 523.5,-297 529.5,-297 529.5,-297 656.5,-297 656.5,-297 662.5,-297 668.5,-303 668.5,-309 668.5,-309 668.5,-353 668.5,-353 668.5,-359 662.5,-365 656.5,-365"/>
<text text-anchor="middle" x="593" y="-349.8" font-family="Helvetica,sans-Serif" font-size="14.00">clogp &lt;= 4.895</text>
<text text-anchor="middle" x="593" y="-334.8" font-family="Helvetica,sans-Serif" font-size="14.00">squared_error = 1.703</text>
<text text-anchor="middle" x="593" y="-319.8" font-family="Helvetica,sans-Serif" font-size="14.00">samples = 466</text>
<text text-anchor="middle" x="593" y="-304.8" font-family="Helvetica,sans-Serif" font-size="14.00">value = 6.399</text>
</g>
<!-- 1 -->
<g id="node2" class="node">
<title>1</title>
<path fill="#e78c4a" stroke="black" d="M522,-261C522,-261 382,-261 382,-261 376,-261 370,-255 370,-249 370,-249 370,-205 370,-205 370,-199 376,-193 382,-193 382,-193 522,-193 522,-193 528,-193 534,-199 534,-205 534,-205 534,-249 534,-249 534,-255 528,-261 522,-261"/>
<text text-anchor="middle" x="452" y="-245.8" font-family="Helvetica,sans-Serif" font-size="14.00">n_aromatic_rings &lt;= 1.5</text>
<text text-anchor="middle" x="452" y="-230.8" font-family="Helvetica,sans-Serif" font-size="14.00">squared_error = 0.281</text>
<text text-anchor="middle" x="452" y="-215.8" font-family="Helvetica,sans-Serif" font-size="14.00">samples = 320</text>
<text text-anchor="middle" x="452" y="-200.8" font-family="Helvetica,sans-Serif" font-size="14.00">value = 7.229</text>
</g>
<!-- 0&#45;&gt;1 -->
<g id="edge1" class="edge">
<title>0&#45;&gt;1</title>
<path fill="none" stroke="black" d="M546.83,-296.6C534.29,-287.53 520.59,-277.61 507.59,-268.21"/>
<polygon fill="black" stroke="black" points="509.65,-265.39 499.5,-262.36 505.55,-271.06 509.65,-265.39"/>
<text text-anchor="middle" x="502.23" y="-282.46" font-family="Helvetica,sans-Serif" font-size="14.00">True</text>
</g>
<!-- 8 -->
<g id="node9" class="node">
<title>8</title>
<path fill="#fef9f5" stroke="black" d="M752.5,-261C752.5,-261 615.5,-261 615.5,-261 609.5,-261 603.5,-255 603.5,-249 603.5,-249 603.5,-205 603.5,-205 603.5,-199 609.5,-193 615.5,-193 615.5,-193 752.5,-193 752.5,-193 758.5,-193 764.5,-199 764.5,-205 764.5,-205 764.5,-249 764.5,-249 764.5,-255 758.5,-261 752.5,-261"/>
<text text-anchor="middle" x="684" y="-245.8" font-family="Helvetica,sans-Serif" font-size="14.00">n_aliphatic_rings &lt;= 0.5</text>
<text text-anchor="middle" x="684" y="-230.8" font-family="Helvetica,sans-Serif" font-size="14.00">squared_error = 0.004</text>
<text text-anchor="middle" x="684" y="-215.8" font-family="Helvetica,sans-Serif" font-size="14.00">samples = 146</text>
<text text-anchor="middle" x="684" y="-200.8" font-family="Helvetica,sans-Serif" font-size="14.00">value = 4.581</text>
</g>
<!-- 0&#45;&gt;8 -->
<g id="edge8" class="edge">
<title>0&#45;&gt;8</title>
<path fill="none" stroke="black" d="M622.8,-296.6C630.42,-288.06 638.71,-278.77 646.65,-269.86"/>
<polygon fill="black" stroke="black" points="649.08,-272.4 653.13,-262.6 643.86,-267.73 649.08,-272.4"/>
<text text-anchor="middle" x="655.56" y="-282.73" font-family="Helvetica,sans-Serif" font-size="14.00">False</text>
</g>
<!-- 2 -->
<g id="node3" class="node">
<title>2</title>
<path fill="#f0b990" stroke="black" d="M285.5,-157C285.5,-157 158.5,-157 158.5,-157 152.5,-157 146.5,-151 146.5,-145 146.5,-145 146.5,-101 146.5,-101 146.5,-95 152.5,-89 158.5,-89 158.5,-89 285.5,-89 285.5,-89 291.5,-89 297.5,-95 297.5,-101 297.5,-101 297.5,-145 297.5,-145 297.5,-151 291.5,-157 285.5,-157"/>
<text text-anchor="middle" x="222" y="-141.8" font-family="Helvetica,sans-Serif" font-size="14.00">n_rings &lt;= 0.5</text>
<text text-anchor="middle" x="222" y="-126.8" font-family="Helvetica,sans-Serif" font-size="14.00">squared_error = 0.245</text>
<text text-anchor="middle" x="222" y="-111.8" font-family="Helvetica,sans-Serif" font-size="14.00">samples = 49</text>
<text text-anchor="middle" x="222" y="-96.8" font-family="Helvetica,sans-Serif" font-size="14.00">value = 6.141</text>
</g>
<!-- 1&#45;&gt;2 -->
<g id="edge2" class="edge">
<title>1&#45;&gt;2</title>
<path fill="none" stroke="black" d="M376.69,-192.6C354.65,-182.83 330.39,-172.07 307.75,-162.03"/>
<polygon fill="black" stroke="black" points="309.42,-158.94 298.86,-158.09 306.59,-165.34 309.42,-158.94"/>
</g>
<!-- 5 -->
<g id="node6" class="node">
<title>5</title>
<path fill="#e6843d" stroke="black" d="M525.5,-157C525.5,-157 378.5,-157 378.5,-157 372.5,-157 366.5,-151 366.5,-145 366.5,-145 366.5,-101 366.5,-101 366.5,-95 372.5,-89 378.5,-89 378.5,-89 525.5,-89 525.5,-89 531.5,-89 537.5,-95 537.5,-101 537.5,-101 537.5,-145 537.5,-145 537.5,-151 531.5,-157 525.5,-157"/>
<text text-anchor="middle" x="452" y="-141.8" font-family="Helvetica,sans-Serif" font-size="14.00">n_rotatable_bonds &lt;= 2.5</text>
<text text-anchor="middle" x="452" y="-126.8" font-family="Helvetica,sans-Serif" font-size="14.00">squared_error = 0.035</text>
<text text-anchor="middle" x="452" y="-111.8" font-family="Helvetica,sans-Serif" font-size="14.00">samples = 271</text>
<text text-anchor="middle" x="452" y="-96.8" font-family="Helvetica,sans-Serif" font-size="14.00">value = 7.426</text>
</g>
<!-- 1&#45;&gt;5 -->
<g id="edge5" class="edge">
<title>1&#45;&gt;5</title>
<path fill="none" stroke="black" d="M452,-192.6C452,-185.03 452,-176.87 452,-168.9"/>
<polygon fill="black" stroke="black" points="455.5,-168.99 452,-158.99 448.5,-168.99 455.5,-168.99"/>
</g>
<!-- 3 -->
<g id="node4" class="node">
<title>3</title>
<path fill="#f8decc" stroke="black" d="M124,-53C124,-53 12,-53 12,-53 6,-53 0,-47 0,-41 0,-41 0,-12 0,-12 0,-6 6,0 12,0 12,0 124,0 124,0 130,0 136,-6 136,-12 136,-12 136,-41 136,-41 136,-47 130,-53 124,-53"/>
<text text-anchor="middle" x="68" y="-37.8" font-family="Helvetica,sans-Serif" font-size="14.00">squared_error = 0.0</text>
<text text-anchor="middle" x="68" y="-22.8" font-family="Helvetica,sans-Serif" font-size="14.00">samples = 11</text>
<text text-anchor="middle" x="68" y="-7.8" font-family="Helvetica,sans-Serif" font-size="14.00">value = 5.222</text>
</g>
<!-- 2&#45;&gt;3 -->
<g id="edge3" class="edge">
<title>2&#45;&gt;3</title>
<path fill="none" stroke="black" d="M167.71,-88.68C152.07,-79.09 135.07,-68.65 119.6,-59.16"/>
<polygon fill="black" stroke="black" points="121.84,-56.43 111.49,-54.19 118.18,-62.4 121.84,-56.43"/>
</g>
<!-- 4 -->
<g id="node5" class="node">
<title>4</title>
<path fill="#eeae7f" stroke="black" d="M278,-53C278,-53 166,-53 166,-53 160,-53 154,-47 154,-41 154,-41 154,-12 154,-12 154,-6 160,0 166,0 166,0 278,0 278,0 284,0 290,-6 290,-12 290,-12 290,-41 290,-41 290,-47 284,-53 278,-53"/>
<text text-anchor="middle" x="222" y="-37.8" font-family="Helvetica,sans-Serif" font-size="14.00">squared_error = 0.0</text>
<text text-anchor="middle" x="222" y="-22.8" font-family="Helvetica,sans-Serif" font-size="14.00">samples = 38</text>
<text text-anchor="middle" x="222" y="-7.8" font-family="Helvetica,sans-Serif" font-size="14.00">value = 6.407</text>
</g>
<!-- 2&#45;&gt;4 -->
<g id="edge4" class="edge">
<title>2&#45;&gt;4</title>
<path fill="none" stroke="black" d="M222,-88.68C222,-80.99 222,-72.76 222,-64.9"/>
<polygon fill="black" stroke="black" points="225.5,-64.91 222,-54.91 218.5,-64.91 225.5,-64.91"/>
</g>
<!-- 6 -->
<g id="node7" class="node">
<title>6</title>
<path fill="#ea995f" stroke="black" d="M432,-53C432,-53 320,-53 320,-53 314,-53 308,-47 308,-41 308,-41 308,-12 308,-12 308,-6 314,0 320,0 320,0 432,0 432,0 438,0 444,-6 444,-12 444,-12 444,-41 444,-41 444,-47 438,-53 432,-53"/>
<text text-anchor="middle" x="376" y="-37.8" font-family="Helvetica,sans-Serif" font-size="14.00">squared_error = 0.0</text>
<text text-anchor="middle" x="376" y="-22.8" font-family="Helvetica,sans-Serif" font-size="14.00">samples = 31</text>
<text text-anchor="middle" x="376" y="-7.8" font-family="Helvetica,sans-Serif" font-size="14.00">value = 6.908</text>
</g>
<!-- 5&#45;&gt;6 -->
<g id="edge6" class="edge">
<title>5&#45;&gt;6</title>
<path fill="none" stroke="black" d="M425.21,-88.68C418.29,-80.09 410.83,-70.81 403.86,-62.15"/>
<polygon fill="black" stroke="black" points="406.77,-60.17 397.77,-54.57 401.31,-64.56 406.77,-60.17"/>
</g>
<!-- 7 -->
<g id="node8" class="node">
<title>7</title>
<path fill="#e58139" stroke="black" d="M586,-53C586,-53 474,-53 474,-53 468,-53 462,-47 462,-41 462,-41 462,-12 462,-12 462,-6 468,0 474,0 474,0 586,0 586,0 592,0 598,-6 598,-12 598,-12 598,-41 598,-41 598,-47 592,-53 586,-53"/>
<text text-anchor="middle" x="530" y="-37.8" font-family="Helvetica,sans-Serif" font-size="14.00">squared_error = 0.0</text>
<text text-anchor="middle" x="530" y="-22.8" font-family="Helvetica,sans-Serif" font-size="14.00">samples = 240</text>
<text text-anchor="middle" x="530" y="-7.8" font-family="Helvetica,sans-Serif" font-size="14.00">value = 7.492</text>
</g>
<!-- 5&#45;&gt;7 -->
<g id="edge7" class="edge">
<title>5&#45;&gt;7</title>
<path fill="none" stroke="black" d="M479.5,-88.68C486.6,-80.09 494.25,-70.81 501.4,-62.15"/>
<polygon fill="black" stroke="black" points="504,-64.5 507.66,-54.56 498.6,-60.05 504,-64.5"/>
</g>
<!-- 9 -->
<g id="node10" class="node">
<title>9</title>
<path fill="#ffffff" stroke="black" d="M740,-157C740,-157 628,-157 628,-157 622,-157 616,-151 616,-145 616,-145 616,-101 616,-101 616,-95 622,-89 628,-89 628,-89 740,-89 740,-89 746,-89 752,-95 752,-101 752,-101 752,-145 752,-145 752,-151 746,-157 740,-157"/>
<text text-anchor="middle" x="684" y="-141.8" font-family="Helvetica,sans-Serif" font-size="14.00">clogp &lt;= 5.243</text>
<text text-anchor="middle" x="684" y="-126.8" font-family="Helvetica,sans-Serif" font-size="14.00">squared_error = 0.0</text>
<text text-anchor="middle" x="684" y="-111.8" font-family="Helvetica,sans-Serif" font-size="14.00">samples = 22</text>
<text text-anchor="middle" x="684" y="-96.8" font-family="Helvetica,sans-Serif" font-size="14.00">value = 4.432</text>
</g>
<!-- 8&#45;&gt;9 -->
<g id="edge9" class="edge">
<title>8&#45;&gt;9</title>
<path fill="none" stroke="black" d="M684,-192.6C684,-185.03 684,-176.87 684,-168.9"/>
<polygon fill="black" stroke="black" points="687.5,-168.99 684,-158.99 680.5,-168.99 687.5,-168.99"/>
</g>
<!-- 12 -->
<g id="node13" class="node">
<title>12</title>
<path fill="#fef8f4" stroke="black" d="M894,-149.5C894,-149.5 782,-149.5 782,-149.5 776,-149.5 770,-143.5 770,-137.5 770,-137.5 770,-108.5 770,-108.5 770,-102.5 776,-96.5 782,-96.5 782,-96.5 894,-96.5 894,-96.5 900,-96.5 906,-102.5 906,-108.5 906,-108.5 906,-137.5 906,-137.5 906,-143.5 900,-149.5 894,-149.5"/>
<text text-anchor="middle" x="838" y="-134.3" font-family="Helvetica,sans-Serif" font-size="14.00">squared_error = 0.0</text>
<text text-anchor="middle" x="838" y="-119.3" font-family="Helvetica,sans-Serif" font-size="14.00">samples = 124</text>
<text text-anchor="middle" x="838" y="-104.3" font-family="Helvetica,sans-Serif" font-size="14.00">value = 4.607</text>
</g>
<!-- 8&#45;&gt;12 -->
<g id="edge12" class="edge">
<title>8&#45;&gt;12</title>
<path fill="none" stroke="black" d="M734.43,-192.6C752.19,-180.84 772.1,-167.65 789.69,-156"/>
<polygon fill="black" stroke="black" points="791.52,-158.98 797.93,-150.54 787.66,-153.15 791.52,-158.98"/>
</g>
<!-- 10 -->
<g id="node11" class="node">
<title>10</title>
<path fill="#ffffff" stroke="black" d="M740,-53C740,-53 628,-53 628,-53 622,-53 616,-47 616,-41 616,-41 616,-12 616,-12 616,-6 622,0 628,0 628,0 740,0 740,0 746,0 752,-6 752,-12 752,-12 752,-41 752,-41 752,-47 746,-53 740,-53"/>
<text text-anchor="middle" x="684" y="-37.8" font-family="Helvetica,sans-Serif" font-size="14.00">squared_error = 0.0</text>
<text text-anchor="middle" x="684" y="-22.8" font-family="Helvetica,sans-Serif" font-size="14.00">samples = 5</text>
<text text-anchor="middle" x="684" y="-7.8" font-family="Helvetica,sans-Serif" font-size="14.00">value = 4.432</text>
</g>
<!-- 9&#45;&gt;10 -->
<g id="edge10" class="edge">
<title>9&#45;&gt;10</title>
<path fill="none" stroke="black" d="M684,-88.68C684,-80.99 684,-72.76 684,-64.9"/>
<polygon fill="black" stroke="black" points="687.5,-64.91 684,-54.91 680.5,-64.91 687.5,-64.91"/>
</g>
<!-- 11 -->
<g id="node12" class="node">
<title>11</title>
<path fill="#ffffff" stroke="black" d="M894,-53C894,-53 782,-53 782,-53 776,-53 770,-47 770,-41 770,-41 770,-12 770,-12 770,-6 776,0 782,0 782,0 894,0 894,0 900,0 906,-6 906,-12 906,-12 906,-41 906,-41 906,-47 900,-53 894,-53"/>
<text text-anchor="middle" x="838" y="-37.8" font-family="Helvetica,sans-Serif" font-size="14.00">squared_error = 0.0</text>
<text text-anchor="middle" x="838" y="-22.8" font-family="Helvetica,sans-Serif" font-size="14.00">samples = 17</text>
<text text-anchor="middle" x="838" y="-7.8" font-family="Helvetica,sans-Serif" font-size="14.00">value = 4.432</text>
</g>
<!-- 9&#45;&gt;11 -->
<g id="edge11" class="edge">
<title>9&#45;&gt;11</title>
<path fill="none" stroke="black" d="M738.29,-88.68C753.93,-79.09 770.93,-68.65 786.4,-59.16"/>
<polygon fill="black" stroke="black" points="787.82,-62.4 794.51,-54.19 784.16,-56.43 787.82,-62.4"/>
</g>
</g>
</svg>
