<?xml version="1.0" encoding="UTF-8" standalone="no"?>
<!DOCTYPE svg PUBLIC "-//W3C//DTD SVG 1.1//EN"
 "http://www.w3.org/Graphics/SVG/1.1/DTD/svg11.dtd">
<!-- Generated by graphviz version 7.0.0 (20221023.0053)
 -->
<!-- Title: Tree Pages: 1 -->
<svg width="957pt" height="373pt"
 viewBox="0.00 0.00 957.00 373.00" xmlns="http://www.w3.org/2000/svg" xmlns:xlink="http://www.w3.org/1999/xlink">
<g id="graph0" class="graph" transform="scale(1 1) rotate(0) translate(4 369)">
<title>Tree</title>
<polygon fill="white" stroke="none" points="-4,4 -4,-369 953,-369 953,4 -4,4"/>
<!-- 0 -->
<g id="node1" class="node">
<title>0</title>
<path fill="#efb185" stroke="black" d="M552.5,-365C552.5,-365 433.5,-365 433.5,-365 427.5,-365 421.5,-359 421.5,-353 421.5,-353 421.5,-309 421.5,-309 421.5,-303 427.5,-297 433.5,-297 433.5,-297 552.5,-297 552.5,-297 558.5,-297 564.5,-303 564.5,-309 564.5,-309 564.5,-353 564.5,-353 564.5,-359 558.5,-365 552.5,-365"/>
<text text-anchor="middle" x="493" y="-349.8" font-family="Helvetica,sans-Serif" font-size="14.00">clogp &lt;= 4.895</text>
<text text-anchor="middle" x="493" y="-334.8" font-family="Helvetica,sans-Serif" font-size="14.00">squared_error = 1.85</text>
<text text-anchor="middle" x="493" y="-319.8" font-family="Helvetica,sans-Serif" font-size="14.00">samples = 466</text>
<text text-anchor="middle" x="493" y="-304.8" font-family="Helvetica,sans-Serif" font-size="14.00">value = 6.319</text>
</g>
<!-- 1 -->
<g id="node2" class="node">
<title>1</title>
<path fill="#e88e4e" stroke="black" d="M475,-261C475,-261 335,-261 335,-261 329,-261 323,-255 323,-249 323,-249 323,-205 323,-205 323,-199 329,-193 335,-193 335,-193 475,-193 475,-193 481,-193 487,-199 487,-205 487,-205 487,-249 487,-249 487,-255 481,-261 475,-261"/>
<text text-anchor="middle" x="405" y="-245.8" font-family="Helvetica,sans-Serif" font-size="14.00">n_aromatic_rings &lt;= 1.5</text>
<text text-anchor="middle" x="405" y="-230.8" font-family="Helvetica,sans-Serif" font-size="14.00">squared_error = 0.393</text>
<text text-anchor="middle" x="405" y="-215.8" font-family="Helvetica,sans-Serif" font-size="14.00">samples = 320</text>
<text text-anchor="middle" x="405" y="-200.8" font-family="Helvetica,sans-Serif" font-size="14.00">value = 7.168</text>
</g>
<!-- 0&#45;&gt;1 -->
<g id="edge1" class="edge">
<title>0&#45;&gt;1</title>
<path fill="none" stroke="black" d="M464.19,-296.6C456.89,-288.15 448.96,-278.96 441.35,-270.13"/>
<polygon fill="black" stroke="black" points="444.05,-267.9 434.87,-262.62 438.75,-272.48 444.05,-267.9"/>
<text text-anchor="middle" x="432.04" y="-282.71" font-family="Helvetica,sans-Serif" font-size="14.00">True</text>
</g>
<!-- 8 -->
<g id="node9" class="node">
<title>8</title>
<path fill="#fffefd" stroke="black" d="M644.5,-261C644.5,-261 517.5,-261 517.5,-261 511.5,-261 505.5,-255 505.5,-249 505.5,-249 505.5,-205 505.5,-205 505.5,-199 511.5,-193 517.5,-193 517.5,-193 644.5,-193 644.5,-193 650.5,-193 656.5,-199 656.5,-205 656.5,-205 656.5,-249 656.5,-249 656.5,-255 650.5,-261 644.5,-261"/>
<text text-anchor="middle" x="581" y="-245.8" font-family="Helvetica,sans-Serif" font-size="14.00">sas &lt;= 3.709</text>
<text text-anchor="middle" x="581" y="-230.8" font-family="Helvetica,sans-Serif" font-size="14.00">squared_error = 0.004</text>
<text text-anchor="middle" x="581" y="-215.8" font-family="Helvetica,sans-Serif" font-size="14.00">samples = 146</text>
<text text-anchor="middle" x="581" y="-200.8" font-family="Helvetica,sans-Serif" font-size="14.00">value = 4.459</text>
</g>
<!-- 0&#45;&gt;8 -->
<g id="edge8" class="edge">
<title>0&#45;&gt;8</title>
<path fill="none" stroke="black" d="M521.81,-296.6C529.11,-288.15 537.04,-278.96 544.65,-270.13"/>
<polygon fill="black" stroke="black" points="547.25,-272.48 551.13,-262.62 541.95,-267.9 547.25,-272.48"/>
<text text-anchor="middle" x="553.96" y="-282.71" font-family="Helvetica,sans-Serif" font-size="14.00">False</text>
</g>
<!-- 2 -->
<g id="node3" class="node">
<title>2</title>
<path fill="#f3c4a2" stroke="black" d="M302,-157C302,-157 120,-157 120,-157 114,-157 108,-151 108,-145 108,-145 108,-101 108,-101 108,-95 114,-89 120,-89 120,-89 302,-89 302,-89 308,-89 314,-95 314,-101 314,-101 314,-145 314,-145 314,-151 308,-157 302,-157"/>
<text text-anchor="middle" x="211" y="-141.8" font-family="Helvetica,sans-Serif" font-size="14.00">n_aromatic_carbocycles &lt;= 0.5</text>
<text text-anchor="middle" x="211" y="-126.8" font-family="Helvetica,sans-Serif" font-size="14.00">squared_error = 0.348</text>
<text text-anchor="middle" x="211" y="-111.8" font-family="Helvetica,sans-Serif" font-size="14.00">samples = 49</text>
<text text-anchor="middle" x="211" y="-96.8" font-family="Helvetica,sans-Serif" font-size="14.00">value = 5.875</text>
</g>
<!-- 1&#45;&gt;2 -->
<g id="edge2" class="edge">
<title>1&#45;&gt;2</title>
<path fill="none" stroke="black" d="M341.48,-192.6C323.31,-183.05 303.35,-172.55 284.62,-162.71"/>
<polygon fill="black" stroke="black" points="286.49,-159.73 276.01,-158.18 283.23,-165.93 286.49,-159.73"/>
</g>
<!-- 5 -->
<g id="node6" class="node">
<title>5</title>
<path fill="#e6853f" stroke="black" d="M471.5,-157C471.5,-157 344.5,-157 344.5,-157 338.5,-157 332.5,-151 332.5,-145 332.5,-145 332.5,-101 332.5,-101 332.5,-95 338.5,-89 344.5,-89 344.5,-89 471.5,-89 471.5,-89 477.5,-89 483.5,-95 483.5,-101 483.5,-101 483.5,-145 483.5,-145 483.5,-151 477.5,-157 471.5,-157"/>
<text text-anchor="middle" x="408" y="-141.8" font-family="Helvetica,sans-Serif" font-size="14.00">n_lipinski_hba &lt;= 3.5</text>
<text text-anchor="middle" x="408" y="-126.8" font-family="Helvetica,sans-Serif" font-size="14.00">squared_error = 0.045</text>
<text text-anchor="middle" x="408" y="-111.8" font-family="Helvetica,sans-Serif" font-size="14.00">samples = 271</text>
<text text-anchor="middle" x="408" y="-96.8" font-family="Helvetica,sans-Serif" font-size="14.00">value = 7.402</text>
</g>
<!-- 1&#45;&gt;5 -->
<g id="edge5" class="edge">
<title>1&#45;&gt;5</title>
<path fill="none" stroke="black" d="M405.98,-192.6C406.21,-185.03 406.45,-176.87 406.68,-168.9"/>
<polygon fill="black" stroke="black" points="410.18,-169.09 406.97,-158.99 403.18,-168.88 410.18,-169.09"/>
</g>
<!-- 3 -->
<g id="node4" class="node">
<title>3</title>
<path fill="#f8decc" stroke="black" d="M124,-53C124,-53 12,-53 12,-53 6,-53 0,-47 0,-41 0,-41 0,-12 0,-12 0,-6 6,0 12,0 12,0 124,0 124,0 130,0 136,-6 136,-12 136,-12 136,-41 136,-41 136,-47 130,-53 124,-53"/>
<text text-anchor="middle" x="68" y="-37.8" font-family="Helvetica,sans-Serif" font-size="14.00">squared_error = 0.0</text>
<text text-anchor="middle" x="68" y="-22.8" font-family="Helvetica,sans-Serif" font-size="14.00">samples = 22</text>
<text text-anchor="middle" x="68" y="-7.8" font-family="Helvetica,sans-Serif" font-size="14.00">value = 5.222</text>
</g>
<!-- 2&#45;&gt;3 -->
<g id="edge3" class="edge">
<title>2&#45;&gt;3</title>
<path fill="none" stroke="black" d="M160.58,-88.68C146.34,-79.27 130.87,-69.05 116.73,-59.7"/>
<polygon fill="black" stroke="black" points="118.72,-56.82 108.45,-54.23 114.86,-62.66 118.72,-56.82"/>
</g>
<!-- 4 -->
<g id="node5" class="node">
<title>4</title>
<path fill="#eeae7f" stroke="black" d="M278,-53C278,-53 166,-53 166,-53 160,-53 154,-47 154,-41 154,-41 154,-12 154,-12 154,-6 160,0 166,0 166,0 278,0 278,0 284,0 290,-6 290,-12 290,-12 290,-41 290,-41 290,-47 284,-53 278,-53"/>
<text text-anchor="middle" x="222" y="-37.8" font-family="Helvetica,sans-Serif" font-size="14.00">squared_error = 0.0</text>
<text text-anchor="middle" x="222" y="-22.8" font-family="Helvetica,sans-Serif" font-size="14.00">samples = 27</text>
<text text-anchor="middle" x="222" y="-7.8" font-family="Helvetica,sans-Serif" font-size="14.00">value = 6.407</text>
</g>
<!-- 2&#45;&gt;4 -->
<g id="edge4" class="edge">
<title>2&#45;&gt;4</title>
<path fill="none" stroke="black" d="M214.88,-88.68C215.78,-80.9 216.75,-72.56 217.68,-64.63"/>
<polygon fill="black" stroke="black" points="221.13,-65.23 218.81,-54.9 214.18,-64.43 221.13,-65.23"/>
</g>
<!-- 6 -->
<g id="node7" class="node">
<title>6</title>
<path fill="#ea995f" stroke="black" d="M456,-53C456,-53 340,-53 340,-53 334,-53 328,-47 328,-41 328,-41 328,-12 328,-12 328,-6 334,0 340,0 340,0 456,0 456,0 462,0 468,-6 468,-12 468,-12 468,-41 468,-41 468,-47 462,-53 456,-53"/>
<text text-anchor="middle" x="398" y="-37.8" font-family="Helvetica,sans-Serif" font-size="14.00">squared_error = &#45;0.0</text>
<text text-anchor="middle" x="398" y="-22.8" font-family="Helvetica,sans-Serif" font-size="14.00">samples = 42</text>
<text text-anchor="middle" x="398" y="-7.8" font-family="Helvetica,sans-Serif" font-size="14.00">value = 6.908</text>
</g>
<!-- 5&#45;&gt;6 -->
<g id="edge6" class="edge">
<title>5&#45;&gt;6</title>
<path fill="none" stroke="black" d="M404.47,-88.68C403.65,-80.9 402.77,-72.56 401.93,-64.63"/>
<polygon fill="black" stroke="black" points="405.43,-64.48 400.9,-54.9 398.47,-65.21 405.43,-64.48"/>
</g>
<!-- 7 -->
<g id="node8" class="node">
<title>7</title>
<path fill="#e58139" stroke="black" d="M610,-53C610,-53 498,-53 498,-53 492,-53 486,-47 486,-41 486,-41 486,-12 486,-12 486,-6 492,0 498,0 498,0 610,0 610,0 616,0 622,-6 622,-12 622,-12 622,-41 622,-41 622,-47 616,-53 610,-53"/>
<text text-anchor="middle" x="554" y="-37.8" font-family="Helvetica,sans-Serif" font-size="14.00">squared_error = 0.0</text>
<text text-anchor="middle" x="554" y="-22.8" font-family="Helvetica,sans-Serif" font-size="14.00">samples = 229</text>
<text text-anchor="middle" x="554" y="-7.8" font-family="Helvetica,sans-Serif" font-size="14.00">value = 7.492</text>
</g>
<!-- 5&#45;&gt;7 -->
<g id="edge7" class="edge">
<title>5&#45;&gt;7</title>
<path fill="none" stroke="black" d="M459.47,-88.68C474.16,-79.18 490.11,-68.85 504.66,-59.43"/>
<polygon fill="black" stroke="black" points="506.23,-62.59 512.72,-54.22 502.43,-56.71 506.23,-62.59"/>
</g>
<!-- 9 -->
<g id="node10" class="node">
<title>9</title>
<path fill="#ffffff" stroke="black" d="M636,-149.5C636,-149.5 520,-149.5 520,-149.5 514,-149.5 508,-143.5 508,-137.5 508,-137.5 508,-108.5 508,-108.5 508,-102.5 514,-96.5 520,-96.5 520,-96.5 636,-96.5 636,-96.5 642,-96.5 648,-102.5 648,-108.5 648,-108.5 648,-137.5 648,-137.5 648,-143.5 642,-149.5 636,-149.5"/>
<text text-anchor="middle" x="578" y="-134.3" font-family="Helvetica,sans-Serif" font-size="14.00">squared_error = &#45;0.0</text>
<text text-anchor="middle" x="578" y="-119.3" font-family="Helvetica,sans-Serif" font-size="14.00">samples = 123</text>
<text text-anchor="middle" x="578" y="-104.3" font-family="Helvetica,sans-Serif" font-size="14.00">value = 4.432</text>
</g>
<!-- 8&#45;&gt;9 -->
<g id="edge9" class="edge">
<title>8&#45;&gt;9</title>
<path fill="none" stroke="black" d="M580.02,-192.6C579.72,-182.47 579.39,-171.28 579.09,-160.93"/>
<polygon fill="black" stroke="black" points="582.59,-161.11 578.8,-151.22 575.6,-161.32 582.59,-161.11"/>
</g>
<!-- 10 -->
<g id="node11" class="node">
<title>10</title>
<path fill="#fef8f4" stroke="black" d="M812,-157C812,-157 678,-157 678,-157 672,-157 666,-151 666,-145 666,-145 666,-101 666,-101 666,-95 672,-89 678,-89 678,-89 812,-89 812,-89 818,-89 824,-95 824,-101 824,-101 824,-145 824,-145 824,-151 818,-157 812,-157"/>
<text text-anchor="middle" x="745" y="-141.8" font-family="Helvetica,sans-Serif" font-size="14.00">n_hetero_atoms &lt;= 5.5</text>
<text text-anchor="middle" x="745" y="-126.8" font-family="Helvetica,sans-Serif" font-size="14.00">squared_error = 0.0</text>
<text text-anchor="middle" x="745" y="-111.8" font-family="Helvetica,sans-Serif" font-size="14.00">samples = 23</text>
<text text-anchor="middle" x="745" y="-96.8" font-family="Helvetica,sans-Serif" font-size="14.00">value = 4.607</text>
</g>
<!-- 8&#45;&gt;10 -->
<g id="edge10" class="edge">
<title>8&#45;&gt;10</title>
<path fill="none" stroke="black" d="M634.7,-192.6C649.71,-183.27 666.16,-173.04 681.67,-163.39"/>
<polygon fill="black" stroke="black" points="683.25,-166.53 689.89,-158.27 679.55,-160.58 683.25,-166.53"/>
</g>
<!-- 11 -->
<g id="node12" class="node">
<title>11</title>
<path fill="#fef8f4" stroke="black" d="M783,-53C783,-53 671,-53 671,-53 665,-53 659,-47 659,-41 659,-41 659,-12 659,-12 659,-6 665,0 671,0 671,0 783,0 783,0 789,0 795,-6 795,-12 795,-12 795,-41 795,-41 795,-47 789,-53 783,-53"/>
<text text-anchor="middle" x="727" y="-37.8" font-family="Helvetica,sans-Serif" font-size="14.00">squared_error = 0.0</text>
<text text-anchor="middle" x="727" y="-22.8" font-family="Helvetica,sans-Serif" font-size="14.00">samples = 5</text>
<text text-anchor="middle" x="727" y="-7.8" font-family="Helvetica,sans-Serif" font-size="14.00">value = 4.607</text>
</g>
<!-- 10&#45;&gt;11 -->
<g id="edge11" class="edge">
<title>10&#45;&gt;11</title>
<path fill="none" stroke="black" d="M738.65,-88.68C737.17,-80.9 735.58,-72.56 734.07,-64.63"/>
<polygon fill="black" stroke="black" points="737.52,-64.05 732.22,-54.88 730.65,-65.36 737.52,-64.05"/>
</g>
<!-- 12 -->
<g id="node13" class="node">
<title>12</title>
<path fill="#fef8f4" stroke="black" d="M937,-53C937,-53 825,-53 825,-53 819,-53 813,-47 813,-41 813,-41 813,-12 813,-12 813,-6 819,0 825,0 825,0 937,0 937,0 943,0 949,-6 949,-12 949,-12 949,-41 949,-41 949,-47 943,-53 937,-53"/>
<text text-anchor="middle" x="881" y="-37.8" font-family="Helvetica,sans-Serif" font-size="14.00">squared_error = 0.0</text>
<text text-anchor="middle" x="881" y="-22.8" font-family="Helvetica,sans-Serif" font-size="14.00">samples = 18</text>
<text text-anchor="middle" x="881" y="-7.8" font-family="Helvetica,sans-Serif" font-size="14.00">value = 4.607</text>
</g>
<!-- 10&#45;&gt;12 -->
<g id="edge12" class="edge">
<title>10&#45;&gt;12</title>
<path fill="none" stroke="black" d="M792.95,-88.68C806.49,-79.27 821.21,-69.05 834.66,-59.7"/>
<polygon fill="black" stroke="black" points="836.28,-62.84 842.49,-54.26 832.28,-57.09 836.28,-62.84"/>
</g>
</g>
</svg>
