<svg xmlns="http://www.w3.org/2000/svg" xmlns:rdkit="http://www.rdkit.org/xml" xmlns:xlink="http://www.w3.org/1999/xlink" version="1.1" baseProfile="full" xml:space="preserve" width="600px" height="200px" viewBox="0 0 600 200">
<!-- END OF HEADER -->
<rect style="opacity:1.0;fill:#FFFFFF;stroke:none" width="600.0" height="200.0" x="0.0" y="0.0"> </rect>
<path class="bond-0 atom-0 atom-1" d="M 98.2,79.8 L 118.6,95.9" style="fill:none;fill-rule:evenodd;stroke:#7F7F7F;stroke-width:2.0px;stroke-linecap:butt;stroke-linejoin:miter;stroke-opacity:1;stroke-dasharray:2,6"/>
<path class="bond-1 atom-1 atom-2" d="M 118.6,95.9 L 139.1,87.6" style="fill:none;fill-rule:evenodd;stroke:#7F7F7F;stroke-width:2.0px;stroke-linecap:butt;stroke-linejoin:miter;stroke-opacity:1;stroke-dasharray:2,6"/>
<path class="bond-2 atom-2 atom-3" d="M 143.4,81.6 L 146.4,60.4" style="fill:none;fill-rule:evenodd;stroke:#7F7F7F;stroke-width:2.0px;stroke-linecap:butt;stroke-linejoin:miter;stroke-opacity:1;stroke-dasharray:2,6"/>
<path class="bond-3 atom-1 atom-4" d="M 118.6,95.9 L 115.0,121.6" style="fill:none;fill-rule:evenodd;stroke:#7F7F7F;stroke-width:2.0px;stroke-linecap:butt;stroke-linejoin:miter;stroke-opacity:1;stroke-dasharray:2,6"/>
<path class="bond-4 atom-0 atom-5" d="M 98.2,79.8 L 74.1,89.6" style="fill:none;fill-rule:evenodd;stroke:#7F7F7F;stroke-width:2.0px;stroke-linecap:butt;stroke-linejoin:miter;stroke-opacity:1;stroke-dasharray:2,6"/>
<path class="bond-5 atom-5 atom-6" d="M 74.1,89.6 L 53.6,73.5" style="fill:none;fill-rule:evenodd;stroke:#7F7F7F;stroke-width:2.0px;stroke-linecap:butt;stroke-linejoin:miter;stroke-opacity:1;stroke-dasharray:2,6"/>
<path class="atom-2" d="M 141.1 82.5 L 143.5 86.4 Q 143.8 86.7, 144.1 87.4 Q 144.5 88.1, 144.6 88.2 L 144.6 82.5 L 145.5 82.5 L 145.5 89.8 L 144.5 89.8 L 141.9 85.6 Q 141.6 85.1, 141.3 84.5 Q 141.0 83.9, 140.9 83.7 L 140.9 89.8 L 139.9 89.8 L 139.9 82.5 L 141.1 82.5 " fill="#0000FF"/>
<path class="legend" d="M 92.5 189.7 L 91.0 189.7 L 89.9 180.4 L 86.8 189.7 L 85.3 189.7 L 82.2 180.4 L 81.0 189.7 L 79.6 189.7 L 81.0 178.4 L 82.9 178.4 L 86.0 187.5 L 89.2 178.4 L 91.1 178.4 L 92.5 189.7 " fill="#000000"/>
<path class="legend" d="M 94.4 184.0 Q 94.4 181.2, 95.7 179.7 Q 97.1 178.2, 99.6 178.2 Q 101.9 178.2, 103.2 179.9 L 102.1 180.8 Q 101.2 179.6, 99.6 179.6 Q 97.9 179.6, 97.0 180.7 Q 96.1 181.8, 96.1 184.0 Q 96.1 186.3, 97.0 187.4 Q 97.9 188.6, 99.8 188.6 Q 101.0 188.6, 102.5 187.8 L 102.9 189.0 Q 102.3 189.4, 101.4 189.6 Q 100.5 189.8, 99.5 189.8 Q 97.1 189.8, 95.7 188.3 Q 94.4 186.8, 94.4 184.0 " fill="#000000"/>
<path class="legend" d="M 105.1 187.9 Q 105.3 188.0, 105.8 188.2 Q 106.3 188.4, 106.9 188.6 Q 107.5 188.7, 108.1 188.7 Q 109.1 188.7, 109.8 188.2 Q 110.4 187.7, 110.4 186.8 Q 110.4 186.1, 110.1 185.7 Q 109.8 185.4, 109.3 185.2 Q 108.8 184.9, 108.0 184.7 Q 107.0 184.4, 106.4 184.1 Q 105.8 183.8, 105.4 183.2 Q 104.9 182.6, 104.9 181.6 Q 104.9 180.2, 105.9 179.3 Q 106.9 178.4, 108.8 178.4 Q 110.1 178.4, 111.6 179.0 L 111.2 180.3 Q 109.9 179.7, 108.8 179.7 Q 107.7 179.7, 107.1 180.2 Q 106.5 180.6, 106.5 181.4 Q 106.5 182.0, 106.8 182.4 Q 107.2 182.7, 107.6 182.9 Q 108.1 183.2, 108.8 183.4 Q 109.9 183.7, 110.5 184.0 Q 111.1 184.4, 111.5 185.0 Q 112.0 185.6, 112.0 186.8 Q 112.0 188.3, 110.9 189.2 Q 109.9 190.0, 108.1 190.0 Q 107.1 190.0, 106.4 189.8 Q 105.6 189.6, 104.7 189.2 L 105.1 187.9 " fill="#000000"/>
<path class="legend" d="M 114.2 188.4 L 116.7 188.4 L 116.7 180.0 L 114.0 180.8 L 113.6 179.9 L 117.1 178.3 L 118.2 178.5 L 118.2 188.4 L 120.4 188.4 L 120.4 189.7 L 114.2 189.7 L 114.2 188.4 " fill="#000000"/>
<path class="bond-0 atom-0 atom-1" d="M 322.5,86.3 L 300.0,99.3" style="fill:none;fill-rule:evenodd;stroke:#7F7F7F;stroke-width:2.0px;stroke-linecap:butt;stroke-linejoin:miter;stroke-opacity:1;stroke-dasharray:2,6"/>
<path class="bond-1 atom-1 atom-2" d="M 300.0,99.3 L 277.5,86.3" style="fill:none;fill-rule:evenodd;stroke:#7F7F7F;stroke-width:2.0px;stroke-linecap:butt;stroke-linejoin:miter;stroke-opacity:1;stroke-dasharray:2,6"/>
<path class="bond-2 atom-2 atom-3" d="M 277.5,86.3 L 255.0,99.3" style="fill:none;fill-rule:evenodd;stroke:#7F7F7F;stroke-width:2.0px;stroke-linecap:butt;stroke-linejoin:miter;stroke-opacity:1;stroke-dasharray:2,6"/>
<path class="bond-3 atom-3 atom-4" d="M 255.0,99.3 L 236.1,88.5" style="fill:none;fill-rule:evenodd;stroke:#7F7F7F;stroke-width:2.0px;stroke-linecap:butt;stroke-linejoin:miter;stroke-opacity:1;stroke-dasharray:2,6"/>
<path class="bond-4 atom-4 atom-5" d="M 228.9,88.5 L 210.0,99.3" style="fill:none;fill-rule:evenodd;stroke:#7F7F7F;stroke-width:2.0px;stroke-linecap:butt;stroke-linejoin:miter;stroke-opacity:1;stroke-dasharray:2,6"/>
<path class="bond-5 atom-0 atom-6" d="M 322.5,86.3 L 345.0,99.3" style="fill:none;fill-rule:evenodd;stroke:#7F7F7F;stroke-width:2.0px;stroke-linecap:butt;stroke-linejoin:miter;stroke-opacity:1;stroke-dasharray:2,6"/>
<path class="bond-6 atom-6 atom-7" d="M 345.0,99.3 L 367.5,86.3" style="fill:none;fill-rule:evenodd;stroke:#7F7F7F;stroke-width:2.0px;stroke-linecap:butt;stroke-linejoin:miter;stroke-opacity:1;stroke-dasharray:2,6"/>
<path class="bond-7 atom-7 atom-8" d="M 367.5,86.3 L 390.0,99.3" style="fill:none;fill-rule:evenodd;stroke:#7F7F7F;stroke-width:2.0px;stroke-linecap:butt;stroke-linejoin:miter;stroke-opacity:1;stroke-dasharray:2,6"/>
<path class="atom-4" d="M 230.9 82.7 L 233.3 86.6 Q 233.5 86.9, 233.9 87.6 Q 234.3 88.3, 234.3 88.4 L 234.3 82.7 L 235.3 82.7 L 235.3 90.0 L 234.3 90.0 L 231.7 85.8 Q 231.4 85.3, 231.1 84.7 Q 230.8 84.1, 230.7 83.9 L 230.7 90.0 L 229.7 90.0 L 229.7 82.7 L 230.9 82.7 " fill="#0000FF"/>
<path class="legend" d="M 221.9 189.7 L 220.6 189.7 L 219.5 181.2 L 216.7 189.7 L 215.3 189.7 L 212.4 181.2 L 211.3 189.7 L 210.0 189.7 L 211.3 179.3 L 213.1 179.3 L 216.0 187.7 L 218.9 179.3 L 220.6 179.3 L 221.9 189.7 " fill="#000000"/>
<path class="legend" d="M 223.4 184.5 Q 223.4 181.9, 224.6 180.5 Q 225.9 179.2, 228.2 179.2 Q 230.3 179.2, 231.5 180.7 L 230.5 181.5 Q 229.7 180.4, 228.2 180.4 Q 226.6 180.4, 225.8 181.4 Q 224.9 182.5, 224.9 184.5 Q 224.9 186.5, 225.8 187.6 Q 226.7 188.7, 228.3 188.7 Q 229.5 188.7, 230.8 188.0 L 231.2 189.1 Q 230.7 189.4, 229.9 189.6 Q 229.0 189.9, 228.1 189.9 Q 225.9 189.9, 224.6 188.5 Q 223.4 187.1, 223.4 184.5 " fill="#000000"/>
<path class="legend" d="M 233.0 188.1 Q 233.1 188.1, 233.6 188.3 Q 234.1 188.6, 234.6 188.7 Q 235.2 188.8, 235.7 188.8 Q 236.7 188.8, 237.3 188.3 Q 237.8 187.8, 237.8 187.0 Q 237.8 186.4, 237.5 186.1 Q 237.3 185.7, 236.8 185.5 Q 236.4 185.3, 235.6 185.1 Q 234.7 184.8, 234.1 184.6 Q 233.6 184.3, 233.2 183.7 Q 232.8 183.2, 232.8 182.2 Q 232.8 180.9, 233.7 180.1 Q 234.6 179.3, 236.4 179.3 Q 237.6 179.3, 239.0 179.9 L 238.6 181.0 Q 237.4 180.5, 236.4 180.5 Q 235.4 180.5, 234.8 180.9 Q 234.3 181.3, 234.3 182.1 Q 234.3 182.6, 234.6 183.0 Q 234.9 183.3, 235.3 183.5 Q 235.7 183.7, 236.4 183.9 Q 237.4 184.2, 237.9 184.5 Q 238.5 184.8, 238.9 185.4 Q 239.3 186.0, 239.3 187.0 Q 239.3 188.5, 238.3 189.2 Q 237.4 190.0, 235.8 190.0 Q 234.8 190.0, 234.1 189.8 Q 233.4 189.6, 232.6 189.3 L 233.0 188.1 " fill="#000000"/>
<path class="legend" d="M 240.5 181.2 Q 240.9 180.3, 241.8 179.7 Q 242.8 179.2, 244.0 179.2 Q 245.6 179.2, 246.5 180.0 Q 247.4 180.9, 247.4 182.4 Q 247.4 183.9, 246.2 185.4 Q 245.1 186.8, 242.7 188.5 L 247.6 188.5 L 247.6 189.7 L 240.5 189.7 L 240.5 188.7 Q 242.5 187.3, 243.6 186.3 Q 244.8 185.3, 245.3 184.3 Q 245.9 183.4, 245.9 182.5 Q 245.9 181.5, 245.4 180.9 Q 244.9 180.3, 244.0 180.3 Q 243.2 180.3, 242.6 180.7 Q 242.1 181.0, 241.7 181.8 L 240.5 181.2 " fill="#000000"/>
<path class="legend" d="" fill="#000000"/>
<path class="legend" d="M 263.9 182.1 L 265.3 182.1 L 263.2 189.7 L 261.3 189.7 L 259.8 184.0 L 258.4 189.7 L 256.5 189.7 L 254.4 182.1 L 255.8 182.1 L 257.5 188.4 L 259.1 182.1 L 260.5 182.1 L 262.2 188.4 L 263.9 182.1 " fill="#000000"/>
<path class="legend" d="M 266.3 179.3 L 267.6 179.3 L 267.6 180.6 L 266.3 180.6 L 266.3 179.3 M 266.3 182.1 L 267.6 182.1 L 267.6 189.7 L 266.3 189.7 L 266.3 182.1 " fill="#000000"/>
<path class="legend" d="M 269.4 183.2 L 269.4 182.1 L 270.9 182.1 L 271.1 179.9 L 272.1 179.9 L 272.1 182.1 L 274.5 182.1 L 274.5 183.2 L 272.1 183.2 L 272.1 187.4 Q 272.1 188.7, 273.2 188.7 Q 273.7 188.7, 274.3 188.5 L 274.6 189.5 Q 273.8 189.8, 273.0 189.8 Q 272.0 189.8, 271.4 189.2 Q 270.7 188.6, 270.7 187.5 L 270.7 183.2 L 269.4 183.2 " fill="#000000"/>
<path class="legend" d="M 279.4 182.0 Q 280.6 182.0, 281.3 182.7 Q 281.9 183.4, 281.9 184.7 L 281.9 189.7 L 280.5 189.7 L 280.5 184.8 Q 280.5 183.9, 280.2 183.5 Q 279.8 183.1, 279.1 183.1 Q 278.4 183.1, 277.8 183.4 Q 277.2 183.7, 276.9 184.3 L 276.9 189.7 L 275.5 189.7 L 275.5 178.5 L 276.9 178.5 L 276.9 183.1 Q 277.9 182.0, 279.4 182.0 " fill="#000000"/>
<path class="legend" d="" fill="#000000"/>
<path class="legend" d="M 289.0 183.2 L 289.0 182.1 L 290.5 182.1 L 290.7 179.9 L 291.7 179.9 L 291.7 182.1 L 294.1 182.1 L 294.1 183.2 L 291.7 183.2 L 291.7 187.4 Q 291.7 188.7, 292.8 188.7 Q 293.3 188.7, 293.9 188.5 L 294.2 189.5 Q 293.4 189.8, 292.6 189.8 Q 291.6 189.8, 291.0 189.2 Q 290.3 188.6, 290.3 187.5 L 290.3 183.2 L 289.0 183.2 " fill="#000000"/>
<path class="legend" d="M 299.0 182.0 Q 300.2 182.0, 300.9 182.7 Q 301.5 183.4, 301.5 184.7 L 301.5 189.7 L 300.1 189.7 L 300.1 184.8 Q 300.1 183.9, 299.8 183.5 Q 299.4 183.1, 298.7 183.1 Q 298.0 183.1, 297.4 183.4 Q 296.8 183.7, 296.5 184.3 L 296.5 189.7 L 295.1 189.7 L 295.1 178.5 L 296.5 178.5 L 296.5 183.1 Q 297.5 182.0, 299.0 182.0 " fill="#000000"/>
<path class="legend" d="M 304.3 182.1 L 304.5 183.2 Q 305.3 182.0, 306.6 182.0 Q 307.0 182.0, 307.5 182.1 L 307.3 183.4 Q 306.7 183.2, 306.3 183.2 Q 305.7 183.2, 305.3 183.5 Q 304.9 183.7, 304.6 184.3 L 304.6 189.7 L 303.2 189.7 L 303.2 182.1 L 304.3 182.1 " fill="#000000"/>
<path class="legend" d="M 308.3 185.9 Q 308.3 184.1, 309.2 183.0 Q 310.1 182.0, 311.8 182.0 Q 313.5 182.0, 314.2 183.0 Q 315.0 184.0, 315.0 185.9 L 315.0 186.1 L 309.7 186.1 Q 309.7 187.4, 310.3 188.1 Q 310.9 188.7, 311.9 188.7 Q 312.5 188.7, 313.1 188.6 Q 313.6 188.5, 314.3 188.2 L 314.7 189.1 Q 313.9 189.5, 313.3 189.7 Q 312.6 189.8, 311.9 189.8 Q 310.2 189.8, 309.2 188.8 Q 308.3 187.8, 308.3 185.9 M 311.8 183.1 Q 311.0 183.1, 310.4 183.6 Q 309.9 184.1, 309.7 185.1 L 313.5 185.1 Q 313.4 184.1, 313.0 183.6 Q 312.6 183.1, 311.8 183.1 " fill="#000000"/>
<path class="legend" d="M 316.5 188.2 Q 317.2 188.4, 317.6 188.6 Q 318.1 188.7, 318.6 188.7 Q 319.3 188.7, 319.7 188.4 Q 320.1 188.1, 320.1 187.6 Q 320.1 187.3, 319.9 187.0 Q 319.7 186.8, 319.4 186.7 Q 319.2 186.6, 318.5 186.4 Q 318.4 186.4, 317.7 186.1 Q 317.0 185.9, 316.7 185.4 Q 316.3 184.9, 316.3 184.2 Q 316.3 183.2, 317.0 182.6 Q 317.7 182.0, 319.1 182.0 Q 319.7 182.0, 320.2 182.1 Q 320.7 182.3, 321.3 182.5 L 320.9 183.6 Q 320.4 183.4, 320.0 183.3 Q 319.6 183.2, 319.1 183.2 Q 318.4 183.2, 318.1 183.4 Q 317.7 183.7, 317.7 184.1 Q 317.7 184.6, 318.0 184.8 Q 318.3 185.0, 318.9 185.2 Q 319.1 185.2, 319.2 185.3 L 319.5 185.4 Q 320.2 185.6, 320.5 185.8 Q 320.9 186.0, 321.2 186.5 Q 321.4 186.9, 321.4 187.6 Q 321.4 188.7, 320.7 189.3 Q 319.9 189.9, 318.7 189.9 Q 317.9 189.9, 317.3 189.7 Q 316.7 189.5, 316.1 189.3 L 316.5 188.2 " fill="#000000"/>
<path class="legend" d="M 326.7 182.0 Q 327.9 182.0, 328.6 182.7 Q 329.2 183.4, 329.2 184.7 L 329.2 189.7 L 327.8 189.7 L 327.8 184.8 Q 327.8 183.9, 327.5 183.5 Q 327.1 183.1, 326.4 183.1 Q 325.7 183.1, 325.1 183.4 Q 324.5 183.7, 324.1 184.3 L 324.1 189.7 L 322.8 189.7 L 322.8 178.5 L 324.1 178.5 L 324.1 183.1 Q 325.1 182.0, 326.7 182.0 " fill="#000000"/>
<path class="legend" d="M 330.9 185.9 Q 330.9 184.1, 331.8 183.0 Q 332.7 182.0, 334.5 182.0 Q 336.2 182.0, 337.1 183.0 Q 338.1 184.1, 338.1 185.9 Q 338.1 187.8, 337.1 188.8 Q 336.2 189.8, 334.5 189.8 Q 332.7 189.8, 331.8 188.8 Q 330.9 187.8, 330.9 185.9 M 332.3 185.9 Q 332.3 187.3, 332.8 188.0 Q 333.4 188.7, 334.5 188.7 Q 335.5 188.7, 336.1 188.0 Q 336.6 187.3, 336.6 185.9 Q 336.6 184.5, 336.1 183.8 Q 335.5 183.1, 334.5 183.1 Q 333.4 183.1, 332.8 183.8 Q 332.3 184.5, 332.3 185.9 " fill="#000000"/>
<path class="legend" d="M 339.3 178.5 L 340.6 178.5 L 340.6 189.7 L 339.3 189.7 L 339.3 178.5 " fill="#000000"/>
<path class="legend" d="M 349.3 178.5 L 349.3 189.7 L 348.2 189.7 L 348.0 188.8 Q 347.2 189.8, 345.8 189.8 Q 344.2 189.8, 343.3 188.9 Q 342.4 187.9, 342.4 186.0 Q 342.4 184.1, 343.5 183.1 Q 344.5 182.0, 346.3 182.0 Q 347.1 182.0, 347.9 182.2 L 347.9 178.5 L 349.3 178.5 M 345.8 188.7 Q 346.6 188.7, 347.2 188.3 Q 347.7 187.9, 347.9 187.2 L 347.9 183.3 Q 347.2 183.1, 346.3 183.1 Q 345.2 183.1, 344.5 183.9 Q 343.8 184.6, 343.8 186.0 Q 343.8 187.3, 344.4 188.1 Q 344.9 188.7, 345.8 188.7 " fill="#000000"/>
<path class="legend" d="" fill="#000000"/>
<path class="legend" d="M 356.5 183.3 L 363.2 183.3 L 363.2 184.4 L 356.5 184.4 L 356.5 183.3 M 356.5 186.5 L 363.2 186.5 L 363.2 187.5 L 356.5 187.5 L 356.5 186.5 " fill="#000000"/>
<path class="legend" d="" fill="#000000"/>
<path class="legend" d="M 374.4 189.8 Q 372.4 189.8, 371.5 188.4 Q 370.5 187.0, 370.5 184.5 Q 370.5 182.0, 371.5 180.6 Q 372.4 179.2, 374.4 179.2 Q 376.3 179.2, 377.2 180.6 Q 378.2 182.0, 378.2 184.5 Q 378.2 187.0, 377.2 188.4 Q 376.3 189.8, 374.4 189.8 M 374.4 188.7 Q 375.5 188.7, 376.1 187.6 Q 376.7 186.5, 376.7 184.5 Q 376.7 182.4, 376.1 181.4 Q 375.5 180.3, 374.4 180.3 Q 373.2 180.3, 372.6 181.4 Q 372.0 182.4, 372.0 184.5 Q 372.0 186.5, 372.6 187.6 Q 373.2 188.7, 374.4 188.7 " fill="#000000"/>
<path class="legend" d="M 379.7 188.2 L 381.1 188.2 L 381.1 189.7 L 379.7 189.7 L 379.7 188.2 " fill="#000000"/>
<path class="legend" d="M 387.9 184.2 Q 388.9 184.6, 389.5 185.2 Q 390.0 185.8, 390.0 186.9 Q 390.0 187.7, 389.5 188.4 Q 389.1 189.1, 388.3 189.5 Q 387.4 189.9, 386.4 189.9 Q 384.6 189.9, 383.6 189.1 Q 382.6 188.3, 382.6 186.9 Q 382.6 186.0, 383.1 185.4 Q 383.5 184.7, 384.4 184.2 Q 383.7 183.8, 383.4 183.3 Q 383.0 182.7, 383.0 181.8 Q 383.0 180.6, 383.9 179.9 Q 384.8 179.2, 386.3 179.2 Q 387.8 179.2, 388.7 179.9 Q 389.6 180.6, 389.6 181.8 Q 389.6 182.6, 389.2 183.2 Q 388.8 183.7, 387.9 184.2 M 386.3 180.3 Q 385.4 180.3, 385.0 180.7 Q 384.5 181.1, 384.5 181.8 Q 384.5 182.4, 384.8 182.7 Q 385.1 183.1, 385.6 183.3 Q 386.1 183.5, 387.0 183.8 Q 387.6 183.4, 387.9 182.9 Q 388.1 182.4, 388.1 181.8 Q 388.1 181.1, 387.7 180.7 Q 387.2 180.3, 386.3 180.3 M 386.4 188.8 Q 387.3 188.8, 387.9 188.2 Q 388.5 187.7, 388.5 186.8 Q 388.5 186.3, 388.2 185.9 Q 387.9 185.6, 387.4 185.4 Q 387.0 185.2, 386.1 184.9 L 385.5 184.7 Q 384.7 185.1, 384.4 185.6 Q 384.1 186.2, 384.1 186.8 Q 384.1 187.7, 384.7 188.2 Q 385.3 188.8, 386.4 188.8 " fill="#000000"/>
</svg>