<svg xmlns="http://www.w3.org/2000/svg" xmlns:rdkit="http://www.rdkit.org/xml" xmlns:xlink="http://www.w3.org/1999/xlink" version="1.1" baseProfile="full" xml:space="preserve" width="1200px" height="600px" viewBox="0 0 1200 600">
<!-- END OF HEADER -->
<rect style="opacity:1.0;fill:#FFFFFF;stroke:none" width="1200.0" height="600.0" x="0.0" y="0.0"> </rect>
<path class="bond-0 atom-0 atom-1" d="M 130.3,177.6 L 156.9,151.7" style="fill:none;fill-rule:evenodd;stroke:#000000;stroke-width:2.0px;stroke-linecap:butt;stroke-linejoin:miter;stroke-opacity:1"/>
<path class="bond-1 atom-1 atom-2" d="M 156.9,151.7 L 153.1,136.9" style="fill:none;fill-rule:evenodd;stroke:#000000;stroke-width:2.0px;stroke-linecap:butt;stroke-linejoin:miter;stroke-opacity:1"/>
<path class="bond-1 atom-1 atom-2" d="M 153.1,136.9 L 149.3,122.1" style="fill:none;fill-rule:evenodd;stroke:#0000FF;stroke-width:2.0px;stroke-linecap:butt;stroke-linejoin:miter;stroke-opacity:1"/>
<path class="bond-2 atom-2 atom-3" d="M 142.5,114.2 L 127.2,109.9" style="fill:none;fill-rule:evenodd;stroke:#0000FF;stroke-width:2.0px;stroke-linecap:butt;stroke-linejoin:miter;stroke-opacity:1"/>
<path class="bond-2 atom-2 atom-3" d="M 127.2,109.9 L 111.9,105.6" style="fill:none;fill-rule:evenodd;stroke:#000000;stroke-width:2.0px;stroke-linecap:butt;stroke-linejoin:miter;stroke-opacity:1"/>
<path class="bond-3 atom-3 atom-4" d="M 111.9,105.6 L 121.9,69.8" style="fill:none;fill-rule:evenodd;stroke:#000000;stroke-width:2.0px;stroke-linecap:butt;stroke-linejoin:miter;stroke-opacity:1"/>
<path class="bond-4 atom-3 atom-5" d="M 111.9,105.6 L 101.9,141.4" style="fill:none;fill-rule:evenodd;stroke:#000000;stroke-width:2.0px;stroke-linecap:butt;stroke-linejoin:miter;stroke-opacity:1"/>
<path class="bond-5 atom-3 atom-6" d="M 111.9,105.6 L 76.1,95.6" style="fill:none;fill-rule:evenodd;stroke:#000000;stroke-width:2.0px;stroke-linecap:butt;stroke-linejoin:miter;stroke-opacity:1"/>
<path class="bond-6 atom-1 atom-7" d="M 156.9,151.7 L 192.7,161.7" style="fill:none;fill-rule:evenodd;stroke:#000000;stroke-width:2.0px;stroke-linecap:butt;stroke-linejoin:miter;stroke-opacity:1"/>
<path class="bond-7 atom-7 atom-8" d="M 189.6,160.8 L 193.5,176.3" style="fill:none;fill-rule:evenodd;stroke:#000000;stroke-width:2.0px;stroke-linecap:butt;stroke-linejoin:miter;stroke-opacity:1"/>
<path class="bond-7 atom-7 atom-8" d="M 193.5,176.3 L 197.5,191.8" style="fill:none;fill-rule:evenodd;stroke:#FF0000;stroke-width:2.0px;stroke-linecap:butt;stroke-linejoin:miter;stroke-opacity:1"/>
<path class="bond-7 atom-7 atom-8" d="M 195.0,159.4 L 198.9,174.9" style="fill:none;fill-rule:evenodd;stroke:#000000;stroke-width:2.0px;stroke-linecap:butt;stroke-linejoin:miter;stroke-opacity:1"/>
<path class="bond-7 atom-7 atom-8" d="M 198.9,174.9 L 202.9,190.4" style="fill:none;fill-rule:evenodd;stroke:#FF0000;stroke-width:2.0px;stroke-linecap:butt;stroke-linejoin:miter;stroke-opacity:1"/>
<path class="bond-8 atom-7 atom-9" d="M 192.7,161.7 L 219.3,135.7" style="fill:none;fill-rule:evenodd;stroke:#000000;stroke-width:2.0px;stroke-linecap:butt;stroke-linejoin:miter;stroke-opacity:1"/>
<path class="bond-9 atom-9 atom-10" d="M 219.3,135.7 L 210.0,99.7" style="fill:none;fill-rule:evenodd;stroke:#000000;stroke-width:2.0px;stroke-linecap:butt;stroke-linejoin:miter;stroke-opacity:1"/>
<path class="bond-9 atom-9 atom-10" d="M 223.9,131.2 L 216.2,101.4" style="fill:none;fill-rule:evenodd;stroke:#000000;stroke-width:2.0px;stroke-linecap:butt;stroke-linejoin:miter;stroke-opacity:1"/>
<path class="bond-10 atom-10 atom-11" d="M 210.0,99.7 L 236.6,73.7" style="fill:none;fill-rule:evenodd;stroke:#000000;stroke-width:2.0px;stroke-linecap:butt;stroke-linejoin:miter;stroke-opacity:1"/>
<path class="bond-11 atom-11 atom-12" d="M 236.6,73.7 L 272.4,83.7" style="fill:none;fill-rule:evenodd;stroke:#000000;stroke-width:2.0px;stroke-linecap:butt;stroke-linejoin:miter;stroke-opacity:1"/>
<path class="bond-11 atom-11 atom-12" d="M 238.2,80.0 L 267.8,88.2" style="fill:none;fill-rule:evenodd;stroke:#000000;stroke-width:2.0px;stroke-linecap:butt;stroke-linejoin:miter;stroke-opacity:1"/>
<path class="bond-12 atom-12 atom-13" d="M 272.4,83.7 L 281.6,119.7" style="fill:none;fill-rule:evenodd;stroke:#000000;stroke-width:2.0px;stroke-linecap:butt;stroke-linejoin:miter;stroke-opacity:1"/>
<path class="bond-13 atom-13 atom-14" d="M 281.6,119.7 L 296.9,124.0" style="fill:none;fill-rule:evenodd;stroke:#000000;stroke-width:2.0px;stroke-linecap:butt;stroke-linejoin:miter;stroke-opacity:1"/>
<path class="bond-13 atom-13 atom-14" d="M 296.9,124.0 L 312.1,128.3" style="fill:none;fill-rule:evenodd;stroke:#00CC00;stroke-width:2.0px;stroke-linecap:butt;stroke-linejoin:miter;stroke-opacity:1"/>
<path class="bond-14 atom-13 atom-15" d="M 281.6,119.7 L 255.0,145.7" style="fill:none;fill-rule:evenodd;stroke:#000000;stroke-width:2.0px;stroke-linecap:butt;stroke-linejoin:miter;stroke-opacity:1"/>
<path class="bond-14 atom-13 atom-15" d="M 275.4,118.0 L 253.4,139.5" style="fill:none;fill-rule:evenodd;stroke:#000000;stroke-width:2.0px;stroke-linecap:butt;stroke-linejoin:miter;stroke-opacity:1"/>
<path class="bond-15 atom-15 atom-9" d="M 255.0,145.7 L 219.3,135.7" style="fill:none;fill-rule:evenodd;stroke:#000000;stroke-width:2.0px;stroke-linecap:butt;stroke-linejoin:miter;stroke-opacity:1"/>
<path d="M 190.9,161.2 L 192.7,161.7 L 194.0,160.4" style="fill:none;stroke:#000000;stroke-width:2.0px;stroke-linecap:butt;stroke-linejoin:miter;stroke-opacity:1;"/>
<path d="M 210.5,101.5 L 210.0,99.7 L 211.4,98.4" style="fill:none;stroke:#000000;stroke-width:2.0px;stroke-linecap:butt;stroke-linejoin:miter;stroke-opacity:1;"/>
<path d="M 235.3,75.0 L 236.6,73.7 L 238.4,74.2" style="fill:none;stroke:#000000;stroke-width:2.0px;stroke-linecap:butt;stroke-linejoin:miter;stroke-opacity:1;"/>
<path d="M 270.6,83.2 L 272.4,83.7 L 272.9,85.5" style="fill:none;stroke:#000000;stroke-width:2.0px;stroke-linecap:butt;stroke-linejoin:miter;stroke-opacity:1;"/>
<path d="M 256.4,144.4 L 255.0,145.7 L 253.2,145.2" style="fill:none;stroke:#000000;stroke-width:2.0px;stroke-linecap:butt;stroke-linejoin:miter;stroke-opacity:1;"/>
<path class="atom-2" d="M 145.4 110.4 L 148.8 116.0 Q 149.1 116.5, 149.7 117.5 Q 150.2 118.5, 150.3 118.6 L 150.3 110.4 L 151.7 110.4 L 151.7 120.9 L 150.2 120.9 L 146.5 114.8 Q 146.1 114.1, 145.6 113.3 Q 145.2 112.5, 145.1 112.2 L 145.1 120.9 L 143.7 120.9 L 143.7 110.4 L 145.4 110.4 " fill="#0000FF"/>
<path class="atom-2" d="M 153.7 110.4 L 155.1 110.4 L 155.1 114.9 L 160.5 114.9 L 160.5 110.4 L 162.0 110.4 L 162.0 120.9 L 160.5 120.9 L 160.5 116.0 L 155.1 116.0 L 155.1 120.9 L 153.7 120.9 L 153.7 110.4 " fill="#0000FF"/>
<path class="atom-8" d="M 197.1 197.7 Q 197.1 195.2, 198.3 193.8 Q 199.5 192.4, 201.9 192.4 Q 204.2 192.4, 205.5 193.8 Q 206.7 195.2, 206.7 197.7 Q 206.7 200.3, 205.5 201.7 Q 204.2 203.2, 201.9 203.2 Q 199.6 203.2, 198.3 201.7 Q 197.1 200.3, 197.1 197.7 M 201.9 202.0 Q 203.5 202.0, 204.4 200.9 Q 205.2 199.8, 205.2 197.7 Q 205.2 195.6, 204.4 194.6 Q 203.5 193.5, 201.9 193.5 Q 200.3 193.5, 199.4 194.6 Q 198.5 195.6, 198.5 197.7 Q 198.5 199.8, 199.4 200.9 Q 200.3 202.0, 201.9 202.0 " fill="#FF0000"/>
<path class="atom-14" d="M 313.3 130.1 Q 313.3 127.5, 314.6 126.2 Q 315.8 124.8, 318.1 124.8 Q 320.3 124.8, 321.5 126.3 L 320.5 127.1 Q 319.6 126.0, 318.1 126.0 Q 316.5 126.0, 315.7 127.1 Q 314.9 128.1, 314.9 130.1 Q 314.9 132.2, 315.7 133.3 Q 316.6 134.4, 318.3 134.4 Q 319.4 134.4, 320.8 133.7 L 321.2 134.8 Q 320.7 135.1, 319.8 135.3 Q 319.0 135.6, 318.1 135.6 Q 315.8 135.6, 314.6 134.2 Q 313.3 132.8, 313.3 130.1 " fill="#00CC00"/>
<path class="atom-14" d="M 322.5 124.1 L 323.9 124.1 L 323.9 135.4 L 322.5 135.4 L 322.5 124.1 " fill="#00CC00"/>
<path class="legend" d="M 164.1 278.9 Q 165.2 279.2, 165.7 279.8 Q 166.3 280.5, 166.3 281.5 Q 166.3 283.0, 165.3 283.9 Q 164.3 284.8, 162.4 284.8 L 158.6 284.8 L 158.6 273.5 L 161.9 273.5 Q 163.9 273.5, 164.9 274.3 Q 165.8 275.1, 165.8 276.5 Q 165.8 278.2, 164.1 278.9 M 160.1 274.8 L 160.1 278.3 L 161.9 278.3 Q 163.1 278.3, 163.6 277.9 Q 164.2 277.4, 164.2 276.5 Q 164.2 274.8, 161.9 274.8 L 160.1 274.8 M 162.4 283.5 Q 163.5 283.5, 164.1 283.0 Q 164.7 282.5, 164.7 281.5 Q 164.7 280.6, 164.0 280.1 Q 163.4 279.6, 162.2 279.6 L 160.1 279.6 L 160.1 283.5 L 162.4 283.5 " fill="#000000"/>
<path class="legend" d="M 169.3 273.5 L 169.3 281.1 Q 169.3 282.4, 170.1 283.0 Q 170.8 283.6, 172.2 283.6 Q 173.7 283.6, 174.4 283.0 Q 175.1 282.5, 175.1 281.2 L 175.1 273.5 L 176.7 273.5 L 176.7 281.2 Q 176.7 283.0, 175.6 284.0 Q 174.5 285.0, 172.2 285.0 Q 170.0 285.0, 168.9 284.0 Q 167.8 283.0, 167.8 281.2 L 167.8 273.5 L 169.3 273.5 " fill="#000000"/>
<path class="legend" d="M 182.0 273.5 Q 184.0 273.5, 184.9 274.4 Q 185.9 275.2, 185.9 276.8 Q 185.9 278.4, 184.9 279.3 Q 183.9 280.2, 182.0 280.2 L 180.2 280.2 L 180.2 284.8 L 178.7 284.8 L 178.7 273.5 L 182.0 273.5 M 182.0 278.9 Q 183.1 278.9, 183.7 278.4 Q 184.3 277.8, 184.3 276.8 Q 184.3 275.8, 183.7 275.3 Q 183.1 274.8, 182.0 274.8 L 180.2 274.8 L 180.2 278.9 L 182.0 278.9 " fill="#000000"/>
<path class="legend" d="M 193.6 284.8 L 190.8 280.2 L 190.8 280.2 L 189.0 280.2 L 189.0 284.8 L 187.4 284.8 L 187.4 273.5 L 190.8 273.5 Q 192.7 273.5, 193.7 274.4 Q 194.7 275.2, 194.7 276.8 Q 194.7 278.0, 194.1 278.8 Q 193.5 279.6, 192.4 280.0 L 195.2 284.8 L 193.6 284.8 M 189.0 278.9 L 190.8 278.9 Q 191.9 278.9, 192.5 278.4 Q 193.1 277.8, 193.1 276.8 Q 193.1 275.8, 192.5 275.3 Q 191.9 274.8, 190.8 274.8 L 189.0 274.8 L 189.0 278.9 " fill="#000000"/>
<path class="legend" d="M 196.4 279.1 Q 196.4 276.4, 197.7 274.9 Q 199.1 273.4, 201.6 273.4 Q 204.1 273.4, 205.4 274.9 Q 206.8 276.4, 206.8 279.1 Q 206.8 281.9, 205.4 283.4 Q 204.1 285.0, 201.6 285.0 Q 199.1 285.0, 197.7 283.4 Q 196.4 281.9, 196.4 279.1 M 201.6 283.7 Q 203.3 283.7, 204.2 282.6 Q 205.2 281.4, 205.2 279.1 Q 205.2 276.9, 204.2 275.8 Q 203.3 274.6, 201.6 274.6 Q 199.9 274.6, 198.9 275.8 Q 198.0 276.9, 198.0 279.1 Q 198.0 281.4, 198.9 282.6 Q 199.9 283.7, 201.6 283.7 " fill="#000000"/>
<path class="legend" d="M 211.7 273.5 Q 213.6 273.5, 214.6 274.4 Q 215.6 275.2, 215.6 276.8 Q 215.6 278.4, 214.6 279.3 Q 213.6 280.2, 211.7 280.2 L 209.9 280.2 L 209.9 284.8 L 208.4 284.8 L 208.4 273.5 L 211.7 273.5 M 211.7 278.9 Q 212.8 278.9, 213.4 278.4 Q 214.0 277.8, 214.0 276.8 Q 214.0 275.8, 213.4 275.3 Q 212.8 274.8, 211.7 274.8 L 209.9 274.8 L 209.9 278.9 L 211.7 278.9 " fill="#000000"/>
<path class="legend" d="M 217.1 273.4 L 218.6 273.4 L 218.6 284.8 L 217.1 284.8 L 217.1 273.4 " fill="#000000"/>
<path class="legend" d="M 220.8 279.1 Q 220.8 276.4, 222.2 274.9 Q 223.5 273.4, 226.0 273.4 Q 228.5 273.4, 229.9 274.9 Q 231.2 276.4, 231.2 279.1 Q 231.2 281.9, 229.9 283.4 Q 228.5 285.0, 226.0 285.0 Q 223.5 285.0, 222.2 283.4 Q 220.8 281.9, 220.8 279.1 M 226.0 283.7 Q 227.8 283.7, 228.7 282.6 Q 229.6 281.4, 229.6 279.1 Q 229.6 276.9, 228.7 275.8 Q 227.8 274.6, 226.0 274.6 Q 224.3 274.6, 223.4 275.8 Q 222.4 276.9, 222.4 279.1 Q 222.4 281.4, 223.4 282.6 Q 224.3 283.7, 226.0 283.7 " fill="#000000"/>
<path class="legend" d="M 234.6 273.5 L 238.3 279.5 Q 238.7 280.1, 239.3 281.2 Q 239.9 282.2, 239.9 282.3 L 239.9 273.5 L 241.4 273.5 L 241.4 284.8 L 239.8 284.8 L 235.9 278.3 Q 235.4 277.5, 234.9 276.6 Q 234.4 275.7, 234.3 275.5 L 234.3 284.8 L 232.8 284.8 L 232.8 273.5 L 234.6 273.5 " fill="#000000"/>
<path class="bond-0 atom-0 atom-1" d="M 433.8,156.7 L 445.8,166.2" style="fill:none;fill-rule:evenodd;stroke:#000000;stroke-width:2.0px;stroke-linecap:butt;stroke-linejoin:miter;stroke-opacity:1"/>
<path class="bond-0 atom-0 atom-1" d="M 445.8,166.2 L 457.7,175.7" style="fill:none;fill-rule:evenodd;stroke:#0000FF;stroke-width:2.0px;stroke-linecap:butt;stroke-linejoin:miter;stroke-opacity:1"/>
<path class="bond-1 atom-1 atom-2" d="M 468.2,177.7 L 482.8,171.9" style="fill:none;fill-rule:evenodd;stroke:#0000FF;stroke-width:2.0px;stroke-linecap:butt;stroke-linejoin:miter;stroke-opacity:1"/>
<path class="bond-1 atom-1 atom-2" d="M 482.8,171.9 L 497.5,166.1" style="fill:none;fill-rule:evenodd;stroke:#000000;stroke-width:2.0px;stroke-linecap:butt;stroke-linejoin:miter;stroke-opacity:1"/>
<path class="bond-2 atom-2 atom-3" d="M 497.5,166.1 L 526.6,189.2" style="fill:none;fill-rule:evenodd;stroke:#000000;stroke-width:2.0px;stroke-linecap:butt;stroke-linejoin:miter;stroke-opacity:1"/>
<path class="bond-3 atom-3 atom-4" d="M 526.6,189.2 L 561.2,175.4" style="fill:none;fill-rule:evenodd;stroke:#000000;stroke-width:2.0px;stroke-linecap:butt;stroke-linejoin:miter;stroke-opacity:1"/>
<path class="bond-4 atom-4 atom-5" d="M 561.2,175.4 L 572.7,184.6" style="fill:none;fill-rule:evenodd;stroke:#000000;stroke-width:2.0px;stroke-linecap:butt;stroke-linejoin:miter;stroke-opacity:1"/>
<path class="bond-4 atom-4 atom-5" d="M 572.7,184.6 L 584.3,193.7" style="fill:none;fill-rule:evenodd;stroke:#FF0000;stroke-width:2.0px;stroke-linecap:butt;stroke-linejoin:miter;stroke-opacity:1"/>
<path class="bond-5 atom-5 atom-6" d="M 596.4,196.1 L 610.6,190.5" style="fill:none;fill-rule:evenodd;stroke:#FF0000;stroke-width:2.0px;stroke-linecap:butt;stroke-linejoin:miter;stroke-opacity:1"/>
<path class="bond-5 atom-5 atom-6" d="M 610.6,190.5 L 624.9,184.8" style="fill:none;fill-rule:evenodd;stroke:#000000;stroke-width:2.0px;stroke-linecap:butt;stroke-linejoin:miter;stroke-opacity:1"/>
<path class="bond-6 atom-6 atom-7" d="M 624.9,184.8 L 654.0,207.9" style="fill:none;fill-rule:evenodd;stroke:#000000;stroke-width:2.0px;stroke-linecap:butt;stroke-linejoin:miter;stroke-opacity:1"/>
<path class="bond-6 atom-6 atom-7" d="M 630.9,182.4 L 655.0,201.5" style="fill:none;fill-rule:evenodd;stroke:#000000;stroke-width:2.0px;stroke-linecap:butt;stroke-linejoin:miter;stroke-opacity:1"/>
<path class="bond-7 atom-7 atom-8" d="M 654.0,207.9 L 688.6,194.2" style="fill:none;fill-rule:evenodd;stroke:#000000;stroke-width:2.0px;stroke-linecap:butt;stroke-linejoin:miter;stroke-opacity:1"/>
<path class="bond-8 atom-8 atom-9" d="M 688.6,194.2 L 694.0,157.4" style="fill:none;fill-rule:evenodd;stroke:#000000;stroke-width:2.0px;stroke-linecap:butt;stroke-linejoin:miter;stroke-opacity:1"/>
<path class="bond-8 atom-8 atom-9" d="M 683.5,190.2 L 688.0,159.8" style="fill:none;fill-rule:evenodd;stroke:#000000;stroke-width:2.0px;stroke-linecap:butt;stroke-linejoin:miter;stroke-opacity:1"/>
<path class="bond-9 atom-9 atom-10" d="M 694.0,157.4 L 728.5,143.7" style="fill:none;fill-rule:evenodd;stroke:#000000;stroke-width:2.0px;stroke-linecap:butt;stroke-linejoin:miter;stroke-opacity:1"/>
<path class="bond-10 atom-10 atom-11" d="M 728.5,143.7 L 743.6,137.7" style="fill:none;fill-rule:evenodd;stroke:#000000;stroke-width:2.0px;stroke-linecap:butt;stroke-linejoin:miter;stroke-opacity:1"/>
<path class="bond-10 atom-10 atom-11" d="M 743.6,137.7 L 758.7,131.7" style="fill:none;fill-rule:evenodd;stroke:#33CCCC;stroke-width:2.0px;stroke-linecap:butt;stroke-linejoin:miter;stroke-opacity:1"/>
<path class="bond-11 atom-10 atom-12" d="M 728.5,143.7 L 734.1,157.7" style="fill:none;fill-rule:evenodd;stroke:#000000;stroke-width:2.0px;stroke-linecap:butt;stroke-linejoin:miter;stroke-opacity:1"/>
<path class="bond-11 atom-10 atom-12" d="M 734.1,157.7 L 739.6,171.7" style="fill:none;fill-rule:evenodd;stroke:#33CCCC;stroke-width:2.0px;stroke-linecap:butt;stroke-linejoin:miter;stroke-opacity:1"/>
<path class="bond-12 atom-10 atom-13" d="M 728.5,143.7 L 722.9,129.7" style="fill:none;fill-rule:evenodd;stroke:#000000;stroke-width:2.0px;stroke-linecap:butt;stroke-linejoin:miter;stroke-opacity:1"/>
<path class="bond-12 atom-10 atom-13" d="M 722.9,129.7 L 717.4,115.6" style="fill:none;fill-rule:evenodd;stroke:#33CCCC;stroke-width:2.0px;stroke-linecap:butt;stroke-linejoin:miter;stroke-opacity:1"/>
<path class="bond-13 atom-9 atom-14" d="M 694.0,157.4 L 664.8,134.3" style="fill:none;fill-rule:evenodd;stroke:#000000;stroke-width:2.0px;stroke-linecap:butt;stroke-linejoin:miter;stroke-opacity:1"/>
<path class="bond-14 atom-14 atom-15" d="M 664.8,134.3 L 630.3,148.0" style="fill:none;fill-rule:evenodd;stroke:#000000;stroke-width:2.0px;stroke-linecap:butt;stroke-linejoin:miter;stroke-opacity:1"/>
<path class="bond-14 atom-14 atom-15" d="M 663.9,140.7 L 635.3,152.0" style="fill:none;fill-rule:evenodd;stroke:#000000;stroke-width:2.0px;stroke-linecap:butt;stroke-linejoin:miter;stroke-opacity:1"/>
<path class="bond-15 atom-4 atom-16" d="M 561.2,175.4 L 566.6,138.7" style="fill:none;fill-rule:evenodd;stroke:#000000;stroke-width:2.0px;stroke-linecap:butt;stroke-linejoin:miter;stroke-opacity:1"/>
<path class="bond-16 atom-16 atom-17" d="M 566.6,138.7 L 601.1,125.0" style="fill:none;fill-rule:evenodd;stroke:#000000;stroke-width:2.0px;stroke-linecap:butt;stroke-linejoin:miter;stroke-opacity:1"/>
<path class="bond-16 atom-16 atom-17" d="M 567.5,132.3 L 596.1,121.0" style="fill:none;fill-rule:evenodd;stroke:#000000;stroke-width:2.0px;stroke-linecap:butt;stroke-linejoin:miter;stroke-opacity:1"/>
<path class="bond-17 atom-17 atom-18" d="M 601.1,125.0 L 606.5,88.2" style="fill:none;fill-rule:evenodd;stroke:#000000;stroke-width:2.0px;stroke-linecap:butt;stroke-linejoin:miter;stroke-opacity:1"/>
<path class="bond-18 atom-18 atom-19" d="M 606.5,88.2 L 577.4,65.1" style="fill:none;fill-rule:evenodd;stroke:#000000;stroke-width:2.0px;stroke-linecap:butt;stroke-linejoin:miter;stroke-opacity:1"/>
<path class="bond-18 atom-18 atom-19" d="M 600.6,90.6 L 576.5,71.5" style="fill:none;fill-rule:evenodd;stroke:#000000;stroke-width:2.0px;stroke-linecap:butt;stroke-linejoin:miter;stroke-opacity:1"/>
<path class="bond-19 atom-19 atom-20" d="M 577.4,65.1 L 542.8,78.8" style="fill:none;fill-rule:evenodd;stroke:#000000;stroke-width:2.0px;stroke-linecap:butt;stroke-linejoin:miter;stroke-opacity:1"/>
<path class="bond-20 atom-20 atom-21" d="M 542.8,78.8 L 537.4,115.6" style="fill:none;fill-rule:evenodd;stroke:#000000;stroke-width:2.0px;stroke-linecap:butt;stroke-linejoin:miter;stroke-opacity:1"/>
<path class="bond-20 atom-20 atom-21" d="M 547.9,82.8 L 543.4,113.2" style="fill:none;fill-rule:evenodd;stroke:#000000;stroke-width:2.0px;stroke-linecap:butt;stroke-linejoin:miter;stroke-opacity:1"/>
<path class="bond-21 atom-15 atom-6" d="M 630.3,148.0 L 624.9,184.8" style="fill:none;fill-rule:evenodd;stroke:#000000;stroke-width:2.0px;stroke-linecap:butt;stroke-linejoin:miter;stroke-opacity:1"/>
<path class="bond-22 atom-21 atom-16" d="M 537.4,115.6 L 566.6,138.7" style="fill:none;fill-rule:evenodd;stroke:#000000;stroke-width:2.0px;stroke-linecap:butt;stroke-linejoin:miter;stroke-opacity:1"/>
<path d="M 496.8,166.4 L 497.5,166.1 L 499.0,167.2" style="fill:none;stroke:#000000;stroke-width:2.0px;stroke-linecap:butt;stroke-linejoin:miter;stroke-opacity:1;"/>
<path d="M 525.2,188.0 L 526.6,189.2 L 528.4,188.5" style="fill:none;stroke:#000000;stroke-width:2.0px;stroke-linecap:butt;stroke-linejoin:miter;stroke-opacity:1;"/>
<path d="M 652.6,206.7 L 654.0,207.9 L 655.7,207.2" style="fill:none;stroke:#000000;stroke-width:2.0px;stroke-linecap:butt;stroke-linejoin:miter;stroke-opacity:1;"/>
<path d="M 686.8,194.8 L 688.6,194.2 L 688.8,192.3" style="fill:none;stroke:#000000;stroke-width:2.0px;stroke-linecap:butt;stroke-linejoin:miter;stroke-opacity:1;"/>
<path d="M 666.3,135.5 L 664.8,134.3 L 663.1,135.0" style="fill:none;stroke:#000000;stroke-width:2.0px;stroke-linecap:butt;stroke-linejoin:miter;stroke-opacity:1;"/>
<path d="M 632.0,147.3 L 630.3,148.0 L 630.0,149.9" style="fill:none;stroke:#000000;stroke-width:2.0px;stroke-linecap:butt;stroke-linejoin:miter;stroke-opacity:1;"/>
<path d="M 599.4,125.7 L 601.1,125.0 L 601.4,123.1" style="fill:none;stroke:#000000;stroke-width:2.0px;stroke-linecap:butt;stroke-linejoin:miter;stroke-opacity:1;"/>
<path d="M 606.3,90.0 L 606.5,88.2 L 605.1,87.0" style="fill:none;stroke:#000000;stroke-width:2.0px;stroke-linecap:butt;stroke-linejoin:miter;stroke-opacity:1;"/>
<path d="M 578.9,66.3 L 577.4,65.1 L 575.7,65.8" style="fill:none;stroke:#000000;stroke-width:2.0px;stroke-linecap:butt;stroke-linejoin:miter;stroke-opacity:1;"/>
<path d="M 544.6,78.2 L 542.8,78.8 L 542.6,80.7" style="fill:none;stroke:#000000;stroke-width:2.0px;stroke-linecap:butt;stroke-linejoin:miter;stroke-opacity:1;"/>
<path d="M 537.7,113.8 L 537.4,115.6 L 538.9,116.8" style="fill:none;stroke:#000000;stroke-width:2.0px;stroke-linecap:butt;stroke-linejoin:miter;stroke-opacity:1;"/>
<path class="atom-1" d="M 460.6 174.5 L 464.1 180.1 Q 464.4 180.7, 465.0 181.7 Q 465.5 182.7, 465.6 182.7 L 465.6 174.5 L 467.0 174.5 L 467.0 185.1 L 465.5 185.1 L 461.8 179.0 Q 461.4 178.3, 460.9 177.4 Q 460.5 176.6, 460.3 176.4 L 460.3 185.1 L 459.0 185.1 L 459.0 174.5 L 460.6 174.5 " fill="#0000FF"/>
<path class="atom-1" d="M 458.8 186.1 L 460.3 186.1 L 460.3 190.6 L 465.7 190.6 L 465.7 186.1 L 467.1 186.1 L 467.1 196.6 L 465.7 196.6 L 465.7 191.8 L 460.3 191.8 L 460.3 196.6 L 458.8 196.6 L 458.8 186.1 " fill="#0000FF"/>
<path class="atom-5" d="M 585.5 198.5 Q 585.5 196.0, 586.8 194.6 Q 588.0 193.2, 590.3 193.2 Q 592.7 193.2, 593.9 194.6 Q 595.2 196.0, 595.2 198.5 Q 595.2 201.1, 593.9 202.6 Q 592.6 204.0, 590.3 204.0 Q 588.0 204.0, 586.8 202.6 Q 585.5 201.1, 585.5 198.5 M 590.3 202.8 Q 591.9 202.8, 592.8 201.7 Q 593.7 200.6, 593.7 198.5 Q 593.7 196.5, 592.8 195.4 Q 591.9 194.4, 590.3 194.4 Q 588.7 194.4, 587.9 195.4 Q 587.0 196.5, 587.0 198.5 Q 587.0 200.7, 587.9 201.7 Q 588.7 202.8, 590.3 202.8 " fill="#FF0000"/>
<path class="atom-11" d="M 759.9 124.7 L 766.2 124.7 L 766.2 125.9 L 761.3 125.9 L 761.3 129.1 L 765.6 129.1 L 765.6 130.3 L 761.3 130.3 L 761.3 135.2 L 759.9 135.2 L 759.9 124.7 " fill="#33CCCC"/>
<path class="atom-12" d="M 739.1 173.0 L 745.3 173.0 L 745.3 174.2 L 740.5 174.2 L 740.5 177.4 L 744.8 177.4 L 744.8 178.6 L 740.5 178.6 L 740.5 183.5 L 739.1 183.5 L 739.1 173.0 " fill="#33CCCC"/>
<path class="atom-13" d="M 711.7 103.9 L 717.9 103.9 L 717.9 105.1 L 713.1 105.1 L 713.1 108.3 L 717.4 108.3 L 717.4 109.5 L 713.1 109.5 L 713.1 114.4 L 711.7 114.4 L 711.7 103.9 " fill="#33CCCC"/>
<path class="legend" d="M 555.8 273.5 L 562.5 273.5 L 562.5 274.8 L 557.3 274.8 L 557.3 278.2 L 562.0 278.2 L 562.0 279.5 L 557.3 279.5 L 557.3 284.8 L 555.8 284.8 L 555.8 273.5 " fill="#000000"/>
<path class="legend" d="M 563.6 273.5 L 565.2 273.5 L 565.2 283.5 L 570.4 283.5 L 570.4 284.8 L 563.6 284.8 L 563.6 273.5 " fill="#000000"/>
<path class="legend" d="M 573.1 273.5 L 573.1 281.1 Q 573.1 282.4, 573.8 283.0 Q 574.5 283.6, 576.0 283.6 Q 577.4 283.6, 578.1 283.0 Q 578.9 282.5, 578.9 281.2 L 578.9 273.5 L 580.4 273.5 L 580.4 281.2 Q 580.4 283.0, 579.3 284.0 Q 578.2 285.0, 576.0 285.0 Q 573.7 285.0, 572.6 284.0 Q 571.6 283.0, 571.6 281.2 L 571.6 273.5 L 573.1 273.5 " fill="#000000"/>
<path class="legend" d="M 582.4 279.1 Q 582.4 276.4, 583.7 274.9 Q 585.1 273.4, 587.6 273.4 Q 590.1 273.4, 591.5 274.9 Q 592.8 276.4, 592.8 279.1 Q 592.8 281.9, 591.4 283.4 Q 590.1 285.0, 587.6 285.0 Q 585.1 285.0, 583.7 283.4 Q 582.4 281.9, 582.4 279.1 M 587.6 283.7 Q 589.3 283.7, 590.3 282.6 Q 591.2 281.4, 591.2 279.1 Q 591.2 276.9, 590.3 275.8 Q 589.3 274.6, 587.6 274.6 Q 585.9 274.6, 584.9 275.8 Q 584.0 276.9, 584.0 279.1 Q 584.0 281.4, 584.9 282.6 Q 585.9 283.7, 587.6 283.7 " fill="#000000"/>
<path class="legend" d="M 604.6 284.8 L 602.8 284.8 L 599.4 280.1 L 596.1 284.8 L 594.4 284.8 L 598.6 278.9 L 594.7 273.5 L 596.4 273.5 L 599.5 277.8 L 602.6 273.5 L 604.3 273.5 L 600.4 279.0 L 604.6 284.8 " fill="#000000"/>
<path class="legend" d="M 605.4 273.5 L 612.1 273.5 L 612.1 274.8 L 606.9 274.8 L 606.9 278.2 L 611.6 278.2 L 611.6 279.5 L 606.9 279.5 L 606.9 283.5 L 612.3 283.5 L 612.3 284.8 L 605.4 284.8 L 605.4 273.5 " fill="#000000"/>
<path class="legend" d="M 617.3 274.8 L 613.8 274.8 L 613.8 273.5 L 622.2 273.5 L 622.2 274.8 L 618.9 274.8 L 618.9 284.8 L 617.3 284.8 L 617.3 274.8 " fill="#000000"/>
<path class="legend" d="M 622.9 273.4 L 624.4 273.4 L 624.4 284.8 L 622.9 284.8 L 622.9 273.4 " fill="#000000"/>
<path class="legend" d="M 628.4 273.5 L 632.1 279.5 Q 632.5 280.1, 633.1 281.2 Q 633.7 282.2, 633.7 282.3 L 633.7 273.5 L 635.2 273.5 L 635.2 284.8 L 633.6 284.8 L 629.7 278.3 Q 629.2 277.5, 628.7 276.6 Q 628.2 275.7, 628.1 275.5 L 628.1 284.8 L 626.6 284.8 L 626.6 273.5 L 628.4 273.5 " fill="#000000"/>
<path class="legend" d="M 637.3 273.5 L 644.0 273.5 L 644.0 274.8 L 638.8 274.8 L 638.8 278.2 L 643.5 278.2 L 643.5 279.5 L 638.8 279.5 L 638.8 283.5 L 644.2 283.5 L 644.2 284.8 L 637.3 284.8 L 637.3 273.5 " fill="#000000"/>
<path class="bond-0 atom-0 atom-1" d="M 1076.8,246.2 L 1078.9,231.1" style="fill:none;fill-rule:evenodd;stroke:#33CCCC;stroke-width:2.0px;stroke-linecap:butt;stroke-linejoin:miter;stroke-opacity:1"/>
<path class="bond-0 atom-0 atom-1" d="M 1078.9,231.1 L 1081.0,215.9" style="fill:none;fill-rule:evenodd;stroke:#000000;stroke-width:2.0px;stroke-linecap:butt;stroke-linejoin:miter;stroke-opacity:1"/>
<path class="bond-1 atom-1 atom-2" d="M 1081.0,215.9 L 1051.7,193.1" style="fill:none;fill-rule:evenodd;stroke:#000000;stroke-width:2.0px;stroke-linecap:butt;stroke-linejoin:miter;stroke-opacity:1"/>
<path class="bond-1 atom-1 atom-2" d="M 1081.9,209.5 L 1057.6,190.7" style="fill:none;fill-rule:evenodd;stroke:#000000;stroke-width:2.0px;stroke-linecap:butt;stroke-linejoin:miter;stroke-opacity:1"/>
<path class="bond-2 atom-2 atom-3" d="M 1051.7,193.1 L 1056.7,156.3" style="fill:none;fill-rule:evenodd;stroke:#000000;stroke-width:2.0px;stroke-linecap:butt;stroke-linejoin:miter;stroke-opacity:1"/>
<path class="bond-3 atom-3 atom-4" d="M 1056.7,156.3 L 1091.2,142.3" style="fill:none;fill-rule:evenodd;stroke:#000000;stroke-width:2.0px;stroke-linecap:butt;stroke-linejoin:miter;stroke-opacity:1"/>
<path class="bond-3 atom-3 atom-4" d="M 1061.8,160.3 L 1090.3,148.7" style="fill:none;fill-rule:evenodd;stroke:#000000;stroke-width:2.0px;stroke-linecap:butt;stroke-linejoin:miter;stroke-opacity:1"/>
<path class="bond-4 atom-5 atom-4" d="M 1096.2,105.5 L 1093.8,144.4 L 1091.2,142.3 Z" style="fill:#000000;fill-rule:evenodd;fill-opacity:1;stroke:#000000;stroke-width:0.5px;stroke-linecap:butt;stroke-linejoin:miter;stroke-opacity:1;"/>
<path class="bond-4 atom-5 atom-4" d="M 1096.2,105.5 L 1091.2,142.3 L 1088.0,143.6 Z" style="fill:#000000;fill-rule:evenodd;fill-opacity:1;stroke:#000000;stroke-width:0.5px;stroke-linecap:butt;stroke-linejoin:miter;stroke-opacity:1;"/>
<path class="bond-5 atom-5 atom-6" d="M 1096.2,105.5 L 1130.7,91.5" style="fill:none;fill-rule:evenodd;stroke:#000000;stroke-width:2.0px;stroke-linecap:butt;stroke-linejoin:miter;stroke-opacity:1"/>
<path class="bond-6 atom-6 atom-7" d="M 1130.7,91.5 L 1135.7,54.6" style="fill:none;fill-rule:evenodd;stroke:#000000;stroke-width:2.0px;stroke-linecap:butt;stroke-linejoin:miter;stroke-opacity:1"/>
<path class="bond-7 atom-7 atom-8" d="M 1135.7,54.6 L 1123.7,45.3" style="fill:none;fill-rule:evenodd;stroke:#000000;stroke-width:2.0px;stroke-linecap:butt;stroke-linejoin:miter;stroke-opacity:1"/>
<path class="bond-7 atom-7 atom-8" d="M 1123.7,45.3 L 1111.6,35.9" style="fill:none;fill-rule:evenodd;stroke:#0000FF;stroke-width:2.0px;stroke-linecap:butt;stroke-linejoin:miter;stroke-opacity:1"/>
<path class="bond-8 atom-8 atom-9" d="M 1101.2,34.0 L 1086.6,39.9" style="fill:none;fill-rule:evenodd;stroke:#0000FF;stroke-width:2.0px;stroke-linecap:butt;stroke-linejoin:miter;stroke-opacity:1"/>
<path class="bond-8 atom-8 atom-9" d="M 1086.6,39.9 L 1072.0,45.9" style="fill:none;fill-rule:evenodd;stroke:#000000;stroke-width:2.0px;stroke-linecap:butt;stroke-linejoin:miter;stroke-opacity:1"/>
<path class="bond-9 atom-9 atom-10" d="M 1072.0,45.9 L 1066.9,82.7" style="fill:none;fill-rule:evenodd;stroke:#000000;stroke-width:2.0px;stroke-linecap:butt;stroke-linejoin:miter;stroke-opacity:1"/>
<path class="bond-10 atom-10 atom-11" d="M 1063.7,83.7 L 1063.9,84.2" style="fill:none;fill-rule:evenodd;stroke:#000000;stroke-width:1.0px;stroke-linecap:butt;stroke-linejoin:miter;stroke-opacity:1"/>
<path class="bond-10 atom-10 atom-11" d="M 1060.4,84.7 L 1060.8,85.7" style="fill:none;fill-rule:evenodd;stroke:#000000;stroke-width:1.0px;stroke-linecap:butt;stroke-linejoin:miter;stroke-opacity:1"/>
<path class="bond-10 atom-10 atom-11" d="M 1057.2,85.7 L 1057.8,87.3" style="fill:none;fill-rule:evenodd;stroke:#000000;stroke-width:1.0px;stroke-linecap:butt;stroke-linejoin:miter;stroke-opacity:1"/>
<path class="bond-10 atom-10 atom-11" d="M 1054.0,86.7 L 1054.8,88.8" style="fill:none;fill-rule:evenodd;stroke:#000000;stroke-width:1.0px;stroke-linecap:butt;stroke-linejoin:miter;stroke-opacity:1"/>
<path class="bond-10 atom-10 atom-11" d="M 1050.7,87.7 L 1051.8,90.3" style="fill:none;fill-rule:evenodd;stroke:#000000;stroke-width:1.0px;stroke-linecap:butt;stroke-linejoin:miter;stroke-opacity:1"/>
<path class="bond-10 atom-10 atom-11" d="M 1047.5,88.8 L 1048.8,91.9" style="fill:none;fill-rule:evenodd;stroke:#000000;stroke-width:1.0px;stroke-linecap:butt;stroke-linejoin:miter;stroke-opacity:1"/>
<path class="bond-10 atom-10 atom-11" d="M 1044.3,89.8 L 1045.7,93.4" style="fill:none;fill-rule:evenodd;stroke:#000000;stroke-width:1.0px;stroke-linecap:butt;stroke-linejoin:miter;stroke-opacity:1"/>
<path class="bond-10 atom-10 atom-11" d="M 1041.0,90.8 L 1042.7,94.9" style="fill:none;fill-rule:evenodd;stroke:#000000;stroke-width:1.0px;stroke-linecap:butt;stroke-linejoin:miter;stroke-opacity:1"/>
<path class="bond-10 atom-10 atom-11" d="M 1037.8,91.8 L 1039.7,96.5" style="fill:none;fill-rule:evenodd;stroke:#000000;stroke-width:1.0px;stroke-linecap:butt;stroke-linejoin:miter;stroke-opacity:1"/>
<path class="bond-10 atom-10 atom-11" d="M 1034.6,92.8 L 1036.7,98.0" style="fill:none;fill-rule:evenodd;stroke:#000000;stroke-width:1.0px;stroke-linecap:butt;stroke-linejoin:miter;stroke-opacity:1"/>
<path class="bond-11 atom-11 atom-12" d="M 1032.5,96.7 L 1020.8,87.6" style="fill:none;fill-rule:evenodd;stroke:#000000;stroke-width:2.0px;stroke-linecap:butt;stroke-linejoin:miter;stroke-opacity:1"/>
<path class="bond-11 atom-11 atom-12" d="M 1020.8,87.6 L 1009.2,78.6" style="fill:none;fill-rule:evenodd;stroke:#FF0000;stroke-width:2.0px;stroke-linecap:butt;stroke-linejoin:miter;stroke-opacity:1"/>
<path class="bond-12 atom-12 atom-13" d="M 997.1,76.4 L 982.9,82.1" style="fill:none;fill-rule:evenodd;stroke:#FF0000;stroke-width:2.0px;stroke-linecap:butt;stroke-linejoin:miter;stroke-opacity:1"/>
<path class="bond-12 atom-12 atom-13" d="M 982.9,82.1 L 968.7,87.9" style="fill:none;fill-rule:evenodd;stroke:#000000;stroke-width:2.0px;stroke-linecap:butt;stroke-linejoin:miter;stroke-opacity:1"/>
<path class="bond-13 atom-13 atom-14" d="M 968.7,87.9 L 939.4,65.1" style="fill:none;fill-rule:evenodd;stroke:#000000;stroke-width:2.0px;stroke-linecap:butt;stroke-linejoin:miter;stroke-opacity:1"/>
<path class="bond-13 atom-13 atom-14" d="M 962.7,90.3 L 938.5,71.5" style="fill:none;fill-rule:evenodd;stroke:#000000;stroke-width:2.0px;stroke-linecap:butt;stroke-linejoin:miter;stroke-opacity:1"/>
<path class="bond-14 atom-14 atom-15" d="M 939.4,65.1 L 904.9,79.1" style="fill:none;fill-rule:evenodd;stroke:#000000;stroke-width:2.0px;stroke-linecap:butt;stroke-linejoin:miter;stroke-opacity:1"/>
<path class="bond-15 atom-15 atom-16" d="M 904.9,79.1 L 899.9,115.9" style="fill:none;fill-rule:evenodd;stroke:#000000;stroke-width:2.0px;stroke-linecap:butt;stroke-linejoin:miter;stroke-opacity:1"/>
<path class="bond-15 atom-15 atom-16" d="M 910.0,83.1 L 905.8,113.5" style="fill:none;fill-rule:evenodd;stroke:#000000;stroke-width:2.0px;stroke-linecap:butt;stroke-linejoin:miter;stroke-opacity:1"/>
<path class="bond-16 atom-16 atom-17" d="M 899.9,115.9 L 929.2,138.7" style="fill:none;fill-rule:evenodd;stroke:#000000;stroke-width:2.0px;stroke-linecap:butt;stroke-linejoin:miter;stroke-opacity:1"/>
<path class="bond-17 atom-17 atom-18" d="M 929.2,138.7 L 963.6,124.7" style="fill:none;fill-rule:evenodd;stroke:#000000;stroke-width:2.0px;stroke-linecap:butt;stroke-linejoin:miter;stroke-opacity:1"/>
<path class="bond-17 atom-17 atom-18" d="M 930.1,132.4 L 958.5,120.8" style="fill:none;fill-rule:evenodd;stroke:#000000;stroke-width:2.0px;stroke-linecap:butt;stroke-linejoin:miter;stroke-opacity:1"/>
<path class="bond-18 atom-17 atom-19" d="M 929.2,138.7 L 924.1,152.9" style="fill:none;fill-rule:evenodd;stroke:#000000;stroke-width:2.0px;stroke-linecap:butt;stroke-linejoin:miter;stroke-opacity:1"/>
<path class="bond-18 atom-17 atom-19" d="M 924.1,152.9 L 919.0,167.1" style="fill:none;fill-rule:evenodd;stroke:#FF0000;stroke-width:2.0px;stroke-linecap:butt;stroke-linejoin:miter;stroke-opacity:1"/>
<path class="bond-19 atom-19 atom-20" d="M 910.5,173.5 L 895.0,173.0" style="fill:none;fill-rule:evenodd;stroke:#FF0000;stroke-width:2.0px;stroke-linecap:butt;stroke-linejoin:miter;stroke-opacity:1"/>
<path class="bond-19 atom-19 atom-20" d="M 895.0,173.0 L 879.4,172.5" style="fill:none;fill-rule:evenodd;stroke:#000000;stroke-width:2.0px;stroke-linecap:butt;stroke-linejoin:miter;stroke-opacity:1"/>
<path class="bond-20 atom-20 atom-21" d="M 879.4,172.5 L 875.2,158.0" style="fill:none;fill-rule:evenodd;stroke:#000000;stroke-width:2.0px;stroke-linecap:butt;stroke-linejoin:miter;stroke-opacity:1"/>
<path class="bond-20 atom-20 atom-21" d="M 875.2,158.0 L 871.0,143.5" style="fill:none;fill-rule:evenodd;stroke:#FF0000;stroke-width:2.0px;stroke-linecap:butt;stroke-linejoin:miter;stroke-opacity:1"/>
<path class="bond-21 atom-4 atom-22" d="M 1091.2,142.3 L 1120.5,165.1" style="fill:none;fill-rule:evenodd;stroke:#000000;stroke-width:2.0px;stroke-linecap:butt;stroke-linejoin:miter;stroke-opacity:1"/>
<path class="bond-22 atom-22 atom-23" d="M 1120.5,165.1 L 1115.4,201.9" style="fill:none;fill-rule:evenodd;stroke:#000000;stroke-width:2.0px;stroke-linecap:butt;stroke-linejoin:miter;stroke-opacity:1"/>
<path class="bond-22 atom-22 atom-23" d="M 1114.5,167.5 L 1110.4,198.0" style="fill:none;fill-rule:evenodd;stroke:#000000;stroke-width:2.0px;stroke-linecap:butt;stroke-linejoin:miter;stroke-opacity:1"/>
<path class="bond-23 atom-23 atom-1" d="M 1115.4,201.9 L 1081.0,215.9" style="fill:none;fill-rule:evenodd;stroke:#000000;stroke-width:2.0px;stroke-linecap:butt;stroke-linejoin:miter;stroke-opacity:1"/>
<path class="bond-24 atom-10 atom-5" d="M 1066.9,82.7 L 1096.2,105.5" style="fill:none;fill-rule:evenodd;stroke:#000000;stroke-width:2.0px;stroke-linecap:butt;stroke-linejoin:miter;stroke-opacity:1"/>
<path class="bond-25 atom-18 atom-13" d="M 963.6,124.7 L 968.7,87.9" style="fill:none;fill-rule:evenodd;stroke:#000000;stroke-width:2.0px;stroke-linecap:butt;stroke-linejoin:miter;stroke-opacity:1"/>
<path class="bond-26 atom-21 atom-16" d="M 875.2,132.7 L 887.5,124.3" style="fill:none;fill-rule:evenodd;stroke:#FF0000;stroke-width:2.0px;stroke-linecap:butt;stroke-linejoin:miter;stroke-opacity:1"/>
<path class="bond-26 atom-21 atom-16" d="M 887.5,124.3 L 899.9,115.9" style="fill:none;fill-rule:evenodd;stroke:#000000;stroke-width:2.0px;stroke-linecap:butt;stroke-linejoin:miter;stroke-opacity:1"/>
<path d="M 1053.1,194.3 L 1051.7,193.1 L 1051.9,191.3" style="fill:none;stroke:#000000;stroke-width:2.0px;stroke-linecap:butt;stroke-linejoin:miter;stroke-opacity:1;"/>
<path d="M 1056.5,158.1 L 1056.7,156.3 L 1058.5,155.6" style="fill:none;stroke:#000000;stroke-width:2.0px;stroke-linecap:butt;stroke-linejoin:miter;stroke-opacity:1;"/>
<path d="M 1089.4,143.0 L 1091.2,142.3 L 1092.6,143.4" style="fill:none;stroke:#000000;stroke-width:2.0px;stroke-linecap:butt;stroke-linejoin:miter;stroke-opacity:1;"/>
<path d="M 1098.0,104.8 L 1096.2,105.5 L 1094.8,104.3" style="fill:none;stroke:#000000;stroke-width:2.0px;stroke-linecap:butt;stroke-linejoin:miter;stroke-opacity:1;"/>
<path d="M 1128.9,92.2 L 1130.7,91.5 L 1130.9,89.6" style="fill:none;stroke:#000000;stroke-width:2.0px;stroke-linecap:butt;stroke-linejoin:miter;stroke-opacity:1;"/>
<path d="M 1135.5,56.5 L 1135.7,54.6 L 1135.1,54.2" style="fill:none;stroke:#000000;stroke-width:2.0px;stroke-linecap:butt;stroke-linejoin:miter;stroke-opacity:1;"/>
<path d="M 1072.7,45.6 L 1072.0,45.9 L 1071.7,47.7" style="fill:none;stroke:#000000;stroke-width:2.0px;stroke-linecap:butt;stroke-linejoin:miter;stroke-opacity:1;"/>
<path d="M 1067.1,80.8 L 1066.9,82.7 L 1068.4,83.8" style="fill:none;stroke:#000000;stroke-width:2.0px;stroke-linecap:butt;stroke-linejoin:miter;stroke-opacity:1;"/>
<path d="M 940.8,66.2 L 939.4,65.1 L 937.6,65.8" style="fill:none;stroke:#000000;stroke-width:2.0px;stroke-linecap:butt;stroke-linejoin:miter;stroke-opacity:1;"/>
<path d="M 906.7,78.4 L 904.9,79.1 L 904.7,81.0" style="fill:none;stroke:#000000;stroke-width:2.0px;stroke-linecap:butt;stroke-linejoin:miter;stroke-opacity:1;"/>
<path d="M 961.9,125.4 L 963.6,124.7 L 963.9,122.9" style="fill:none;stroke:#000000;stroke-width:2.0px;stroke-linecap:butt;stroke-linejoin:miter;stroke-opacity:1;"/>
<path d="M 880.2,172.5 L 879.4,172.5 L 879.2,171.8" style="fill:none;stroke:#000000;stroke-width:2.0px;stroke-linecap:butt;stroke-linejoin:miter;stroke-opacity:1;"/>
<path d="M 1119.0,163.9 L 1120.5,165.1 L 1120.3,166.9" style="fill:none;stroke:#000000;stroke-width:2.0px;stroke-linecap:butt;stroke-linejoin:miter;stroke-opacity:1;"/>
<path d="M 1115.7,200.1 L 1115.4,201.9 L 1113.7,202.6" style="fill:none;stroke:#000000;stroke-width:2.0px;stroke-linecap:butt;stroke-linejoin:miter;stroke-opacity:1;"/>
<path class="atom-0" d="M 1072.8 247.5 L 1079.1 247.5 L 1079.1 248.7 L 1074.2 248.7 L 1074.2 251.9 L 1078.5 251.9 L 1078.5 253.1 L 1074.2 253.1 L 1074.2 258.0 L 1072.8 258.0 L 1072.8 247.5 " fill="#33CCCC"/>
<path class="atom-8" d="M 1104.1 26.6 L 1107.5 32.2 Q 1107.8 32.7, 1108.4 33.7 Q 1108.9 34.7, 1109.0 34.8 L 1109.0 26.6 L 1110.4 26.6 L 1110.4 37.1 L 1108.9 37.1 L 1105.2 31.0 Q 1104.8 30.3, 1104.3 29.5 Q 1103.9 28.7, 1103.8 28.4 L 1103.8 37.1 L 1102.4 37.1 L 1102.4 26.6 L 1104.1 26.6 " fill="#0000FF"/>
<path class="atom-8" d="M 1102.3 15.0 L 1103.7 15.0 L 1103.7 19.5 L 1109.1 19.5 L 1109.1 15.0 L 1110.5 15.0 L 1110.5 25.5 L 1109.1 25.5 L 1109.1 20.7 L 1103.7 20.7 L 1103.7 25.5 L 1102.3 25.5 L 1102.3 15.0 " fill="#0000FF"/>
<path class="atom-12" d="M 998.3 73.9 Q 998.3 71.4, 999.5 70.0 Q 1000.8 68.6, 1003.1 68.6 Q 1005.5 68.6, 1006.7 70.0 Q 1007.9 71.4, 1007.9 73.9 Q 1007.9 76.5, 1006.7 77.9 Q 1005.4 79.4, 1003.1 79.4 Q 1000.8 79.4, 999.5 77.9 Q 998.3 76.5, 998.3 73.9 M 1003.1 78.2 Q 1004.7 78.2, 1005.6 77.1 Q 1006.5 76.0, 1006.5 73.9 Q 1006.5 71.9, 1005.6 70.8 Q 1004.7 69.8, 1003.1 69.8 Q 1001.5 69.8, 1000.6 70.8 Q 999.8 71.8, 999.8 73.9 Q 999.8 76.0, 1000.6 77.1 Q 1001.5 78.2, 1003.1 78.2 " fill="#FF0000"/>
<path class="atom-19" d="M 911.8 173.7 Q 911.8 171.2, 913.0 169.8 Q 914.3 168.4, 916.6 168.4 Q 918.9 168.4, 920.2 169.8 Q 921.4 171.2, 921.4 173.7 Q 921.4 176.3, 920.2 177.7 Q 918.9 179.2, 916.6 179.2 Q 914.3 179.2, 913.0 177.7 Q 911.8 176.3, 911.8 173.7 M 916.6 178.0 Q 918.2 178.0, 919.1 176.9 Q 919.9 175.8, 919.9 173.7 Q 919.9 171.7, 919.1 170.6 Q 918.2 169.6, 916.6 169.6 Q 915.0 169.6, 914.1 170.6 Q 913.2 171.6, 913.2 173.7 Q 913.2 175.8, 914.1 176.9 Q 915.0 178.0, 916.6 178.0 " fill="#FF0000"/>
<path class="atom-21" d="M 864.3 136.8 Q 864.3 134.3, 865.5 132.9 Q 866.8 131.5, 869.1 131.5 Q 871.4 131.5, 872.7 132.9 Q 873.9 134.3, 873.9 136.8 Q 873.9 139.4, 872.7 140.8 Q 871.4 142.3, 869.1 142.3 Q 866.8 142.3, 865.5 140.8 Q 864.3 139.4, 864.3 136.8 M 869.1 141.1 Q 870.7 141.1, 871.6 140.0 Q 872.5 138.9, 872.5 136.8 Q 872.5 134.8, 871.6 133.7 Q 870.7 132.7, 869.1 132.7 Q 867.5 132.7, 866.6 133.7 Q 865.8 134.7, 865.8 136.8 Q 865.8 139.0, 866.6 140.0 Q 867.5 141.1, 869.1 141.1 " fill="#FF0000"/>
<path class="note" d="M 1102.2 113.9 Q 1102.2 112.8, 1102.5 112.0 Q 1102.8 111.1, 1103.4 110.1 L 1103.8 110.4 Q 1103.3 111.3, 1103.1 112.1 Q 1102.8 112.9, 1102.8 113.9 Q 1102.8 114.9, 1103.1 115.7 Q 1103.3 116.5, 1103.8 117.4 L 1103.4 117.7 Q 1102.8 116.7, 1102.5 115.9 Q 1102.2 115.0, 1102.2 113.9 " fill="#000000"/>
<path class="note" d="M 1107.0 116.0 L 1105.8 113.9 L 1105.8 113.9 L 1104.9 113.9 L 1104.9 116.0 L 1104.2 116.0 L 1104.2 110.8 L 1105.8 110.8 Q 1106.7 110.8, 1107.1 111.2 Q 1107.6 111.6, 1107.6 112.3 Q 1107.6 112.9, 1107.3 113.2 Q 1107.0 113.6, 1106.5 113.8 L 1107.8 116.0 L 1107.0 116.0 M 1104.9 113.3 L 1105.8 113.3 Q 1106.3 113.3, 1106.6 113.0 Q 1106.8 112.8, 1106.8 112.3 Q 1106.8 111.8, 1106.6 111.6 Q 1106.3 111.3, 1105.8 111.3 L 1104.9 111.3 L 1104.9 113.3 " fill="#000000"/>
<path class="note" d="M 1109.9 113.9 Q 1109.9 115.0, 1109.6 115.9 Q 1109.3 116.7, 1108.7 117.7 L 1108.2 117.4 Q 1108.7 116.5, 1109.0 115.7 Q 1109.2 114.9, 1109.2 113.9 Q 1109.2 112.9, 1109.0 112.1 Q 1108.7 111.3, 1108.2 110.4 L 1108.7 110.1 Q 1109.3 111.1, 1109.6 112.0 Q 1109.9 112.8, 1109.9 113.9 " fill="#000000"/>
<path class="note" d="M 1053.3 75.9 Q 1053.3 74.8, 1053.6 74.0 Q 1053.9 73.1, 1054.5 72.1 L 1054.9 72.4 Q 1054.4 73.3, 1054.2 74.1 Q 1054.0 74.9, 1054.0 75.9 Q 1054.0 76.9, 1054.2 77.7 Q 1054.4 78.5, 1054.9 79.4 L 1054.5 79.7 Q 1053.9 78.7, 1053.6 77.9 Q 1053.3 77.0, 1053.3 75.9 " fill="#000000"/>
<path class="note" d="M 1055.5 77.2 Q 1055.6 77.2, 1055.8 77.3 Q 1056.1 77.4, 1056.4 77.5 Q 1056.6 77.6, 1056.9 77.6 Q 1057.4 77.6, 1057.7 77.3 Q 1058.0 77.1, 1058.0 76.6 Q 1058.0 76.4, 1057.8 76.2 Q 1057.7 76.0, 1057.5 75.9 Q 1057.2 75.8, 1056.9 75.7 Q 1056.4 75.6, 1056.1 75.4 Q 1055.8 75.3, 1055.6 75.0 Q 1055.4 74.7, 1055.4 74.2 Q 1055.4 73.6, 1055.9 73.2 Q 1056.3 72.8, 1057.2 72.8 Q 1057.8 72.8, 1058.5 73.1 L 1058.4 73.6 Q 1057.7 73.4, 1057.3 73.4 Q 1056.7 73.4, 1056.5 73.6 Q 1056.2 73.8, 1056.2 74.2 Q 1056.2 74.4, 1056.3 74.6 Q 1056.5 74.8, 1056.7 74.9 Q 1056.9 75.0, 1057.3 75.1 Q 1057.7 75.2, 1058.0 75.4 Q 1058.3 75.5, 1058.5 75.8 Q 1058.7 76.1, 1058.7 76.6 Q 1058.7 77.4, 1058.2 77.8 Q 1057.7 78.2, 1056.9 78.2 Q 1056.5 78.2, 1056.1 78.1 Q 1055.8 78.0, 1055.3 77.8 L 1055.5 77.2 " fill="#000000"/>
<path class="note" d="M 1060.9 75.9 Q 1060.9 77.0, 1060.6 77.9 Q 1060.3 78.7, 1059.7 79.7 L 1059.3 79.4 Q 1059.8 78.5, 1060.0 77.7 Q 1060.2 76.9, 1060.2 75.9 Q 1060.2 74.9, 1060.0 74.1 Q 1059.8 73.3, 1059.3 72.4 L 1059.7 72.1 Q 1060.3 73.1, 1060.6 74.0 Q 1060.9 74.8, 1060.9 75.9 " fill="#000000"/>
<path class="legend" d="M 958.1 273.5 Q 960.0 273.5, 961.0 274.4 Q 962.0 275.2, 962.0 276.8 Q 962.0 278.4, 961.0 279.3 Q 960.0 280.2, 958.1 280.2 L 956.3 280.2 L 956.3 284.8 L 954.8 284.8 L 954.8 273.5 L 958.1 273.5 M 958.1 278.9 Q 959.2 278.9, 959.8 278.4 Q 960.4 277.8, 960.4 276.8 Q 960.4 275.8, 959.8 275.3 Q 959.2 274.8, 958.1 274.8 L 956.3 274.8 L 956.3 278.9 L 958.1 278.9 " fill="#000000"/>
<path class="legend" d="M 971.9 284.8 L 970.7 281.5 L 966.2 281.5 L 965.1 284.8 L 963.5 284.8 L 967.4 273.5 L 969.3 273.5 L 973.4 284.8 L 971.9 284.8 M 966.6 280.2 L 970.2 280.2 L 968.4 275.1 L 966.6 280.2 " fill="#000000"/>
<path class="legend" d="M 980.4 284.8 L 977.7 280.2 L 977.7 280.2 L 975.9 280.2 L 975.9 284.8 L 974.3 284.8 L 974.3 273.5 L 977.7 273.5 Q 979.6 273.5, 980.6 274.4 Q 981.6 275.2, 981.6 276.8 Q 981.6 278.0, 981.0 278.8 Q 980.4 279.6, 979.3 280.0 L 982.1 284.8 L 980.4 284.8 M 975.9 278.9 L 977.7 278.9 Q 978.8 278.9, 979.4 278.4 Q 980.0 277.8, 980.0 276.8 Q 980.0 275.8, 979.4 275.3 Q 978.8 274.8, 977.7 274.8 L 975.9 274.8 L 975.9 278.9 " fill="#000000"/>
<path class="legend" d="M 983.3 279.1 Q 983.3 276.4, 984.6 274.9 Q 986.0 273.4, 988.5 273.4 Q 991.0 273.4, 992.3 274.9 Q 993.7 276.4, 993.7 279.1 Q 993.7 281.9, 992.3 283.4 Q 991.0 285.0, 988.5 285.0 Q 986.0 285.0, 984.6 283.4 Q 983.3 281.9, 983.3 279.1 M 988.5 283.7 Q 990.2 283.7, 991.1 282.6 Q 992.1 281.4, 992.1 279.1 Q 992.1 276.9, 991.1 275.8 Q 990.2 274.6, 988.5 274.6 Q 986.8 274.6, 985.8 275.8 Q 984.9 276.9, 984.9 279.1 Q 984.9 281.4, 985.8 282.6 Q 986.8 283.7, 988.5 283.7 " fill="#000000"/>
<path class="legend" d="M 1005.5 284.8 L 1003.7 284.8 L 1000.4 280.1 L 997.0 284.8 L 995.3 284.8 L 999.5 278.9 L 995.6 273.5 L 997.3 273.5 L 1000.4 277.8 L 1003.5 273.5 L 1005.2 273.5 L 1001.3 279.0 L 1005.5 284.8 " fill="#000000"/>
<path class="legend" d="M 1006.3 273.5 L 1013.1 273.5 L 1013.1 274.8 L 1007.8 274.8 L 1007.8 278.2 L 1012.5 278.2 L 1012.5 279.5 L 1007.8 279.5 L 1007.8 283.5 L 1013.2 283.5 L 1013.2 284.8 L 1006.3 284.8 L 1006.3 273.5 " fill="#000000"/>
<path class="legend" d="M 1018.3 274.8 L 1014.8 274.8 L 1014.8 273.5 L 1023.1 273.5 L 1023.1 274.8 L 1019.8 274.8 L 1019.8 284.8 L 1018.3 284.8 L 1018.3 274.8 " fill="#000000"/>
<path class="legend" d="M 1023.9 273.4 L 1025.4 273.4 L 1025.4 284.8 L 1023.9 284.8 L 1023.9 273.4 " fill="#000000"/>
<path class="legend" d="M 1029.4 273.5 L 1033.1 279.5 Q 1033.5 280.1, 1034.1 281.2 Q 1034.7 282.2, 1034.7 282.3 L 1034.7 273.5 L 1036.2 273.5 L 1036.2 284.8 L 1034.7 284.8 L 1030.7 278.3 Q 1030.2 277.5, 1029.7 276.6 Q 1029.2 275.7, 1029.1 275.5 L 1029.1 284.8 L 1027.6 284.8 L 1027.6 273.5 L 1029.4 273.5 " fill="#000000"/>
<path class="legend" d="M 1038.3 273.5 L 1045.1 273.5 L 1045.1 274.8 L 1039.8 274.8 L 1039.8 278.2 L 1044.5 278.2 L 1044.5 279.5 L 1039.8 279.5 L 1039.8 283.5 L 1045.2 283.5 L 1045.2 284.8 L 1038.3 284.8 L 1038.3 273.5 " fill="#000000"/>
<path class="bond-0 atom-0 atom-1" d="M 42.6,411.9 L 70.8,436.0" style="fill:none;fill-rule:evenodd;stroke:#000000;stroke-width:2.0px;stroke-linecap:butt;stroke-linejoin:miter;stroke-opacity:1"/>
<path class="bond-0 atom-0 atom-1" d="M 46.2,407.6 L 72.0,429.6" style="fill:none;fill-rule:evenodd;stroke:#000000;stroke-width:2.0px;stroke-linecap:butt;stroke-linejoin:miter;stroke-opacity:1"/>
<path class="bond-1 atom-1 atom-2" d="M 70.8,436.0 L 105.9,423.6" style="fill:none;fill-rule:evenodd;stroke:#000000;stroke-width:2.0px;stroke-linecap:butt;stroke-linejoin:miter;stroke-opacity:1"/>
<path class="bond-2 atom-2 atom-3" d="M 105.9,423.6 L 134.5,399.9" style="fill:none;fill-rule:evenodd;stroke:#000000;stroke-width:2.0px;stroke-linecap:butt;stroke-linejoin:miter;stroke-opacity:1"/>
<path class="bond-3 atom-3 atom-4" d="M 134.5,399.9 L 149.3,405.5" style="fill:none;fill-rule:evenodd;stroke:#000000;stroke-width:2.0px;stroke-linecap:butt;stroke-linejoin:miter;stroke-opacity:1"/>
<path class="bond-3 atom-3 atom-4" d="M 149.3,405.5 L 164.1,411.0" style="fill:none;fill-rule:evenodd;stroke:#0000FF;stroke-width:2.0px;stroke-linecap:butt;stroke-linejoin:miter;stroke-opacity:1"/>
<path class="bond-4 atom-4 atom-5" d="M 170.5,419.5 L 173.0,434.5" style="fill:none;fill-rule:evenodd;stroke:#0000FF;stroke-width:2.0px;stroke-linecap:butt;stroke-linejoin:miter;stroke-opacity:1"/>
<path class="bond-4 atom-4 atom-5" d="M 173.0,434.5 L 175.5,449.6" style="fill:none;fill-rule:evenodd;stroke:#000000;stroke-width:2.0px;stroke-linecap:butt;stroke-linejoin:miter;stroke-opacity:1"/>
<path class="bond-5 atom-5 atom-6" d="M 175.5,449.6 L 146.8,473.3" style="fill:none;fill-rule:evenodd;stroke:#000000;stroke-width:2.0px;stroke-linecap:butt;stroke-linejoin:miter;stroke-opacity:1"/>
<path class="bond-6 atom-6 atom-7" d="M 146.8,473.3 L 112.0,460.2" style="fill:none;fill-rule:evenodd;stroke:#000000;stroke-width:2.0px;stroke-linecap:butt;stroke-linejoin:miter;stroke-opacity:1"/>
<path class="bond-7 atom-7 atom-8" d="M 112.0,460.2 L 123.2,452.1" style="fill:none;fill-rule:evenodd;stroke:#000000;stroke-width:2.0px;stroke-linecap:butt;stroke-linejoin:miter;stroke-opacity:1"/>
<path class="bond-8 atom-8 atom-9" d="M 133.8,443.9 L 154.4,426.9" style="fill:none;fill-rule:evenodd;stroke:#000000;stroke-width:2.0px;stroke-linecap:butt;stroke-linejoin:miter;stroke-opacity:1"/>
<path class="bond-9 atom-9 atom-10" d="M 154.4,426.9 L 210.5,437.2" style="fill:none;fill-rule:evenodd;stroke:#000000;stroke-width:2.0px;stroke-linecap:butt;stroke-linejoin:miter;stroke-opacity:1"/>
<path class="bond-10 atom-10 atom-11" d="M 210.5,437.2 L 211.8,422.7 L 214.6,423.2 Z" style="fill:#000000;fill-rule:evenodd;fill-opacity:1;stroke:#000000;stroke-width:0.5px;stroke-linecap:butt;stroke-linejoin:miter;stroke-opacity:1;"/>
<path class="bond-10 atom-10 atom-11" d="M 211.8,422.7 L 218.6,409.1 L 213.0,408.1 Z" style="fill:#FF0000;fill-rule:evenodd;fill-opacity:1;stroke:#FF0000;stroke-width:0.5px;stroke-linecap:butt;stroke-linejoin:miter;stroke-opacity:1;"/>
<path class="bond-10 atom-10 atom-11" d="M 211.8,422.7 L 214.6,423.2 L 218.6,409.1 Z" style="fill:#FF0000;fill-rule:evenodd;fill-opacity:1;stroke:#FF0000;stroke-width:0.5px;stroke-linecap:butt;stroke-linejoin:miter;stroke-opacity:1;"/>
<path class="bond-11 atom-10 atom-12" d="M 210.5,437.2 L 238.8,461.3" style="fill:none;fill-rule:evenodd;stroke:#000000;stroke-width:2.0px;stroke-linecap:butt;stroke-linejoin:miter;stroke-opacity:1"/>
<path class="bond-12 atom-12 atom-13" d="M 238.8,461.3 L 232.0,497.9" style="fill:none;fill-rule:evenodd;stroke:#000000;stroke-width:2.0px;stroke-linecap:butt;stroke-linejoin:miter;stroke-opacity:1"/>
<path class="bond-12 atom-12 atom-13" d="M 243.8,465.6 L 238.2,495.7" style="fill:none;fill-rule:evenodd;stroke:#000000;stroke-width:2.0px;stroke-linecap:butt;stroke-linejoin:miter;stroke-opacity:1"/>
<path class="bond-13 atom-13 atom-14" d="M 232.0,497.9 L 260.3,522.0" style="fill:none;fill-rule:evenodd;stroke:#000000;stroke-width:2.0px;stroke-linecap:butt;stroke-linejoin:miter;stroke-opacity:1"/>
<path class="bond-14 atom-14 atom-15" d="M 260.3,522.0 L 275.2,516.7" style="fill:none;fill-rule:evenodd;stroke:#000000;stroke-width:2.0px;stroke-linecap:butt;stroke-linejoin:miter;stroke-opacity:1"/>
<path class="bond-14 atom-14 atom-15" d="M 275.2,516.7 L 290.1,511.4" style="fill:none;fill-rule:evenodd;stroke:#0000FF;stroke-width:2.0px;stroke-linecap:butt;stroke-linejoin:miter;stroke-opacity:1"/>
<path class="bond-14 atom-14 atom-15" d="M 261.5,515.6 L 274.8,510.9" style="fill:none;fill-rule:evenodd;stroke:#000000;stroke-width:2.0px;stroke-linecap:butt;stroke-linejoin:miter;stroke-opacity:1"/>
<path class="bond-14 atom-14 atom-15" d="M 274.8,510.9 L 288.2,506.1" style="fill:none;fill-rule:evenodd;stroke:#0000FF;stroke-width:2.0px;stroke-linecap:butt;stroke-linejoin:miter;stroke-opacity:1"/>
<path class="bond-15 atom-15 atom-16" d="M 296.5,503.1 L 299.3,488.1" style="fill:none;fill-rule:evenodd;stroke:#0000FF;stroke-width:2.0px;stroke-linecap:butt;stroke-linejoin:miter;stroke-opacity:1"/>
<path class="bond-15 atom-15 atom-16" d="M 299.3,488.1 L 302.1,473.0" style="fill:none;fill-rule:evenodd;stroke:#000000;stroke-width:2.0px;stroke-linecap:butt;stroke-linejoin:miter;stroke-opacity:1"/>
<path class="bond-16 atom-16 atom-17" d="M 302.1,473.0 L 337.1,460.6" style="fill:none;fill-rule:evenodd;stroke:#000000;stroke-width:2.0px;stroke-linecap:butt;stroke-linejoin:miter;stroke-opacity:1"/>
<path class="bond-16 atom-16 atom-17" d="M 303.3,466.6 L 332.2,456.4" style="fill:none;fill-rule:evenodd;stroke:#000000;stroke-width:2.0px;stroke-linecap:butt;stroke-linejoin:miter;stroke-opacity:1"/>
<path class="bond-17 atom-17 atom-18" d="M 337.1,460.6 L 343.9,424.1" style="fill:none;fill-rule:evenodd;stroke:#000000;stroke-width:2.0px;stroke-linecap:butt;stroke-linejoin:miter;stroke-opacity:1"/>
<path class="bond-18 atom-18 atom-19" d="M 343.9,424.1 L 315.6,400.0" style="fill:none;fill-rule:evenodd;stroke:#000000;stroke-width:2.0px;stroke-linecap:butt;stroke-linejoin:miter;stroke-opacity:1"/>
<path class="bond-18 atom-18 atom-19" d="M 337.7,426.3 L 314.4,406.4" style="fill:none;fill-rule:evenodd;stroke:#000000;stroke-width:2.0px;stroke-linecap:butt;stroke-linejoin:miter;stroke-opacity:1"/>
<path class="bond-19 atom-19 atom-20" d="M 315.6,400.0 L 318.4,385.0" style="fill:none;fill-rule:evenodd;stroke:#000000;stroke-width:2.0px;stroke-linecap:butt;stroke-linejoin:miter;stroke-opacity:1"/>
<path class="bond-19 atom-19 atom-20" d="M 318.4,385.0 L 321.1,370.1" style="fill:none;fill-rule:evenodd;stroke:#FF0000;stroke-width:2.0px;stroke-linecap:butt;stroke-linejoin:miter;stroke-opacity:1"/>
<path class="bond-20 atom-20 atom-21" d="M 328.5,361.3 L 342.9,356.1" style="fill:none;fill-rule:evenodd;stroke:#FF0000;stroke-width:2.0px;stroke-linecap:butt;stroke-linejoin:miter;stroke-opacity:1"/>
<path class="bond-20 atom-20 atom-21" d="M 342.9,356.1 L 357.4,351.0" style="fill:none;fill-rule:evenodd;stroke:#000000;stroke-width:2.0px;stroke-linecap:butt;stroke-linejoin:miter;stroke-opacity:1"/>
<path class="bond-21 atom-19 atom-22" d="M 315.6,400.0 L 280.6,412.4" style="fill:none;fill-rule:evenodd;stroke:#000000;stroke-width:2.0px;stroke-linecap:butt;stroke-linejoin:miter;stroke-opacity:1"/>
<path class="bond-22 atom-22 atom-23" d="M 280.6,412.4 L 273.8,448.9" style="fill:none;fill-rule:evenodd;stroke:#000000;stroke-width:2.0px;stroke-linecap:butt;stroke-linejoin:miter;stroke-opacity:1"/>
<path class="bond-22 atom-22 atom-23" d="M 285.5,416.6 L 280.0,446.7" style="fill:none;fill-rule:evenodd;stroke:#000000;stroke-width:2.0px;stroke-linecap:butt;stroke-linejoin:miter;stroke-opacity:1"/>
<path class="bond-23 atom-7 atom-2" d="M 112.0,460.2 L 105.9,423.6" style="fill:none;fill-rule:evenodd;stroke:#000000;stroke-width:2.0px;stroke-linecap:butt;stroke-linejoin:miter;stroke-opacity:1"/>
<path class="bond-24 atom-23 atom-12" d="M 273.8,448.9 L 238.8,461.3" style="fill:none;fill-rule:evenodd;stroke:#000000;stroke-width:2.0px;stroke-linecap:butt;stroke-linejoin:miter;stroke-opacity:1"/>
<path class="bond-25 atom-9 atom-4" d="M 154.4,426.9 L 159.3,422.4" style="fill:none;fill-rule:evenodd;stroke:#000000;stroke-width:2.0px;stroke-linecap:butt;stroke-linejoin:miter;stroke-opacity:1"/>
<path class="bond-25 atom-9 atom-4" d="M 159.3,422.4 L 164.1,417.8" style="fill:none;fill-rule:evenodd;stroke:#0000FF;stroke-width:2.0px;stroke-linecap:butt;stroke-linejoin:miter;stroke-opacity:1"/>
<path class="bond-26 atom-23 atom-16" d="M 273.8,448.9 L 302.1,473.0" style="fill:none;fill-rule:evenodd;stroke:#000000;stroke-width:2.0px;stroke-linecap:butt;stroke-linejoin:miter;stroke-opacity:1"/>
<path class="bond-27 atom-2 atom-24" d="M 103.8,420.7 L 104.4,420.3" style="fill:none;fill-rule:evenodd;stroke:#000000;stroke-width:1.0px;stroke-linecap:butt;stroke-linejoin:miter;stroke-opacity:1"/>
<path class="bond-27 atom-2 atom-24" d="M 101.8,417.8 L 103.0,417.1" style="fill:none;fill-rule:evenodd;stroke:#000000;stroke-width:1.0px;stroke-linecap:butt;stroke-linejoin:miter;stroke-opacity:1"/>
<path class="bond-27 atom-2 atom-24" d="M 99.7,414.9 L 101.6,413.8" style="fill:none;fill-rule:evenodd;stroke:#000000;stroke-width:1.0px;stroke-linecap:butt;stroke-linejoin:miter;stroke-opacity:1"/>
<path class="bond-27 atom-2 atom-24" d="M 97.7,412.0 L 100.1,410.6" style="fill:none;fill-rule:evenodd;stroke:#000000;stroke-width:1.0px;stroke-linecap:butt;stroke-linejoin:miter;stroke-opacity:1"/>
<path class="bond-27 atom-2 atom-24" d="M 95.6,409.1 L 98.7,407.4" style="fill:none;fill-rule:evenodd;stroke:#000000;stroke-width:1.0px;stroke-linecap:butt;stroke-linejoin:miter;stroke-opacity:1"/>
<path class="bond-27 atom-2 atom-24" d="M 93.6,406.2 L 97.3,404.1" style="fill:none;fill-rule:evenodd;stroke:#000000;stroke-width:1.0px;stroke-linecap:butt;stroke-linejoin:miter;stroke-opacity:1"/>
<path class="bond-27 atom-2 atom-24" d="M 91.5,403.3 L 95.8,400.9" style="fill:none;fill-rule:evenodd;stroke:#000000;stroke-width:1.0px;stroke-linecap:butt;stroke-linejoin:miter;stroke-opacity:1"/>
<path class="bond-27 atom-2 atom-24" d="M 89.5,400.4 L 94.4,397.6" style="fill:none;fill-rule:evenodd;stroke:#000000;stroke-width:1.0px;stroke-linecap:butt;stroke-linejoin:miter;stroke-opacity:1"/>
<path class="bond-28 atom-9 atom-25" d="M 156.6,429.6 L 156.3,429.8" style="fill:none;fill-rule:evenodd;stroke:#000000;stroke-width:1.0px;stroke-linecap:butt;stroke-linejoin:miter;stroke-opacity:1"/>
<path class="bond-28 atom-9 atom-25" d="M 158.7,432.3 L 158.2,432.6" style="fill:none;fill-rule:evenodd;stroke:#000000;stroke-width:1.0px;stroke-linecap:butt;stroke-linejoin:miter;stroke-opacity:1"/>
<path class="bond-28 atom-9 atom-25" d="M 160.8,434.9 L 160.0,435.5" style="fill:none;fill-rule:evenodd;stroke:#000000;stroke-width:1.0px;stroke-linecap:butt;stroke-linejoin:miter;stroke-opacity:1"/>
<path class="bond-28 atom-9 atom-25" d="M 162.9,437.6 L 161.9,438.4" style="fill:none;fill-rule:evenodd;stroke:#000000;stroke-width:1.0px;stroke-linecap:butt;stroke-linejoin:miter;stroke-opacity:1"/>
<path class="bond-28 atom-9 atom-25" d="M 165.1,440.3 L 163.7,441.3" style="fill:none;fill-rule:evenodd;stroke:#000000;stroke-width:1.0px;stroke-linecap:butt;stroke-linejoin:miter;stroke-opacity:1"/>
<path class="bond-28 atom-9 atom-25" d="M 167.2,443.0 L 165.6,444.2" style="fill:none;fill-rule:evenodd;stroke:#000000;stroke-width:1.0px;stroke-linecap:butt;stroke-linejoin:miter;stroke-opacity:1"/>
<path class="bond-28 atom-9 atom-25" d="M 169.3,445.7 L 167.4,447.0" style="fill:none;fill-rule:evenodd;stroke:#000000;stroke-width:1.0px;stroke-linecap:butt;stroke-linejoin:miter;stroke-opacity:1"/>
<path class="bond-28 atom-9 atom-25" d="M 171.4,448.4 L 169.3,449.9" style="fill:none;fill-rule:evenodd;stroke:#000000;stroke-width:1.0px;stroke-linecap:butt;stroke-linejoin:miter;stroke-opacity:1"/>
<path class="bond-28 atom-9 atom-25" d="M 173.6,451.1 L 171.1,452.8" style="fill:none;fill-rule:evenodd;stroke:#000000;stroke-width:1.0px;stroke-linecap:butt;stroke-linejoin:miter;stroke-opacity:1"/>
<path class="bond-28 atom-9 atom-25" d="M 175.7,453.8 L 173.0,455.7" style="fill:none;fill-rule:evenodd;stroke:#000000;stroke-width:1.0px;stroke-linecap:butt;stroke-linejoin:miter;stroke-opacity:1"/>
<path class="bond-28 atom-9 atom-25" d="M 177.8,456.4 L 174.9,458.6" style="fill:none;fill-rule:evenodd;stroke:#000000;stroke-width:1.0px;stroke-linecap:butt;stroke-linejoin:miter;stroke-opacity:1"/>
<path class="bond-28 atom-9 atom-25" d="M 179.9,459.1 L 176.7,461.4" style="fill:none;fill-rule:evenodd;stroke:#000000;stroke-width:1.0px;stroke-linecap:butt;stroke-linejoin:miter;stroke-opacity:1"/>
<path class="bond-28 atom-9 atom-25" d="M 182.1,461.8 L 178.6,464.3" style="fill:none;fill-rule:evenodd;stroke:#000000;stroke-width:1.0px;stroke-linecap:butt;stroke-linejoin:miter;stroke-opacity:1"/>
<path class="bond-28 atom-9 atom-25" d="M 184.2,464.5 L 180.4,467.2" style="fill:none;fill-rule:evenodd;stroke:#000000;stroke-width:1.0px;stroke-linecap:butt;stroke-linejoin:miter;stroke-opacity:1"/>
<path class="bond-28 atom-9 atom-25" d="M 186.3,467.2 L 182.3,470.1" style="fill:none;fill-rule:evenodd;stroke:#000000;stroke-width:1.0px;stroke-linecap:butt;stroke-linejoin:miter;stroke-opacity:1"/>
<path class="bond-28 atom-9 atom-25" d="M 188.4,469.9 L 184.1,473.0" style="fill:none;fill-rule:evenodd;stroke:#000000;stroke-width:1.0px;stroke-linecap:butt;stroke-linejoin:miter;stroke-opacity:1"/>
<path class="bond-28 atom-9 atom-25" d="M 190.6,472.6 L 186.0,475.8" style="fill:none;fill-rule:evenodd;stroke:#000000;stroke-width:1.0px;stroke-linecap:butt;stroke-linejoin:miter;stroke-opacity:1"/>
<path d="M 69.4,434.8 L 70.8,436.0 L 72.6,435.4" style="fill:none;stroke:#000000;stroke-width:2.0px;stroke-linecap:butt;stroke-linejoin:miter;stroke-opacity:1;"/>
<path d="M 133.1,401.1 L 134.5,399.9 L 135.3,400.2" style="fill:none;stroke:#000000;stroke-width:2.0px;stroke-linecap:butt;stroke-linejoin:miter;stroke-opacity:1;"/>
<path d="M 175.4,448.9 L 175.5,449.6 L 174.1,450.8" style="fill:none;stroke:#000000;stroke-width:2.0px;stroke-linecap:butt;stroke-linejoin:miter;stroke-opacity:1;"/>
<path d="M 148.3,472.1 L 146.8,473.3 L 145.1,472.6" style="fill:none;stroke:#000000;stroke-width:2.0px;stroke-linecap:butt;stroke-linejoin:miter;stroke-opacity:1;"/>
<path d="M 207.7,436.7 L 210.5,437.2 L 211.9,438.4" style="fill:none;stroke:#000000;stroke-width:2.0px;stroke-linecap:butt;stroke-linejoin:miter;stroke-opacity:1;"/>
<path d="M 232.4,496.0 L 232.0,497.9 L 233.4,499.1" style="fill:none;stroke:#000000;stroke-width:2.0px;stroke-linecap:butt;stroke-linejoin:miter;stroke-opacity:1;"/>
<path d="M 258.9,520.8 L 260.3,522.0 L 261.0,521.7" style="fill:none;stroke:#000000;stroke-width:2.0px;stroke-linecap:butt;stroke-linejoin:miter;stroke-opacity:1;"/>
<path d="M 335.4,461.3 L 337.1,460.6 L 337.5,458.8" style="fill:none;stroke:#000000;stroke-width:2.0px;stroke-linecap:butt;stroke-linejoin:miter;stroke-opacity:1;"/>
<path d="M 343.5,425.9 L 343.9,424.1 L 342.5,422.9" style="fill:none;stroke:#000000;stroke-width:2.0px;stroke-linecap:butt;stroke-linejoin:miter;stroke-opacity:1;"/>
<path d="M 282.3,411.7 L 280.6,412.4 L 280.3,414.2" style="fill:none;stroke:#000000;stroke-width:2.0px;stroke-linecap:butt;stroke-linejoin:miter;stroke-opacity:1;"/>
<path class="atom-4" d="M 167.0 407.7 L 170.5 413.3 Q 170.8 413.8, 171.4 414.8 Q 171.9 415.8, 172.0 415.9 L 172.0 407.7 L 173.4 407.7 L 173.4 418.2 L 171.9 418.2 L 168.2 412.1 Q 167.8 411.4, 167.3 410.6 Q 166.9 409.8, 166.7 409.5 L 166.7 418.2 L 165.4 418.2 L 165.4 407.7 L 167.0 407.7 " fill="#0000FF"/>
<path class="atom-8" d="M 124.5 448.3 Q 124.5 445.7, 125.7 444.3 Q 126.9 442.9, 129.3 442.9 Q 131.4 442.9, 132.6 444.5 L 131.6 445.3 Q 130.8 444.2, 129.3 444.2 Q 127.7 444.2, 126.8 445.2 Q 126.0 446.3, 126.0 448.3 Q 126.0 450.4, 126.8 451.5 Q 127.7 452.5, 129.4 452.5 Q 130.6 452.5, 131.9 451.8 L 132.3 452.9 Q 131.8 453.3, 131.0 453.5 Q 130.1 453.7, 129.2 453.7 Q 126.9 453.7, 125.7 452.3 Q 124.5 450.9, 124.5 448.3 " fill="#000000"/>
<path class="atom-11" d="M 212.5 400.7 Q 212.5 398.2, 213.7 396.7 Q 215.0 395.3, 217.3 395.3 Q 219.6 395.3, 220.9 396.7 Q 222.1 398.2, 222.1 400.7 Q 222.1 403.2, 220.9 404.7 Q 219.6 406.1, 217.3 406.1 Q 215.0 406.1, 213.7 404.7 Q 212.5 403.3, 212.5 400.7 M 217.3 404.9 Q 218.9 404.9, 219.8 403.9 Q 220.6 402.8, 220.6 400.7 Q 220.6 398.6, 219.8 397.6 Q 218.9 396.5, 217.3 396.5 Q 215.7 396.5, 214.8 397.6 Q 214.0 398.6, 214.0 400.7 Q 214.0 402.8, 214.8 403.9 Q 215.7 404.9, 217.3 404.9 " fill="#FF0000"/>
<path class="atom-11" d="M 223.8 395.4 L 225.2 395.4 L 225.2 399.9 L 230.6 399.9 L 230.6 395.4 L 232.0 395.4 L 232.0 406.0 L 230.6 406.0 L 230.6 401.1 L 225.2 401.1 L 225.2 406.0 L 223.8 406.0 L 223.8 395.4 " fill="#FF0000"/>
<path class="atom-15" d="M 293.0 504.3 L 296.5 509.9 Q 296.8 510.4, 297.3 511.4 Q 297.9 512.4, 297.9 512.5 L 297.9 504.3 L 299.3 504.3 L 299.3 514.8 L 297.9 514.8 L 294.2 508.8 Q 293.7 508.0, 293.3 507.2 Q 292.8 506.4, 292.7 506.2 L 292.7 514.8 L 291.3 514.8 L 291.3 504.3 L 293.0 504.3 " fill="#0000FF"/>
<path class="atom-20" d="M 317.6 363.4 Q 317.6 360.9, 318.8 359.5 Q 320.1 358.1, 322.4 358.1 Q 324.7 358.1, 326.0 359.5 Q 327.2 360.9, 327.2 363.4 Q 327.2 366.0, 326.0 367.5 Q 324.7 368.9, 322.4 368.9 Q 320.1 368.9, 318.8 367.5 Q 317.6 366.0, 317.6 363.4 M 322.4 367.7 Q 324.0 367.7, 324.9 366.6 Q 325.7 365.6, 325.7 363.4 Q 325.7 361.4, 324.9 360.3 Q 324.0 359.3, 322.4 359.3 Q 320.8 359.3, 319.9 360.3 Q 319.0 361.4, 319.0 363.4 Q 319.0 365.6, 319.9 366.6 Q 320.8 367.7, 322.4 367.7 " fill="#FF0000"/>
<path class="atom-24" d="M 83.5 386.0 L 84.9 386.0 L 84.9 390.5 L 90.3 390.5 L 90.3 386.0 L 91.7 386.0 L 91.7 396.5 L 90.3 396.5 L 90.3 391.7 L 84.9 391.7 L 84.9 396.5 L 83.5 396.5 L 83.5 386.0 " fill="#000000"/>
<path class="atom-25" d="M 189.7 476.7 L 191.1 476.7 L 191.1 481.2 L 196.5 481.2 L 196.5 476.7 L 197.9 476.7 L 197.9 487.2 L 196.5 487.2 L 196.5 482.4 L 191.1 482.4 L 191.1 487.2 L 189.7 487.2 L 189.7 476.7 " fill="#000000"/>
<path class="note" d="M 114.4 424.5 Q 114.4 423.5, 114.7 422.6 Q 115.0 421.7, 115.6 420.8 L 116.0 421.0 Q 115.6 421.9, 115.3 422.7 Q 115.1 423.5, 115.1 424.5 Q 115.1 425.5, 115.3 426.3 Q 115.6 427.1, 116.0 428.0 L 115.6 428.3 Q 115.0 427.3, 114.7 426.5 Q 114.4 425.6, 114.4 424.5 " fill="#000000"/>
<path class="note" d="M 119.3 426.6 L 118.0 424.5 L 118.0 424.5 L 117.2 424.5 L 117.2 426.6 L 116.5 426.6 L 116.5 421.4 L 118.0 421.4 Q 118.9 421.4, 119.4 421.8 Q 119.8 422.2, 119.8 422.9 Q 119.8 423.5, 119.5 423.9 Q 119.3 424.2, 118.7 424.4 L 120.1 426.6 L 119.3 426.6 M 117.2 423.9 L 118.0 423.9 Q 118.5 423.9, 118.8 423.6 Q 119.1 423.4, 119.1 422.9 Q 119.1 422.5, 118.8 422.2 Q 118.5 422.0, 118.0 422.0 L 117.2 422.0 L 117.2 423.9 " fill="#000000"/>
<path class="note" d="M 122.1 424.5 Q 122.1 425.6, 121.8 426.5 Q 121.5 427.3, 120.9 428.3 L 120.5 428.0 Q 121.0 427.1, 121.2 426.3 Q 121.5 425.5, 121.5 424.5 Q 121.5 423.5, 121.2 422.7 Q 121.0 421.9, 120.5 421.0 L 120.9 420.8 Q 121.5 421.7, 121.8 422.6 Q 122.1 423.5, 122.1 424.5 " fill="#000000"/>
<path class="note" d="M 147.3 439.6 Q 147.3 438.6, 147.6 437.7 Q 147.9 436.8, 148.5 435.9 L 148.9 436.1 Q 148.4 437.0, 148.2 437.8 Q 148.0 438.6, 148.0 439.6 Q 148.0 440.6, 148.2 441.4 Q 148.4 442.2, 148.9 443.1 L 148.5 443.4 Q 147.9 442.5, 147.6 441.6 Q 147.3 440.7, 147.3 439.6 " fill="#000000"/>
<path class="note" d="M 152.2 441.8 L 150.9 439.6 L 150.9 439.6 L 150.1 439.6 L 150.1 441.8 L 149.3 441.8 L 149.3 436.5 L 150.9 436.5 Q 151.8 436.5, 152.2 436.9 Q 152.7 437.3, 152.7 438.0 Q 152.7 438.6, 152.4 439.0 Q 152.2 439.4, 151.6 439.5 L 153.0 441.8 L 152.2 441.8 M 150.1 439.0 L 150.9 439.0 Q 151.4 439.0, 151.7 438.8 Q 152.0 438.5, 152.0 438.0 Q 152.0 437.6, 151.7 437.3 Q 151.4 437.1, 150.9 437.1 L 150.1 437.1 L 150.1 439.0 " fill="#000000"/>
<path class="note" d="M 155.0 439.6 Q 155.0 440.7, 154.7 441.6 Q 154.4 442.5, 153.8 443.4 L 153.4 443.1 Q 153.9 442.2, 154.1 441.4 Q 154.3 440.6, 154.3 439.6 Q 154.3 438.6, 154.1 437.8 Q 153.9 437.0, 153.4 436.1 L 153.8 435.9 Q 154.4 436.8, 154.7 437.7 Q 155.0 438.6, 155.0 439.6 " fill="#000000"/>
<path class="note" d="M 199.7 427.8 Q 199.7 426.7, 200.0 425.9 Q 200.3 425.0, 200.9 424.0 L 201.3 424.3 Q 200.8 425.2, 200.6 426.0 Q 200.4 426.8, 200.4 427.8 Q 200.4 428.8, 200.6 429.6 Q 200.8 430.4, 201.3 431.3 L 200.9 431.6 Q 200.3 430.6, 200.0 429.8 Q 199.7 428.9, 199.7 427.8 " fill="#000000"/>
<path class="note" d="M 201.9 429.1 Q 202.0 429.1, 202.2 429.2 Q 202.5 429.3, 202.8 429.4 Q 203.0 429.5, 203.3 429.5 Q 203.8 429.5, 204.1 429.2 Q 204.4 429.0, 204.4 428.6 Q 204.4 428.3, 204.2 428.1 Q 204.1 427.9, 203.9 427.8 Q 203.6 427.7, 203.3 427.6 Q 202.8 427.5, 202.5 427.3 Q 202.2 427.2, 202.0 426.9 Q 201.9 426.6, 201.9 426.2 Q 201.9 425.5, 202.3 425.1 Q 202.8 424.7, 203.6 424.7 Q 204.3 424.7, 204.9 425.0 L 204.8 425.5 Q 204.1 425.3, 203.7 425.3 Q 203.2 425.3, 202.9 425.5 Q 202.6 425.7, 202.6 426.1 Q 202.6 426.4, 202.7 426.5 Q 202.9 426.7, 203.1 426.8 Q 203.3 426.9, 203.7 427.0 Q 204.1 427.2, 204.4 427.3 Q 204.7 427.5, 204.9 427.8 Q 205.1 428.1, 205.1 428.6 Q 205.1 429.3, 204.6 429.7 Q 204.1 430.1, 203.3 430.1 Q 202.9 430.1, 202.5 430.0 Q 202.2 429.9, 201.7 429.7 L 201.9 429.1 " fill="#000000"/>
<path class="note" d="M 207.3 427.8 Q 207.3 428.9, 207.0 429.8 Q 206.7 430.6, 206.1 431.6 L 205.7 431.3 Q 206.2 430.4, 206.4 429.6 Q 206.7 428.8, 206.7 427.8 Q 206.7 426.8, 206.4 426.0 Q 206.2 425.2, 205.7 424.3 L 206.1 424.0 Q 206.7 425.0, 207.0 425.9 Q 207.3 426.7, 207.3 427.8 " fill="#000000"/>
<path class="legend" d="M 172.1 583.6 Q 172.6 583.6, 173.2 583.4 L 173.7 584.7 Q 172.8 585.0, 172.0 585.0 Q 170.6 585.0, 169.6 584.2 Q 168.7 583.3, 168.6 581.7 Q 166.5 581.4, 165.4 579.9 Q 164.3 578.4, 164.3 575.9 Q 164.3 573.2, 165.6 571.6 Q 167.0 570.1, 169.5 570.1 Q 172.0 570.1, 173.3 571.6 Q 174.7 573.2, 174.7 575.9 Q 174.7 578.5, 173.4 580.1 Q 172.2 581.6, 169.9 581.7 Q 170.0 582.6, 170.6 583.1 Q 171.2 583.6, 172.1 583.6 M 165.9 575.9 Q 165.9 578.2, 166.8 579.3 Q 167.7 580.5, 169.5 580.5 Q 171.2 580.5, 172.1 579.3 Q 173.1 578.2, 173.1 575.9 Q 173.1 573.7, 172.1 572.5 Q 171.2 571.4, 169.5 571.4 Q 167.7 571.4, 166.8 572.5 Q 165.9 573.6, 165.9 575.9 " fill="#000000"/>
<path class="legend" d="M 177.6 570.2 L 177.6 577.9 Q 177.6 579.2, 178.4 579.8 Q 179.1 580.4, 180.5 580.4 Q 181.9 580.4, 182.7 579.8 Q 183.4 579.2, 183.4 578.0 L 183.4 570.2 L 184.9 570.2 L 184.9 578.0 Q 184.9 579.8, 183.8 580.7 Q 182.7 581.7, 180.5 581.7 Q 178.3 581.7, 177.2 580.7 Q 176.1 579.8, 176.1 578.0 L 176.1 570.2 L 177.6 570.2 " fill="#000000"/>
<path class="legend" d="M 186.8 570.2 L 188.3 570.2 L 188.3 581.6 L 186.8 581.6 L 186.8 570.2 " fill="#000000"/>
<path class="legend" d="M 192.2 570.2 L 195.9 576.2 Q 196.3 576.8, 196.8 577.9 Q 197.4 579.0, 197.5 579.0 L 197.5 570.2 L 199.0 570.2 L 199.0 581.6 L 197.4 581.6 L 193.4 575.0 Q 193.0 574.2, 192.5 573.4 Q 192.0 572.5, 191.9 572.2 L 191.9 581.6 L 190.4 581.6 L 190.4 570.2 L 192.2 570.2 " fill="#000000"/>
<path class="legend" d="M 200.9 570.2 L 202.5 570.2 L 202.5 581.6 L 200.9 581.6 L 200.9 570.2 " fill="#000000"/>
<path class="legend" d="M 208.2 570.2 Q 210.7 570.2, 212.0 571.7 Q 213.4 573.2, 213.4 575.9 Q 213.4 578.6, 212.0 580.1 Q 210.7 581.6, 208.2 581.6 L 204.5 581.6 L 204.5 570.2 L 208.2 570.2 M 208.2 580.3 Q 209.9 580.3, 210.8 579.2 Q 211.8 578.1, 211.8 575.9 Q 211.8 573.7, 210.8 572.6 Q 209.9 571.5, 208.2 571.5 L 206.0 571.5 L 206.0 580.3 L 208.2 580.3 " fill="#000000"/>
<path class="legend" d="M 214.7 570.2 L 216.2 570.2 L 216.2 581.6 L 214.7 581.6 L 214.7 570.2 " fill="#000000"/>
<path class="legend" d="M 220.1 570.2 L 223.8 576.2 Q 224.1 576.8, 224.7 577.9 Q 225.3 579.0, 225.4 579.0 L 225.4 570.2 L 226.9 570.2 L 226.9 581.6 L 225.3 581.6 L 221.3 575.0 Q 220.9 574.2, 220.4 573.4 Q 219.9 572.5, 219.7 572.2 L 219.7 581.6 L 218.3 581.6 L 218.3 570.2 L 220.1 570.2 " fill="#000000"/>
<path class="legend" d="M 228.8 570.2 L 235.6 570.2 L 235.6 571.5 L 230.3 571.5 L 230.3 575.0 L 235.0 575.0 L 235.0 576.3 L 230.3 576.3 L 230.3 580.2 L 235.7 580.2 L 235.7 581.6 L 228.8 581.6 L 228.8 570.2 " fill="#000000"/>
<path class="bond-0 atom-0 atom-1" d="M 441.7,403.6 L 469.2,428.6" style="fill:none;fill-rule:evenodd;stroke:#000000;stroke-width:2.0px;stroke-linecap:butt;stroke-linejoin:miter;stroke-opacity:1"/>
<path class="bond-0 atom-0 atom-1" d="M 445.5,399.4 L 470.6,422.2" style="fill:none;fill-rule:evenodd;stroke:#000000;stroke-width:2.0px;stroke-linecap:butt;stroke-linejoin:miter;stroke-opacity:1"/>
<path class="bond-1 atom-1 atom-2" d="M 469.2,428.6 L 504.6,417.3" style="fill:none;fill-rule:evenodd;stroke:#000000;stroke-width:2.0px;stroke-linecap:butt;stroke-linejoin:miter;stroke-opacity:1"/>
<path class="bond-2 atom-2 atom-3" d="M 504.6,417.3 L 534.0,394.5" style="fill:none;fill-rule:evenodd;stroke:#000000;stroke-width:2.0px;stroke-linecap:butt;stroke-linejoin:miter;stroke-opacity:1"/>
<path class="bond-3 atom-3 atom-4" d="M 534.0,394.5 L 548.6,400.5" style="fill:none;fill-rule:evenodd;stroke:#000000;stroke-width:2.0px;stroke-linecap:butt;stroke-linejoin:miter;stroke-opacity:1"/>
<path class="bond-3 atom-3 atom-4" d="M 548.6,400.5 L 563.2,406.5" style="fill:none;fill-rule:evenodd;stroke:#0000FF;stroke-width:2.0px;stroke-linecap:butt;stroke-linejoin:miter;stroke-opacity:1"/>
<path class="bond-4 atom-4 atom-5" d="M 569.3,415.1 L 571.3,430.3" style="fill:none;fill-rule:evenodd;stroke:#0000FF;stroke-width:2.0px;stroke-linecap:butt;stroke-linejoin:miter;stroke-opacity:1"/>
<path class="bond-4 atom-4 atom-5" d="M 571.3,430.3 L 573.4,445.4" style="fill:none;fill-rule:evenodd;stroke:#000000;stroke-width:2.0px;stroke-linecap:butt;stroke-linejoin:miter;stroke-opacity:1"/>
<path class="bond-5 atom-5 atom-6" d="M 573.4,445.4 L 544.0,468.2" style="fill:none;fill-rule:evenodd;stroke:#000000;stroke-width:2.0px;stroke-linecap:butt;stroke-linejoin:miter;stroke-opacity:1"/>
<path class="bond-6 atom-6 atom-7" d="M 544.0,468.2 L 509.6,454.1" style="fill:none;fill-rule:evenodd;stroke:#000000;stroke-width:2.0px;stroke-linecap:butt;stroke-linejoin:miter;stroke-opacity:1"/>
<path class="bond-7 atom-7 atom-8" d="M 509.6,454.1 L 521.2,446.2" style="fill:none;fill-rule:evenodd;stroke:#000000;stroke-width:2.0px;stroke-linecap:butt;stroke-linejoin:miter;stroke-opacity:1"/>
<path class="bond-8 atom-8 atom-9" d="M 531.8,438.5 L 553.1,422.1" style="fill:none;fill-rule:evenodd;stroke:#000000;stroke-width:2.0px;stroke-linecap:butt;stroke-linejoin:miter;stroke-opacity:1"/>
<path class="bond-9 atom-9 atom-10" d="M 553.1,422.1 L 608.8,434.1" style="fill:none;fill-rule:evenodd;stroke:#000000;stroke-width:2.0px;stroke-linecap:butt;stroke-linejoin:miter;stroke-opacity:1"/>
<path class="bond-10 atom-10 atom-11" d="M 608.8,434.1 L 610.5,419.7 L 613.2,420.3 Z" style="fill:#000000;fill-rule:evenodd;fill-opacity:1;stroke:#000000;stroke-width:0.5px;stroke-linecap:butt;stroke-linejoin:miter;stroke-opacity:1;"/>
<path class="bond-10 atom-10 atom-11" d="M 610.5,419.7 L 617.7,406.4 L 612.2,405.2 Z" style="fill:#FF0000;fill-rule:evenodd;fill-opacity:1;stroke:#FF0000;stroke-width:0.5px;stroke-linecap:butt;stroke-linejoin:miter;stroke-opacity:1;"/>
<path class="bond-10 atom-10 atom-11" d="M 610.5,419.7 L 613.2,420.3 L 617.7,406.4 Z" style="fill:#FF0000;fill-rule:evenodd;fill-opacity:1;stroke:#FF0000;stroke-width:0.5px;stroke-linecap:butt;stroke-linejoin:miter;stroke-opacity:1;"/>
<path class="bond-11 atom-10 atom-12" d="M 608.8,434.1 L 636.3,459.1" style="fill:none;fill-rule:evenodd;stroke:#000000;stroke-width:2.0px;stroke-linecap:butt;stroke-linejoin:miter;stroke-opacity:1"/>
<path class="bond-12 atom-12 atom-13" d="M 636.3,459.1 L 628.4,495.4" style="fill:none;fill-rule:evenodd;stroke:#000000;stroke-width:2.0px;stroke-linecap:butt;stroke-linejoin:miter;stroke-opacity:1"/>
<path class="bond-12 atom-12 atom-13" d="M 641.1,463.5 L 634.6,493.5" style="fill:none;fill-rule:evenodd;stroke:#000000;stroke-width:2.0px;stroke-linecap:butt;stroke-linejoin:miter;stroke-opacity:1"/>
<path class="bond-13 atom-13 atom-14" d="M 628.4,495.4 L 655.9,520.4" style="fill:none;fill-rule:evenodd;stroke:#000000;stroke-width:2.0px;stroke-linecap:butt;stroke-linejoin:miter;stroke-opacity:1"/>
<path class="bond-14 atom-14 atom-15" d="M 655.9,520.4 L 671.0,515.6" style="fill:none;fill-rule:evenodd;stroke:#000000;stroke-width:2.0px;stroke-linecap:butt;stroke-linejoin:miter;stroke-opacity:1"/>
<path class="bond-14 atom-14 atom-15" d="M 671.0,515.6 L 686.0,510.8" style="fill:none;fill-rule:evenodd;stroke:#0000FF;stroke-width:2.0px;stroke-linecap:butt;stroke-linejoin:miter;stroke-opacity:1"/>
<path class="bond-14 atom-14 atom-15" d="M 657.3,514.1 L 670.8,509.8" style="fill:none;fill-rule:evenodd;stroke:#000000;stroke-width:2.0px;stroke-linecap:butt;stroke-linejoin:miter;stroke-opacity:1"/>
<path class="bond-14 atom-14 atom-15" d="M 670.8,509.8 L 684.3,505.4" style="fill:none;fill-rule:evenodd;stroke:#0000FF;stroke-width:2.0px;stroke-linecap:butt;stroke-linejoin:miter;stroke-opacity:1"/>
<path class="bond-15 atom-15 atom-16" d="M 692.7,502.6 L 695.9,487.7" style="fill:none;fill-rule:evenodd;stroke:#0000FF;stroke-width:2.0px;stroke-linecap:butt;stroke-linejoin:miter;stroke-opacity:1"/>
<path class="bond-15 atom-15 atom-16" d="M 695.9,487.7 L 699.2,472.8" style="fill:none;fill-rule:evenodd;stroke:#000000;stroke-width:2.0px;stroke-linecap:butt;stroke-linejoin:miter;stroke-opacity:1"/>
<path class="bond-16 atom-16 atom-17" d="M 699.2,472.8 L 734.6,461.5" style="fill:none;fill-rule:evenodd;stroke:#000000;stroke-width:2.0px;stroke-linecap:butt;stroke-linejoin:miter;stroke-opacity:1"/>
<path class="bond-16 atom-16 atom-17" d="M 700.6,466.4 L 729.8,457.1" style="fill:none;fill-rule:evenodd;stroke:#000000;stroke-width:2.0px;stroke-linecap:butt;stroke-linejoin:miter;stroke-opacity:1"/>
<path class="bond-17 atom-17 atom-18" d="M 734.6,461.5 L 742.5,425.2" style="fill:none;fill-rule:evenodd;stroke:#000000;stroke-width:2.0px;stroke-linecap:butt;stroke-linejoin:miter;stroke-opacity:1"/>
<path class="bond-18 atom-18 atom-19" d="M 742.5,425.2 L 715.0,400.2" style="fill:none;fill-rule:evenodd;stroke:#000000;stroke-width:2.0px;stroke-linecap:butt;stroke-linejoin:miter;stroke-opacity:1"/>
<path class="bond-18 atom-18 atom-19" d="M 736.3,427.2 L 713.6,406.6" style="fill:none;fill-rule:evenodd;stroke:#000000;stroke-width:2.0px;stroke-linecap:butt;stroke-linejoin:miter;stroke-opacity:1"/>
<path class="bond-19 atom-19 atom-20" d="M 715.0,400.2 L 718.2,385.4" style="fill:none;fill-rule:evenodd;stroke:#000000;stroke-width:2.0px;stroke-linecap:butt;stroke-linejoin:miter;stroke-opacity:1"/>
<path class="bond-19 atom-19 atom-20" d="M 718.2,385.4 L 721.4,370.6" style="fill:none;fill-rule:evenodd;stroke:#FF0000;stroke-width:2.0px;stroke-linecap:butt;stroke-linejoin:miter;stroke-opacity:1"/>
<path class="bond-20 atom-20 atom-21" d="M 729.0,361.9 L 743.6,357.2" style="fill:none;fill-rule:evenodd;stroke:#FF0000;stroke-width:2.0px;stroke-linecap:butt;stroke-linejoin:miter;stroke-opacity:1"/>
<path class="bond-20 atom-20 atom-21" d="M 743.6,357.2 L 758.3,352.6" style="fill:none;fill-rule:evenodd;stroke:#000000;stroke-width:2.0px;stroke-linecap:butt;stroke-linejoin:miter;stroke-opacity:1"/>
<path class="bond-21 atom-19 atom-22" d="M 715.0,400.2 L 679.6,411.5" style="fill:none;fill-rule:evenodd;stroke:#000000;stroke-width:2.0px;stroke-linecap:butt;stroke-linejoin:miter;stroke-opacity:1"/>
<path class="bond-22 atom-22 atom-23" d="M 679.6,411.5 L 671.7,447.8" style="fill:none;fill-rule:evenodd;stroke:#000000;stroke-width:2.0px;stroke-linecap:butt;stroke-linejoin:miter;stroke-opacity:1"/>
<path class="bond-22 atom-22 atom-23" d="M 684.4,415.9 L 677.9,445.8" style="fill:none;fill-rule:evenodd;stroke:#000000;stroke-width:2.0px;stroke-linecap:butt;stroke-linejoin:miter;stroke-opacity:1"/>
<path class="bond-23 atom-7 atom-2" d="M 509.6,454.1 L 504.6,417.3" style="fill:none;fill-rule:evenodd;stroke:#000000;stroke-width:2.0px;stroke-linecap:butt;stroke-linejoin:miter;stroke-opacity:1"/>
<path class="bond-24 atom-23 atom-12" d="M 671.7,447.8 L 636.3,459.1" style="fill:none;fill-rule:evenodd;stroke:#000000;stroke-width:2.0px;stroke-linecap:butt;stroke-linejoin:miter;stroke-opacity:1"/>
<path class="bond-25 atom-9 atom-4" d="M 553.1,422.1 L 558.1,417.6" style="fill:none;fill-rule:evenodd;stroke:#000000;stroke-width:2.0px;stroke-linecap:butt;stroke-linejoin:miter;stroke-opacity:1"/>
<path class="bond-25 atom-9 atom-4" d="M 558.1,417.6 L 563.2,413.2" style="fill:none;fill-rule:evenodd;stroke:#0000FF;stroke-width:2.0px;stroke-linecap:butt;stroke-linejoin:miter;stroke-opacity:1"/>
<path class="bond-26 atom-23 atom-16" d="M 671.7,447.8 L 699.2,472.8" style="fill:none;fill-rule:evenodd;stroke:#000000;stroke-width:2.0px;stroke-linecap:butt;stroke-linejoin:miter;stroke-opacity:1"/>
<path class="bond-27 atom-2 atom-24" d="M 502.6,414.3 L 503.3,414.0" style="fill:none;fill-rule:evenodd;stroke:#000000;stroke-width:1.0px;stroke-linecap:butt;stroke-linejoin:miter;stroke-opacity:1"/>
<path class="bond-27 atom-2 atom-24" d="M 500.7,411.3 L 501.9,410.6" style="fill:none;fill-rule:evenodd;stroke:#000000;stroke-width:1.0px;stroke-linecap:butt;stroke-linejoin:miter;stroke-opacity:1"/>
<path class="bond-27 atom-2 atom-24" d="M 498.7,408.3 L 500.6,407.3" style="fill:none;fill-rule:evenodd;stroke:#000000;stroke-width:1.0px;stroke-linecap:butt;stroke-linejoin:miter;stroke-opacity:1"/>
<path class="bond-27 atom-2 atom-24" d="M 496.7,405.3 L 499.2,404.0" style="fill:none;fill-rule:evenodd;stroke:#000000;stroke-width:1.0px;stroke-linecap:butt;stroke-linejoin:miter;stroke-opacity:1"/>
<path class="bond-27 atom-2 atom-24" d="M 494.8,402.4 L 497.9,400.7" style="fill:none;fill-rule:evenodd;stroke:#000000;stroke-width:1.0px;stroke-linecap:butt;stroke-linejoin:miter;stroke-opacity:1"/>
<path class="bond-27 atom-2 atom-24" d="M 492.8,399.4 L 496.6,397.4" style="fill:none;fill-rule:evenodd;stroke:#000000;stroke-width:1.0px;stroke-linecap:butt;stroke-linejoin:miter;stroke-opacity:1"/>
<path class="bond-27 atom-2 atom-24" d="M 490.9,396.4 L 495.2,394.1" style="fill:none;fill-rule:evenodd;stroke:#000000;stroke-width:1.0px;stroke-linecap:butt;stroke-linejoin:miter;stroke-opacity:1"/>
<path class="bond-27 atom-2 atom-24" d="M 488.9,393.4 L 493.9,390.8" style="fill:none;fill-rule:evenodd;stroke:#000000;stroke-width:1.0px;stroke-linecap:butt;stroke-linejoin:miter;stroke-opacity:1"/>
<path class="bond-28 atom-7 atom-25" d="M 509.6,454.1 L 488.5,474.0 L 485.1,469.5 Z" style="fill:#000000;fill-rule:evenodd;fill-opacity:1;stroke:#000000;stroke-width:0.5px;stroke-linecap:butt;stroke-linejoin:miter;stroke-opacity:1;"/>
<path class="bond-29 atom-9 atom-26" d="M 555.1,424.8 L 554.8,425.0" style="fill:none;fill-rule:evenodd;stroke:#000000;stroke-width:1.0px;stroke-linecap:butt;stroke-linejoin:miter;stroke-opacity:1"/>
<path class="bond-29 atom-9 atom-26" d="M 557.1,427.6 L 556.6,428.0" style="fill:none;fill-rule:evenodd;stroke:#000000;stroke-width:1.0px;stroke-linecap:butt;stroke-linejoin:miter;stroke-opacity:1"/>
<path class="bond-29 atom-9 atom-26" d="M 559.2,430.3 L 558.4,430.9" style="fill:none;fill-rule:evenodd;stroke:#000000;stroke-width:1.0px;stroke-linecap:butt;stroke-linejoin:miter;stroke-opacity:1"/>
<path class="bond-29 atom-9 atom-26" d="M 561.2,433.1 L 560.1,433.8" style="fill:none;fill-rule:evenodd;stroke:#000000;stroke-width:1.0px;stroke-linecap:butt;stroke-linejoin:miter;stroke-opacity:1"/>
<path class="bond-29 atom-9 atom-26" d="M 563.3,435.9 L 561.9,436.8" style="fill:none;fill-rule:evenodd;stroke:#000000;stroke-width:1.0px;stroke-linecap:butt;stroke-linejoin:miter;stroke-opacity:1"/>
<path class="bond-29 atom-9 atom-26" d="M 565.3,438.6 L 563.7,439.7" style="fill:none;fill-rule:evenodd;stroke:#000000;stroke-width:1.0px;stroke-linecap:butt;stroke-linejoin:miter;stroke-opacity:1"/>
<path class="bond-29 atom-9 atom-26" d="M 567.4,441.4 L 565.4,442.7" style="fill:none;fill-rule:evenodd;stroke:#000000;stroke-width:1.0px;stroke-linecap:butt;stroke-linejoin:miter;stroke-opacity:1"/>
<path class="bond-29 atom-9 atom-26" d="M 569.4,444.2 L 567.2,445.6" style="fill:none;fill-rule:evenodd;stroke:#000000;stroke-width:1.0px;stroke-linecap:butt;stroke-linejoin:miter;stroke-opacity:1"/>
<path class="bond-29 atom-9 atom-26" d="M 571.5,446.9 L 569.0,448.6" style="fill:none;fill-rule:evenodd;stroke:#000000;stroke-width:1.0px;stroke-linecap:butt;stroke-linejoin:miter;stroke-opacity:1"/>
<path class="bond-29 atom-9 atom-26" d="M 573.5,449.7 L 570.8,451.5" style="fill:none;fill-rule:evenodd;stroke:#000000;stroke-width:1.0px;stroke-linecap:butt;stroke-linejoin:miter;stroke-opacity:1"/>
<path class="bond-29 atom-9 atom-26" d="M 575.6,452.4 L 572.5,454.5" style="fill:none;fill-rule:evenodd;stroke:#000000;stroke-width:1.0px;stroke-linecap:butt;stroke-linejoin:miter;stroke-opacity:1"/>
<path class="bond-29 atom-9 atom-26" d="M 577.6,455.2 L 574.3,457.4" style="fill:none;fill-rule:evenodd;stroke:#000000;stroke-width:1.0px;stroke-linecap:butt;stroke-linejoin:miter;stroke-opacity:1"/>
<path class="bond-29 atom-9 atom-26" d="M 579.7,458.0 L 576.1,460.4" style="fill:none;fill-rule:evenodd;stroke:#000000;stroke-width:1.0px;stroke-linecap:butt;stroke-linejoin:miter;stroke-opacity:1"/>
<path class="bond-29 atom-9 atom-26" d="M 581.7,460.7 L 577.8,463.3" style="fill:none;fill-rule:evenodd;stroke:#000000;stroke-width:1.0px;stroke-linecap:butt;stroke-linejoin:miter;stroke-opacity:1"/>
<path class="bond-29 atom-9 atom-26" d="M 583.8,463.5 L 579.6,466.3" style="fill:none;fill-rule:evenodd;stroke:#000000;stroke-width:1.0px;stroke-linecap:butt;stroke-linejoin:miter;stroke-opacity:1"/>
<path class="bond-29 atom-9 atom-26" d="M 585.8,466.3 L 581.4,469.2" style="fill:none;fill-rule:evenodd;stroke:#000000;stroke-width:1.0px;stroke-linecap:butt;stroke-linejoin:miter;stroke-opacity:1"/>
<path class="bond-29 atom-9 atom-26" d="M 587.8,469.0 L 583.2,472.2" style="fill:none;fill-rule:evenodd;stroke:#000000;stroke-width:1.0px;stroke-linecap:butt;stroke-linejoin:miter;stroke-opacity:1"/>
<path d="M 467.8,427.3 L 469.2,428.6 L 471.0,428.0" style="fill:none;stroke:#000000;stroke-width:2.0px;stroke-linecap:butt;stroke-linejoin:miter;stroke-opacity:1;"/>
<path d="M 532.5,395.7 L 534.0,394.5 L 534.7,394.8" style="fill:none;stroke:#000000;stroke-width:2.0px;stroke-linecap:butt;stroke-linejoin:miter;stroke-opacity:1;"/>
<path d="M 573.3,444.7 L 573.4,445.4 L 571.9,446.6" style="fill:none;stroke:#000000;stroke-width:2.0px;stroke-linecap:butt;stroke-linejoin:miter;stroke-opacity:1;"/>
<path d="M 545.5,467.0 L 544.0,468.2 L 542.3,467.5" style="fill:none;stroke:#000000;stroke-width:2.0px;stroke-linecap:butt;stroke-linejoin:miter;stroke-opacity:1;"/>
<path d="M 606.0,433.5 L 608.8,434.1 L 610.2,435.4" style="fill:none;stroke:#000000;stroke-width:2.0px;stroke-linecap:butt;stroke-linejoin:miter;stroke-opacity:1;"/>
<path d="M 628.8,493.6 L 628.4,495.4 L 629.8,496.7" style="fill:none;stroke:#000000;stroke-width:2.0px;stroke-linecap:butt;stroke-linejoin:miter;stroke-opacity:1;"/>
<path d="M 654.5,519.2 L 655.9,520.4 L 656.6,520.2" style="fill:none;stroke:#000000;stroke-width:2.0px;stroke-linecap:butt;stroke-linejoin:miter;stroke-opacity:1;"/>
<path d="M 732.8,462.1 L 734.6,461.5 L 735.0,459.7" style="fill:none;stroke:#000000;stroke-width:2.0px;stroke-linecap:butt;stroke-linejoin:miter;stroke-opacity:1;"/>
<path d="M 742.1,427.0 L 742.5,425.2 L 741.1,423.9" style="fill:none;stroke:#000000;stroke-width:2.0px;stroke-linecap:butt;stroke-linejoin:miter;stroke-opacity:1;"/>
<path d="M 681.4,410.9 L 679.6,411.5 L 679.2,413.3" style="fill:none;stroke:#000000;stroke-width:2.0px;stroke-linecap:butt;stroke-linejoin:miter;stroke-opacity:1;"/>
<path class="atom-4" d="M 566.1 403.3 L 569.5 408.9 Q 569.9 409.5, 570.4 410.5 Q 571.0 411.5, 571.0 411.5 L 571.0 403.3 L 572.4 403.3 L 572.4 413.9 L 570.9 413.9 L 567.2 407.8 Q 566.8 407.1, 566.3 406.2 Q 565.9 405.4, 565.8 405.2 L 565.8 413.9 L 564.4 413.9 L 564.4 403.3 L 566.1 403.3 " fill="#0000FF"/>
<path class="atom-8" d="M 522.4 442.7 Q 522.4 440.0, 523.6 438.7 Q 524.9 437.3, 527.2 437.3 Q 529.4 437.3, 530.5 438.8 L 529.5 439.6 Q 528.7 438.5, 527.2 438.5 Q 525.6 438.5, 524.8 439.6 Q 523.9 440.6, 523.9 442.7 Q 523.9 444.7, 524.8 445.8 Q 525.7 446.9, 527.4 446.9 Q 528.5 446.9, 529.9 446.2 L 530.3 447.3 Q 529.7 447.7, 528.9 447.9 Q 528.1 448.1, 527.2 448.1 Q 524.9 448.1, 523.6 446.7 Q 522.4 445.3, 522.4 442.7 " fill="#000000"/>
<path class="atom-11" d="M 611.9 397.8 Q 611.9 395.3, 613.1 393.9 Q 614.4 392.5, 616.7 392.5 Q 619.0 392.5, 620.3 393.9 Q 621.5 395.3, 621.5 397.8 Q 621.5 400.4, 620.3 401.9 Q 619.0 403.3, 616.7 403.3 Q 614.4 403.3, 613.1 401.9 Q 611.9 400.4, 611.9 397.8 M 616.7 402.1 Q 618.3 402.1, 619.2 401.0 Q 620.0 400.0, 620.0 397.8 Q 620.0 395.8, 619.2 394.7 Q 618.3 393.7, 616.7 393.7 Q 615.1 393.7, 614.2 394.7 Q 613.3 395.8, 613.3 397.8 Q 613.3 400.0, 614.2 401.0 Q 615.1 402.1, 616.7 402.1 " fill="#FF0000"/>
<path class="atom-11" d="M 623.2 392.6 L 624.6 392.6 L 624.6 397.1 L 630.0 397.1 L 630.0 392.6 L 631.4 392.6 L 631.4 403.1 L 630.0 403.1 L 630.0 398.3 L 624.6 398.3 L 624.6 403.1 L 623.2 403.1 L 623.2 392.6 " fill="#FF0000"/>
<path class="atom-15" d="M 689.0 503.9 L 692.4 509.4 Q 692.7 510.0, 693.3 511.0 Q 693.8 512.0, 693.9 512.0 L 693.9 503.9 L 695.3 503.9 L 695.3 514.4 L 693.8 514.4 L 690.1 508.3 Q 689.7 507.6, 689.2 506.8 Q 688.8 505.9, 688.7 505.7 L 688.7 514.4 L 687.3 514.4 L 687.3 503.9 L 689.0 503.9 " fill="#0000FF"/>
<path class="atom-20" d="M 718.1 363.9 Q 718.1 361.4, 719.3 360.0 Q 720.6 358.5, 722.9 358.5 Q 725.2 358.5, 726.5 360.0 Q 727.7 361.4, 727.7 363.9 Q 727.7 366.5, 726.5 367.9 Q 725.2 369.4, 722.9 369.4 Q 720.6 369.4, 719.3 367.9 Q 718.1 366.5, 718.1 363.9 M 722.9 368.2 Q 724.5 368.2, 725.4 367.1 Q 726.2 366.0, 726.2 363.9 Q 726.2 361.8, 725.4 360.8 Q 724.5 359.7, 722.9 359.7 Q 721.3 359.7, 720.4 360.8 Q 719.5 361.8, 719.5 363.9 Q 719.5 366.0, 720.4 367.1 Q 721.3 368.2, 722.9 368.2 " fill="#FF0000"/>
<path class="atom-24" d="M 483.2 379.1 L 484.6 379.1 L 484.6 383.6 L 490.0 383.6 L 490.0 379.1 L 491.4 379.1 L 491.4 389.6 L 490.0 389.6 L 490.0 384.8 L 484.6 384.8 L 484.6 389.6 L 483.2 389.6 L 483.2 379.1 " fill="#000000"/>
<path class="atom-25" d="M 476.1 471.6 L 477.5 471.6 L 477.5 476.0 L 482.9 476.0 L 482.9 471.6 L 484.3 471.6 L 484.3 482.1 L 482.9 482.1 L 482.9 477.2 L 477.5 477.2 L 477.5 482.1 L 476.1 482.1 L 476.1 471.6 " fill="#000000"/>
<path class="atom-26" d="M 586.6 473.1 L 588.0 473.1 L 588.0 477.5 L 593.4 477.5 L 593.4 473.1 L 594.8 473.1 L 594.8 483.6 L 593.4 483.6 L 593.4 478.7 L 588.0 478.7 L 588.0 483.6 L 586.6 483.6 L 586.6 473.1 " fill="#000000"/>
<path class="note" d="M 513.1 418.6 Q 513.1 417.5, 513.4 416.6 Q 513.7 415.8, 514.3 414.8 L 514.8 415.1 Q 514.3 416.0, 514.0 416.8 Q 513.8 417.6, 513.8 418.6 Q 513.8 419.6, 514.0 420.4 Q 514.3 421.2, 514.8 422.1 L 514.3 422.3 Q 513.7 421.4, 513.4 420.5 Q 513.1 419.7, 513.1 418.6 " fill="#000000"/>
<path class="note" d="M 518.0 420.7 L 516.7 418.5 L 516.7 418.5 L 515.9 418.5 L 515.9 420.7 L 515.2 420.7 L 515.2 415.4 L 516.7 415.4 Q 517.6 415.4, 518.1 415.8 Q 518.5 416.2, 518.5 417.0 Q 518.5 417.5, 518.3 417.9 Q 518.0 418.3, 517.5 418.4 L 518.8 420.7 L 518.0 420.7 M 515.9 417.9 L 516.7 417.9 Q 517.2 417.9, 517.5 417.7 Q 517.8 417.5, 517.8 417.0 Q 517.8 416.5, 517.5 416.3 Q 517.3 416.0, 516.7 416.0 L 515.9 416.0 L 515.9 417.9 " fill="#000000"/>
<path class="note" d="M 520.8 418.6 Q 520.8 419.7, 520.5 420.5 Q 520.2 421.4, 519.6 422.3 L 519.2 422.1 Q 519.7 421.2, 519.9 420.4 Q 520.2 419.6, 520.2 418.6 Q 520.2 417.6, 519.9 416.8 Q 519.7 416.0, 519.2 415.1 L 519.6 414.8 Q 520.2 415.8, 520.5 416.6 Q 520.8 417.5, 520.8 418.6 " fill="#000000"/>
<path class="note" d="M 513.1 464.9 Q 513.1 463.9, 513.4 463.0 Q 513.7 462.1, 514.3 461.2 L 514.7 461.4 Q 514.2 462.3, 514.0 463.1 Q 513.7 463.9, 513.7 464.9 Q 513.7 465.9, 514.0 466.7 Q 514.2 467.5, 514.7 468.4 L 514.3 468.7 Q 513.7 467.8, 513.4 466.9 Q 513.1 466.0, 513.1 464.9 " fill="#000000"/>
<path class="note" d="M 515.3 466.2 Q 515.4 466.3, 515.6 466.4 Q 515.9 466.5, 516.1 466.5 Q 516.4 466.6, 516.7 466.6 Q 517.2 466.6, 517.5 466.4 Q 517.7 466.1, 517.7 465.7 Q 517.7 465.4, 517.6 465.2 Q 517.5 465.0, 517.2 464.9 Q 517.0 464.9, 516.6 464.7 Q 516.2 464.6, 515.9 464.5 Q 515.6 464.3, 515.4 464.0 Q 515.2 463.8, 515.2 463.3 Q 515.2 462.6, 515.7 462.2 Q 516.1 461.8, 517.0 461.8 Q 517.6 461.8, 518.3 462.1 L 518.1 462.7 Q 517.5 462.4, 517.0 462.4 Q 516.5 462.4, 516.2 462.6 Q 516.0 462.8, 516.0 463.2 Q 516.0 463.5, 516.1 463.7 Q 516.3 463.8, 516.5 463.9 Q 516.7 464.0, 517.0 464.1 Q 517.5 464.3, 517.8 464.4 Q 518.1 464.6, 518.3 464.9 Q 518.5 465.2, 518.5 465.7 Q 518.5 466.4, 518.0 466.8 Q 517.5 467.2, 516.7 467.2 Q 516.2 467.2, 515.9 467.1 Q 515.5 467.0, 515.1 466.8 L 515.3 466.2 " fill="#000000"/>
<path class="note" d="M 520.7 464.9 Q 520.7 466.0, 520.4 466.9 Q 520.1 467.8, 519.5 468.7 L 519.1 468.4 Q 519.5 467.5, 519.8 466.7 Q 520.0 465.9, 520.0 464.9 Q 520.0 463.9, 519.8 463.1 Q 519.5 462.3, 519.1 461.4 L 519.5 461.2 Q 520.1 462.1, 520.4 463.0 Q 520.7 463.9, 520.7 464.9 " fill="#000000"/>
<path class="note" d="M 545.5 434.7 Q 545.5 433.6, 545.8 432.8 Q 546.1 431.9, 546.7 430.9 L 547.2 431.2 Q 546.7 432.1, 546.4 432.9 Q 546.2 433.7, 546.2 434.7 Q 546.2 435.7, 546.4 436.5 Q 546.7 437.3, 547.2 438.2 L 546.7 438.5 Q 546.1 437.5, 545.8 436.7 Q 545.5 435.8, 545.5 434.7 " fill="#000000"/>
<path class="note" d="M 550.4 436.8 L 549.1 434.7 L 549.1 434.7 L 548.3 434.7 L 548.3 436.8 L 547.6 436.8 L 547.6 431.6 L 549.1 431.6 Q 550.0 431.6, 550.5 432.0 Q 550.9 432.4, 550.9 433.1 Q 550.9 433.7, 550.7 434.1 Q 550.4 434.4, 549.9 434.6 L 551.2 436.8 L 550.4 436.8 M 548.3 434.1 L 549.1 434.1 Q 549.6 434.1, 549.9 433.8 Q 550.2 433.6, 550.2 433.1 Q 550.2 432.6, 549.9 432.4 Q 549.6 432.2, 549.1 432.2 L 548.3 432.2 L 548.3 434.1 " fill="#000000"/>
<path class="note" d="M 553.2 434.7 Q 553.2 435.8, 552.9 436.7 Q 552.6 437.5, 552.0 438.5 L 551.6 438.2 Q 552.1 437.3, 552.3 436.5 Q 552.6 435.7, 552.6 434.7 Q 552.6 433.7, 552.3 432.9 Q 552.1 432.1, 551.6 431.2 L 552.0 430.9 Q 552.6 431.9, 552.9 432.8 Q 553.2 433.6, 553.2 434.7 " fill="#000000"/>
<path class="note" d="M 598.3 424.5 Q 598.3 423.5, 598.6 422.6 Q 598.9 421.7, 599.5 420.8 L 599.9 421.0 Q 599.4 421.9, 599.2 422.7 Q 598.9 423.5, 598.9 424.5 Q 598.9 425.5, 599.2 426.3 Q 599.4 427.1, 599.9 428.0 L 599.5 428.3 Q 598.9 427.4, 598.6 426.5 Q 598.3 425.6, 598.3 424.5 " fill="#000000"/>
<path class="note" d="M 600.5 425.8 Q 600.6 425.9, 600.8 426.0 Q 601.1 426.1, 601.3 426.1 Q 601.6 426.2, 601.9 426.2 Q 602.4 426.2, 602.7 426.0 Q 603.0 425.7, 603.0 425.3 Q 603.0 425.0, 602.8 424.8 Q 602.7 424.6, 602.4 424.5 Q 602.2 424.4, 601.8 424.3 Q 601.4 424.2, 601.1 424.1 Q 600.8 423.9, 600.6 423.6 Q 600.4 423.4, 600.4 422.9 Q 600.4 422.2, 600.9 421.8 Q 601.3 421.4, 602.2 421.4 Q 602.8 421.4, 603.5 421.7 L 603.3 422.3 Q 602.7 422.0, 602.2 422.0 Q 601.7 422.0, 601.4 422.2 Q 601.2 422.4, 601.2 422.8 Q 601.2 423.1, 601.3 423.2 Q 601.5 423.4, 601.7 423.5 Q 601.9 423.6, 602.2 423.7 Q 602.7 423.9, 603.0 424.0 Q 603.3 424.2, 603.5 424.5 Q 603.7 424.8, 603.7 425.3 Q 603.7 426.0, 603.2 426.4 Q 602.7 426.8, 601.9 426.8 Q 601.4 426.8, 601.1 426.7 Q 600.7 426.6, 600.3 426.4 L 600.5 425.8 " fill="#000000"/>
<path class="note" d="M 605.9 424.5 Q 605.9 425.6, 605.6 426.5 Q 605.3 427.4, 604.7 428.3 L 604.3 428.0 Q 604.7 427.1, 605.0 426.3 Q 605.2 425.5, 605.2 424.5 Q 605.2 423.5, 605.0 422.7 Q 604.7 421.9, 604.3 421.0 L 604.7 420.8 Q 605.3 421.7, 605.6 422.6 Q 605.9 423.5, 605.9 424.5 " fill="#000000"/>
<path class="legend" d="M 572.1 583.6 Q 572.6 583.6, 573.2 583.4 L 573.7 584.7 Q 572.8 585.0, 572.0 585.0 Q 570.6 585.0, 569.6 584.2 Q 568.7 583.3, 568.6 581.7 Q 566.5 581.4, 565.4 579.9 Q 564.3 578.4, 564.3 575.9 Q 564.3 573.2, 565.6 571.6 Q 567.0 570.1, 569.5 570.1 Q 572.0 570.1, 573.3 571.6 Q 574.7 573.2, 574.7 575.9 Q 574.7 578.5, 573.4 580.1 Q 572.2 581.6, 569.9 581.7 Q 570.0 582.6, 570.6 583.1 Q 571.2 583.6, 572.1 583.6 M 565.9 575.9 Q 565.9 578.2, 566.8 579.3 Q 567.7 580.5, 569.5 580.5 Q 571.2 580.5, 572.1 579.3 Q 573.1 578.2, 573.1 575.9 Q 573.1 573.7, 572.1 572.5 Q 571.2 571.4, 569.5 571.4 Q 567.7 571.4, 566.8 572.5 Q 565.9 573.6, 565.9 575.9 " fill="#000000"/>
<path class="legend" d="M 577.6 570.2 L 577.6 577.9 Q 577.6 579.2, 578.4 579.8 Q 579.1 580.4, 580.5 580.4 Q 581.9 580.4, 582.7 579.8 Q 583.4 579.2, 583.4 578.0 L 583.4 570.2 L 584.9 570.2 L 584.9 578.0 Q 584.9 579.8, 583.8 580.7 Q 582.7 581.7, 580.5 581.7 Q 578.3 581.7, 577.2 580.7 Q 576.1 579.8, 576.1 578.0 L 576.1 570.2 L 577.6 570.2 " fill="#000000"/>
<path class="legend" d="M 586.8 570.2 L 588.3 570.2 L 588.3 581.6 L 586.8 581.6 L 586.8 570.2 " fill="#000000"/>
<path class="legend" d="M 592.2 570.2 L 595.9 576.2 Q 596.3 576.8, 596.8 577.9 Q 597.4 579.0, 597.5 579.0 L 597.5 570.2 L 599.0 570.2 L 599.0 581.6 L 597.4 581.6 L 593.4 575.0 Q 593.0 574.2, 592.5 573.4 Q 592.0 572.5, 591.9 572.2 L 591.9 581.6 L 590.4 581.6 L 590.4 570.2 L 592.2 570.2 " fill="#000000"/>
<path class="legend" d="M 600.9 570.2 L 602.5 570.2 L 602.5 581.6 L 600.9 581.6 L 600.9 570.2 " fill="#000000"/>
<path class="legend" d="M 608.2 570.2 Q 610.7 570.2, 612.0 571.7 Q 613.4 573.2, 613.4 575.9 Q 613.4 578.6, 612.0 580.1 Q 610.7 581.6, 608.2 581.6 L 604.5 581.6 L 604.5 570.2 L 608.2 570.2 M 608.2 580.3 Q 609.9 580.3, 610.8 579.2 Q 611.8 578.1, 611.8 575.9 Q 611.8 573.7, 610.8 572.6 Q 609.9 571.5, 608.2 571.5 L 606.0 571.5 L 606.0 580.3 L 608.2 580.3 " fill="#000000"/>
<path class="legend" d="M 614.7 570.2 L 616.2 570.2 L 616.2 581.6 L 614.7 581.6 L 614.7 570.2 " fill="#000000"/>
<path class="legend" d="M 620.1 570.2 L 623.8 576.2 Q 624.1 576.8, 624.7 577.9 Q 625.3 579.0, 625.4 579.0 L 625.4 570.2 L 626.9 570.2 L 626.9 581.6 L 625.3 581.6 L 621.3 575.0 Q 620.9 574.2, 620.4 573.4 Q 619.9 572.5, 619.7 572.2 L 619.7 581.6 L 618.3 581.6 L 618.3 570.2 L 620.1 570.2 " fill="#000000"/>
<path class="legend" d="M 628.8 570.2 L 635.6 570.2 L 635.6 571.5 L 630.3 571.5 L 630.3 575.0 L 635.0 575.0 L 635.0 576.3 L 630.3 576.3 L 630.3 580.2 L 635.7 580.2 L 635.7 581.6 L 628.8 581.6 L 628.8 570.2 " fill="#000000"/>
</svg>