<svg xmlns="http://www.w3.org/2000/svg" xmlns:rdkit="http://www.rdkit.org/xml" xmlns:xlink="http://www.w3.org/1999/xlink" version="1.1" baseProfile="full" xml:space="preserve" width="1200px" height="400px" viewBox="0 0 1200 400">
<!-- END OF HEADER -->
<rect style="opacity:1.0;fill:#FFFFFF;stroke:none" width="1200.0" height="400.0" x="0.0" y="0.0"> </rect>
<path class="bond-0 atom-0 atom-1" d="M 228.3,224.0 L 228.2,208.9" style="fill:none;fill-rule:evenodd;stroke:#FF0000;stroke-width:2.0px;stroke-linecap:butt;stroke-linejoin:miter;stroke-opacity:1"/>
<path class="bond-0 atom-0 atom-1" d="M 228.2,208.9 L 228.0,193.7" style="fill:none;fill-rule:evenodd;stroke:#000000;stroke-width:2.0px;stroke-linecap:butt;stroke-linejoin:miter;stroke-opacity:1"/>
<path class="bond-0 atom-0 atom-1" d="M 233.6,224.0 L 233.4,208.8" style="fill:none;fill-rule:evenodd;stroke:#FF0000;stroke-width:2.0px;stroke-linecap:butt;stroke-linejoin:miter;stroke-opacity:1"/>
<path class="bond-0 atom-0 atom-1" d="M 233.4,208.8 L 233.2,193.7" style="fill:none;fill-rule:evenodd;stroke:#000000;stroke-width:2.0px;stroke-linecap:butt;stroke-linejoin:miter;stroke-opacity:1"/>
<path class="bond-1 atom-1 atom-2" d="M 230.6,195.2 L 260.7,177.4" style="fill:none;fill-rule:evenodd;stroke:#000000;stroke-width:2.0px;stroke-linecap:butt;stroke-linejoin:miter;stroke-opacity:1"/>
<path class="bond-2 atom-2 atom-3" d="M 260.7,177.4 L 291.1,194.6" style="fill:none;fill-rule:evenodd;stroke:#000000;stroke-width:2.0px;stroke-linecap:butt;stroke-linejoin:miter;stroke-opacity:1"/>
<path class="bond-2 atom-2 atom-3" d="M 260.8,183.5 L 288.6,199.1" style="fill:none;fill-rule:evenodd;stroke:#000000;stroke-width:2.0px;stroke-linecap:butt;stroke-linejoin:miter;stroke-opacity:1"/>
<path class="bond-3 atom-3 atom-4" d="M 291.1,194.6 L 321.2,176.8" style="fill:none;fill-rule:evenodd;stroke:#000000;stroke-width:2.0px;stroke-linecap:butt;stroke-linejoin:miter;stroke-opacity:1"/>
<path class="bond-4 atom-4 atom-5" d="M 321.2,176.8 L 351.7,193.9" style="fill:none;fill-rule:evenodd;stroke:#000000;stroke-width:2.0px;stroke-linecap:butt;stroke-linejoin:miter;stroke-opacity:1"/>
<path class="bond-4 atom-4 atom-5" d="M 326.4,173.7 L 351.6,187.9" style="fill:none;fill-rule:evenodd;stroke:#000000;stroke-width:2.0px;stroke-linecap:butt;stroke-linejoin:miter;stroke-opacity:1"/>
<path class="bond-5 atom-5 atom-6" d="M 351.7,193.9 L 381.7,176.1" style="fill:none;fill-rule:evenodd;stroke:#000000;stroke-width:2.0px;stroke-linecap:butt;stroke-linejoin:miter;stroke-opacity:1"/>
<path class="bond-6 atom-6 atom-7" d="M 381.7,176.1 L 381.4,141.2" style="fill:none;fill-rule:evenodd;stroke:#000000;stroke-width:2.0px;stroke-linecap:butt;stroke-linejoin:miter;stroke-opacity:1"/>
<path class="bond-6 atom-6 atom-7" d="M 376.5,173.2 L 376.2,144.3" style="fill:none;fill-rule:evenodd;stroke:#000000;stroke-width:2.0px;stroke-linecap:butt;stroke-linejoin:miter;stroke-opacity:1"/>
<path class="bond-7 atom-7 atom-8" d="M 381.4,141.2 L 350.9,124.0" style="fill:none;fill-rule:evenodd;stroke:#000000;stroke-width:2.0px;stroke-linecap:butt;stroke-linejoin:miter;stroke-opacity:1"/>
<path class="bond-8 atom-8 atom-9" d="M 350.9,124.0 L 320.8,141.8" style="fill:none;fill-rule:evenodd;stroke:#000000;stroke-width:2.0px;stroke-linecap:butt;stroke-linejoin:miter;stroke-opacity:1"/>
<path class="bond-8 atom-8 atom-9" d="M 351.0,130.1 L 326.1,144.8" style="fill:none;fill-rule:evenodd;stroke:#000000;stroke-width:2.0px;stroke-linecap:butt;stroke-linejoin:miter;stroke-opacity:1"/>
<path class="bond-9 atom-1 atom-10" d="M 230.6,195.2 L 200.2,178.1" style="fill:none;fill-rule:evenodd;stroke:#000000;stroke-width:2.0px;stroke-linecap:butt;stroke-linejoin:miter;stroke-opacity:1"/>
<path class="bond-10 atom-10 atom-11" d="M 200.2,178.1 L 199.8,143.1" style="fill:none;fill-rule:evenodd;stroke:#000000;stroke-width:2.0px;stroke-linecap:butt;stroke-linejoin:miter;stroke-opacity:1"/>
<path class="bond-11 atom-11 atom-12" d="M 199.8,143.1 L 169.4,126.0" style="fill:none;fill-rule:evenodd;stroke:#000000;stroke-width:2.0px;stroke-linecap:butt;stroke-linejoin:miter;stroke-opacity:1"/>
<path class="bond-12 atom-12 atom-13" d="M 169.4,126.0 L 139.3,143.8" style="fill:none;fill-rule:evenodd;stroke:#000000;stroke-width:2.0px;stroke-linecap:butt;stroke-linejoin:miter;stroke-opacity:1"/>
<path class="bond-13 atom-13 atom-14" d="M 139.3,143.8 L 139.7,178.7" style="fill:none;fill-rule:evenodd;stroke:#000000;stroke-width:2.0px;stroke-linecap:butt;stroke-linejoin:miter;stroke-opacity:1"/>
<path class="bond-14 atom-14 atom-15" d="M 139.7,178.7 L 109.6,196.5" style="fill:none;fill-rule:evenodd;stroke:#000000;stroke-width:2.0px;stroke-linecap:butt;stroke-linejoin:miter;stroke-opacity:1"/>
<path class="bond-14 atom-14 atom-15" d="M 134.4,175.7 L 109.5,190.4" style="fill:none;fill-rule:evenodd;stroke:#000000;stroke-width:2.0px;stroke-linecap:butt;stroke-linejoin:miter;stroke-opacity:1"/>
<path class="bond-15 atom-15 atom-16" d="M 109.6,196.5 L 79.2,179.4" style="fill:none;fill-rule:evenodd;stroke:#000000;stroke-width:2.0px;stroke-linecap:butt;stroke-linejoin:miter;stroke-opacity:1"/>
<path class="bond-16 atom-16 atom-17" d="M 79.2,179.4 L 78.8,144.4" style="fill:none;fill-rule:evenodd;stroke:#000000;stroke-width:2.0px;stroke-linecap:butt;stroke-linejoin:miter;stroke-opacity:1"/>
<path class="bond-16 atom-16 atom-17" d="M 73.9,176.4 L 73.6,147.5" style="fill:none;fill-rule:evenodd;stroke:#000000;stroke-width:2.0px;stroke-linecap:butt;stroke-linejoin:miter;stroke-opacity:1"/>
<path class="bond-17 atom-17 atom-18" d="M 78.8,144.4 L 48.3,127.3" style="fill:none;fill-rule:evenodd;stroke:#000000;stroke-width:2.0px;stroke-linecap:butt;stroke-linejoin:miter;stroke-opacity:1"/>
<path class="bond-18 atom-18 atom-19" d="M 48.3,127.3 L 18.3,145.1" style="fill:none;fill-rule:evenodd;stroke:#000000;stroke-width:2.0px;stroke-linecap:butt;stroke-linejoin:miter;stroke-opacity:1"/>
<path class="bond-18 atom-18 atom-19" d="M 48.4,133.3 L 23.5,148.0" style="fill:none;fill-rule:evenodd;stroke:#000000;stroke-width:2.0px;stroke-linecap:butt;stroke-linejoin:miter;stroke-opacity:1"/>
<path class="bond-19 atom-19 atom-20" d="M 18.3,145.1 L 18.6,180.0" style="fill:none;fill-rule:evenodd;stroke:#000000;stroke-width:2.0px;stroke-linecap:butt;stroke-linejoin:miter;stroke-opacity:1"/>
<path class="bond-20 atom-20 atom-21" d="M 18.6,180.0 L 49.1,197.1" style="fill:none;fill-rule:evenodd;stroke:#000000;stroke-width:2.0px;stroke-linecap:butt;stroke-linejoin:miter;stroke-opacity:1"/>
<path class="bond-20 atom-20 atom-21" d="M 23.8,176.9 L 49.0,191.1" style="fill:none;fill-rule:evenodd;stroke:#000000;stroke-width:2.0px;stroke-linecap:butt;stroke-linejoin:miter;stroke-opacity:1"/>
<path class="bond-21 atom-14 atom-22" d="M 139.7,178.7 L 170.1,195.9" style="fill:none;fill-rule:evenodd;stroke:#000000;stroke-width:2.0px;stroke-linecap:butt;stroke-linejoin:miter;stroke-opacity:1"/>
<path class="bond-22 atom-22 atom-23" d="M 167.5,194.4 L 167.6,209.5" style="fill:none;fill-rule:evenodd;stroke:#000000;stroke-width:2.0px;stroke-linecap:butt;stroke-linejoin:miter;stroke-opacity:1"/>
<path class="bond-22 atom-22 atom-23" d="M 167.6,209.5 L 167.8,224.7" style="fill:none;fill-rule:evenodd;stroke:#FF0000;stroke-width:2.0px;stroke-linecap:butt;stroke-linejoin:miter;stroke-opacity:1"/>
<path class="bond-22 atom-22 atom-23" d="M 172.7,194.3 L 172.9,209.5" style="fill:none;fill-rule:evenodd;stroke:#000000;stroke-width:2.0px;stroke-linecap:butt;stroke-linejoin:miter;stroke-opacity:1"/>
<path class="bond-22 atom-22 atom-23" d="M 172.9,209.5 L 173.0,224.6" style="fill:none;fill-rule:evenodd;stroke:#FF0000;stroke-width:2.0px;stroke-linecap:butt;stroke-linejoin:miter;stroke-opacity:1"/>
<path class="bond-23 atom-9 atom-4" d="M 320.8,141.8 L 321.2,176.8" style="fill:none;fill-rule:evenodd;stroke:#000000;stroke-width:2.0px;stroke-linecap:butt;stroke-linejoin:miter;stroke-opacity:1"/>
<path class="bond-24 atom-22 atom-10" d="M 170.1,195.9 L 200.2,178.1" style="fill:none;fill-rule:evenodd;stroke:#000000;stroke-width:2.0px;stroke-linecap:butt;stroke-linejoin:miter;stroke-opacity:1"/>
<path class="bond-25 atom-21 atom-16" d="M 49.1,197.1 L 79.2,179.4" style="fill:none;fill-rule:evenodd;stroke:#000000;stroke-width:2.0px;stroke-linecap:butt;stroke-linejoin:miter;stroke-opacity:1"/>
<path d="M 232.1,194.3 L 230.6,195.2 L 229.1,194.4" style="fill:none;stroke:#000000;stroke-width:2.0px;stroke-linecap:butt;stroke-linejoin:miter;stroke-opacity:1;"/>
<path d="M 259.2,178.3 L 260.7,177.4 L 262.2,178.3" style="fill:none;stroke:#000000;stroke-width:2.0px;stroke-linecap:butt;stroke-linejoin:miter;stroke-opacity:1;"/>
<path d="M 289.6,193.7 L 291.1,194.6 L 292.7,193.7" style="fill:none;stroke:#000000;stroke-width:2.0px;stroke-linecap:butt;stroke-linejoin:miter;stroke-opacity:1;"/>
<path d="M 350.1,193.1 L 351.7,193.9 L 353.2,193.0" style="fill:none;stroke:#000000;stroke-width:2.0px;stroke-linecap:butt;stroke-linejoin:miter;stroke-opacity:1;"/>
<path d="M 380.2,177.0 L 381.7,176.1 L 381.7,174.4" style="fill:none;stroke:#000000;stroke-width:2.0px;stroke-linecap:butt;stroke-linejoin:miter;stroke-opacity:1;"/>
<path d="M 381.4,142.9 L 381.4,141.2 L 379.8,140.3" style="fill:none;stroke:#000000;stroke-width:2.0px;stroke-linecap:butt;stroke-linejoin:miter;stroke-opacity:1;"/>
<path d="M 352.4,124.9 L 350.9,124.0 L 349.4,124.9" style="fill:none;stroke:#000000;stroke-width:2.0px;stroke-linecap:butt;stroke-linejoin:miter;stroke-opacity:1;"/>
<path d="M 322.4,140.9 L 320.8,141.8 L 320.9,143.6" style="fill:none;stroke:#000000;stroke-width:2.0px;stroke-linecap:butt;stroke-linejoin:miter;stroke-opacity:1;"/>
<path d="M 199.8,144.9 L 199.8,143.1 L 198.3,142.3" style="fill:none;stroke:#000000;stroke-width:2.0px;stroke-linecap:butt;stroke-linejoin:miter;stroke-opacity:1;"/>
<path d="M 170.9,126.8 L 169.4,126.0 L 167.9,126.9" style="fill:none;stroke:#000000;stroke-width:2.0px;stroke-linecap:butt;stroke-linejoin:miter;stroke-opacity:1;"/>
<path d="M 140.8,142.9 L 139.3,143.8 L 139.3,145.5" style="fill:none;stroke:#000000;stroke-width:2.0px;stroke-linecap:butt;stroke-linejoin:miter;stroke-opacity:1;"/>
<path d="M 111.1,195.6 L 109.6,196.5 L 108.1,195.6" style="fill:none;stroke:#000000;stroke-width:2.0px;stroke-linecap:butt;stroke-linejoin:miter;stroke-opacity:1;"/>
<path d="M 78.8,146.2 L 78.8,144.4 L 77.3,143.6" style="fill:none;stroke:#000000;stroke-width:2.0px;stroke-linecap:butt;stroke-linejoin:miter;stroke-opacity:1;"/>
<path d="M 49.9,128.1 L 48.3,127.3 L 46.8,128.2" style="fill:none;stroke:#000000;stroke-width:2.0px;stroke-linecap:butt;stroke-linejoin:miter;stroke-opacity:1;"/>
<path d="M 19.8,144.2 L 18.3,145.1 L 18.3,146.8" style="fill:none;stroke:#000000;stroke-width:2.0px;stroke-linecap:butt;stroke-linejoin:miter;stroke-opacity:1;"/>
<path d="M 18.6,178.2 L 18.6,180.0 L 20.2,180.9" style="fill:none;stroke:#000000;stroke-width:2.0px;stroke-linecap:butt;stroke-linejoin:miter;stroke-opacity:1;"/>
<path d="M 47.6,196.3 L 49.1,197.1 L 50.6,196.3" style="fill:none;stroke:#000000;stroke-width:2.0px;stroke-linecap:butt;stroke-linejoin:miter;stroke-opacity:1;"/>
<path d="M 168.6,195.0 L 170.1,195.9 L 171.6,195.0" style="fill:none;stroke:#000000;stroke-width:2.0px;stroke-linecap:butt;stroke-linejoin:miter;stroke-opacity:1;"/>
<path class="atom-0" d="M 226.5 230.2 Q 226.5 227.8, 227.6 226.5 Q 228.8 225.1, 231.0 225.1 Q 233.2 225.1, 234.4 226.5 Q 235.5 227.8, 235.5 230.2 Q 235.5 232.6, 234.4 234.0 Q 233.2 235.3, 231.0 235.3 Q 228.8 235.3, 227.6 234.0 Q 226.5 232.6, 226.5 230.2 M 231.0 234.2 Q 232.5 234.2, 233.3 233.2 Q 234.1 232.2, 234.1 230.2 Q 234.1 228.2, 233.3 227.3 Q 232.5 226.3, 231.0 226.3 Q 229.5 226.3, 228.7 227.2 Q 227.9 228.2, 227.9 230.2 Q 227.9 232.2, 228.7 233.2 Q 229.5 234.2, 231.0 234.2 " fill="#FF0000"/>
<path class="atom-23" d="M 165.9 230.8 Q 165.9 228.4, 167.1 227.1 Q 168.3 225.8, 170.5 225.8 Q 172.7 225.8, 173.9 227.1 Q 175.0 228.4, 175.0 230.8 Q 175.0 233.2, 173.8 234.6 Q 172.7 236.0, 170.5 236.0 Q 168.3 236.0, 167.1 234.6 Q 165.9 233.2, 165.9 230.8 M 170.5 234.8 Q 172.0 234.8, 172.8 233.8 Q 173.6 232.8, 173.6 230.8 Q 173.6 228.9, 172.8 227.9 Q 172.0 226.9, 170.5 226.9 Q 169.0 226.9, 168.2 227.9 Q 167.3 228.9, 167.3 230.8 Q 167.3 232.8, 168.2 233.8 Q 169.0 234.8, 170.5 234.8 " fill="#FF0000"/>
<path class="note" d="M 275.8 180.7 Q 275.8 179.7, 276.1 178.9 Q 276.4 178.0, 277.0 177.1 L 277.4 177.4 Q 276.9 178.2, 276.7 179.0 Q 276.5 179.7, 276.5 180.7 Q 276.5 181.6, 276.7 182.4 Q 276.9 183.1, 277.4 184.0 L 277.0 184.2 Q 276.4 183.3, 276.1 182.5 Q 275.8 181.7, 275.8 180.7 " fill="#000000"/>
<path class="note" d="M 277.8 177.7 L 280.7 177.7 L 280.7 178.3 L 278.4 178.3 L 278.4 179.8 L 280.5 179.8 L 280.5 180.4 L 278.4 180.4 L 278.4 182.1 L 280.8 182.1 L 280.8 182.7 L 277.8 182.7 L 277.8 177.7 " fill="#000000"/>
<path class="note" d="M 282.9 180.7 Q 282.9 181.7, 282.6 182.5 Q 282.3 183.3, 281.7 184.2 L 281.3 184.0 Q 281.8 183.1, 282.0 182.4 Q 282.2 181.6, 282.2 180.7 Q 282.2 179.7, 282.0 179.0 Q 281.8 178.2, 281.3 177.4 L 281.7 177.1 Q 282.3 178.0, 282.6 178.9 Q 282.9 179.7, 282.9 180.7 " fill="#000000"/>
<path class="note" d="M 124.7 194.4 Q 124.7 193.4, 125.0 192.6 Q 125.3 191.8, 125.8 190.9 L 126.2 191.1 Q 125.8 191.9, 125.5 192.7 Q 125.3 193.4, 125.3 194.4 Q 125.3 195.3, 125.5 196.1 Q 125.8 196.8, 126.2 197.7 L 125.8 197.9 Q 125.3 197.1, 125.0 196.2 Q 124.7 195.4, 124.7 194.4 " fill="#000000"/>
<path class="note" d="M 126.6 191.4 L 129.5 191.4 L 129.5 192.0 L 127.3 192.0 L 127.3 193.5 L 129.3 193.5 L 129.3 194.1 L 127.3 194.1 L 127.3 195.8 L 129.6 195.8 L 129.6 196.4 L 126.6 196.4 L 126.6 191.4 " fill="#000000"/>
<path class="note" d="M 131.7 194.4 Q 131.7 195.4, 131.4 196.2 Q 131.1 197.1, 130.6 197.9 L 130.2 197.7 Q 130.6 196.8, 130.8 196.1 Q 131.1 195.3, 131.1 194.4 Q 131.1 193.4, 130.8 192.7 Q 130.6 191.9, 130.2 191.1 L 130.6 190.9 Q 131.1 191.8, 131.4 192.6 Q 131.7 193.4, 131.7 194.4 " fill="#000000"/>
<path class="legend" d="M 153.9 380.4 Q 153.9 377.6, 155.3 376.1 Q 156.6 374.6, 159.1 374.6 Q 161.4 374.6, 162.7 376.3 L 161.6 377.1 Q 160.7 375.9, 159.1 375.9 Q 157.4 375.9, 156.5 377.1 Q 155.6 378.2, 155.6 380.4 Q 155.6 382.6, 156.5 383.8 Q 157.4 384.9, 159.3 384.9 Q 160.5 384.9, 162.0 384.2 L 162.4 385.4 Q 161.8 385.8, 160.9 386.0 Q 160.0 386.2, 159.0 386.2 Q 156.6 386.2, 155.3 384.7 Q 153.9 383.2, 153.9 380.4 " fill="#000000"/>
<path class="legend" d="M 164.0 382.0 Q 164.0 380.0, 165.0 378.8 Q 166.1 377.7, 167.9 377.7 Q 169.8 377.7, 170.8 378.8 Q 171.8 380.0, 171.8 382.0 Q 171.8 384.0, 170.8 385.1 Q 169.8 386.2, 167.9 386.2 Q 166.1 386.2, 165.0 385.1 Q 164.0 384.0, 164.0 382.0 M 165.6 382.0 Q 165.6 383.5, 166.2 384.2 Q 166.8 385.0, 167.9 385.0 Q 169.1 385.0, 169.7 384.2 Q 170.3 383.5, 170.3 382.0 Q 170.3 380.4, 169.7 379.7 Q 169.1 378.9, 167.9 378.9 Q 166.8 378.9, 166.2 379.7 Q 165.6 380.4, 165.6 382.0 " fill="#000000"/>
<path class="legend" d="M 182.8 377.7 Q 184.2 377.7, 184.9 378.5 Q 185.6 379.2, 185.6 380.6 L 185.6 386.1 L 184.1 386.1 L 184.1 380.8 Q 184.1 379.8, 183.7 379.3 Q 183.4 378.9, 182.5 378.9 Q 181.8 378.9, 181.2 379.2 Q 180.6 379.6, 180.2 380.2 Q 180.2 380.3, 180.2 380.6 L 180.2 386.1 L 178.7 386.1 L 178.7 380.8 Q 178.7 379.8, 178.3 379.3 Q 178.0 378.9, 177.1 378.9 Q 176.4 378.9, 175.8 379.2 Q 175.2 379.6, 174.8 380.2 L 174.8 386.1 L 173.3 386.1 L 173.3 377.9 L 174.5 377.9 L 174.7 379.0 Q 175.8 377.7, 177.4 377.7 Q 179.4 377.7, 180.0 379.2 Q 181.1 377.7, 182.8 377.7 " fill="#000000"/>
<path class="legend" d="M 191.4 377.7 Q 193.1 377.7, 194.0 378.8 Q 195.0 379.8, 195.0 381.8 Q 195.0 383.9, 193.9 385.1 Q 192.8 386.2, 190.8 386.2 Q 189.9 386.2, 189.1 386.0 L 189.1 390.0 L 187.6 390.0 L 187.6 377.9 L 188.8 377.9 L 189.0 378.8 Q 189.4 378.3, 190.0 378.0 Q 190.6 377.7, 191.4 377.7 M 190.8 385.0 Q 192.0 385.0, 192.8 384.2 Q 193.5 383.3, 193.5 381.8 Q 193.5 380.4, 192.9 379.7 Q 192.3 378.9, 191.3 378.9 Q 190.5 378.9, 189.9 379.3 Q 189.3 379.8, 189.1 380.5 L 189.1 384.8 Q 189.9 385.0, 190.8 385.0 " fill="#000000"/>
<path class="legend" d="M 196.5 382.0 Q 196.5 380.0, 197.5 378.8 Q 198.5 377.7, 200.4 377.7 Q 202.2 377.7, 203.2 378.8 Q 204.3 380.0, 204.3 382.0 Q 204.3 384.0, 203.2 385.1 Q 202.2 386.2, 200.4 386.2 Q 198.5 386.2, 197.5 385.1 Q 196.5 384.0, 196.5 382.0 M 198.0 382.0 Q 198.0 383.5, 198.6 384.2 Q 199.2 385.0, 200.4 385.0 Q 201.5 385.0, 202.1 384.2 Q 202.7 383.5, 202.7 382.0 Q 202.7 380.4, 202.1 379.7 Q 201.5 378.9, 200.4 378.9 Q 199.2 378.9, 198.6 379.7 Q 198.0 380.4, 198.0 382.0 " fill="#000000"/>
<path class="legend" d="M 212.7 377.9 L 212.7 386.1 L 211.5 386.1 L 211.3 384.9 Q 210.2 386.2, 208.5 386.2 Q 207.1 386.2, 206.4 385.5 Q 205.7 384.7, 205.7 383.3 L 205.7 377.9 L 207.2 377.9 L 207.2 383.2 Q 207.2 384.2, 207.6 384.6 Q 208.0 385.0, 208.8 385.0 Q 209.6 385.0, 210.2 384.7 Q 210.8 384.4, 211.2 383.7 L 211.2 377.9 L 212.7 377.9 " fill="#000000"/>
<path class="legend" d="M 219.0 377.7 Q 220.3 377.7, 221.0 378.5 Q 221.7 379.2, 221.7 380.6 L 221.7 386.1 L 220.2 386.1 L 220.2 380.8 Q 220.2 379.8, 219.9 379.3 Q 219.5 378.9, 218.7 378.9 Q 217.9 378.9, 217.3 379.2 Q 216.7 379.6, 216.3 380.2 L 216.3 386.1 L 214.7 386.1 L 214.7 377.9 L 216.0 377.9 L 216.2 379.0 Q 217.3 377.7, 219.0 377.7 " fill="#000000"/>
<path class="legend" d="M 231.2 373.9 L 231.2 386.1 L 230.0 386.1 L 229.7 385.1 Q 228.8 386.2, 227.3 386.2 Q 225.6 386.2, 224.6 385.2 Q 223.7 384.1, 223.7 382.1 Q 223.7 380.0, 224.8 378.9 Q 226.0 377.7, 227.9 377.7 Q 228.8 377.7, 229.7 377.9 L 229.7 373.9 L 231.2 373.9 M 227.4 385.0 Q 228.2 385.0, 228.8 384.6 Q 229.4 384.1, 229.7 383.3 L 229.7 379.1 Q 228.8 378.9, 227.9 378.9 Q 226.7 378.9, 226.0 379.7 Q 225.2 380.6, 225.2 382.1 Q 225.2 383.5, 225.8 384.3 Q 226.4 385.0, 227.4 385.0 " fill="#000000"/>
<path class="legend" d="" fill="#000000"/>
<path class="legend" d="M 239.9 384.8 L 242.3 384.8 L 242.3 376.3 L 239.6 377.2 L 239.2 376.2 L 242.7 374.7 L 243.8 374.9 L 243.8 384.8 L 246.1 384.8 L 246.1 386.1 L 239.9 386.1 L 239.9 384.8 " fill="#000000"/>
<path class="bond-0 atom-0 atom-1" d="M 628.7,224.7 L 628.4,209.5" style="fill:none;fill-rule:evenodd;stroke:#FF0000;stroke-width:2.0px;stroke-linecap:butt;stroke-linejoin:miter;stroke-opacity:1"/>
<path class="bond-0 atom-0 atom-1" d="M 628.4,209.5 L 628.2,194.4" style="fill:none;fill-rule:evenodd;stroke:#000000;stroke-width:2.0px;stroke-linecap:butt;stroke-linejoin:miter;stroke-opacity:1"/>
<path class="bond-0 atom-0 atom-1" d="M 633.9,224.6 L 633.7,209.5" style="fill:none;fill-rule:evenodd;stroke:#FF0000;stroke-width:2.0px;stroke-linecap:butt;stroke-linejoin:miter;stroke-opacity:1"/>
<path class="bond-0 atom-0 atom-1" d="M 633.7,209.5 L 633.4,194.3" style="fill:none;fill-rule:evenodd;stroke:#000000;stroke-width:2.0px;stroke-linecap:butt;stroke-linejoin:miter;stroke-opacity:1"/>
<path class="bond-1 atom-1 atom-2" d="M 630.8,195.9 L 660.8,177.9" style="fill:none;fill-rule:evenodd;stroke:#000000;stroke-width:2.0px;stroke-linecap:butt;stroke-linejoin:miter;stroke-opacity:1"/>
<path class="bond-2 atom-2 atom-3" d="M 660.8,177.9 L 691.3,194.9" style="fill:none;fill-rule:evenodd;stroke:#000000;stroke-width:2.0px;stroke-linecap:butt;stroke-linejoin:miter;stroke-opacity:1"/>
<path class="bond-3 atom-3 atom-4" d="M 691.3,194.9 L 721.3,176.9" style="fill:none;fill-rule:evenodd;stroke:#000000;stroke-width:2.0px;stroke-linecap:butt;stroke-linejoin:miter;stroke-opacity:1"/>
<path class="bond-4 atom-4 atom-5" d="M 721.3,176.9 L 751.8,193.9" style="fill:none;fill-rule:evenodd;stroke:#000000;stroke-width:2.0px;stroke-linecap:butt;stroke-linejoin:miter;stroke-opacity:1"/>
<path class="bond-4 atom-4 atom-5" d="M 726.5,173.8 L 751.7,187.9" style="fill:none;fill-rule:evenodd;stroke:#000000;stroke-width:2.0px;stroke-linecap:butt;stroke-linejoin:miter;stroke-opacity:1"/>
<path class="bond-5 atom-5 atom-6" d="M 751.8,193.9 L 781.8,176.0" style="fill:none;fill-rule:evenodd;stroke:#000000;stroke-width:2.0px;stroke-linecap:butt;stroke-linejoin:miter;stroke-opacity:1"/>
<path class="bond-6 atom-6 atom-7" d="M 781.8,176.0 L 781.3,141.0" style="fill:none;fill-rule:evenodd;stroke:#000000;stroke-width:2.0px;stroke-linecap:butt;stroke-linejoin:miter;stroke-opacity:1"/>
<path class="bond-6 atom-6 atom-7" d="M 776.5,173.0 L 776.1,144.1" style="fill:none;fill-rule:evenodd;stroke:#000000;stroke-width:2.0px;stroke-linecap:butt;stroke-linejoin:miter;stroke-opacity:1"/>
<path class="bond-7 atom-7 atom-8" d="M 781.3,141.0 L 750.7,124.0" style="fill:none;fill-rule:evenodd;stroke:#000000;stroke-width:2.0px;stroke-linecap:butt;stroke-linejoin:miter;stroke-opacity:1"/>
<path class="bond-8 atom-8 atom-9" d="M 750.7,124.0 L 720.7,142.0" style="fill:none;fill-rule:evenodd;stroke:#000000;stroke-width:2.0px;stroke-linecap:butt;stroke-linejoin:miter;stroke-opacity:1"/>
<path class="bond-8 atom-8 atom-9" d="M 750.8,130.1 L 726.0,144.9" style="fill:none;fill-rule:evenodd;stroke:#000000;stroke-width:2.0px;stroke-linecap:butt;stroke-linejoin:miter;stroke-opacity:1"/>
<path class="bond-9 atom-1 atom-10" d="M 630.8,195.9 L 600.3,178.9" style="fill:none;fill-rule:evenodd;stroke:#000000;stroke-width:2.0px;stroke-linecap:butt;stroke-linejoin:miter;stroke-opacity:1"/>
<path class="bond-10 atom-10 atom-11" d="M 600.3,178.9 L 599.7,143.9" style="fill:none;fill-rule:evenodd;stroke:#000000;stroke-width:2.0px;stroke-linecap:butt;stroke-linejoin:miter;stroke-opacity:1"/>
<path class="bond-10 atom-10 atom-11" d="M 595.0,175.9 L 594.5,147.1" style="fill:none;fill-rule:evenodd;stroke:#000000;stroke-width:2.0px;stroke-linecap:butt;stroke-linejoin:miter;stroke-opacity:1"/>
<path class="bond-11 atom-11 atom-12" d="M 599.7,143.9 L 569.2,127.0" style="fill:none;fill-rule:evenodd;stroke:#000000;stroke-width:2.0px;stroke-linecap:butt;stroke-linejoin:miter;stroke-opacity:1"/>
<path class="bond-12 atom-12 atom-13" d="M 569.2,127.0 L 539.2,144.9" style="fill:none;fill-rule:evenodd;stroke:#000000;stroke-width:2.0px;stroke-linecap:butt;stroke-linejoin:miter;stroke-opacity:1"/>
<path class="bond-12 atom-12 atom-13" d="M 569.3,133.0 L 544.5,147.9" style="fill:none;fill-rule:evenodd;stroke:#000000;stroke-width:2.0px;stroke-linecap:butt;stroke-linejoin:miter;stroke-opacity:1"/>
<path class="bond-13 atom-13 atom-14" d="M 539.2,144.9 L 539.8,179.9" style="fill:none;fill-rule:evenodd;stroke:#000000;stroke-width:2.0px;stroke-linecap:butt;stroke-linejoin:miter;stroke-opacity:1"/>
<path class="bond-14 atom-14 atom-15" d="M 539.8,179.9 L 509.8,197.8" style="fill:none;fill-rule:evenodd;stroke:#000000;stroke-width:2.0px;stroke-linecap:butt;stroke-linejoin:miter;stroke-opacity:1"/>
<path class="bond-15 atom-15 atom-16" d="M 509.8,197.8 L 479.3,180.8" style="fill:none;fill-rule:evenodd;stroke:#000000;stroke-width:2.0px;stroke-linecap:butt;stroke-linejoin:miter;stroke-opacity:1"/>
<path class="bond-16 atom-16 atom-17" d="M 479.3,180.8 L 478.7,145.9" style="fill:none;fill-rule:evenodd;stroke:#000000;stroke-width:2.0px;stroke-linecap:butt;stroke-linejoin:miter;stroke-opacity:1"/>
<path class="bond-16 atom-16 atom-17" d="M 474.0,177.9 L 473.5,149.0" style="fill:none;fill-rule:evenodd;stroke:#000000;stroke-width:2.0px;stroke-linecap:butt;stroke-linejoin:miter;stroke-opacity:1"/>
<path class="bond-17 atom-17 atom-18" d="M 478.7,145.9 L 448.2,128.9" style="fill:none;fill-rule:evenodd;stroke:#000000;stroke-width:2.0px;stroke-linecap:butt;stroke-linejoin:miter;stroke-opacity:1"/>
<path class="bond-18 atom-18 atom-19" d="M 448.2,128.9 L 418.2,146.9" style="fill:none;fill-rule:evenodd;stroke:#000000;stroke-width:2.0px;stroke-linecap:butt;stroke-linejoin:miter;stroke-opacity:1"/>
<path class="bond-18 atom-18 atom-19" d="M 448.3,135.0 L 423.5,149.8" style="fill:none;fill-rule:evenodd;stroke:#000000;stroke-width:2.0px;stroke-linecap:butt;stroke-linejoin:miter;stroke-opacity:1"/>
<path class="bond-19 atom-19 atom-20" d="M 418.2,146.9 L 418.7,181.8" style="fill:none;fill-rule:evenodd;stroke:#000000;stroke-width:2.0px;stroke-linecap:butt;stroke-linejoin:miter;stroke-opacity:1"/>
<path class="bond-20 atom-20 atom-21" d="M 418.7,181.8 L 449.3,198.8" style="fill:none;fill-rule:evenodd;stroke:#000000;stroke-width:2.0px;stroke-linecap:butt;stroke-linejoin:miter;stroke-opacity:1"/>
<path class="bond-20 atom-20 atom-21" d="M 423.9,178.7 L 449.2,192.7" style="fill:none;fill-rule:evenodd;stroke:#000000;stroke-width:2.0px;stroke-linecap:butt;stroke-linejoin:miter;stroke-opacity:1"/>
<path class="bond-21 atom-14 atom-22" d="M 539.8,179.9 L 570.3,196.8" style="fill:none;fill-rule:evenodd;stroke:#000000;stroke-width:2.0px;stroke-linecap:butt;stroke-linejoin:miter;stroke-opacity:1"/>
<path class="bond-21 atom-14 atom-22" d="M 545.0,176.7 L 570.2,190.8" style="fill:none;fill-rule:evenodd;stroke:#000000;stroke-width:2.0px;stroke-linecap:butt;stroke-linejoin:miter;stroke-opacity:1"/>
<path class="bond-22 atom-9 atom-4" d="M 720.7,142.0 L 721.3,176.9" style="fill:none;fill-rule:evenodd;stroke:#000000;stroke-width:2.0px;stroke-linecap:butt;stroke-linejoin:miter;stroke-opacity:1"/>
<path class="bond-23 atom-22 atom-10" d="M 570.3,196.8 L 600.3,178.9" style="fill:none;fill-rule:evenodd;stroke:#000000;stroke-width:2.0px;stroke-linecap:butt;stroke-linejoin:miter;stroke-opacity:1"/>
<path class="bond-24 atom-21 atom-16" d="M 449.3,198.8 L 479.3,180.8" style="fill:none;fill-rule:evenodd;stroke:#000000;stroke-width:2.0px;stroke-linecap:butt;stroke-linejoin:miter;stroke-opacity:1"/>
<path d="M 632.3,195.0 L 630.8,195.9 L 629.3,195.0" style="fill:none;stroke:#000000;stroke-width:2.0px;stroke-linecap:butt;stroke-linejoin:miter;stroke-opacity:1;"/>
<path d="M 659.3,178.8 L 660.8,177.9 L 662.3,178.8" style="fill:none;stroke:#000000;stroke-width:2.0px;stroke-linecap:butt;stroke-linejoin:miter;stroke-opacity:1;"/>
<path d="M 689.8,194.0 L 691.3,194.9 L 692.8,194.0" style="fill:none;stroke:#000000;stroke-width:2.0px;stroke-linecap:butt;stroke-linejoin:miter;stroke-opacity:1;"/>
<path d="M 750.3,193.1 L 751.8,193.9 L 753.3,193.0" style="fill:none;stroke:#000000;stroke-width:2.0px;stroke-linecap:butt;stroke-linejoin:miter;stroke-opacity:1;"/>
<path d="M 780.3,176.9 L 781.8,176.0 L 781.8,174.2" style="fill:none;stroke:#000000;stroke-width:2.0px;stroke-linecap:butt;stroke-linejoin:miter;stroke-opacity:1;"/>
<path d="M 781.3,142.8 L 781.3,141.0 L 779.7,140.2" style="fill:none;stroke:#000000;stroke-width:2.0px;stroke-linecap:butt;stroke-linejoin:miter;stroke-opacity:1;"/>
<path d="M 752.2,124.9 L 750.7,124.0 L 749.2,124.9" style="fill:none;stroke:#000000;stroke-width:2.0px;stroke-linecap:butt;stroke-linejoin:miter;stroke-opacity:1;"/>
<path d="M 722.2,141.1 L 720.7,142.0 L 720.8,143.7" style="fill:none;stroke:#000000;stroke-width:2.0px;stroke-linecap:butt;stroke-linejoin:miter;stroke-opacity:1;"/>
<path d="M 599.7,145.7 L 599.7,143.9 L 598.2,143.1" style="fill:none;stroke:#000000;stroke-width:2.0px;stroke-linecap:butt;stroke-linejoin:miter;stroke-opacity:1;"/>
<path d="M 570.7,127.8 L 569.2,127.0 L 567.7,127.9" style="fill:none;stroke:#000000;stroke-width:2.0px;stroke-linecap:butt;stroke-linejoin:miter;stroke-opacity:1;"/>
<path d="M 540.7,144.0 L 539.2,144.9 L 539.2,146.7" style="fill:none;stroke:#000000;stroke-width:2.0px;stroke-linecap:butt;stroke-linejoin:miter;stroke-opacity:1;"/>
<path d="M 511.3,196.9 L 509.8,197.8 L 508.3,197.0" style="fill:none;stroke:#000000;stroke-width:2.0px;stroke-linecap:butt;stroke-linejoin:miter;stroke-opacity:1;"/>
<path d="M 478.7,147.6 L 478.7,145.9 L 477.2,145.0" style="fill:none;stroke:#000000;stroke-width:2.0px;stroke-linecap:butt;stroke-linejoin:miter;stroke-opacity:1;"/>
<path d="M 449.7,129.8 L 448.2,128.9 L 446.7,129.8" style="fill:none;stroke:#000000;stroke-width:2.0px;stroke-linecap:butt;stroke-linejoin:miter;stroke-opacity:1;"/>
<path d="M 419.7,146.0 L 418.2,146.9 L 418.2,148.6" style="fill:none;stroke:#000000;stroke-width:2.0px;stroke-linecap:butt;stroke-linejoin:miter;stroke-opacity:1;"/>
<path d="M 418.7,180.0 L 418.7,181.8 L 420.3,182.6" style="fill:none;stroke:#000000;stroke-width:2.0px;stroke-linecap:butt;stroke-linejoin:miter;stroke-opacity:1;"/>
<path d="M 447.8,197.9 L 449.3,198.8 L 450.8,197.9" style="fill:none;stroke:#000000;stroke-width:2.0px;stroke-linecap:butt;stroke-linejoin:miter;stroke-opacity:1;"/>
<path d="M 568.8,196.0 L 570.3,196.8 L 571.8,195.9" style="fill:none;stroke:#000000;stroke-width:2.0px;stroke-linecap:butt;stroke-linejoin:miter;stroke-opacity:1;"/>
<path class="atom-0" d="M 626.8 230.8 Q 626.8 228.5, 628.0 227.1 Q 629.2 225.8, 631.4 225.8 Q 633.6 225.8, 634.7 227.1 Q 635.9 228.5, 635.9 230.8 Q 635.9 233.2, 634.7 234.6 Q 633.5 236.0, 631.4 236.0 Q 629.2 236.0, 628.0 234.6 Q 626.8 233.2, 626.8 230.8 M 631.4 234.8 Q 632.9 234.8, 633.7 233.8 Q 634.5 232.8, 634.5 230.8 Q 634.5 228.9, 633.7 227.9 Q 632.9 226.9, 631.4 226.9 Q 629.9 226.9, 629.0 227.9 Q 628.2 228.9, 628.2 230.8 Q 628.2 232.8, 629.0 233.8 Q 629.9 234.8, 631.4 234.8 " fill="#FF0000"/>
<path class="legend" d="M 553.5 380.4 Q 553.5 377.6, 554.8 376.1 Q 556.1 374.6, 558.7 374.6 Q 561.0 374.6, 562.2 376.3 L 561.2 377.1 Q 560.3 375.9, 558.7 375.9 Q 556.9 375.9, 556.0 377.1 Q 555.1 378.2, 555.1 380.4 Q 555.1 382.6, 556.1 383.8 Q 557.0 384.9, 558.8 384.9 Q 560.1 384.9, 561.5 384.2 L 562.0 385.4 Q 561.4 385.8, 560.5 386.0 Q 559.6 386.2, 558.6 386.2 Q 556.1 386.2, 554.8 384.7 Q 553.5 383.2, 553.5 380.4 " fill="#000000"/>
<path class="legend" d="M 563.6 382.0 Q 563.6 380.0, 564.6 378.8 Q 565.6 377.7, 567.5 377.7 Q 569.4 377.7, 570.4 378.8 Q 571.4 380.0, 571.4 382.0 Q 571.4 384.0, 570.4 385.1 Q 569.4 386.2, 567.5 386.2 Q 565.6 386.2, 564.6 385.1 Q 563.6 384.0, 563.6 382.0 M 565.1 382.0 Q 565.1 383.5, 565.8 384.2 Q 566.4 385.0, 567.5 385.0 Q 568.7 385.0, 569.3 384.2 Q 569.9 383.5, 569.9 382.0 Q 569.9 380.4, 569.3 379.7 Q 568.7 378.9, 567.5 378.9 Q 566.4 378.9, 565.8 379.7 Q 565.1 380.4, 565.1 382.0 " fill="#000000"/>
<path class="legend" d="M 582.4 377.7 Q 583.8 377.7, 584.5 378.5 Q 585.2 379.2, 585.2 380.6 L 585.2 386.1 L 583.7 386.1 L 583.7 380.8 Q 583.7 379.8, 583.3 379.3 Q 582.9 378.9, 582.1 378.9 Q 581.4 378.9, 580.8 379.2 Q 580.2 379.6, 579.8 380.2 Q 579.8 380.3, 579.8 380.6 L 579.8 386.1 L 578.3 386.1 L 578.3 380.8 Q 578.3 379.8, 577.9 379.3 Q 577.5 378.9, 576.7 378.9 Q 576.0 378.9, 575.4 379.2 Q 574.8 379.6, 574.4 380.2 L 574.4 386.1 L 572.9 386.1 L 572.9 377.9 L 574.1 377.9 L 574.3 379.0 Q 575.4 377.7, 577.0 377.7 Q 578.9 377.7, 579.5 379.2 Q 580.6 377.7, 582.4 377.7 " fill="#000000"/>
<path class="legend" d="M 591.0 377.7 Q 592.7 377.7, 593.6 378.8 Q 594.6 379.8, 594.6 381.8 Q 594.6 383.9, 593.5 385.1 Q 592.3 386.2, 590.4 386.2 Q 589.4 386.2, 588.7 386.0 L 588.7 390.0 L 587.2 390.0 L 587.2 377.9 L 588.4 377.9 L 588.6 378.8 Q 589.0 378.3, 589.6 378.0 Q 590.2 377.7, 591.0 377.7 M 590.4 385.0 Q 591.6 385.0, 592.3 384.2 Q 593.1 383.3, 593.1 381.8 Q 593.1 380.4, 592.5 379.7 Q 591.9 378.9, 590.9 378.9 Q 590.1 378.9, 589.5 379.3 Q 588.9 379.8, 588.7 380.5 L 588.7 384.8 Q 589.5 385.0, 590.4 385.0 " fill="#000000"/>
<path class="legend" d="M 596.0 382.0 Q 596.0 380.0, 597.1 378.8 Q 598.1 377.7, 600.0 377.7 Q 601.8 377.7, 602.8 378.8 Q 603.9 380.0, 603.9 382.0 Q 603.9 384.0, 602.8 385.1 Q 601.8 386.2, 600.0 386.2 Q 598.1 386.2, 597.1 385.1 Q 596.0 384.0, 596.0 382.0 M 597.6 382.0 Q 597.6 383.5, 598.2 384.2 Q 598.8 385.0, 600.0 385.0 Q 601.1 385.0, 601.7 384.2 Q 602.3 383.5, 602.3 382.0 Q 602.3 380.4, 601.7 379.7 Q 601.1 378.9, 600.0 378.9 Q 598.8 378.9, 598.2 379.7 Q 597.6 380.4, 597.6 382.0 " fill="#000000"/>
<path class="legend" d="M 612.3 377.9 L 612.3 386.1 L 611.1 386.1 L 610.9 384.9 Q 609.8 386.2, 608.1 386.2 Q 606.7 386.2, 606.0 385.5 Q 605.3 384.7, 605.3 383.3 L 605.3 377.9 L 606.8 377.9 L 606.8 383.2 Q 606.8 384.2, 607.2 384.6 Q 607.6 385.0, 608.4 385.0 Q 609.2 385.0, 609.8 384.7 Q 610.4 384.4, 610.8 383.7 L 610.8 377.9 L 612.3 377.9 " fill="#000000"/>
<path class="legend" d="M 618.6 377.7 Q 620.0 377.7, 620.6 378.5 Q 621.4 379.2, 621.4 380.6 L 621.4 386.1 L 619.8 386.1 L 619.8 380.8 Q 619.8 379.8, 619.5 379.3 Q 619.1 378.9, 618.3 378.9 Q 617.5 378.9, 616.9 379.2 Q 616.3 379.6, 615.9 380.2 L 615.9 386.1 L 614.4 386.1 L 614.4 377.9 L 615.6 377.9 L 615.8 379.0 Q 616.9 377.7, 618.6 377.7 " fill="#000000"/>
<path class="legend" d="M 630.8 373.9 L 630.8 386.1 L 629.6 386.1 L 629.4 385.1 Q 628.5 386.2, 626.9 386.2 Q 625.2 386.2, 624.3 385.2 Q 623.3 384.1, 623.3 382.1 Q 623.3 380.0, 624.4 378.9 Q 625.6 377.7, 627.5 377.7 Q 628.4 377.7, 629.3 377.9 L 629.3 373.9 L 630.8 373.9 M 627.0 385.0 Q 627.9 385.0, 628.5 384.6 Q 629.1 384.1, 629.3 383.3 L 629.3 379.1 Q 628.5 378.9, 627.6 378.9 Q 626.3 378.9, 625.6 379.7 Q 624.9 380.6, 624.9 382.1 Q 624.9 383.5, 625.4 384.3 Q 626.0 385.0, 627.0 385.0 " fill="#000000"/>
<path class="legend" d="" fill="#000000"/>
<path class="legend" d="M 638.9 376.9 Q 639.3 375.8, 640.3 375.2 Q 641.3 374.6, 642.7 374.6 Q 644.4 374.6, 645.3 375.6 Q 646.3 376.5, 646.3 378.1 Q 646.3 379.8, 645.1 381.4 Q 643.8 382.9, 641.3 384.8 L 646.5 384.8 L 646.5 386.1 L 638.9 386.1 L 638.9 385.0 Q 641.0 383.5, 642.2 382.4 Q 643.5 381.3, 644.1 380.3 Q 644.7 379.2, 644.7 378.2 Q 644.7 377.1, 644.2 376.5 Q 643.6 375.9, 642.7 375.9 Q 641.8 375.9, 641.2 376.3 Q 640.5 376.6, 640.1 377.5 L 638.9 376.9 " fill="#000000"/>
<path class="bond-0 atom-0 atom-1" d="M 1028.3,224.0 L 1028.2,208.9" style="fill:none;fill-rule:evenodd;stroke:#FF0000;stroke-width:2.0px;stroke-linecap:butt;stroke-linejoin:miter;stroke-opacity:1"/>
<path class="bond-0 atom-0 atom-1" d="M 1028.2,208.9 L 1028.0,193.7" style="fill:none;fill-rule:evenodd;stroke:#000000;stroke-width:2.0px;stroke-linecap:butt;stroke-linejoin:miter;stroke-opacity:1"/>
<path class="bond-0 atom-0 atom-1" d="M 1033.6,224.0 L 1033.4,208.8" style="fill:none;fill-rule:evenodd;stroke:#FF0000;stroke-width:2.0px;stroke-linecap:butt;stroke-linejoin:miter;stroke-opacity:1"/>
<path class="bond-0 atom-0 atom-1" d="M 1033.4,208.8 L 1033.2,193.7" style="fill:none;fill-rule:evenodd;stroke:#000000;stroke-width:2.0px;stroke-linecap:butt;stroke-linejoin:miter;stroke-opacity:1"/>
<path class="bond-1 atom-1 atom-2" d="M 1030.6,195.2 L 1060.7,177.4" style="fill:none;fill-rule:evenodd;stroke:#000000;stroke-width:2.0px;stroke-linecap:butt;stroke-linejoin:miter;stroke-opacity:1"/>
<path class="bond-2 atom-2 atom-3" d="M 1060.7,177.4 L 1091.1,194.6" style="fill:none;fill-rule:evenodd;stroke:#000000;stroke-width:2.0px;stroke-linecap:butt;stroke-linejoin:miter;stroke-opacity:1"/>
<path class="bond-3 atom-3 atom-4" d="M 1091.1,194.6 L 1121.2,176.8" style="fill:none;fill-rule:evenodd;stroke:#000000;stroke-width:2.0px;stroke-linecap:butt;stroke-linejoin:miter;stroke-opacity:1"/>
<path class="bond-4 atom-4 atom-5" d="M 1121.2,176.8 L 1151.7,193.9" style="fill:none;fill-rule:evenodd;stroke:#000000;stroke-width:2.0px;stroke-linecap:butt;stroke-linejoin:miter;stroke-opacity:1"/>
<path class="bond-4 atom-4 atom-5" d="M 1126.4,173.7 L 1151.6,187.9" style="fill:none;fill-rule:evenodd;stroke:#000000;stroke-width:2.0px;stroke-linecap:butt;stroke-linejoin:miter;stroke-opacity:1"/>
<path class="bond-5 atom-5 atom-6" d="M 1151.7,193.9 L 1181.7,176.1" style="fill:none;fill-rule:evenodd;stroke:#000000;stroke-width:2.0px;stroke-linecap:butt;stroke-linejoin:miter;stroke-opacity:1"/>
<path class="bond-6 atom-6 atom-7" d="M 1181.7,176.1 L 1181.4,141.2" style="fill:none;fill-rule:evenodd;stroke:#000000;stroke-width:2.0px;stroke-linecap:butt;stroke-linejoin:miter;stroke-opacity:1"/>
<path class="bond-6 atom-6 atom-7" d="M 1176.5,173.2 L 1176.2,144.3" style="fill:none;fill-rule:evenodd;stroke:#000000;stroke-width:2.0px;stroke-linecap:butt;stroke-linejoin:miter;stroke-opacity:1"/>
<path class="bond-7 atom-7 atom-8" d="M 1181.4,141.2 L 1150.9,124.0" style="fill:none;fill-rule:evenodd;stroke:#000000;stroke-width:2.0px;stroke-linecap:butt;stroke-linejoin:miter;stroke-opacity:1"/>
<path class="bond-8 atom-8 atom-9" d="M 1150.9,124.0 L 1120.8,141.8" style="fill:none;fill-rule:evenodd;stroke:#000000;stroke-width:2.0px;stroke-linecap:butt;stroke-linejoin:miter;stroke-opacity:1"/>
<path class="bond-8 atom-8 atom-9" d="M 1151.0,130.1 L 1126.1,144.8" style="fill:none;fill-rule:evenodd;stroke:#000000;stroke-width:2.0px;stroke-linecap:butt;stroke-linejoin:miter;stroke-opacity:1"/>
<path class="bond-9 atom-1 atom-10" d="M 1030.6,195.2 L 1000.2,178.1" style="fill:none;fill-rule:evenodd;stroke:#000000;stroke-width:2.0px;stroke-linecap:butt;stroke-linejoin:miter;stroke-opacity:1"/>
<path class="bond-10 atom-10 atom-11" d="M 1000.2,178.1 L 999.8,143.1" style="fill:none;fill-rule:evenodd;stroke:#000000;stroke-width:2.0px;stroke-linecap:butt;stroke-linejoin:miter;stroke-opacity:1"/>
<path class="bond-11 atom-11 atom-12" d="M 999.8,143.1 L 969.4,126.0" style="fill:none;fill-rule:evenodd;stroke:#000000;stroke-width:2.0px;stroke-linecap:butt;stroke-linejoin:miter;stroke-opacity:1"/>
<path class="bond-12 atom-12 atom-13" d="M 969.4,126.0 L 939.3,143.8" style="fill:none;fill-rule:evenodd;stroke:#000000;stroke-width:2.0px;stroke-linecap:butt;stroke-linejoin:miter;stroke-opacity:1"/>
<path class="bond-13 atom-13 atom-14" d="M 939.3,143.8 L 939.7,178.7" style="fill:none;fill-rule:evenodd;stroke:#000000;stroke-width:2.0px;stroke-linecap:butt;stroke-linejoin:miter;stroke-opacity:1"/>
<path class="bond-14 atom-14 atom-15" d="M 939.7,178.7 L 909.6,196.5" style="fill:none;fill-rule:evenodd;stroke:#000000;stroke-width:2.0px;stroke-linecap:butt;stroke-linejoin:miter;stroke-opacity:1"/>
<path class="bond-15 atom-15 atom-16" d="M 909.6,196.5 L 879.2,179.4" style="fill:none;fill-rule:evenodd;stroke:#000000;stroke-width:2.0px;stroke-linecap:butt;stroke-linejoin:miter;stroke-opacity:1"/>
<path class="bond-16 atom-16 atom-17" d="M 879.2,179.4 L 878.8,144.4" style="fill:none;fill-rule:evenodd;stroke:#000000;stroke-width:2.0px;stroke-linecap:butt;stroke-linejoin:miter;stroke-opacity:1"/>
<path class="bond-16 atom-16 atom-17" d="M 873.9,176.4 L 873.6,147.5" style="fill:none;fill-rule:evenodd;stroke:#000000;stroke-width:2.0px;stroke-linecap:butt;stroke-linejoin:miter;stroke-opacity:1"/>
<path class="bond-17 atom-17 atom-18" d="M 878.8,144.4 L 848.3,127.3" style="fill:none;fill-rule:evenodd;stroke:#000000;stroke-width:2.0px;stroke-linecap:butt;stroke-linejoin:miter;stroke-opacity:1"/>
<path class="bond-18 atom-18 atom-19" d="M 848.3,127.3 L 818.3,145.1" style="fill:none;fill-rule:evenodd;stroke:#000000;stroke-width:2.0px;stroke-linecap:butt;stroke-linejoin:miter;stroke-opacity:1"/>
<path class="bond-18 atom-18 atom-19" d="M 848.4,133.3 L 823.5,148.0" style="fill:none;fill-rule:evenodd;stroke:#000000;stroke-width:2.0px;stroke-linecap:butt;stroke-linejoin:miter;stroke-opacity:1"/>
<path class="bond-19 atom-19 atom-20" d="M 818.3,145.1 L 818.6,180.0" style="fill:none;fill-rule:evenodd;stroke:#000000;stroke-width:2.0px;stroke-linecap:butt;stroke-linejoin:miter;stroke-opacity:1"/>
<path class="bond-20 atom-20 atom-21" d="M 818.6,180.0 L 849.1,197.1" style="fill:none;fill-rule:evenodd;stroke:#000000;stroke-width:2.0px;stroke-linecap:butt;stroke-linejoin:miter;stroke-opacity:1"/>
<path class="bond-20 atom-20 atom-21" d="M 823.8,176.9 L 849.0,191.1" style="fill:none;fill-rule:evenodd;stroke:#000000;stroke-width:2.0px;stroke-linecap:butt;stroke-linejoin:miter;stroke-opacity:1"/>
<path class="bond-21 atom-14 atom-22" d="M 939.7,178.7 L 970.1,195.9" style="fill:none;fill-rule:evenodd;stroke:#000000;stroke-width:2.0px;stroke-linecap:butt;stroke-linejoin:miter;stroke-opacity:1"/>
<path class="bond-22 atom-22 atom-23" d="M 967.5,194.4 L 967.6,209.5" style="fill:none;fill-rule:evenodd;stroke:#000000;stroke-width:2.0px;stroke-linecap:butt;stroke-linejoin:miter;stroke-opacity:1"/>
<path class="bond-22 atom-22 atom-23" d="M 967.6,209.5 L 967.8,224.7" style="fill:none;fill-rule:evenodd;stroke:#FF0000;stroke-width:2.0px;stroke-linecap:butt;stroke-linejoin:miter;stroke-opacity:1"/>
<path class="bond-22 atom-22 atom-23" d="M 972.7,194.3 L 972.9,209.5" style="fill:none;fill-rule:evenodd;stroke:#000000;stroke-width:2.0px;stroke-linecap:butt;stroke-linejoin:miter;stroke-opacity:1"/>
<path class="bond-22 atom-22 atom-23" d="M 972.9,209.5 L 973.0,224.6" style="fill:none;fill-rule:evenodd;stroke:#FF0000;stroke-width:2.0px;stroke-linecap:butt;stroke-linejoin:miter;stroke-opacity:1"/>
<path class="bond-23 atom-9 atom-4" d="M 1120.8,141.8 L 1121.2,176.8" style="fill:none;fill-rule:evenodd;stroke:#000000;stroke-width:2.0px;stroke-linecap:butt;stroke-linejoin:miter;stroke-opacity:1"/>
<path class="bond-24 atom-22 atom-10" d="M 970.1,195.9 L 1000.2,178.1" style="fill:none;fill-rule:evenodd;stroke:#000000;stroke-width:2.0px;stroke-linecap:butt;stroke-linejoin:miter;stroke-opacity:1"/>
<path class="bond-25 atom-21 atom-16" d="M 849.1,197.1 L 879.2,179.4" style="fill:none;fill-rule:evenodd;stroke:#000000;stroke-width:2.0px;stroke-linecap:butt;stroke-linejoin:miter;stroke-opacity:1"/>
<path d="M 1032.1,194.3 L 1030.6,195.2 L 1029.1,194.4" style="fill:none;stroke:#000000;stroke-width:2.0px;stroke-linecap:butt;stroke-linejoin:miter;stroke-opacity:1;"/>
<path d="M 1059.2,178.3 L 1060.7,177.4 L 1062.2,178.3" style="fill:none;stroke:#000000;stroke-width:2.0px;stroke-linecap:butt;stroke-linejoin:miter;stroke-opacity:1;"/>
<path d="M 1089.6,193.7 L 1091.1,194.6 L 1092.7,193.7" style="fill:none;stroke:#000000;stroke-width:2.0px;stroke-linecap:butt;stroke-linejoin:miter;stroke-opacity:1;"/>
<path d="M 1150.1,193.1 L 1151.7,193.9 L 1153.2,193.0" style="fill:none;stroke:#000000;stroke-width:2.0px;stroke-linecap:butt;stroke-linejoin:miter;stroke-opacity:1;"/>
<path d="M 1180.2,177.0 L 1181.7,176.1 L 1181.7,174.4" style="fill:none;stroke:#000000;stroke-width:2.0px;stroke-linecap:butt;stroke-linejoin:miter;stroke-opacity:1;"/>
<path d="M 1181.4,142.9 L 1181.4,141.2 L 1179.8,140.3" style="fill:none;stroke:#000000;stroke-width:2.0px;stroke-linecap:butt;stroke-linejoin:miter;stroke-opacity:1;"/>
<path d="M 1152.4,124.9 L 1150.9,124.0 L 1149.4,124.9" style="fill:none;stroke:#000000;stroke-width:2.0px;stroke-linecap:butt;stroke-linejoin:miter;stroke-opacity:1;"/>
<path d="M 1122.4,140.9 L 1120.8,141.8 L 1120.9,143.6" style="fill:none;stroke:#000000;stroke-width:2.0px;stroke-linecap:butt;stroke-linejoin:miter;stroke-opacity:1;"/>
<path d="M 999.8,144.9 L 999.8,143.1 L 998.3,142.3" style="fill:none;stroke:#000000;stroke-width:2.0px;stroke-linecap:butt;stroke-linejoin:miter;stroke-opacity:1;"/>
<path d="M 970.9,126.8 L 969.4,126.0 L 967.9,126.9" style="fill:none;stroke:#000000;stroke-width:2.0px;stroke-linecap:butt;stroke-linejoin:miter;stroke-opacity:1;"/>
<path d="M 940.8,142.9 L 939.3,143.8 L 939.3,145.5" style="fill:none;stroke:#000000;stroke-width:2.0px;stroke-linecap:butt;stroke-linejoin:miter;stroke-opacity:1;"/>
<path d="M 911.1,195.6 L 909.6,196.5 L 908.1,195.6" style="fill:none;stroke:#000000;stroke-width:2.0px;stroke-linecap:butt;stroke-linejoin:miter;stroke-opacity:1;"/>
<path d="M 878.8,146.2 L 878.8,144.4 L 877.3,143.6" style="fill:none;stroke:#000000;stroke-width:2.0px;stroke-linecap:butt;stroke-linejoin:miter;stroke-opacity:1;"/>
<path d="M 849.9,128.1 L 848.3,127.3 L 846.8,128.2" style="fill:none;stroke:#000000;stroke-width:2.0px;stroke-linecap:butt;stroke-linejoin:miter;stroke-opacity:1;"/>
<path d="M 819.8,144.2 L 818.3,145.1 L 818.3,146.8" style="fill:none;stroke:#000000;stroke-width:2.0px;stroke-linecap:butt;stroke-linejoin:miter;stroke-opacity:1;"/>
<path d="M 818.6,178.2 L 818.6,180.0 L 820.2,180.9" style="fill:none;stroke:#000000;stroke-width:2.0px;stroke-linecap:butt;stroke-linejoin:miter;stroke-opacity:1;"/>
<path d="M 847.6,196.3 L 849.1,197.1 L 850.6,196.3" style="fill:none;stroke:#000000;stroke-width:2.0px;stroke-linecap:butt;stroke-linejoin:miter;stroke-opacity:1;"/>
<path d="M 968.6,195.0 L 970.1,195.9 L 971.6,195.0" style="fill:none;stroke:#000000;stroke-width:2.0px;stroke-linecap:butt;stroke-linejoin:miter;stroke-opacity:1;"/>
<path class="atom-0" d="M 1026.5 230.2 Q 1026.5 227.8, 1027.6 226.5 Q 1028.8 225.1, 1031.0 225.1 Q 1033.2 225.1, 1034.4 226.5 Q 1035.5 227.8, 1035.5 230.2 Q 1035.5 232.6, 1034.4 234.0 Q 1033.2 235.3, 1031.0 235.3 Q 1028.8 235.3, 1027.6 234.0 Q 1026.5 232.6, 1026.5 230.2 M 1031.0 234.2 Q 1032.5 234.2, 1033.3 233.2 Q 1034.1 232.2, 1034.1 230.2 Q 1034.1 228.2, 1033.3 227.3 Q 1032.5 226.3, 1031.0 226.3 Q 1029.5 226.3, 1028.7 227.2 Q 1027.9 228.2, 1027.9 230.2 Q 1027.9 232.2, 1028.7 233.2 Q 1029.5 234.2, 1031.0 234.2 " fill="#FF0000"/>
<path class="atom-23" d="M 965.9 230.8 Q 965.9 228.4, 967.1 227.1 Q 968.3 225.8, 970.5 225.8 Q 972.7 225.8, 973.9 227.1 Q 975.0 228.4, 975.0 230.8 Q 975.0 233.2, 973.8 234.6 Q 972.7 236.0, 970.5 236.0 Q 968.3 236.0, 967.1 234.6 Q 965.9 233.2, 965.9 230.8 M 970.5 234.8 Q 972.0 234.8, 972.8 233.8 Q 973.6 232.8, 973.6 230.8 Q 973.6 228.9, 972.8 227.9 Q 972.0 226.9, 970.5 226.9 Q 969.0 226.9, 968.2 227.9 Q 967.3 228.9, 967.3 230.8 Q 967.3 232.8, 968.2 233.8 Q 969.0 234.8, 970.5 234.8 " fill="#FF0000"/>
<path class="legend" d="M 953.5 380.4 Q 953.5 377.6, 954.8 376.1 Q 956.2 374.6, 958.7 374.6 Q 961.0 374.6, 962.2 376.3 L 961.2 377.1 Q 960.3 375.9, 958.7 375.9 Q 957.0 375.9, 956.0 377.1 Q 955.1 378.2, 955.1 380.4 Q 955.1 382.6, 956.1 383.8 Q 957.0 384.9, 958.8 384.9 Q 960.1 384.9, 961.5 384.2 L 962.0 385.4 Q 961.4 385.8, 960.5 386.0 Q 959.6 386.2, 958.6 386.2 Q 956.2 386.2, 954.8 384.7 Q 953.5 383.2, 953.5 380.4 " fill="#000000"/>
<path class="legend" d="M 963.6 382.0 Q 963.6 380.0, 964.6 378.8 Q 965.7 377.7, 967.5 377.7 Q 969.4 377.7, 970.4 378.8 Q 971.4 380.0, 971.4 382.0 Q 971.4 384.0, 970.4 385.1 Q 969.4 386.2, 967.5 386.2 Q 965.7 386.2, 964.6 385.1 Q 963.6 384.0, 963.6 382.0 M 965.2 382.0 Q 965.2 383.5, 965.8 384.2 Q 966.4 385.0, 967.5 385.0 Q 968.7 385.0, 969.3 384.2 Q 969.9 383.5, 969.9 382.0 Q 969.9 380.4, 969.3 379.7 Q 968.7 378.9, 967.5 378.9 Q 966.4 378.9, 965.8 379.7 Q 965.2 380.4, 965.2 382.0 " fill="#000000"/>
<path class="legend" d="M 982.4 377.7 Q 983.8 377.7, 984.5 378.5 Q 985.2 379.2, 985.2 380.6 L 985.2 386.1 L 983.7 386.1 L 983.7 380.8 Q 983.7 379.8, 983.3 379.3 Q 982.9 378.9, 982.1 378.9 Q 981.4 378.9, 980.8 379.2 Q 980.2 379.6, 979.8 380.2 Q 979.8 380.3, 979.8 380.6 L 979.8 386.1 L 978.3 386.1 L 978.3 380.8 Q 978.3 379.8, 977.9 379.3 Q 977.6 378.9, 976.7 378.9 Q 976.0 378.9, 975.4 379.2 Q 974.8 379.6, 974.4 380.2 L 974.4 386.1 L 972.9 386.1 L 972.9 377.9 L 974.1 377.9 L 974.3 379.0 Q 975.4 377.7, 977.0 377.7 Q 978.9 377.7, 979.6 379.2 Q 980.6 377.7, 982.4 377.7 " fill="#000000"/>
<path class="legend" d="M 991.0 377.7 Q 992.7 377.7, 993.6 378.8 Q 994.6 379.8, 994.6 381.8 Q 994.6 383.9, 993.5 385.1 Q 992.3 386.2, 990.4 386.2 Q 989.5 386.2, 988.7 386.0 L 988.7 390.0 L 987.2 390.0 L 987.2 377.9 L 988.4 377.9 L 988.6 378.8 Q 989.0 378.3, 989.6 378.0 Q 990.2 377.7, 991.0 377.7 M 990.4 385.0 Q 991.6 385.0, 992.3 384.2 Q 993.1 383.3, 993.1 381.8 Q 993.1 380.4, 992.5 379.7 Q 991.9 378.9, 990.9 378.9 Q 990.1 378.9, 989.5 379.3 Q 988.9 379.8, 988.7 380.5 L 988.7 384.8 Q 989.5 385.0, 990.4 385.0 " fill="#000000"/>
<path class="legend" d="M 996.1 382.0 Q 996.1 380.0, 997.1 378.8 Q 998.1 377.7, 1000.0 377.7 Q 1001.8 377.7, 1002.8 378.8 Q 1003.9 380.0, 1003.9 382.0 Q 1003.9 384.0, 1002.8 385.1 Q 1001.8 386.2, 1000.0 386.2 Q 998.1 386.2, 997.1 385.1 Q 996.1 384.0, 996.1 382.0 M 997.6 382.0 Q 997.6 383.5, 998.2 384.2 Q 998.8 385.0, 1000.0 385.0 Q 1001.1 385.0, 1001.7 384.2 Q 1002.3 383.5, 1002.3 382.0 Q 1002.3 380.4, 1001.7 379.7 Q 1001.1 378.9, 1000.0 378.9 Q 998.8 378.9, 998.2 379.7 Q 997.6 380.4, 997.6 382.0 " fill="#000000"/>
<path class="legend" d="M 1012.3 377.9 L 1012.3 386.1 L 1011.1 386.1 L 1010.9 384.9 Q 1009.8 386.2, 1008.1 386.2 Q 1006.7 386.2, 1006.0 385.5 Q 1005.3 384.7, 1005.3 383.3 L 1005.3 377.9 L 1006.8 377.9 L 1006.8 383.2 Q 1006.8 384.2, 1007.2 384.6 Q 1007.6 385.0, 1008.4 385.0 Q 1009.2 385.0, 1009.8 384.7 Q 1010.4 384.4, 1010.8 383.7 L 1010.8 377.9 L 1012.3 377.9 " fill="#000000"/>
<path class="legend" d="M 1018.7 377.7 Q 1020.0 377.7, 1020.7 378.5 Q 1021.4 379.2, 1021.4 380.6 L 1021.4 386.1 L 1019.9 386.1 L 1019.9 380.8 Q 1019.9 379.8, 1019.5 379.3 Q 1019.1 378.9, 1018.3 378.9 Q 1017.5 378.9, 1016.9 379.2 Q 1016.3 379.6, 1015.9 380.2 L 1015.9 386.1 L 1014.4 386.1 L 1014.4 377.9 L 1015.6 377.9 L 1015.8 379.0 Q 1016.9 377.7, 1018.7 377.7 " fill="#000000"/>
<path class="legend" d="M 1030.8 373.9 L 1030.8 386.1 L 1029.6 386.1 L 1029.4 385.1 Q 1028.5 386.2, 1026.9 386.2 Q 1025.2 386.2, 1024.3 385.2 Q 1023.3 384.1, 1023.3 382.1 Q 1023.3 380.0, 1024.4 378.9 Q 1025.6 377.7, 1027.5 377.7 Q 1028.4 377.7, 1029.3 377.9 L 1029.3 373.9 L 1030.8 373.9 M 1027.0 385.0 Q 1027.9 385.0, 1028.5 384.6 Q 1029.1 384.1, 1029.3 383.3 L 1029.3 379.1 Q 1028.5 378.9, 1027.6 378.9 Q 1026.3 378.9, 1025.6 379.7 Q 1024.9 380.6, 1024.9 382.1 Q 1024.9 383.5, 1025.4 384.3 Q 1026.0 385.0, 1027.0 385.0 " fill="#000000"/>
<path class="legend" d="" fill="#000000"/>
<path class="legend" d="M 1044.3 380.1 Q 1045.4 380.4, 1045.9 381.2 Q 1046.5 381.9, 1046.5 383.0 Q 1046.5 383.9, 1046.0 384.7 Q 1045.5 385.4, 1044.6 385.8 Q 1043.8 386.2, 1042.6 386.2 Q 1041.4 386.2, 1040.5 385.8 Q 1039.6 385.4, 1038.9 384.5 L 1039.8 383.6 Q 1040.5 384.4, 1041.1 384.7 Q 1041.7 385.0, 1042.6 385.0 Q 1043.6 385.0, 1044.3 384.4 Q 1044.9 383.9, 1044.9 383.0 Q 1044.9 381.8, 1044.2 381.3 Q 1043.6 380.8, 1042.2 380.8 L 1041.4 380.8 L 1041.4 379.6 L 1042.1 379.6 Q 1043.3 379.6, 1044.0 379.1 Q 1044.6 378.5, 1044.6 377.5 Q 1044.6 376.8, 1044.1 376.4 Q 1043.6 375.9, 1042.6 375.9 Q 1041.7 375.9, 1041.1 376.2 Q 1040.5 376.6, 1040.1 377.4 L 1039.0 376.8 Q 1039.4 375.9, 1040.3 375.3 Q 1041.3 374.6, 1042.6 374.6 Q 1044.3 374.6, 1045.3 375.4 Q 1046.2 376.2, 1046.2 377.5 Q 1046.2 378.4, 1045.8 379.1 Q 1045.3 379.7, 1044.3 380.1 " fill="#000000"/>
</svg>