<svg xmlns="http://www.w3.org/2000/svg" xmlns:rdkit="http://www.rdkit.org/xml" xmlns:xlink="http://www.w3.org/1999/xlink" version="1.1" baseProfile="full" xml:space="preserve" width="1200px" height="400px" viewBox="0 0 1200 400">
<!-- END OF HEADER -->
<rect style="opacity:1.0;fill:#FFFFFF;stroke:none" width="1200.0" height="400.0" x="0.0" y="0.0"> </rect>
<path class="bond-0 atom-0 atom-1" d="M 223.0,217.5 L 222.9,205.4" style="fill:none;fill-rule:evenodd;stroke:#FF0000;stroke-width:2.0px;stroke-linecap:butt;stroke-linejoin:miter;stroke-opacity:1"/>
<path class="bond-0 atom-0 atom-1" d="M 222.9,205.4 L 222.8,193.2" style="fill:none;fill-rule:evenodd;stroke:#000000;stroke-width:2.0px;stroke-linecap:butt;stroke-linejoin:miter;stroke-opacity:1"/>
<path class="bond-0 atom-0 atom-1" d="M 227.2,217.5 L 227.2,205.3" style="fill:none;fill-rule:evenodd;stroke:#FF0000;stroke-width:2.0px;stroke-linecap:butt;stroke-linejoin:miter;stroke-opacity:1"/>
<path class="bond-0 atom-0 atom-1" d="M 227.2,205.3 L 227.1,193.1" style="fill:none;fill-rule:evenodd;stroke:#000000;stroke-width:2.0px;stroke-linecap:butt;stroke-linejoin:miter;stroke-opacity:1"/>
<path class="bond-1 atom-1 atom-2" d="M 225.0,194.4 L 249.2,180.1" style="fill:none;fill-rule:evenodd;stroke:#000000;stroke-width:2.0px;stroke-linecap:butt;stroke-linejoin:miter;stroke-opacity:1"/>
<path class="bond-2 atom-2 atom-3" d="M 249.2,180.1 L 273.7,194.0" style="fill:none;fill-rule:evenodd;stroke:#000000;stroke-width:2.0px;stroke-linecap:butt;stroke-linejoin:miter;stroke-opacity:1"/>
<path class="bond-2 atom-2 atom-3" d="M 249.3,185.0 L 271.6,197.7" style="fill:none;fill-rule:evenodd;stroke:#000000;stroke-width:2.0px;stroke-linecap:butt;stroke-linejoin:miter;stroke-opacity:1"/>
<path class="bond-3 atom-3 atom-4" d="M 273.7,194.0 L 297.9,179.8" style="fill:none;fill-rule:evenodd;stroke:#000000;stroke-width:2.0px;stroke-linecap:butt;stroke-linejoin:miter;stroke-opacity:1"/>
<path class="bond-4 atom-4 atom-5" d="M 297.9,179.8 L 322.4,193.6" style="fill:none;fill-rule:evenodd;stroke:#000000;stroke-width:2.0px;stroke-linecap:butt;stroke-linejoin:miter;stroke-opacity:1"/>
<path class="bond-4 atom-4 atom-5" d="M 302.1,177.3 L 322.4,188.8" style="fill:none;fill-rule:evenodd;stroke:#000000;stroke-width:2.0px;stroke-linecap:butt;stroke-linejoin:miter;stroke-opacity:1"/>
<path class="bond-5 atom-5 atom-6" d="M 322.4,193.6 L 346.6,179.4" style="fill:none;fill-rule:evenodd;stroke:#000000;stroke-width:2.0px;stroke-linecap:butt;stroke-linejoin:miter;stroke-opacity:1"/>
<path class="bond-6 atom-6 atom-7" d="M 346.6,179.4 L 346.4,151.3" style="fill:none;fill-rule:evenodd;stroke:#000000;stroke-width:2.0px;stroke-linecap:butt;stroke-linejoin:miter;stroke-opacity:1"/>
<path class="bond-6 atom-6 atom-7" d="M 342.4,177.0 L 342.2,153.7" style="fill:none;fill-rule:evenodd;stroke:#000000;stroke-width:2.0px;stroke-linecap:butt;stroke-linejoin:miter;stroke-opacity:1"/>
<path class="bond-7 atom-7 atom-8" d="M 346.4,151.3 L 356.3,145.5" style="fill:none;fill-rule:evenodd;stroke:#000000;stroke-width:2.0px;stroke-linecap:butt;stroke-linejoin:miter;stroke-opacity:1"/>
<path class="bond-7 atom-7 atom-8" d="M 356.3,145.5 L 366.1,139.7" style="fill:none;fill-rule:evenodd;stroke:#FF0000;stroke-width:2.0px;stroke-linecap:butt;stroke-linejoin:miter;stroke-opacity:1"/>
<path class="bond-8 atom-7 atom-9" d="M 346.4,151.3 L 322.0,137.4" style="fill:none;fill-rule:evenodd;stroke:#000000;stroke-width:2.0px;stroke-linecap:butt;stroke-linejoin:miter;stroke-opacity:1"/>
<path class="bond-9 atom-9 atom-10" d="M 322.0,137.4 L 297.7,151.6" style="fill:none;fill-rule:evenodd;stroke:#000000;stroke-width:2.0px;stroke-linecap:butt;stroke-linejoin:miter;stroke-opacity:1"/>
<path class="bond-9 atom-9 atom-10" d="M 322.0,142.3 L 302.0,154.0" style="fill:none;fill-rule:evenodd;stroke:#000000;stroke-width:2.0px;stroke-linecap:butt;stroke-linejoin:miter;stroke-opacity:1"/>
<path class="bond-10 atom-1 atom-11" d="M 225.0,194.4 L 200.5,180.5" style="fill:none;fill-rule:evenodd;stroke:#000000;stroke-width:2.0px;stroke-linecap:butt;stroke-linejoin:miter;stroke-opacity:1"/>
<path class="bond-11 atom-11 atom-12" d="M 200.5,180.5 L 200.3,152.4" style="fill:none;fill-rule:evenodd;stroke:#000000;stroke-width:2.0px;stroke-linecap:butt;stroke-linejoin:miter;stroke-opacity:1"/>
<path class="bond-12 atom-12 atom-13" d="M 200.3,152.4 L 175.8,138.5" style="fill:none;fill-rule:evenodd;stroke:#000000;stroke-width:2.0px;stroke-linecap:butt;stroke-linejoin:miter;stroke-opacity:1"/>
<path class="bond-13 atom-13 atom-14" d="M 175.8,138.5 L 151.6,152.7" style="fill:none;fill-rule:evenodd;stroke:#000000;stroke-width:2.0px;stroke-linecap:butt;stroke-linejoin:miter;stroke-opacity:1"/>
<path class="bond-14 atom-14 atom-15" d="M 151.6,152.7 L 151.8,180.8" style="fill:none;fill-rule:evenodd;stroke:#000000;stroke-width:2.0px;stroke-linecap:butt;stroke-linejoin:miter;stroke-opacity:1"/>
<path class="bond-15 atom-15 atom-16" d="M 151.8,180.8 L 127.5,195.1" style="fill:none;fill-rule:evenodd;stroke:#000000;stroke-width:2.0px;stroke-linecap:butt;stroke-linejoin:miter;stroke-opacity:1"/>
<path class="bond-15 atom-15 atom-16" d="M 147.6,178.4 L 127.5,190.2" style="fill:none;fill-rule:evenodd;stroke:#000000;stroke-width:2.0px;stroke-linecap:butt;stroke-linejoin:miter;stroke-opacity:1"/>
<path class="bond-16 atom-16 atom-17" d="M 127.5,195.1 L 103.1,181.2" style="fill:none;fill-rule:evenodd;stroke:#000000;stroke-width:2.0px;stroke-linecap:butt;stroke-linejoin:miter;stroke-opacity:1"/>
<path class="bond-17 atom-17 atom-18" d="M 103.1,181.2 L 102.9,153.1" style="fill:none;fill-rule:evenodd;stroke:#000000;stroke-width:2.0px;stroke-linecap:butt;stroke-linejoin:miter;stroke-opacity:1"/>
<path class="bond-17 atom-17 atom-18" d="M 98.8,178.8 L 98.7,155.5" style="fill:none;fill-rule:evenodd;stroke:#000000;stroke-width:2.0px;stroke-linecap:butt;stroke-linejoin:miter;stroke-opacity:1"/>
<path class="bond-18 atom-18 atom-19" d="M 102.9,153.1 L 78.4,139.2" style="fill:none;fill-rule:evenodd;stroke:#000000;stroke-width:2.0px;stroke-linecap:butt;stroke-linejoin:miter;stroke-opacity:1"/>
<path class="bond-19 atom-19 atom-20" d="M 78.4,139.2 L 54.2,153.4" style="fill:none;fill-rule:evenodd;stroke:#000000;stroke-width:2.0px;stroke-linecap:butt;stroke-linejoin:miter;stroke-opacity:1"/>
<path class="bond-19 atom-19 atom-20" d="M 78.5,144.1 L 58.4,155.8" style="fill:none;fill-rule:evenodd;stroke:#000000;stroke-width:2.0px;stroke-linecap:butt;stroke-linejoin:miter;stroke-opacity:1"/>
<path class="bond-20 atom-20 atom-21" d="M 54.2,153.4 L 44.2,147.8" style="fill:none;fill-rule:evenodd;stroke:#000000;stroke-width:2.0px;stroke-linecap:butt;stroke-linejoin:miter;stroke-opacity:1"/>
<path class="bond-20 atom-20 atom-21" d="M 44.2,147.8 L 34.3,142.1" style="fill:none;fill-rule:evenodd;stroke:#FF0000;stroke-width:2.0px;stroke-linecap:butt;stroke-linejoin:miter;stroke-opacity:1"/>
<path class="bond-21 atom-20 atom-22" d="M 54.2,153.4 L 54.4,181.6" style="fill:none;fill-rule:evenodd;stroke:#000000;stroke-width:2.0px;stroke-linecap:butt;stroke-linejoin:miter;stroke-opacity:1"/>
<path class="bond-22 atom-22 atom-23" d="M 54.4,181.6 L 78.8,195.4" style="fill:none;fill-rule:evenodd;stroke:#000000;stroke-width:2.0px;stroke-linecap:butt;stroke-linejoin:miter;stroke-opacity:1"/>
<path class="bond-22 atom-22 atom-23" d="M 58.6,179.1 L 78.8,190.6" style="fill:none;fill-rule:evenodd;stroke:#000000;stroke-width:2.0px;stroke-linecap:butt;stroke-linejoin:miter;stroke-opacity:1"/>
<path class="bond-23 atom-15 atom-24" d="M 151.8,180.8 L 176.3,194.7" style="fill:none;fill-rule:evenodd;stroke:#000000;stroke-width:2.0px;stroke-linecap:butt;stroke-linejoin:miter;stroke-opacity:1"/>
<path class="bond-24 atom-24 atom-25" d="M 174.1,193.5 L 174.2,205.7" style="fill:none;fill-rule:evenodd;stroke:#000000;stroke-width:2.0px;stroke-linecap:butt;stroke-linejoin:miter;stroke-opacity:1"/>
<path class="bond-24 atom-24 atom-25" d="M 174.2,205.7 L 174.3,217.9" style="fill:none;fill-rule:evenodd;stroke:#FF0000;stroke-width:2.0px;stroke-linecap:butt;stroke-linejoin:miter;stroke-opacity:1"/>
<path class="bond-24 atom-24 atom-25" d="M 178.4,193.5 L 178.4,205.7" style="fill:none;fill-rule:evenodd;stroke:#000000;stroke-width:2.0px;stroke-linecap:butt;stroke-linejoin:miter;stroke-opacity:1"/>
<path class="bond-24 atom-24 atom-25" d="M 178.4,205.7 L 178.5,217.9" style="fill:none;fill-rule:evenodd;stroke:#FF0000;stroke-width:2.0px;stroke-linecap:butt;stroke-linejoin:miter;stroke-opacity:1"/>
<path class="bond-25 atom-10 atom-4" d="M 297.7,151.6 L 297.9,179.8" style="fill:none;fill-rule:evenodd;stroke:#000000;stroke-width:2.0px;stroke-linecap:butt;stroke-linejoin:miter;stroke-opacity:1"/>
<path class="bond-26 atom-24 atom-11" d="M 176.3,194.7 L 200.5,180.5" style="fill:none;fill-rule:evenodd;stroke:#000000;stroke-width:2.0px;stroke-linecap:butt;stroke-linejoin:miter;stroke-opacity:1"/>
<path class="bond-27 atom-23 atom-17" d="M 78.8,195.4 L 103.1,181.2" style="fill:none;fill-rule:evenodd;stroke:#000000;stroke-width:2.0px;stroke-linecap:butt;stroke-linejoin:miter;stroke-opacity:1"/>
<path d="M 226.2,193.6 L 225.0,194.4 L 223.7,193.7" style="fill:none;stroke:#000000;stroke-width:2.0px;stroke-linecap:butt;stroke-linejoin:miter;stroke-opacity:1;"/>
<path d="M 248.0,180.8 L 249.2,180.1 L 250.4,180.8" style="fill:none;stroke:#000000;stroke-width:2.0px;stroke-linecap:butt;stroke-linejoin:miter;stroke-opacity:1;"/>
<path d="M 272.5,193.3 L 273.7,194.0 L 274.9,193.3" style="fill:none;stroke:#000000;stroke-width:2.0px;stroke-linecap:butt;stroke-linejoin:miter;stroke-opacity:1;"/>
<path d="M 321.2,192.9 L 322.4,193.6 L 323.6,192.9" style="fill:none;stroke:#000000;stroke-width:2.0px;stroke-linecap:butt;stroke-linejoin:miter;stroke-opacity:1;"/>
<path d="M 345.4,180.1 L 346.6,179.4 L 346.6,178.0" style="fill:none;stroke:#000000;stroke-width:2.0px;stroke-linecap:butt;stroke-linejoin:miter;stroke-opacity:1;"/>
<path d="M 323.2,138.1 L 322.0,137.4 L 320.8,138.1" style="fill:none;stroke:#000000;stroke-width:2.0px;stroke-linecap:butt;stroke-linejoin:miter;stroke-opacity:1;"/>
<path d="M 298.9,150.9 L 297.7,151.6 L 297.7,153.0" style="fill:none;stroke:#000000;stroke-width:2.0px;stroke-linecap:butt;stroke-linejoin:miter;stroke-opacity:1;"/>
<path d="M 200.3,153.8 L 200.3,152.4 L 199.1,151.7" style="fill:none;stroke:#000000;stroke-width:2.0px;stroke-linecap:butt;stroke-linejoin:miter;stroke-opacity:1;"/>
<path d="M 177.1,139.2 L 175.8,138.5 L 174.6,139.2" style="fill:none;stroke:#000000;stroke-width:2.0px;stroke-linecap:butt;stroke-linejoin:miter;stroke-opacity:1;"/>
<path d="M 152.8,152.0 L 151.6,152.7 L 151.6,154.1" style="fill:none;stroke:#000000;stroke-width:2.0px;stroke-linecap:butt;stroke-linejoin:miter;stroke-opacity:1;"/>
<path d="M 128.8,194.4 L 127.5,195.1 L 126.3,194.4" style="fill:none;stroke:#000000;stroke-width:2.0px;stroke-linecap:butt;stroke-linejoin:miter;stroke-opacity:1;"/>
<path d="M 102.9,154.5 L 102.9,153.1 L 101.7,152.4" style="fill:none;stroke:#000000;stroke-width:2.0px;stroke-linecap:butt;stroke-linejoin:miter;stroke-opacity:1;"/>
<path d="M 79.6,139.9 L 78.4,139.2 L 77.2,139.9" style="fill:none;stroke:#000000;stroke-width:2.0px;stroke-linecap:butt;stroke-linejoin:miter;stroke-opacity:1;"/>
<path d="M 54.4,180.1 L 54.4,181.6 L 55.6,182.2" style="fill:none;stroke:#000000;stroke-width:2.0px;stroke-linecap:butt;stroke-linejoin:miter;stroke-opacity:1;"/>
<path d="M 77.6,194.7 L 78.8,195.4 L 80.0,194.7" style="fill:none;stroke:#000000;stroke-width:2.0px;stroke-linecap:butt;stroke-linejoin:miter;stroke-opacity:1;"/>
<path d="M 175.0,194.0 L 176.3,194.7 L 177.5,194.0" style="fill:none;stroke:#000000;stroke-width:2.0px;stroke-linecap:butt;stroke-linejoin:miter;stroke-opacity:1;"/>
<path class="atom-0" d="M 221.5 222.5 Q 221.5 220.6, 222.5 219.5 Q 223.4 218.5, 225.2 218.5 Q 226.9 218.5, 227.9 219.5 Q 228.8 220.6, 228.8 222.5 Q 228.8 224.4, 227.9 225.5 Q 226.9 226.6, 225.2 226.6 Q 223.4 226.6, 222.5 225.5 Q 221.5 224.5, 221.5 222.5 M 225.2 225.7 Q 226.4 225.7, 227.0 224.9 Q 227.7 224.1, 227.7 222.5 Q 227.7 220.9, 227.0 220.2 Q 226.4 219.4, 225.2 219.4 Q 224.0 219.4, 223.3 220.1 Q 222.6 220.9, 222.6 222.5 Q 222.6 224.1, 223.3 224.9 Q 224.0 225.7, 225.2 225.7 " fill="#FF0000"/>
<path class="atom-8" d="M 367.0 137.1 Q 367.0 135.1, 368.0 134.1 Q 368.9 133.0, 370.7 133.0 Q 372.5 133.0, 373.4 134.1 Q 374.3 135.1, 374.3 137.1 Q 374.3 139.0, 373.4 140.1 Q 372.4 141.2, 370.7 141.2 Q 368.9 141.2, 368.0 140.1 Q 367.0 139.0, 367.0 137.1 M 370.7 140.3 Q 371.9 140.3, 372.6 139.5 Q 373.2 138.7, 373.2 137.1 Q 373.2 135.5, 372.6 134.7 Q 371.9 133.9, 370.7 133.9 Q 369.5 133.9, 368.8 134.7 Q 368.2 135.5, 368.2 137.1 Q 368.2 138.7, 368.8 139.5 Q 369.5 140.3, 370.7 140.3 " fill="#FF0000"/>
<path class="atom-8" d="M 375.6 133.1 L 376.7 133.1 L 376.7 136.5 L 380.7 136.5 L 380.7 133.1 L 381.8 133.1 L 381.8 141.1 L 380.7 141.1 L 380.7 137.4 L 376.7 137.4 L 376.7 141.1 L 375.6 141.1 L 375.6 133.1 " fill="#FF0000"/>
<path class="atom-21" d="M 18.2 135.6 L 19.3 135.6 L 19.3 139.0 L 23.3 139.0 L 23.3 135.6 L 24.4 135.6 L 24.4 143.6 L 23.3 143.6 L 23.3 139.9 L 19.3 139.9 L 19.3 143.6 L 18.2 143.6 L 18.2 135.6 " fill="#FF0000"/>
<path class="atom-21" d="M 26.0 139.6 Q 26.0 137.7, 27.0 136.6 Q 27.9 135.5, 29.7 135.5 Q 31.5 135.5, 32.4 136.6 Q 33.4 137.7, 33.4 139.6 Q 33.4 141.5, 32.4 142.6 Q 31.4 143.7, 29.7 143.7 Q 27.9 143.7, 27.0 142.6 Q 26.0 141.5, 26.0 139.6 M 29.7 142.8 Q 30.9 142.8, 31.6 142.0 Q 32.2 141.2, 32.2 139.6 Q 32.2 138.0, 31.6 137.2 Q 30.9 136.4, 29.7 136.4 Q 28.5 136.4, 27.8 137.2 Q 27.2 138.0, 27.2 139.6 Q 27.2 141.2, 27.8 142.0 Q 28.5 142.8, 29.7 142.8 " fill="#FF0000"/>
<path class="atom-25" d="M 172.8 222.9 Q 172.8 221.0, 173.8 219.9 Q 174.7 218.8, 176.5 218.8 Q 178.2 218.8, 179.2 219.9 Q 180.1 221.0, 180.1 222.9 Q 180.1 224.8, 179.2 225.9 Q 178.2 227.0, 176.5 227.0 Q 174.7 227.0, 173.8 225.9 Q 172.8 224.8, 172.8 222.9 M 176.5 226.1 Q 177.7 226.1, 178.3 225.3 Q 179.0 224.5, 179.0 222.9 Q 179.0 221.3, 178.3 220.5 Q 177.7 219.7, 176.5 219.7 Q 175.2 219.7, 174.6 220.5 Q 173.9 221.3, 173.9 222.9 Q 173.9 224.5, 174.6 225.3 Q 175.2 226.1, 176.5 226.1 " fill="#FF0000"/>
<path class="note" d="M 261.4 182.8 Q 261.4 182.0, 261.6 181.3 Q 261.9 180.7, 262.3 179.9 L 262.6 180.1 Q 262.3 180.8, 262.1 181.4 Q 261.9 182.0, 261.9 182.8 Q 261.9 183.6, 262.1 184.2 Q 262.3 184.7, 262.6 185.4 L 262.3 185.6 Q 261.9 184.9, 261.6 184.3 Q 261.4 183.6, 261.4 182.8 " fill="#000000"/>
<path class="note" d="M 262.9 180.4 L 265.3 180.4 L 265.3 180.9 L 263.5 180.9 L 263.5 182.1 L 265.1 182.1 L 265.1 182.5 L 263.5 182.5 L 263.5 183.9 L 265.4 183.9 L 265.4 184.4 L 262.9 184.4 L 262.9 180.4 " fill="#000000"/>
<path class="note" d="M 267.1 182.8 Q 267.1 183.6, 266.8 184.3 Q 266.6 184.9, 266.1 185.6 L 265.8 185.4 Q 266.2 184.7, 266.4 184.2 Q 266.5 183.6, 266.5 182.8 Q 266.5 182.0, 266.4 181.4 Q 266.2 180.8, 265.8 180.1 L 266.1 179.9 Q 266.6 180.7, 266.8 181.3 Q 267.1 182.0, 267.1 182.8 " fill="#000000"/>
<path class="note" d="M 139.7 193.4 Q 139.7 192.6, 139.9 192.0 Q 140.2 191.3, 140.6 190.6 L 140.9 190.8 Q 140.6 191.5, 140.4 192.1 Q 140.2 192.7, 140.2 193.4 Q 140.2 194.2, 140.4 194.8 Q 140.6 195.4, 140.9 196.1 L 140.6 196.3 Q 140.2 195.6, 139.9 194.9 Q 139.7 194.2, 139.7 193.4 " fill="#000000"/>
<path class="note" d="M 141.2 191.1 L 143.6 191.1 L 143.6 191.5 L 141.8 191.5 L 141.8 192.7 L 143.4 192.7 L 143.4 193.2 L 141.8 193.2 L 141.8 194.6 L 143.7 194.6 L 143.7 195.0 L 141.2 195.0 L 141.2 191.1 " fill="#000000"/>
<path class="note" d="M 145.3 193.4 Q 145.3 194.2, 145.1 194.9 Q 144.9 195.6, 144.4 196.3 L 144.1 196.1 Q 144.5 195.4, 144.7 194.8 Q 144.8 194.2, 144.8 193.4 Q 144.8 192.7, 144.7 192.1 Q 144.5 191.5, 144.1 190.8 L 144.4 190.6 Q 144.9 191.3, 145.1 192.0 Q 145.3 192.6, 145.3 193.4 " fill="#000000"/>
<path class="legend" d="M 153.9 380.4 Q 153.9 377.6, 155.3 376.1 Q 156.6 374.6, 159.1 374.6 Q 161.4 374.6, 162.7 376.3 L 161.6 377.1 Q 160.7 375.9, 159.1 375.9 Q 157.4 375.9, 156.5 377.1 Q 155.6 378.2, 155.6 380.4 Q 155.6 382.6, 156.5 383.8 Q 157.4 384.9, 159.3 384.9 Q 160.5 384.9, 162.0 384.2 L 162.4 385.4 Q 161.8 385.8, 160.9 386.0 Q 160.0 386.2, 159.0 386.2 Q 156.6 386.2, 155.3 384.7 Q 153.9 383.2, 153.9 380.4 " fill="#000000"/>
<path class="legend" d="M 164.0 382.0 Q 164.0 380.0, 165.0 378.8 Q 166.1 377.7, 167.9 377.7 Q 169.8 377.7, 170.8 378.8 Q 171.8 380.0, 171.8 382.0 Q 171.8 384.0, 170.8 385.1 Q 169.8 386.2, 167.9 386.2 Q 166.1 386.2, 165.0 385.1 Q 164.0 384.0, 164.0 382.0 M 165.6 382.0 Q 165.6 383.5, 166.2 384.2 Q 166.8 385.0, 167.9 385.0 Q 169.1 385.0, 169.7 384.2 Q 170.3 383.5, 170.3 382.0 Q 170.3 380.4, 169.7 379.7 Q 169.1 378.9, 167.9 378.9 Q 166.8 378.9, 166.2 379.7 Q 165.6 380.4, 165.6 382.0 " fill="#000000"/>
<path class="legend" d="M 182.8 377.7 Q 184.2 377.7, 184.9 378.5 Q 185.6 379.2, 185.6 380.6 L 185.6 386.1 L 184.1 386.1 L 184.1 380.8 Q 184.1 379.8, 183.7 379.3 Q 183.4 378.9, 182.5 378.9 Q 181.8 378.9, 181.2 379.2 Q 180.6 379.6, 180.2 380.2 Q 180.2 380.3, 180.2 380.6 L 180.2 386.1 L 178.7 386.1 L 178.7 380.8 Q 178.7 379.8, 178.3 379.3 Q 178.0 378.9, 177.1 378.9 Q 176.4 378.9, 175.8 379.2 Q 175.2 379.6, 174.8 380.2 L 174.8 386.1 L 173.3 386.1 L 173.3 377.9 L 174.5 377.9 L 174.7 379.0 Q 175.8 377.7, 177.4 377.7 Q 179.4 377.7, 180.0 379.2 Q 181.1 377.7, 182.8 377.7 " fill="#000000"/>
<path class="legend" d="M 191.4 377.7 Q 193.1 377.7, 194.0 378.8 Q 195.0 379.8, 195.0 381.8 Q 195.0 383.9, 193.9 385.1 Q 192.8 386.2, 190.8 386.2 Q 189.9 386.2, 189.1 386.0 L 189.1 390.0 L 187.6 390.0 L 187.6 377.9 L 188.8 377.9 L 189.0 378.8 Q 189.4 378.3, 190.0 378.0 Q 190.6 377.7, 191.4 377.7 M 190.8 385.0 Q 192.0 385.0, 192.8 384.2 Q 193.5 383.3, 193.5 381.8 Q 193.5 380.4, 192.9 379.7 Q 192.3 378.9, 191.3 378.9 Q 190.5 378.9, 189.9 379.3 Q 189.3 379.8, 189.1 380.5 L 189.1 384.8 Q 189.9 385.0, 190.8 385.0 " fill="#000000"/>
<path class="legend" d="M 196.5 382.0 Q 196.5 380.0, 197.5 378.8 Q 198.5 377.7, 200.4 377.7 Q 202.2 377.7, 203.2 378.8 Q 204.3 380.0, 204.3 382.0 Q 204.3 384.0, 203.2 385.1 Q 202.2 386.2, 200.4 386.2 Q 198.5 386.2, 197.5 385.1 Q 196.5 384.0, 196.5 382.0 M 198.0 382.0 Q 198.0 383.5, 198.6 384.2 Q 199.2 385.0, 200.4 385.0 Q 201.5 385.0, 202.1 384.2 Q 202.7 383.5, 202.7 382.0 Q 202.7 380.4, 202.1 379.7 Q 201.5 378.9, 200.4 378.9 Q 199.2 378.9, 198.6 379.7 Q 198.0 380.4, 198.0 382.0 " fill="#000000"/>
<path class="legend" d="M 212.7 377.9 L 212.7 386.1 L 211.5 386.1 L 211.3 384.9 Q 210.2 386.2, 208.5 386.2 Q 207.1 386.2, 206.4 385.5 Q 205.7 384.7, 205.7 383.3 L 205.7 377.9 L 207.2 377.9 L 207.2 383.2 Q 207.2 384.2, 207.6 384.6 Q 208.0 385.0, 208.8 385.0 Q 209.6 385.0, 210.2 384.7 Q 210.8 384.4, 211.2 383.7 L 211.2 377.9 L 212.7 377.9 " fill="#000000"/>
<path class="legend" d="M 219.0 377.7 Q 220.3 377.7, 221.0 378.5 Q 221.7 379.2, 221.7 380.6 L 221.7 386.1 L 220.2 386.1 L 220.2 380.8 Q 220.2 379.8, 219.9 379.3 Q 219.5 378.9, 218.7 378.9 Q 217.9 378.9, 217.3 379.2 Q 216.7 379.6, 216.3 380.2 L 216.3 386.1 L 214.7 386.1 L 214.7 377.9 L 216.0 377.9 L 216.2 379.0 Q 217.3 377.7, 219.0 377.7 " fill="#000000"/>
<path class="legend" d="M 231.2 373.9 L 231.2 386.1 L 230.0 386.1 L 229.7 385.1 Q 228.8 386.2, 227.3 386.2 Q 225.6 386.2, 224.6 385.2 Q 223.7 384.1, 223.7 382.1 Q 223.7 380.0, 224.8 378.9 Q 226.0 377.7, 227.9 377.7 Q 228.8 377.7, 229.7 377.9 L 229.7 373.9 L 231.2 373.9 M 227.4 385.0 Q 228.2 385.0, 228.8 384.6 Q 229.4 384.1, 229.7 383.3 L 229.7 379.1 Q 228.8 378.9, 227.9 378.9 Q 226.7 378.9, 226.0 379.7 Q 225.2 380.6, 225.2 382.1 Q 225.2 383.5, 225.8 384.3 Q 226.4 385.0, 227.4 385.0 " fill="#000000"/>
<path class="legend" d="" fill="#000000"/>
<path class="legend" d="M 239.9 384.8 L 242.3 384.8 L 242.3 376.3 L 239.6 377.2 L 239.2 376.2 L 242.7 374.7 L 243.8 374.9 L 243.8 384.8 L 246.1 384.8 L 246.1 386.1 L 239.9 386.1 L 239.9 384.8 " fill="#000000"/>
<path class="bond-0 atom-0 atom-1" d="M 623.0,217.5 L 622.9,205.4" style="fill:none;fill-rule:evenodd;stroke:#FF0000;stroke-width:2.0px;stroke-linecap:butt;stroke-linejoin:miter;stroke-opacity:1"/>
<path class="bond-0 atom-0 atom-1" d="M 622.9,205.4 L 622.8,193.2" style="fill:none;fill-rule:evenodd;stroke:#000000;stroke-width:2.0px;stroke-linecap:butt;stroke-linejoin:miter;stroke-opacity:1"/>
<path class="bond-0 atom-0 atom-1" d="M 627.2,217.5 L 627.2,205.3" style="fill:none;fill-rule:evenodd;stroke:#FF0000;stroke-width:2.0px;stroke-linecap:butt;stroke-linejoin:miter;stroke-opacity:1"/>
<path class="bond-0 atom-0 atom-1" d="M 627.2,205.3 L 627.1,193.1" style="fill:none;fill-rule:evenodd;stroke:#000000;stroke-width:2.0px;stroke-linecap:butt;stroke-linejoin:miter;stroke-opacity:1"/>
<path class="bond-1 atom-1 atom-2" d="M 625.0,194.4 L 649.2,180.1" style="fill:none;fill-rule:evenodd;stroke:#000000;stroke-width:2.0px;stroke-linecap:butt;stroke-linejoin:miter;stroke-opacity:1"/>
<path class="bond-2 atom-2 atom-3" d="M 649.2,180.1 L 673.7,194.0" style="fill:none;fill-rule:evenodd;stroke:#000000;stroke-width:2.0px;stroke-linecap:butt;stroke-linejoin:miter;stroke-opacity:1"/>
<path class="bond-3 atom-3 atom-4" d="M 673.7,194.0 L 697.9,179.8" style="fill:none;fill-rule:evenodd;stroke:#000000;stroke-width:2.0px;stroke-linecap:butt;stroke-linejoin:miter;stroke-opacity:1"/>
<path class="bond-4 atom-4 atom-5" d="M 697.9,179.8 L 722.4,193.6" style="fill:none;fill-rule:evenodd;stroke:#000000;stroke-width:2.0px;stroke-linecap:butt;stroke-linejoin:miter;stroke-opacity:1"/>
<path class="bond-4 atom-4 atom-5" d="M 702.1,177.3 L 722.4,188.8" style="fill:none;fill-rule:evenodd;stroke:#000000;stroke-width:2.0px;stroke-linecap:butt;stroke-linejoin:miter;stroke-opacity:1"/>
<path class="bond-5 atom-5 atom-6" d="M 722.4,193.6 L 746.6,179.4" style="fill:none;fill-rule:evenodd;stroke:#000000;stroke-width:2.0px;stroke-linecap:butt;stroke-linejoin:miter;stroke-opacity:1"/>
<path class="bond-6 atom-6 atom-7" d="M 746.6,179.4 L 746.4,151.3" style="fill:none;fill-rule:evenodd;stroke:#000000;stroke-width:2.0px;stroke-linecap:butt;stroke-linejoin:miter;stroke-opacity:1"/>
<path class="bond-6 atom-6 atom-7" d="M 742.4,177.0 L 742.2,153.7" style="fill:none;fill-rule:evenodd;stroke:#000000;stroke-width:2.0px;stroke-linecap:butt;stroke-linejoin:miter;stroke-opacity:1"/>
<path class="bond-7 atom-7 atom-8" d="M 746.4,151.3 L 756.3,145.5" style="fill:none;fill-rule:evenodd;stroke:#000000;stroke-width:2.0px;stroke-linecap:butt;stroke-linejoin:miter;stroke-opacity:1"/>
<path class="bond-7 atom-7 atom-8" d="M 756.3,145.5 L 766.1,139.7" style="fill:none;fill-rule:evenodd;stroke:#FF0000;stroke-width:2.0px;stroke-linecap:butt;stroke-linejoin:miter;stroke-opacity:1"/>
<path class="bond-8 atom-7 atom-9" d="M 746.4,151.3 L 722.0,137.4" style="fill:none;fill-rule:evenodd;stroke:#000000;stroke-width:2.0px;stroke-linecap:butt;stroke-linejoin:miter;stroke-opacity:1"/>
<path class="bond-9 atom-9 atom-10" d="M 722.0,137.4 L 697.7,151.6" style="fill:none;fill-rule:evenodd;stroke:#000000;stroke-width:2.0px;stroke-linecap:butt;stroke-linejoin:miter;stroke-opacity:1"/>
<path class="bond-9 atom-9 atom-10" d="M 722.0,142.3 L 702.0,154.0" style="fill:none;fill-rule:evenodd;stroke:#000000;stroke-width:2.0px;stroke-linecap:butt;stroke-linejoin:miter;stroke-opacity:1"/>
<path class="bond-10 atom-1 atom-11" d="M 625.0,194.4 L 600.5,180.5" style="fill:none;fill-rule:evenodd;stroke:#000000;stroke-width:2.0px;stroke-linecap:butt;stroke-linejoin:miter;stroke-opacity:1"/>
<path class="bond-11 atom-11 atom-12" d="M 600.5,180.5 L 600.3,152.4" style="fill:none;fill-rule:evenodd;stroke:#000000;stroke-width:2.0px;stroke-linecap:butt;stroke-linejoin:miter;stroke-opacity:1"/>
<path class="bond-11 atom-11 atom-12" d="M 596.3,178.1 L 596.1,154.8" style="fill:none;fill-rule:evenodd;stroke:#000000;stroke-width:2.0px;stroke-linecap:butt;stroke-linejoin:miter;stroke-opacity:1"/>
<path class="bond-12 atom-12 atom-13" d="M 600.3,152.4 L 575.8,138.5" style="fill:none;fill-rule:evenodd;stroke:#000000;stroke-width:2.0px;stroke-linecap:butt;stroke-linejoin:miter;stroke-opacity:1"/>
<path class="bond-13 atom-13 atom-14" d="M 575.8,138.5 L 551.6,152.7" style="fill:none;fill-rule:evenodd;stroke:#000000;stroke-width:2.0px;stroke-linecap:butt;stroke-linejoin:miter;stroke-opacity:1"/>
<path class="bond-13 atom-13 atom-14" d="M 575.9,143.3 L 555.8,155.1" style="fill:none;fill-rule:evenodd;stroke:#000000;stroke-width:2.0px;stroke-linecap:butt;stroke-linejoin:miter;stroke-opacity:1"/>
<path class="bond-14 atom-14 atom-15" d="M 551.6,152.7 L 551.8,180.8" style="fill:none;fill-rule:evenodd;stroke:#000000;stroke-width:2.0px;stroke-linecap:butt;stroke-linejoin:miter;stroke-opacity:1"/>
<path class="bond-15 atom-15 atom-16" d="M 551.8,180.8 L 527.5,195.1" style="fill:none;fill-rule:evenodd;stroke:#000000;stroke-width:2.0px;stroke-linecap:butt;stroke-linejoin:miter;stroke-opacity:1"/>
<path class="bond-16 atom-16 atom-17" d="M 527.5,195.1 L 503.1,181.2" style="fill:none;fill-rule:evenodd;stroke:#000000;stroke-width:2.0px;stroke-linecap:butt;stroke-linejoin:miter;stroke-opacity:1"/>
<path class="bond-17 atom-17 atom-18" d="M 503.1,181.2 L 502.9,153.1" style="fill:none;fill-rule:evenodd;stroke:#000000;stroke-width:2.0px;stroke-linecap:butt;stroke-linejoin:miter;stroke-opacity:1"/>
<path class="bond-17 atom-17 atom-18" d="M 498.8,178.8 L 498.7,155.5" style="fill:none;fill-rule:evenodd;stroke:#000000;stroke-width:2.0px;stroke-linecap:butt;stroke-linejoin:miter;stroke-opacity:1"/>
<path class="bond-18 atom-18 atom-19" d="M 502.9,153.1 L 478.4,139.2" style="fill:none;fill-rule:evenodd;stroke:#000000;stroke-width:2.0px;stroke-linecap:butt;stroke-linejoin:miter;stroke-opacity:1"/>
<path class="bond-19 atom-19 atom-20" d="M 478.4,139.2 L 454.2,153.4" style="fill:none;fill-rule:evenodd;stroke:#000000;stroke-width:2.0px;stroke-linecap:butt;stroke-linejoin:miter;stroke-opacity:1"/>
<path class="bond-19 atom-19 atom-20" d="M 478.5,144.1 L 458.4,155.8" style="fill:none;fill-rule:evenodd;stroke:#000000;stroke-width:2.0px;stroke-linecap:butt;stroke-linejoin:miter;stroke-opacity:1"/>
<path class="bond-20 atom-20 atom-21" d="M 454.2,153.4 L 444.2,147.8" style="fill:none;fill-rule:evenodd;stroke:#000000;stroke-width:2.0px;stroke-linecap:butt;stroke-linejoin:miter;stroke-opacity:1"/>
<path class="bond-20 atom-20 atom-21" d="M 444.2,147.8 L 434.3,142.1" style="fill:none;fill-rule:evenodd;stroke:#FF0000;stroke-width:2.0px;stroke-linecap:butt;stroke-linejoin:miter;stroke-opacity:1"/>
<path class="bond-21 atom-20 atom-22" d="M 454.2,153.4 L 454.4,181.6" style="fill:none;fill-rule:evenodd;stroke:#000000;stroke-width:2.0px;stroke-linecap:butt;stroke-linejoin:miter;stroke-opacity:1"/>
<path class="bond-22 atom-22 atom-23" d="M 454.4,181.6 L 478.8,195.4" style="fill:none;fill-rule:evenodd;stroke:#000000;stroke-width:2.0px;stroke-linecap:butt;stroke-linejoin:miter;stroke-opacity:1"/>
<path class="bond-22 atom-22 atom-23" d="M 458.6,179.1 L 478.8,190.6" style="fill:none;fill-rule:evenodd;stroke:#000000;stroke-width:2.0px;stroke-linecap:butt;stroke-linejoin:miter;stroke-opacity:1"/>
<path class="bond-23 atom-15 atom-24" d="M 551.8,180.8 L 576.3,194.7" style="fill:none;fill-rule:evenodd;stroke:#000000;stroke-width:2.0px;stroke-linecap:butt;stroke-linejoin:miter;stroke-opacity:1"/>
<path class="bond-23 atom-15 atom-24" d="M 556.0,178.4 L 576.2,189.8" style="fill:none;fill-rule:evenodd;stroke:#000000;stroke-width:2.0px;stroke-linecap:butt;stroke-linejoin:miter;stroke-opacity:1"/>
<path class="bond-24 atom-24 atom-25" d="M 576.3,194.7 L 576.3,206.3" style="fill:none;fill-rule:evenodd;stroke:#000000;stroke-width:2.0px;stroke-linecap:butt;stroke-linejoin:miter;stroke-opacity:1"/>
<path class="bond-24 atom-24 atom-25" d="M 576.3,206.3 L 576.4,217.9" style="fill:none;fill-rule:evenodd;stroke:#FF0000;stroke-width:2.0px;stroke-linecap:butt;stroke-linejoin:miter;stroke-opacity:1"/>
<path class="bond-25 atom-10 atom-4" d="M 697.7,151.6 L 697.9,179.8" style="fill:none;fill-rule:evenodd;stroke:#000000;stroke-width:2.0px;stroke-linecap:butt;stroke-linejoin:miter;stroke-opacity:1"/>
<path class="bond-26 atom-24 atom-11" d="M 576.3,194.7 L 600.5,180.5" style="fill:none;fill-rule:evenodd;stroke:#000000;stroke-width:2.0px;stroke-linecap:butt;stroke-linejoin:miter;stroke-opacity:1"/>
<path class="bond-27 atom-23 atom-17" d="M 478.8,195.4 L 503.1,181.2" style="fill:none;fill-rule:evenodd;stroke:#000000;stroke-width:2.0px;stroke-linecap:butt;stroke-linejoin:miter;stroke-opacity:1"/>
<path d="M 626.2,193.6 L 625.0,194.4 L 623.7,193.7" style="fill:none;stroke:#000000;stroke-width:2.0px;stroke-linecap:butt;stroke-linejoin:miter;stroke-opacity:1;"/>
<path d="M 648.0,180.8 L 649.2,180.1 L 650.4,180.8" style="fill:none;stroke:#000000;stroke-width:2.0px;stroke-linecap:butt;stroke-linejoin:miter;stroke-opacity:1;"/>
<path d="M 672.5,193.3 L 673.7,194.0 L 674.9,193.3" style="fill:none;stroke:#000000;stroke-width:2.0px;stroke-linecap:butt;stroke-linejoin:miter;stroke-opacity:1;"/>
<path d="M 721.2,192.9 L 722.4,193.6 L 723.6,192.9" style="fill:none;stroke:#000000;stroke-width:2.0px;stroke-linecap:butt;stroke-linejoin:miter;stroke-opacity:1;"/>
<path d="M 745.4,180.1 L 746.6,179.4 L 746.6,178.0" style="fill:none;stroke:#000000;stroke-width:2.0px;stroke-linecap:butt;stroke-linejoin:miter;stroke-opacity:1;"/>
<path d="M 723.2,138.1 L 722.0,137.4 L 720.8,138.1" style="fill:none;stroke:#000000;stroke-width:2.0px;stroke-linecap:butt;stroke-linejoin:miter;stroke-opacity:1;"/>
<path d="M 698.9,150.9 L 697.7,151.6 L 697.7,153.0" style="fill:none;stroke:#000000;stroke-width:2.0px;stroke-linecap:butt;stroke-linejoin:miter;stroke-opacity:1;"/>
<path d="M 600.3,153.8 L 600.3,152.4 L 599.1,151.7" style="fill:none;stroke:#000000;stroke-width:2.0px;stroke-linecap:butt;stroke-linejoin:miter;stroke-opacity:1;"/>
<path d="M 577.1,139.2 L 575.8,138.5 L 574.6,139.2" style="fill:none;stroke:#000000;stroke-width:2.0px;stroke-linecap:butt;stroke-linejoin:miter;stroke-opacity:1;"/>
<path d="M 552.8,152.0 L 551.6,152.7 L 551.6,154.1" style="fill:none;stroke:#000000;stroke-width:2.0px;stroke-linecap:butt;stroke-linejoin:miter;stroke-opacity:1;"/>
<path d="M 528.8,194.4 L 527.5,195.1 L 526.3,194.4" style="fill:none;stroke:#000000;stroke-width:2.0px;stroke-linecap:butt;stroke-linejoin:miter;stroke-opacity:1;"/>
<path d="M 502.9,154.5 L 502.9,153.1 L 501.7,152.4" style="fill:none;stroke:#000000;stroke-width:2.0px;stroke-linecap:butt;stroke-linejoin:miter;stroke-opacity:1;"/>
<path d="M 479.6,139.9 L 478.4,139.2 L 477.2,139.9" style="fill:none;stroke:#000000;stroke-width:2.0px;stroke-linecap:butt;stroke-linejoin:miter;stroke-opacity:1;"/>
<path d="M 454.4,180.1 L 454.4,181.6 L 455.6,182.2" style="fill:none;stroke:#000000;stroke-width:2.0px;stroke-linecap:butt;stroke-linejoin:miter;stroke-opacity:1;"/>
<path d="M 477.6,194.7 L 478.8,195.4 L 480.0,194.7" style="fill:none;stroke:#000000;stroke-width:2.0px;stroke-linecap:butt;stroke-linejoin:miter;stroke-opacity:1;"/>
<path class="atom-0" d="M 621.5 222.5 Q 621.5 220.6, 622.5 219.5 Q 623.4 218.5, 625.2 218.5 Q 626.9 218.5, 627.9 219.5 Q 628.8 220.6, 628.8 222.5 Q 628.8 224.4, 627.9 225.5 Q 626.9 226.6, 625.2 226.6 Q 623.4 226.6, 622.5 225.5 Q 621.5 224.5, 621.5 222.5 M 625.2 225.7 Q 626.4 225.7, 627.0 224.9 Q 627.7 224.1, 627.7 222.5 Q 627.7 220.9, 627.0 220.2 Q 626.4 219.4, 625.2 219.4 Q 624.0 219.4, 623.3 220.1 Q 622.6 220.9, 622.6 222.5 Q 622.6 224.1, 623.3 224.9 Q 624.0 225.7, 625.2 225.7 " fill="#FF0000"/>
<path class="atom-8" d="M 767.0 137.1 Q 767.0 135.1, 768.0 134.1 Q 768.9 133.0, 770.7 133.0 Q 772.5 133.0, 773.4 134.1 Q 774.3 135.1, 774.3 137.1 Q 774.3 139.0, 773.4 140.1 Q 772.4 141.2, 770.7 141.2 Q 768.9 141.2, 768.0 140.1 Q 767.0 139.0, 767.0 137.1 M 770.7 140.3 Q 771.9 140.3, 772.6 139.5 Q 773.2 138.7, 773.2 137.1 Q 773.2 135.5, 772.6 134.7 Q 771.9 133.9, 770.7 133.9 Q 769.5 133.9, 768.8 134.7 Q 768.2 135.5, 768.2 137.1 Q 768.2 138.7, 768.8 139.5 Q 769.5 140.3, 770.7 140.3 " fill="#FF0000"/>
<path class="atom-8" d="M 775.6 133.1 L 776.7 133.1 L 776.7 136.5 L 780.7 136.5 L 780.7 133.1 L 781.8 133.1 L 781.8 141.1 L 780.7 141.1 L 780.7 137.4 L 776.7 137.4 L 776.7 141.1 L 775.6 141.1 L 775.6 133.1 " fill="#FF0000"/>
<path class="atom-21" d="M 418.2 135.6 L 419.3 135.6 L 419.3 139.0 L 423.3 139.0 L 423.3 135.6 L 424.4 135.6 L 424.4 143.6 L 423.3 143.6 L 423.3 139.9 L 419.3 139.9 L 419.3 143.6 L 418.2 143.6 L 418.2 135.6 " fill="#FF0000"/>
<path class="atom-21" d="M 426.0 139.6 Q 426.0 137.7, 427.0 136.6 Q 427.9 135.5, 429.7 135.5 Q 431.5 135.5, 432.4 136.6 Q 433.4 137.7, 433.4 139.6 Q 433.4 141.5, 432.4 142.6 Q 431.4 143.7, 429.7 143.7 Q 427.9 143.7, 427.0 142.6 Q 426.0 141.5, 426.0 139.6 M 429.7 142.8 Q 430.9 142.8, 431.6 142.0 Q 432.2 141.2, 432.2 139.6 Q 432.2 138.0, 431.6 137.2 Q 430.9 136.4, 429.7 136.4 Q 428.5 136.4, 427.8 137.2 Q 427.2 138.0, 427.2 139.6 Q 427.2 141.2, 427.8 142.0 Q 428.5 142.8, 429.7 142.8 " fill="#FF0000"/>
<path class="atom-25" d="M 572.8 222.9 Q 572.8 221.0, 573.8 219.9 Q 574.7 218.8, 576.5 218.8 Q 578.2 218.8, 579.2 219.9 Q 580.1 221.0, 580.1 222.9 Q 580.1 224.8, 579.2 225.9 Q 578.2 227.0, 576.5 227.0 Q 574.7 227.0, 573.8 225.9 Q 572.8 224.8, 572.8 222.9 M 576.5 226.1 Q 577.7 226.1, 578.3 225.3 Q 579.0 224.5, 579.0 222.9 Q 579.0 221.3, 578.3 220.5 Q 577.7 219.7, 576.5 219.7 Q 575.2 219.7, 574.6 220.5 Q 573.9 221.3, 573.9 222.9 Q 573.9 224.5, 574.6 225.3 Q 575.2 226.1, 576.5 226.1 " fill="#FF0000"/>
<path class="atom-25" d="M 581.4 218.9 L 582.4 218.9 L 582.4 222.3 L 586.5 222.3 L 586.5 218.9 L 587.6 218.9 L 587.6 226.9 L 586.5 226.9 L 586.5 223.2 L 582.4 223.2 L 582.4 226.9 L 581.4 226.9 L 581.4 218.9 " fill="#FF0000"/>
<path class="legend" d="M 553.5 380.4 Q 553.5 377.6, 554.8 376.1 Q 556.1 374.6, 558.7 374.6 Q 561.0 374.6, 562.2 376.3 L 561.2 377.1 Q 560.3 375.9, 558.7 375.9 Q 556.9 375.9, 556.0 377.1 Q 555.1 378.2, 555.1 380.4 Q 555.1 382.6, 556.1 383.8 Q 557.0 384.9, 558.8 384.9 Q 560.1 384.9, 561.5 384.2 L 562.0 385.4 Q 561.4 385.8, 560.5 386.0 Q 559.6 386.2, 558.6 386.2 Q 556.1 386.2, 554.8 384.7 Q 553.5 383.2, 553.5 380.4 " fill="#000000"/>
<path class="legend" d="M 563.6 382.0 Q 563.6 380.0, 564.6 378.8 Q 565.6 377.7, 567.5 377.7 Q 569.4 377.7, 570.4 378.8 Q 571.4 380.0, 571.4 382.0 Q 571.4 384.0, 570.4 385.1 Q 569.4 386.2, 567.5 386.2 Q 565.6 386.2, 564.6 385.1 Q 563.6 384.0, 563.6 382.0 M 565.1 382.0 Q 565.1 383.5, 565.8 384.2 Q 566.4 385.0, 567.5 385.0 Q 568.7 385.0, 569.3 384.2 Q 569.9 383.5, 569.9 382.0 Q 569.9 380.4, 569.3 379.7 Q 568.7 378.9, 567.5 378.9 Q 566.4 378.9, 565.8 379.7 Q 565.1 380.4, 565.1 382.0 " fill="#000000"/>
<path class="legend" d="M 582.4 377.7 Q 583.8 377.7, 584.5 378.5 Q 585.2 379.2, 585.2 380.6 L 585.2 386.1 L 583.7 386.1 L 583.7 380.8 Q 583.7 379.8, 583.3 379.3 Q 582.9 378.9, 582.1 378.9 Q 581.4 378.9, 580.8 379.2 Q 580.2 379.6, 579.8 380.2 Q 579.8 380.3, 579.8 380.6 L 579.8 386.1 L 578.3 386.1 L 578.3 380.8 Q 578.3 379.8, 577.9 379.3 Q 577.5 378.9, 576.7 378.9 Q 576.0 378.9, 575.4 379.2 Q 574.8 379.6, 574.4 380.2 L 574.4 386.1 L 572.9 386.1 L 572.9 377.9 L 574.1 377.9 L 574.3 379.0 Q 575.4 377.7, 577.0 377.7 Q 578.9 377.7, 579.5 379.2 Q 580.6 377.7, 582.4 377.7 " fill="#000000"/>
<path class="legend" d="M 591.0 377.7 Q 592.7 377.7, 593.6 378.8 Q 594.6 379.8, 594.6 381.8 Q 594.6 383.9, 593.5 385.1 Q 592.3 386.2, 590.4 386.2 Q 589.4 386.2, 588.7 386.0 L 588.7 390.0 L 587.2 390.0 L 587.2 377.9 L 588.4 377.9 L 588.6 378.8 Q 589.0 378.3, 589.6 378.0 Q 590.2 377.7, 591.0 377.7 M 590.4 385.0 Q 591.6 385.0, 592.3 384.2 Q 593.1 383.3, 593.1 381.8 Q 593.1 380.4, 592.5 379.7 Q 591.9 378.9, 590.9 378.9 Q 590.1 378.9, 589.5 379.3 Q 588.9 379.8, 588.7 380.5 L 588.7 384.8 Q 589.5 385.0, 590.4 385.0 " fill="#000000"/>
<path class="legend" d="M 596.0 382.0 Q 596.0 380.0, 597.1 378.8 Q 598.1 377.7, 600.0 377.7 Q 601.8 377.7, 602.8 378.8 Q 603.9 380.0, 603.9 382.0 Q 603.9 384.0, 602.8 385.1 Q 601.8 386.2, 600.0 386.2 Q 598.1 386.2, 597.1 385.1 Q 596.0 384.0, 596.0 382.0 M 597.6 382.0 Q 597.6 383.5, 598.2 384.2 Q 598.8 385.0, 600.0 385.0 Q 601.1 385.0, 601.7 384.2 Q 602.3 383.5, 602.3 382.0 Q 602.3 380.4, 601.7 379.7 Q 601.1 378.9, 600.0 378.9 Q 598.8 378.9, 598.2 379.7 Q 597.6 380.4, 597.6 382.0 " fill="#000000"/>
<path class="legend" d="M 612.3 377.9 L 612.3 386.1 L 611.1 386.1 L 610.9 384.9 Q 609.8 386.2, 608.1 386.2 Q 606.7 386.2, 606.0 385.5 Q 605.3 384.7, 605.3 383.3 L 605.3 377.9 L 606.8 377.9 L 606.8 383.2 Q 606.8 384.2, 607.2 384.6 Q 607.6 385.0, 608.4 385.0 Q 609.2 385.0, 609.8 384.7 Q 610.4 384.4, 610.8 383.7 L 610.8 377.9 L 612.3 377.9 " fill="#000000"/>
<path class="legend" d="M 618.6 377.7 Q 620.0 377.7, 620.6 378.5 Q 621.4 379.2, 621.4 380.6 L 621.4 386.1 L 619.8 386.1 L 619.8 380.8 Q 619.8 379.8, 619.5 379.3 Q 619.1 378.9, 618.3 378.9 Q 617.5 378.9, 616.9 379.2 Q 616.3 379.6, 615.9 380.2 L 615.9 386.1 L 614.4 386.1 L 614.4 377.9 L 615.6 377.9 L 615.8 379.0 Q 616.9 377.7, 618.6 377.7 " fill="#000000"/>
<path class="legend" d="M 630.8 373.9 L 630.8 386.1 L 629.6 386.1 L 629.4 385.1 Q 628.5 386.2, 626.9 386.2 Q 625.2 386.2, 624.3 385.2 Q 623.3 384.1, 623.3 382.1 Q 623.3 380.0, 624.4 378.9 Q 625.6 377.7, 627.5 377.7 Q 628.4 377.7, 629.3 377.9 L 629.3 373.9 L 630.8 373.9 M 627.0 385.0 Q 627.9 385.0, 628.5 384.6 Q 629.1 384.1, 629.3 383.3 L 629.3 379.1 Q 628.5 378.9, 627.6 378.9 Q 626.3 378.9, 625.6 379.7 Q 624.9 380.6, 624.9 382.1 Q 624.9 383.5, 625.4 384.3 Q 626.0 385.0, 627.0 385.0 " fill="#000000"/>
<path class="legend" d="" fill="#000000"/>
<path class="legend" d="M 638.9 376.9 Q 639.3 375.8, 640.3 375.2 Q 641.3 374.6, 642.7 374.6 Q 644.4 374.6, 645.3 375.6 Q 646.3 376.5, 646.3 378.1 Q 646.3 379.8, 645.1 381.4 Q 643.8 382.9, 641.3 384.8 L 646.5 384.8 L 646.5 386.1 L 638.9 386.1 L 638.9 385.0 Q 641.0 383.5, 642.2 382.4 Q 643.5 381.3, 644.1 380.3 Q 644.7 379.2, 644.7 378.2 Q 644.7 377.1, 644.2 376.5 Q 643.6 375.9, 642.7 375.9 Q 641.8 375.9, 641.2 376.3 Q 640.5 376.6, 640.1 377.5 L 638.9 376.9 " fill="#000000"/>
<path class="bond-0 atom-0 atom-1" d="M 1023.0,217.5 L 1022.9,205.4" style="fill:none;fill-rule:evenodd;stroke:#FF0000;stroke-width:2.0px;stroke-linecap:butt;stroke-linejoin:miter;stroke-opacity:1"/>
<path class="bond-0 atom-0 atom-1" d="M 1022.9,205.4 L 1022.8,193.2" style="fill:none;fill-rule:evenodd;stroke:#000000;stroke-width:2.0px;stroke-linecap:butt;stroke-linejoin:miter;stroke-opacity:1"/>
<path class="bond-0 atom-0 atom-1" d="M 1027.2,217.5 L 1027.2,205.3" style="fill:none;fill-rule:evenodd;stroke:#FF0000;stroke-width:2.0px;stroke-linecap:butt;stroke-linejoin:miter;stroke-opacity:1"/>
<path class="bond-0 atom-0 atom-1" d="M 1027.2,205.3 L 1027.1,193.1" style="fill:none;fill-rule:evenodd;stroke:#000000;stroke-width:2.0px;stroke-linecap:butt;stroke-linejoin:miter;stroke-opacity:1"/>
<path class="bond-1 atom-1 atom-2" d="M 1025.0,194.4 L 1049.2,180.1" style="fill:none;fill-rule:evenodd;stroke:#000000;stroke-width:2.0px;stroke-linecap:butt;stroke-linejoin:miter;stroke-opacity:1"/>
<path class="bond-2 atom-2 atom-3" d="M 1049.2,180.1 L 1073.7,194.0" style="fill:none;fill-rule:evenodd;stroke:#000000;stroke-width:2.0px;stroke-linecap:butt;stroke-linejoin:miter;stroke-opacity:1"/>
<path class="bond-3 atom-3 atom-4" d="M 1073.7,194.0 L 1097.9,179.8" style="fill:none;fill-rule:evenodd;stroke:#000000;stroke-width:2.0px;stroke-linecap:butt;stroke-linejoin:miter;stroke-opacity:1"/>
<path class="bond-4 atom-4 atom-5" d="M 1097.9,179.8 L 1122.4,193.6" style="fill:none;fill-rule:evenodd;stroke:#000000;stroke-width:2.0px;stroke-linecap:butt;stroke-linejoin:miter;stroke-opacity:1"/>
<path class="bond-4 atom-4 atom-5" d="M 1102.1,177.3 L 1122.4,188.8" style="fill:none;fill-rule:evenodd;stroke:#000000;stroke-width:2.0px;stroke-linecap:butt;stroke-linejoin:miter;stroke-opacity:1"/>
<path class="bond-5 atom-5 atom-6" d="M 1122.4,193.6 L 1146.6,179.4" style="fill:none;fill-rule:evenodd;stroke:#000000;stroke-width:2.0px;stroke-linecap:butt;stroke-linejoin:miter;stroke-opacity:1"/>
<path class="bond-6 atom-6 atom-7" d="M 1146.6,179.4 L 1146.4,151.3" style="fill:none;fill-rule:evenodd;stroke:#000000;stroke-width:2.0px;stroke-linecap:butt;stroke-linejoin:miter;stroke-opacity:1"/>
<path class="bond-6 atom-6 atom-7" d="M 1142.4,177.0 L 1142.2,153.7" style="fill:none;fill-rule:evenodd;stroke:#000000;stroke-width:2.0px;stroke-linecap:butt;stroke-linejoin:miter;stroke-opacity:1"/>
<path class="bond-7 atom-7 atom-8" d="M 1146.4,151.3 L 1156.3,145.5" style="fill:none;fill-rule:evenodd;stroke:#000000;stroke-width:2.0px;stroke-linecap:butt;stroke-linejoin:miter;stroke-opacity:1"/>
<path class="bond-7 atom-7 atom-8" d="M 1156.3,145.5 L 1166.1,139.7" style="fill:none;fill-rule:evenodd;stroke:#FF0000;stroke-width:2.0px;stroke-linecap:butt;stroke-linejoin:miter;stroke-opacity:1"/>
<path class="bond-8 atom-7 atom-9" d="M 1146.4,151.3 L 1122.0,137.4" style="fill:none;fill-rule:evenodd;stroke:#000000;stroke-width:2.0px;stroke-linecap:butt;stroke-linejoin:miter;stroke-opacity:1"/>
<path class="bond-9 atom-9 atom-10" d="M 1122.0,137.4 L 1097.7,151.6" style="fill:none;fill-rule:evenodd;stroke:#000000;stroke-width:2.0px;stroke-linecap:butt;stroke-linejoin:miter;stroke-opacity:1"/>
<path class="bond-9 atom-9 atom-10" d="M 1122.0,142.3 L 1102.0,154.0" style="fill:none;fill-rule:evenodd;stroke:#000000;stroke-width:2.0px;stroke-linecap:butt;stroke-linejoin:miter;stroke-opacity:1"/>
<path class="bond-10 atom-1 atom-11" d="M 1025.0,194.4 L 1000.5,180.5" style="fill:none;fill-rule:evenodd;stroke:#000000;stroke-width:2.0px;stroke-linecap:butt;stroke-linejoin:miter;stroke-opacity:1"/>
<path class="bond-11 atom-11 atom-12" d="M 1000.5,180.5 L 1000.3,152.4" style="fill:none;fill-rule:evenodd;stroke:#000000;stroke-width:2.0px;stroke-linecap:butt;stroke-linejoin:miter;stroke-opacity:1"/>
<path class="bond-12 atom-12 atom-13" d="M 1000.3,152.4 L 975.8,138.5" style="fill:none;fill-rule:evenodd;stroke:#000000;stroke-width:2.0px;stroke-linecap:butt;stroke-linejoin:miter;stroke-opacity:1"/>
<path class="bond-13 atom-13 atom-14" d="M 975.8,138.5 L 951.6,152.7" style="fill:none;fill-rule:evenodd;stroke:#000000;stroke-width:2.0px;stroke-linecap:butt;stroke-linejoin:miter;stroke-opacity:1"/>
<path class="bond-14 atom-14 atom-15" d="M 951.6,152.7 L 951.8,180.8" style="fill:none;fill-rule:evenodd;stroke:#000000;stroke-width:2.0px;stroke-linecap:butt;stroke-linejoin:miter;stroke-opacity:1"/>
<path class="bond-15 atom-15 atom-16" d="M 951.8,180.8 L 927.5,195.1" style="fill:none;fill-rule:evenodd;stroke:#000000;stroke-width:2.0px;stroke-linecap:butt;stroke-linejoin:miter;stroke-opacity:1"/>
<path class="bond-16 atom-16 atom-17" d="M 927.5,195.1 L 903.1,181.2" style="fill:none;fill-rule:evenodd;stroke:#000000;stroke-width:2.0px;stroke-linecap:butt;stroke-linejoin:miter;stroke-opacity:1"/>
<path class="bond-17 atom-17 atom-18" d="M 903.1,181.2 L 902.9,153.1" style="fill:none;fill-rule:evenodd;stroke:#000000;stroke-width:2.0px;stroke-linecap:butt;stroke-linejoin:miter;stroke-opacity:1"/>
<path class="bond-17 atom-17 atom-18" d="M 898.8,178.8 L 898.7,155.5" style="fill:none;fill-rule:evenodd;stroke:#000000;stroke-width:2.0px;stroke-linecap:butt;stroke-linejoin:miter;stroke-opacity:1"/>
<path class="bond-18 atom-18 atom-19" d="M 902.9,153.1 L 878.4,139.2" style="fill:none;fill-rule:evenodd;stroke:#000000;stroke-width:2.0px;stroke-linecap:butt;stroke-linejoin:miter;stroke-opacity:1"/>
<path class="bond-19 atom-19 atom-20" d="M 878.4,139.2 L 854.2,153.4" style="fill:none;fill-rule:evenodd;stroke:#000000;stroke-width:2.0px;stroke-linecap:butt;stroke-linejoin:miter;stroke-opacity:1"/>
<path class="bond-19 atom-19 atom-20" d="M 878.5,144.1 L 858.4,155.8" style="fill:none;fill-rule:evenodd;stroke:#000000;stroke-width:2.0px;stroke-linecap:butt;stroke-linejoin:miter;stroke-opacity:1"/>
<path class="bond-20 atom-20 atom-21" d="M 854.2,153.4 L 844.2,147.8" style="fill:none;fill-rule:evenodd;stroke:#000000;stroke-width:2.0px;stroke-linecap:butt;stroke-linejoin:miter;stroke-opacity:1"/>
<path class="bond-20 atom-20 atom-21" d="M 844.2,147.8 L 834.3,142.1" style="fill:none;fill-rule:evenodd;stroke:#FF0000;stroke-width:2.0px;stroke-linecap:butt;stroke-linejoin:miter;stroke-opacity:1"/>
<path class="bond-21 atom-20 atom-22" d="M 854.2,153.4 L 854.4,181.6" style="fill:none;fill-rule:evenodd;stroke:#000000;stroke-width:2.0px;stroke-linecap:butt;stroke-linejoin:miter;stroke-opacity:1"/>
<path class="bond-22 atom-22 atom-23" d="M 854.4,181.6 L 878.8,195.4" style="fill:none;fill-rule:evenodd;stroke:#000000;stroke-width:2.0px;stroke-linecap:butt;stroke-linejoin:miter;stroke-opacity:1"/>
<path class="bond-22 atom-22 atom-23" d="M 858.6,179.1 L 878.8,190.6" style="fill:none;fill-rule:evenodd;stroke:#000000;stroke-width:2.0px;stroke-linecap:butt;stroke-linejoin:miter;stroke-opacity:1"/>
<path class="bond-23 atom-15 atom-24" d="M 951.8,180.8 L 976.3,194.7" style="fill:none;fill-rule:evenodd;stroke:#000000;stroke-width:2.0px;stroke-linecap:butt;stroke-linejoin:miter;stroke-opacity:1"/>
<path class="bond-24 atom-24 atom-25" d="M 974.1,193.5 L 974.2,205.7" style="fill:none;fill-rule:evenodd;stroke:#000000;stroke-width:2.0px;stroke-linecap:butt;stroke-linejoin:miter;stroke-opacity:1"/>
<path class="bond-24 atom-24 atom-25" d="M 974.2,205.7 L 974.3,217.9" style="fill:none;fill-rule:evenodd;stroke:#FF0000;stroke-width:2.0px;stroke-linecap:butt;stroke-linejoin:miter;stroke-opacity:1"/>
<path class="bond-24 atom-24 atom-25" d="M 978.4,193.5 L 978.4,205.7" style="fill:none;fill-rule:evenodd;stroke:#000000;stroke-width:2.0px;stroke-linecap:butt;stroke-linejoin:miter;stroke-opacity:1"/>
<path class="bond-24 atom-24 atom-25" d="M 978.4,205.7 L 978.5,217.9" style="fill:none;fill-rule:evenodd;stroke:#FF0000;stroke-width:2.0px;stroke-linecap:butt;stroke-linejoin:miter;stroke-opacity:1"/>
<path class="bond-25 atom-10 atom-4" d="M 1097.7,151.6 L 1097.9,179.8" style="fill:none;fill-rule:evenodd;stroke:#000000;stroke-width:2.0px;stroke-linecap:butt;stroke-linejoin:miter;stroke-opacity:1"/>
<path class="bond-26 atom-24 atom-11" d="M 976.3,194.7 L 1000.5,180.5" style="fill:none;fill-rule:evenodd;stroke:#000000;stroke-width:2.0px;stroke-linecap:butt;stroke-linejoin:miter;stroke-opacity:1"/>
<path class="bond-27 atom-23 atom-17" d="M 878.8,195.4 L 903.1,181.2" style="fill:none;fill-rule:evenodd;stroke:#000000;stroke-width:2.0px;stroke-linecap:butt;stroke-linejoin:miter;stroke-opacity:1"/>
<path d="M 1026.2,193.6 L 1025.0,194.4 L 1023.7,193.7" style="fill:none;stroke:#000000;stroke-width:2.0px;stroke-linecap:butt;stroke-linejoin:miter;stroke-opacity:1;"/>
<path d="M 1048.0,180.8 L 1049.2,180.1 L 1050.4,180.8" style="fill:none;stroke:#000000;stroke-width:2.0px;stroke-linecap:butt;stroke-linejoin:miter;stroke-opacity:1;"/>
<path d="M 1072.5,193.3 L 1073.7,194.0 L 1074.9,193.3" style="fill:none;stroke:#000000;stroke-width:2.0px;stroke-linecap:butt;stroke-linejoin:miter;stroke-opacity:1;"/>
<path d="M 1121.2,192.9 L 1122.4,193.6 L 1123.6,192.9" style="fill:none;stroke:#000000;stroke-width:2.0px;stroke-linecap:butt;stroke-linejoin:miter;stroke-opacity:1;"/>
<path d="M 1145.4,180.1 L 1146.6,179.4 L 1146.6,178.0" style="fill:none;stroke:#000000;stroke-width:2.0px;stroke-linecap:butt;stroke-linejoin:miter;stroke-opacity:1;"/>
<path d="M 1123.2,138.1 L 1122.0,137.4 L 1120.8,138.1" style="fill:none;stroke:#000000;stroke-width:2.0px;stroke-linecap:butt;stroke-linejoin:miter;stroke-opacity:1;"/>
<path d="M 1098.9,150.9 L 1097.7,151.6 L 1097.7,153.0" style="fill:none;stroke:#000000;stroke-width:2.0px;stroke-linecap:butt;stroke-linejoin:miter;stroke-opacity:1;"/>
<path d="M 1000.3,153.8 L 1000.3,152.4 L 999.1,151.7" style="fill:none;stroke:#000000;stroke-width:2.0px;stroke-linecap:butt;stroke-linejoin:miter;stroke-opacity:1;"/>
<path d="M 977.1,139.2 L 975.8,138.5 L 974.6,139.2" style="fill:none;stroke:#000000;stroke-width:2.0px;stroke-linecap:butt;stroke-linejoin:miter;stroke-opacity:1;"/>
<path d="M 952.8,152.0 L 951.6,152.7 L 951.6,154.1" style="fill:none;stroke:#000000;stroke-width:2.0px;stroke-linecap:butt;stroke-linejoin:miter;stroke-opacity:1;"/>
<path d="M 928.8,194.4 L 927.5,195.1 L 926.3,194.4" style="fill:none;stroke:#000000;stroke-width:2.0px;stroke-linecap:butt;stroke-linejoin:miter;stroke-opacity:1;"/>
<path d="M 902.9,154.5 L 902.9,153.1 L 901.7,152.4" style="fill:none;stroke:#000000;stroke-width:2.0px;stroke-linecap:butt;stroke-linejoin:miter;stroke-opacity:1;"/>
<path d="M 879.6,139.9 L 878.4,139.2 L 877.2,139.9" style="fill:none;stroke:#000000;stroke-width:2.0px;stroke-linecap:butt;stroke-linejoin:miter;stroke-opacity:1;"/>
<path d="M 854.4,180.1 L 854.4,181.6 L 855.6,182.2" style="fill:none;stroke:#000000;stroke-width:2.0px;stroke-linecap:butt;stroke-linejoin:miter;stroke-opacity:1;"/>
<path d="M 877.6,194.7 L 878.8,195.4 L 880.0,194.7" style="fill:none;stroke:#000000;stroke-width:2.0px;stroke-linecap:butt;stroke-linejoin:miter;stroke-opacity:1;"/>
<path d="M 975.0,194.0 L 976.3,194.7 L 977.5,194.0" style="fill:none;stroke:#000000;stroke-width:2.0px;stroke-linecap:butt;stroke-linejoin:miter;stroke-opacity:1;"/>
<path class="atom-0" d="M 1021.5 222.5 Q 1021.5 220.6, 1022.5 219.5 Q 1023.4 218.5, 1025.2 218.5 Q 1026.9 218.5, 1027.9 219.5 Q 1028.8 220.6, 1028.8 222.5 Q 1028.8 224.4, 1027.9 225.5 Q 1026.9 226.6, 1025.2 226.6 Q 1023.4 226.6, 1022.5 225.5 Q 1021.5 224.5, 1021.5 222.5 M 1025.2 225.7 Q 1026.4 225.7, 1027.0 224.9 Q 1027.7 224.1, 1027.7 222.5 Q 1027.7 220.9, 1027.0 220.2 Q 1026.4 219.4, 1025.2 219.4 Q 1024.0 219.4, 1023.3 220.1 Q 1022.6 220.9, 1022.6 222.5 Q 1022.6 224.1, 1023.3 224.9 Q 1024.0 225.7, 1025.2 225.7 " fill="#FF0000"/>
<path class="atom-8" d="M 1167.0 137.1 Q 1167.0 135.1, 1168.0 134.1 Q 1168.9 133.0, 1170.7 133.0 Q 1172.5 133.0, 1173.4 134.1 Q 1174.3 135.1, 1174.3 137.1 Q 1174.3 139.0, 1173.4 140.1 Q 1172.4 141.2, 1170.7 141.2 Q 1168.9 141.2, 1168.0 140.1 Q 1167.0 139.0, 1167.0 137.1 M 1170.7 140.3 Q 1171.9 140.3, 1172.6 139.5 Q 1173.2 138.7, 1173.2 137.1 Q 1173.2 135.5, 1172.6 134.7 Q 1171.9 133.9, 1170.7 133.9 Q 1169.5 133.9, 1168.8 134.7 Q 1168.2 135.5, 1168.2 137.1 Q 1168.2 138.7, 1168.8 139.5 Q 1169.5 140.3, 1170.7 140.3 " fill="#FF0000"/>
<path class="atom-8" d="M 1175.6 133.1 L 1176.7 133.1 L 1176.7 136.5 L 1180.7 136.5 L 1180.7 133.1 L 1181.8 133.1 L 1181.8 141.1 L 1180.7 141.1 L 1180.7 137.4 L 1176.7 137.4 L 1176.7 141.1 L 1175.6 141.1 L 1175.6 133.1 " fill="#FF0000"/>
<path class="atom-21" d="M 818.2 135.6 L 819.3 135.6 L 819.3 139.0 L 823.3 139.0 L 823.3 135.6 L 824.4 135.6 L 824.4 143.6 L 823.3 143.6 L 823.3 139.9 L 819.3 139.9 L 819.3 143.6 L 818.2 143.6 L 818.2 135.6 " fill="#FF0000"/>
<path class="atom-21" d="M 826.0 139.6 Q 826.0 137.7, 827.0 136.6 Q 827.9 135.5, 829.7 135.5 Q 831.5 135.5, 832.4 136.6 Q 833.4 137.7, 833.4 139.6 Q 833.4 141.5, 832.4 142.6 Q 831.4 143.7, 829.7 143.7 Q 827.9 143.7, 827.0 142.6 Q 826.0 141.5, 826.0 139.6 M 829.7 142.8 Q 830.9 142.8, 831.6 142.0 Q 832.2 141.2, 832.2 139.6 Q 832.2 138.0, 831.6 137.2 Q 830.9 136.4, 829.7 136.4 Q 828.5 136.4, 827.8 137.2 Q 827.2 138.0, 827.2 139.6 Q 827.2 141.2, 827.8 142.0 Q 828.5 142.8, 829.7 142.8 " fill="#FF0000"/>
<path class="atom-25" d="M 972.8 222.9 Q 972.8 221.0, 973.8 219.9 Q 974.7 218.8, 976.5 218.8 Q 978.2 218.8, 979.2 219.9 Q 980.1 221.0, 980.1 222.9 Q 980.1 224.8, 979.2 225.9 Q 978.2 227.0, 976.5 227.0 Q 974.7 227.0, 973.8 225.9 Q 972.8 224.8, 972.8 222.9 M 976.5 226.1 Q 977.7 226.1, 978.3 225.3 Q 979.0 224.5, 979.0 222.9 Q 979.0 221.3, 978.3 220.5 Q 977.7 219.7, 976.5 219.7 Q 975.2 219.7, 974.6 220.5 Q 973.9 221.3, 973.9 222.9 Q 973.9 224.5, 974.6 225.3 Q 975.2 226.1, 976.5 226.1 " fill="#FF0000"/>
<path class="legend" d="M 953.5 380.4 Q 953.5 377.6, 954.8 376.1 Q 956.2 374.6, 958.7 374.6 Q 961.0 374.6, 962.2 376.3 L 961.2 377.1 Q 960.3 375.9, 958.7 375.9 Q 957.0 375.9, 956.0 377.1 Q 955.1 378.2, 955.1 380.4 Q 955.1 382.6, 956.1 383.8 Q 957.0 384.9, 958.8 384.9 Q 960.1 384.9, 961.5 384.2 L 962.0 385.4 Q 961.4 385.8, 960.5 386.0 Q 959.6 386.2, 958.6 386.2 Q 956.2 386.2, 954.8 384.7 Q 953.5 383.2, 953.5 380.4 " fill="#000000"/>
<path class="legend" d="M 963.6 382.0 Q 963.6 380.0, 964.6 378.8 Q 965.7 377.7, 967.5 377.7 Q 969.4 377.7, 970.4 378.8 Q 971.4 380.0, 971.4 382.0 Q 971.4 384.0, 970.4 385.1 Q 969.4 386.2, 967.5 386.2 Q 965.7 386.2, 964.6 385.1 Q 963.6 384.0, 963.6 382.0 M 965.2 382.0 Q 965.2 383.5, 965.8 384.2 Q 966.4 385.0, 967.5 385.0 Q 968.7 385.0, 969.3 384.2 Q 969.9 383.5, 969.9 382.0 Q 969.9 380.4, 969.3 379.7 Q 968.7 378.9, 967.5 378.9 Q 966.4 378.9, 965.8 379.7 Q 965.2 380.4, 965.2 382.0 " fill="#000000"/>
<path class="legend" d="M 982.4 377.7 Q 983.8 377.7, 984.5 378.5 Q 985.2 379.2, 985.2 380.6 L 985.2 386.1 L 983.7 386.1 L 983.7 380.8 Q 983.7 379.8, 983.3 379.3 Q 982.9 378.9, 982.1 378.9 Q 981.4 378.9, 980.8 379.2 Q 980.2 379.6, 979.8 380.2 Q 979.8 380.3, 979.8 380.6 L 979.8 386.1 L 978.3 386.1 L 978.3 380.8 Q 978.3 379.8, 977.9 379.3 Q 977.6 378.9, 976.7 378.9 Q 976.0 378.9, 975.4 379.2 Q 974.8 379.6, 974.4 380.2 L 974.4 386.1 L 972.9 386.1 L 972.9 377.9 L 974.1 377.9 L 974.3 379.0 Q 975.4 377.7, 977.0 377.7 Q 978.9 377.7, 979.6 379.2 Q 980.6 377.7, 982.4 377.7 " fill="#000000"/>
<path class="legend" d="M 991.0 377.7 Q 992.7 377.7, 993.6 378.8 Q 994.6 379.8, 994.6 381.8 Q 994.6 383.9, 993.5 385.1 Q 992.3 386.2, 990.4 386.2 Q 989.5 386.2, 988.7 386.0 L 988.7 390.0 L 987.2 390.0 L 987.2 377.9 L 988.4 377.9 L 988.6 378.8 Q 989.0 378.3, 989.6 378.0 Q 990.2 377.7, 991.0 377.7 M 990.4 385.0 Q 991.6 385.0, 992.3 384.2 Q 993.1 383.3, 993.1 381.8 Q 993.1 380.4, 992.5 379.7 Q 991.9 378.9, 990.9 378.9 Q 990.1 378.9, 989.5 379.3 Q 988.9 379.8, 988.7 380.5 L 988.7 384.8 Q 989.5 385.0, 990.4 385.0 " fill="#000000"/>
<path class="legend" d="M 996.1 382.0 Q 996.1 380.0, 997.1 378.8 Q 998.1 377.7, 1000.0 377.7 Q 1001.8 377.7, 1002.8 378.8 Q 1003.9 380.0, 1003.9 382.0 Q 1003.9 384.0, 1002.8 385.1 Q 1001.8 386.2, 1000.0 386.2 Q 998.1 386.2, 997.1 385.1 Q 996.1 384.0, 996.1 382.0 M 997.6 382.0 Q 997.6 383.5, 998.2 384.2 Q 998.8 385.0, 1000.0 385.0 Q 1001.1 385.0, 1001.7 384.2 Q 1002.3 383.5, 1002.3 382.0 Q 1002.3 380.4, 1001.7 379.7 Q 1001.1 378.9, 1000.0 378.9 Q 998.8 378.9, 998.2 379.7 Q 997.6 380.4, 997.6 382.0 " fill="#000000"/>
<path class="legend" d="M 1012.3 377.9 L 1012.3 386.1 L 1011.1 386.1 L 1010.9 384.9 Q 1009.8 386.2, 1008.1 386.2 Q 1006.7 386.2, 1006.0 385.5 Q 1005.3 384.7, 1005.3 383.3 L 1005.3 377.9 L 1006.8 377.9 L 1006.8 383.2 Q 1006.8 384.2, 1007.2 384.6 Q 1007.6 385.0, 1008.4 385.0 Q 1009.2 385.0, 1009.8 384.7 Q 1010.4 384.4, 1010.8 383.7 L 1010.8 377.9 L 1012.3 377.9 " fill="#000000"/>
<path class="legend" d="M 1018.7 377.7 Q 1020.0 377.7, 1020.7 378.5 Q 1021.4 379.2, 1021.4 380.6 L 1021.4 386.1 L 1019.9 386.1 L 1019.9 380.8 Q 1019.9 379.8, 1019.5 379.3 Q 1019.1 378.9, 1018.3 378.9 Q 1017.5 378.9, 1016.9 379.2 Q 1016.3 379.6, 1015.9 380.2 L 1015.9 386.1 L 1014.4 386.1 L 1014.4 377.9 L 1015.6 377.9 L 1015.8 379.0 Q 1016.9 377.7, 1018.7 377.7 " fill="#000000"/>
<path class="legend" d="M 1030.8 373.9 L 1030.8 386.1 L 1029.6 386.1 L 1029.4 385.1 Q 1028.5 386.2, 1026.9 386.2 Q 1025.2 386.2, 1024.3 385.2 Q 1023.3 384.1, 1023.3 382.1 Q 1023.3 380.0, 1024.4 378.9 Q 1025.6 377.7, 1027.5 377.7 Q 1028.4 377.7, 1029.3 377.9 L 1029.3 373.9 L 1030.8 373.9 M 1027.0 385.0 Q 1027.9 385.0, 1028.5 384.6 Q 1029.1 384.1, 1029.3 383.3 L 1029.3 379.1 Q 1028.5 378.9, 1027.6 378.9 Q 1026.3 378.9, 1025.6 379.7 Q 1024.9 380.6, 1024.9 382.1 Q 1024.9 383.5, 1025.4 384.3 Q 1026.0 385.0, 1027.0 385.0 " fill="#000000"/>
<path class="legend" d="" fill="#000000"/>
<path class="legend" d="M 1044.3 380.1 Q 1045.4 380.4, 1045.9 381.2 Q 1046.5 381.9, 1046.5 383.0 Q 1046.5 383.9, 1046.0 384.7 Q 1045.5 385.4, 1044.6 385.8 Q 1043.8 386.2, 1042.6 386.2 Q 1041.4 386.2, 1040.5 385.8 Q 1039.6 385.4, 1038.9 384.5 L 1039.8 383.6 Q 1040.5 384.4, 1041.1 384.7 Q 1041.7 385.0, 1042.6 385.0 Q 1043.6 385.0, 1044.3 384.4 Q 1044.9 383.9, 1044.9 383.0 Q 1044.9 381.8, 1044.2 381.3 Q 1043.6 380.8, 1042.2 380.8 L 1041.4 380.8 L 1041.4 379.6 L 1042.1 379.6 Q 1043.3 379.6, 1044.0 379.1 Q 1044.6 378.5, 1044.6 377.5 Q 1044.6 376.8, 1044.1 376.4 Q 1043.6 375.9, 1042.6 375.9 Q 1041.7 375.9, 1041.1 376.2 Q 1040.5 376.6, 1040.1 377.4 L 1039.0 376.8 Q 1039.4 375.9, 1040.3 375.3 Q 1041.3 374.6, 1042.6 374.6 Q 1044.3 374.6, 1045.3 375.4 Q 1046.2 376.2, 1046.2 377.5 Q 1046.2 378.4, 1045.8 379.1 Q 1045.3 379.7, 1044.3 380.1 " fill="#000000"/>
</svg>