<?xml version="1.0" encoding="UTF-8" standalone="no"?>
<!DOCTYPE svg PUBLIC "-//W3C//DTD SVG 1.1//EN"
 "http://www.w3.org/Graphics/SVG/1.1/DTD/svg11.dtd">
<!-- Generated by graphviz version 7.0.0 (20221023.0053)
 -->
<!-- Title: Tree Pages: 1 -->
<svg width="959pt" height="373pt"
 viewBox="0.00 0.00 959.00 373.00" xmlns="http://www.w3.org/2000/svg" xmlns:xlink="http://www.w3.org/1999/xlink">
<g id="graph0" class="graph" transform="scale(1 1) rotate(0) translate(4 369)">
<title>Tree</title>
<polygon fill="white" stroke="none" points="-4,4 -4,-369 955,-369 955,4 -4,4"/>
<!-- 0 -->
<g id="node1" class="node">
<title>0</title>
<path fill="#f0b489" stroke="black" d="M561.5,-365C561.5,-365 434.5,-365 434.5,-365 428.5,-365 422.5,-359 422.5,-353 422.5,-353 422.5,-309 422.5,-309 422.5,-303 428.5,-297 434.5,-297 434.5,-297 561.5,-297 561.5,-297 567.5,-297 573.5,-303 573.5,-309 573.5,-309 573.5,-353 573.5,-353 573.5,-359 567.5,-365 561.5,-365"/>
<text text-anchor="middle" x="498" y="-349.8" font-family="Helvetica,sans-Serif" font-size="14.00">clogp &lt;= 4.895</text>
<text text-anchor="middle" x="498" y="-334.8" font-family="Helvetica,sans-Serif" font-size="14.00">squared_error = 1.512</text>
<text text-anchor="middle" x="498" y="-319.8" font-family="Helvetica,sans-Serif" font-size="14.00">samples = 466</text>
<text text-anchor="middle" x="498" y="-304.8" font-family="Helvetica,sans-Serif" font-size="14.00">value = 6.252</text>
</g>
<!-- 1 -->
<g id="node2" class="node">
<title>1</title>
<path fill="#e99558" stroke="black" d="M467,-261C467,-261 327,-261 327,-261 321,-261 315,-255 315,-249 315,-249 315,-205 315,-205 315,-199 321,-193 327,-193 327,-193 467,-193 467,-193 473,-193 479,-199 479,-205 479,-205 479,-249 479,-249 479,-255 473,-261 467,-261"/>
<text text-anchor="middle" x="397" y="-245.8" font-family="Helvetica,sans-Serif" font-size="14.00">n_aromatic_rings &lt;= 1.5</text>
<text text-anchor="middle" x="397" y="-230.8" font-family="Helvetica,sans-Serif" font-size="14.00">squared_error = 0.359</text>
<text text-anchor="middle" x="397" y="-215.8" font-family="Helvetica,sans-Serif" font-size="14.00">samples = 320</text>
<text text-anchor="middle" x="397" y="-200.8" font-family="Helvetica,sans-Serif" font-size="14.00">value = 7.011</text>
</g>
<!-- 0&#45;&gt;1 -->
<g id="edge1" class="edge">
<title>0&#45;&gt;1</title>
<path fill="none" stroke="black" d="M464.93,-296.6C456.38,-287.97 447.08,-278.58 438.18,-269.58"/>
<polygon fill="black" stroke="black" points="440.73,-267.19 431.21,-262.55 435.76,-272.12 440.73,-267.19"/>
<text text-anchor="middle" x="430.02" y="-282.77" font-family="Helvetica,sans-Serif" font-size="14.00">True</text>
</g>
<!-- 8 -->
<g id="node9" class="node">
<title>8</title>
<path fill="#fef9f5" stroke="black" d="M691,-261C691,-261 509,-261 509,-261 503,-261 497,-255 497,-249 497,-249 497,-205 497,-205 497,-199 503,-193 509,-193 509,-193 691,-193 691,-193 697,-193 703,-199 703,-205 703,-205 703,-249 703,-249 703,-255 697,-261 691,-261"/>
<text text-anchor="middle" x="600" y="-245.8" font-family="Helvetica,sans-Serif" font-size="14.00">n_aromatic_carbocycles &lt;= 1.5</text>
<text text-anchor="middle" x="600" y="-230.8" font-family="Helvetica,sans-Serif" font-size="14.00">squared_error = 0.003</text>
<text text-anchor="middle" x="600" y="-215.8" font-family="Helvetica,sans-Serif" font-size="14.00">samples = 146</text>
<text text-anchor="middle" x="600" y="-200.8" font-family="Helvetica,sans-Serif" font-size="14.00">value = 4.587</text>
</g>
<!-- 0&#45;&gt;8 -->
<g id="edge8" class="edge">
<title>0&#45;&gt;8</title>
<path fill="none" stroke="black" d="M531.4,-296.6C540.03,-287.97 549.42,-278.58 558.42,-269.58"/>
<polygon fill="black" stroke="black" points="560.86,-272.09 565.46,-262.54 555.91,-267.14 560.86,-272.09"/>
<text text-anchor="middle" x="566.53" y="-282.77" font-family="Helvetica,sans-Serif" font-size="14.00">False</text>
</g>
<!-- 2 -->
<g id="node3" class="node">
<title>2</title>
<path fill="#f3c4a2" stroke="black" d="M302,-157C302,-157 120,-157 120,-157 114,-157 108,-151 108,-145 108,-145 108,-101 108,-101 108,-95 114,-89 120,-89 120,-89 302,-89 302,-89 308,-89 314,-95 314,-101 314,-101 314,-145 314,-145 314,-151 308,-157 302,-157"/>
<text text-anchor="middle" x="211" y="-141.8" font-family="Helvetica,sans-Serif" font-size="14.00">n_aromatic_carbocycles &lt;= 0.5</text>
<text text-anchor="middle" x="211" y="-126.8" font-family="Helvetica,sans-Serif" font-size="14.00">squared_error = 0.348</text>
<text text-anchor="middle" x="211" y="-111.8" font-family="Helvetica,sans-Serif" font-size="14.00">samples = 49</text>
<text text-anchor="middle" x="211" y="-96.8" font-family="Helvetica,sans-Serif" font-size="14.00">value = 5.875</text>
</g>
<!-- 1&#45;&gt;2 -->
<g id="edge2" class="edge">
<title>1&#45;&gt;2</title>
<path fill="none" stroke="black" d="M336.1,-192.6C318.75,-183.09 299.71,-172.65 281.84,-162.85"/>
<polygon fill="black" stroke="black" points="283.82,-159.94 273.37,-158.2 280.45,-166.08 283.82,-159.94"/>
</g>
<!-- 5 -->
<g id="node6" class="node">
<title>5</title>
<path fill="#e78c4b" stroke="black" d="M471.5,-157C471.5,-157 344.5,-157 344.5,-157 338.5,-157 332.5,-151 332.5,-145 332.5,-145 332.5,-101 332.5,-101 332.5,-95 338.5,-89 344.5,-89 344.5,-89 471.5,-89 471.5,-89 477.5,-89 483.5,-95 483.5,-101 483.5,-101 483.5,-145 483.5,-145 483.5,-151 477.5,-157 471.5,-157"/>
<text text-anchor="middle" x="408" y="-141.8" font-family="Helvetica,sans-Serif" font-size="14.00">clogp &lt;= 3.599</text>
<text text-anchor="middle" x="408" y="-126.8" font-family="Helvetica,sans-Serif" font-size="14.00">squared_error = 0.085</text>
<text text-anchor="middle" x="408" y="-111.8" font-family="Helvetica,sans-Serif" font-size="14.00">samples = 271</text>
<text text-anchor="middle" x="408" y="-96.8" font-family="Helvetica,sans-Serif" font-size="14.00">value = 7.217</text>
</g>
<!-- 1&#45;&gt;5 -->
<g id="edge5" class="edge">
<title>1&#45;&gt;5</title>
<path fill="none" stroke="black" d="M400.6,-192.6C401.42,-185.03 402.3,-176.87 403.16,-168.9"/>
<polygon fill="black" stroke="black" points="406.64,-169.3 404.23,-158.98 399.68,-168.55 406.64,-169.3"/>
</g>
<!-- 3 -->
<g id="node4" class="node">
<title>3</title>
<path fill="#f8decc" stroke="black" d="M124,-53C124,-53 12,-53 12,-53 6,-53 0,-47 0,-41 0,-41 0,-12 0,-12 0,-6 6,0 12,0 12,0 124,0 124,0 130,0 136,-6 136,-12 136,-12 136,-41 136,-41 136,-47 130,-53 124,-53"/>
<text text-anchor="middle" x="68" y="-37.8" font-family="Helvetica,sans-Serif" font-size="14.00">squared_error = 0.0</text>
<text text-anchor="middle" x="68" y="-22.8" font-family="Helvetica,sans-Serif" font-size="14.00">samples = 22</text>
<text text-anchor="middle" x="68" y="-7.8" font-family="Helvetica,sans-Serif" font-size="14.00">value = 5.222</text>
</g>
<!-- 2&#45;&gt;3 -->
<g id="edge3" class="edge">
<title>2&#45;&gt;3</title>
<path fill="none" stroke="black" d="M160.58,-88.68C146.34,-79.27 130.87,-69.05 116.73,-59.7"/>
<polygon fill="black" stroke="black" points="118.72,-56.82 108.45,-54.23 114.86,-62.66 118.72,-56.82"/>
</g>
<!-- 4 -->
<g id="node5" class="node">
<title>4</title>
<path fill="#eeae7f" stroke="black" d="M278,-53C278,-53 166,-53 166,-53 160,-53 154,-47 154,-41 154,-41 154,-12 154,-12 154,-6 160,0 166,0 166,0 278,0 278,0 284,0 290,-6 290,-12 290,-12 290,-41 290,-41 290,-47 284,-53 278,-53"/>
<text text-anchor="middle" x="222" y="-37.8" font-family="Helvetica,sans-Serif" font-size="14.00">squared_error = 0.0</text>
<text text-anchor="middle" x="222" y="-22.8" font-family="Helvetica,sans-Serif" font-size="14.00">samples = 27</text>
<text text-anchor="middle" x="222" y="-7.8" font-family="Helvetica,sans-Serif" font-size="14.00">value = 6.407</text>
</g>
<!-- 2&#45;&gt;4 -->
<g id="edge4" class="edge">
<title>2&#45;&gt;4</title>
<path fill="none" stroke="black" d="M214.88,-88.68C215.78,-80.9 216.75,-72.56 217.68,-64.63"/>
<polygon fill="black" stroke="black" points="221.13,-65.23 218.81,-54.9 214.18,-64.43 221.13,-65.23"/>
</g>
<!-- 6 -->
<g id="node7" class="node">
<title>6</title>
<path fill="#ea995f" stroke="black" d="M453,-53C453,-53 341,-53 341,-53 335,-53 329,-47 329,-41 329,-41 329,-12 329,-12 329,-6 335,0 341,0 341,0 453,0 453,0 459,0 465,-6 465,-12 465,-12 465,-41 465,-41 465,-47 459,-53 453,-53"/>
<text text-anchor="middle" x="397" y="-37.8" font-family="Helvetica,sans-Serif" font-size="14.00">squared_error = 0.0</text>
<text text-anchor="middle" x="397" y="-22.8" font-family="Helvetica,sans-Serif" font-size="14.00">samples = 128</text>
<text text-anchor="middle" x="397" y="-7.8" font-family="Helvetica,sans-Serif" font-size="14.00">value = 6.908</text>
</g>
<!-- 5&#45;&gt;6 -->
<g id="edge6" class="edge">
<title>5&#45;&gt;6</title>
<path fill="none" stroke="black" d="M404.12,-88.68C403.22,-80.9 402.25,-72.56 401.32,-64.63"/>
<polygon fill="black" stroke="black" points="404.82,-64.43 400.19,-54.9 397.87,-65.23 404.82,-64.43"/>
</g>
<!-- 7 -->
<g id="node8" class="node">
<title>7</title>
<path fill="#e58139" stroke="black" d="M607,-53C607,-53 495,-53 495,-53 489,-53 483,-47 483,-41 483,-41 483,-12 483,-12 483,-6 489,0 495,0 495,0 607,0 607,0 613,0 619,-6 619,-12 619,-12 619,-41 619,-41 619,-47 613,-53 607,-53"/>
<text text-anchor="middle" x="551" y="-37.8" font-family="Helvetica,sans-Serif" font-size="14.00">squared_error = 0.0</text>
<text text-anchor="middle" x="551" y="-22.8" font-family="Helvetica,sans-Serif" font-size="14.00">samples = 143</text>
<text text-anchor="middle" x="551" y="-7.8" font-family="Helvetica,sans-Serif" font-size="14.00">value = 7.492</text>
</g>
<!-- 5&#45;&gt;7 -->
<g id="edge7" class="edge">
<title>5&#45;&gt;7</title>
<path fill="none" stroke="black" d="M458.42,-88.68C472.66,-79.27 488.13,-69.05 502.27,-59.7"/>
<polygon fill="black" stroke="black" points="504.14,-62.66 510.55,-54.23 500.28,-56.82 504.14,-62.66"/>
</g>
<!-- 9 -->
<g id="node10" class="node">
<title>9</title>
<path fill="#ffffff" stroke="black" d="M646,-149.5C646,-149.5 534,-149.5 534,-149.5 528,-149.5 522,-143.5 522,-137.5 522,-137.5 522,-108.5 522,-108.5 522,-102.5 528,-96.5 534,-96.5 534,-96.5 646,-96.5 646,-96.5 652,-96.5 658,-102.5 658,-108.5 658,-108.5 658,-137.5 658,-137.5 658,-143.5 652,-149.5 646,-149.5"/>
<text text-anchor="middle" x="590" y="-134.3" font-family="Helvetica,sans-Serif" font-size="14.00">squared_error = 0.0</text>
<text text-anchor="middle" x="590" y="-119.3" font-family="Helvetica,sans-Serif" font-size="14.00">samples = 17</text>
<text text-anchor="middle" x="590" y="-104.3" font-family="Helvetica,sans-Serif" font-size="14.00">value = 4.432</text>
</g>
<!-- 8&#45;&gt;9 -->
<g id="edge9" class="edge">
<title>8&#45;&gt;9</title>
<path fill="none" stroke="black" d="M596.73,-192.6C595.73,-182.47 594.64,-171.28 593.62,-160.93"/>
<polygon fill="black" stroke="black" points="597.13,-160.82 592.67,-151.21 590.16,-161.51 597.13,-160.82"/>
</g>
<!-- 10 -->
<g id="node11" class="node">
<title>10</title>
<path fill="#fef8f4" stroke="black" d="M800,-157C800,-157 688,-157 688,-157 682,-157 676,-151 676,-145 676,-145 676,-101 676,-101 676,-95 682,-89 688,-89 688,-89 800,-89 800,-89 806,-89 812,-95 812,-101 812,-101 812,-145 812,-145 812,-151 806,-157 800,-157"/>
<text text-anchor="middle" x="744" y="-141.8" font-family="Helvetica,sans-Serif" font-size="14.00">mw &lt;= 326.178</text>
<text text-anchor="middle" x="744" y="-126.8" font-family="Helvetica,sans-Serif" font-size="14.00">squared_error = 0.0</text>
<text text-anchor="middle" x="744" y="-111.8" font-family="Helvetica,sans-Serif" font-size="14.00">samples = 129</text>
<text text-anchor="middle" x="744" y="-96.8" font-family="Helvetica,sans-Serif" font-size="14.00">value = 4.607</text>
</g>
<!-- 8&#45;&gt;10 -->
<g id="edge10" class="edge">
<title>8&#45;&gt;10</title>
<path fill="none" stroke="black" d="M647.15,-192.6C660.08,-183.44 674.23,-173.42 687.62,-163.94"/>
<polygon fill="black" stroke="black" points="689.37,-166.98 695.51,-158.35 685.32,-161.27 689.37,-166.98"/>
</g>
<!-- 11 -->
<g id="node12" class="node">
<title>11</title>
<path fill="#fef8f4" stroke="black" d="M781,-53C781,-53 669,-53 669,-53 663,-53 657,-47 657,-41 657,-41 657,-12 657,-12 657,-6 663,0 669,0 669,0 781,0 781,0 787,0 793,-6 793,-12 793,-12 793,-41 793,-41 793,-47 787,-53 781,-53"/>
<text text-anchor="middle" x="725" y="-37.8" font-family="Helvetica,sans-Serif" font-size="14.00">squared_error = 0.0</text>
<text text-anchor="middle" x="725" y="-22.8" font-family="Helvetica,sans-Serif" font-size="14.00">samples = 1</text>
<text text-anchor="middle" x="725" y="-7.8" font-family="Helvetica,sans-Serif" font-size="14.00">value = 4.607</text>
</g>
<!-- 10&#45;&gt;11 -->
<g id="edge11" class="edge">
<title>10&#45;&gt;11</title>
<path fill="none" stroke="black" d="M737.3,-88.68C735.74,-80.9 734.06,-72.56 732.46,-64.63"/>
<polygon fill="black" stroke="black" points="735.91,-63.99 730.5,-54.88 729.04,-65.37 735.91,-63.99"/>
</g>
<!-- 12 -->
<g id="node13" class="node">
<title>12</title>
<path fill="#fef8f4" stroke="black" d="M939,-53C939,-53 823,-53 823,-53 817,-53 811,-47 811,-41 811,-41 811,-12 811,-12 811,-6 817,0 823,0 823,0 939,0 939,0 945,0 951,-6 951,-12 951,-12 951,-41 951,-41 951,-47 945,-53 939,-53"/>
<text text-anchor="middle" x="881" y="-37.8" font-family="Helvetica,sans-Serif" font-size="14.00">squared_error = &#45;0.0</text>
<text text-anchor="middle" x="881" y="-22.8" font-family="Helvetica,sans-Serif" font-size="14.00">samples = 128</text>
<text text-anchor="middle" x="881" y="-7.8" font-family="Helvetica,sans-Serif" font-size="14.00">value = 4.607</text>
</g>
<!-- 10&#45;&gt;12 -->
<g id="edge12" class="edge">
<title>10&#45;&gt;12</title>
<path fill="none" stroke="black" d="M792.3,-88.68C805.95,-79.27 820.77,-69.05 834.31,-59.7"/>
<polygon fill="black" stroke="black" points="835.97,-62.81 842.21,-54.25 832,-57.05 835.97,-62.81"/>
</g>
</g>
</svg>
