<?xml version="1.0" encoding="UTF-8" standalone="no"?>
<!DOCTYPE svg PUBLIC "-//W3C//DTD SVG 1.1//EN"
 "http://www.w3.org/Graphics/SVG/1.1/DTD/svg11.dtd">
<!-- Generated by graphviz version 7.0.0 (20221023.0053)
 -->
<!-- Title: Tree Pages: 1 -->
<svg width="790pt" height="373pt"
 viewBox="0.00 0.00 790.00 373.00" xmlns="http://www.w3.org/2000/svg" xmlns:xlink="http://www.w3.org/1999/xlink">
<g id="graph0" class="graph" transform="scale(1 1) rotate(0) translate(4 369)">
<title>Tree</title>
<polygon fill="white" stroke="none" points="-4,4 -4,-369 786,-369 786,4 -4,4"/>
<!-- 0 -->
<g id="node1" class="node">
<title>0</title>
<path fill="#efb084" stroke="black" d="M534.5,-365C534.5,-365 407.5,-365 407.5,-365 401.5,-365 395.5,-359 395.5,-353 395.5,-353 395.5,-309 395.5,-309 395.5,-303 401.5,-297 407.5,-297 407.5,-297 534.5,-297 534.5,-297 540.5,-297 546.5,-303 546.5,-309 546.5,-309 546.5,-353 546.5,-353 546.5,-359 540.5,-365 534.5,-365"/>
<text text-anchor="middle" x="471" y="-349.8" font-family="Helvetica,sans-Serif" font-size="14.00">clogp &lt;= 4.895</text>
<text text-anchor="middle" x="471" y="-334.8" font-family="Helvetica,sans-Serif" font-size="14.00">squared_error = 1.848</text>
<text text-anchor="middle" x="471" y="-319.8" font-family="Helvetica,sans-Serif" font-size="14.00">samples = 466</text>
<text text-anchor="middle" x="471" y="-304.8" font-family="Helvetica,sans-Serif" font-size="14.00">value = 6.34</text>
</g>
<!-- 1 -->
<g id="node2" class="node">
<title>1</title>
<path fill="#e78d4b" stroke="black" d="M453,-261C453,-261 313,-261 313,-261 307,-261 301,-255 301,-249 301,-249 301,-205 301,-205 301,-199 307,-193 313,-193 313,-193 453,-193 453,-193 459,-193 465,-199 465,-205 465,-205 465,-249 465,-249 465,-255 459,-261 453,-261"/>
<text text-anchor="middle" x="383" y="-245.8" font-family="Helvetica,sans-Serif" font-size="14.00">n_aromatic_rings &lt;= 1.5</text>
<text text-anchor="middle" x="383" y="-230.8" font-family="Helvetica,sans-Serif" font-size="14.00">squared_error = 0.281</text>
<text text-anchor="middle" x="383" y="-215.8" font-family="Helvetica,sans-Serif" font-size="14.00">samples = 320</text>
<text text-anchor="middle" x="383" y="-200.8" font-family="Helvetica,sans-Serif" font-size="14.00">value = 7.209</text>
</g>
<!-- 0&#45;&gt;1 -->
<g id="edge1" class="edge">
<title>0&#45;&gt;1</title>
<path fill="none" stroke="black" d="M442.19,-296.6C434.89,-288.15 426.96,-278.96 419.35,-270.13"/>
<polygon fill="black" stroke="black" points="422.05,-267.9 412.87,-262.62 416.75,-272.48 422.05,-267.9"/>
<text text-anchor="middle" x="410.04" y="-282.71" font-family="Helvetica,sans-Serif" font-size="14.00">True</text>
</g>
<!-- 8 -->
<g id="node9" class="node">
<title>8</title>
<path fill="#ffffff" stroke="black" d="M622.5,-261C622.5,-261 495.5,-261 495.5,-261 489.5,-261 483.5,-255 483.5,-249 483.5,-249 483.5,-205 483.5,-205 483.5,-199 489.5,-193 495.5,-193 495.5,-193 622.5,-193 622.5,-193 628.5,-193 634.5,-199 634.5,-205 634.5,-205 634.5,-249 634.5,-249 634.5,-255 628.5,-261 622.5,-261"/>
<text text-anchor="middle" x="559" y="-245.8" font-family="Helvetica,sans-Serif" font-size="14.00">tpsa &lt;= 17.295</text>
<text text-anchor="middle" x="559" y="-230.8" font-family="Helvetica,sans-Serif" font-size="14.00">squared_error = 0.001</text>
<text text-anchor="middle" x="559" y="-215.8" font-family="Helvetica,sans-Serif" font-size="14.00">samples = 146</text>
<text text-anchor="middle" x="559" y="-200.8" font-family="Helvetica,sans-Serif" font-size="14.00">value = 4.435</text>
</g>
<!-- 0&#45;&gt;8 -->
<g id="edge8" class="edge">
<title>0&#45;&gt;8</title>
<path fill="none" stroke="black" d="M499.81,-296.6C507.11,-288.15 515.04,-278.96 522.65,-270.13"/>
<polygon fill="black" stroke="black" points="525.25,-272.48 529.13,-262.62 519.95,-267.9 525.25,-272.48"/>
<text text-anchor="middle" x="531.96" y="-282.71" font-family="Helvetica,sans-Serif" font-size="14.00">False</text>
</g>
<!-- 2 -->
<g id="node3" class="node">
<title>2</title>
<path fill="#f0b990" stroke="black" d="M281.5,-157C281.5,-157 154.5,-157 154.5,-157 148.5,-157 142.5,-151 142.5,-145 142.5,-145 142.5,-101 142.5,-101 142.5,-95 148.5,-89 154.5,-89 154.5,-89 281.5,-89 281.5,-89 287.5,-89 293.5,-95 293.5,-101 293.5,-101 293.5,-145 293.5,-145 293.5,-151 287.5,-157 281.5,-157"/>
<text text-anchor="middle" x="218" y="-141.8" font-family="Helvetica,sans-Serif" font-size="14.00">n_rings &lt;= 0.5</text>
<text text-anchor="middle" x="218" y="-126.8" font-family="Helvetica,sans-Serif" font-size="14.00">squared_error = 0.245</text>
<text text-anchor="middle" x="218" y="-111.8" font-family="Helvetica,sans-Serif" font-size="14.00">samples = 49</text>
<text text-anchor="middle" x="218" y="-96.8" font-family="Helvetica,sans-Serif" font-size="14.00">value = 6.141</text>
</g>
<!-- 1&#45;&gt;2 -->
<g id="edge2" class="edge">
<title>1&#45;&gt;2</title>
<path fill="none" stroke="black" d="M328.97,-192.6C313.87,-183.27 297.32,-173.04 281.72,-163.39"/>
<polygon fill="black" stroke="black" points="283.78,-160.55 273.44,-158.27 280.1,-166.5 283.78,-160.55"/>
</g>
<!-- 5 -->
<g id="node6" class="node">
<title>5</title>
<path fill="#e6853f" stroke="black" d="M450.5,-157C450.5,-157 323.5,-157 323.5,-157 317.5,-157 311.5,-151 311.5,-145 311.5,-145 311.5,-101 311.5,-101 311.5,-95 317.5,-89 323.5,-89 323.5,-89 450.5,-89 450.5,-89 456.5,-89 462.5,-95 462.5,-101 462.5,-101 462.5,-145 462.5,-145 462.5,-151 456.5,-157 450.5,-157"/>
<text text-anchor="middle" x="387" y="-141.8" font-family="Helvetica,sans-Serif" font-size="14.00">n_lipinski_hba &lt;= 3.5</text>
<text text-anchor="middle" x="387" y="-126.8" font-family="Helvetica,sans-Serif" font-size="14.00">squared_error = 0.045</text>
<text text-anchor="middle" x="387" y="-111.8" font-family="Helvetica,sans-Serif" font-size="14.00">samples = 271</text>
<text text-anchor="middle" x="387" y="-96.8" font-family="Helvetica,sans-Serif" font-size="14.00">value = 7.402</text>
</g>
<!-- 1&#45;&gt;5 -->
<g id="edge5" class="edge">
<title>1&#45;&gt;5</title>
<path fill="none" stroke="black" d="M384.31,-192.6C384.61,-185.03 384.93,-176.87 385.24,-168.9"/>
<polygon fill="black" stroke="black" points="388.73,-169.12 385.63,-158.99 381.74,-168.84 388.73,-169.12"/>
</g>
<!-- 3 -->
<g id="node4" class="node">
<title>3</title>
<path fill="#f8decc" stroke="black" d="M124,-53C124,-53 12,-53 12,-53 6,-53 0,-47 0,-41 0,-41 0,-12 0,-12 0,-6 6,0 12,0 12,0 124,0 124,0 130,0 136,-6 136,-12 136,-12 136,-41 136,-41 136,-47 130,-53 124,-53"/>
<text text-anchor="middle" x="68" y="-37.8" font-family="Helvetica,sans-Serif" font-size="14.00">squared_error = 0.0</text>
<text text-anchor="middle" x="68" y="-22.8" font-family="Helvetica,sans-Serif" font-size="14.00">samples = 11</text>
<text text-anchor="middle" x="68" y="-7.8" font-family="Helvetica,sans-Serif" font-size="14.00">value = 5.222</text>
</g>
<!-- 2&#45;&gt;3 -->
<g id="edge3" class="edge">
<title>2&#45;&gt;3</title>
<path fill="none" stroke="black" d="M165.12,-88.68C150.03,-79.18 133.64,-68.85 118.69,-59.43"/>
<polygon fill="black" stroke="black" points="120.71,-56.57 110.38,-54.2 116.98,-62.49 120.71,-56.57"/>
</g>
<!-- 4 -->
<g id="node5" class="node">
<title>4</title>
<path fill="#eeae7f" stroke="black" d="M278,-53C278,-53 166,-53 166,-53 160,-53 154,-47 154,-41 154,-41 154,-12 154,-12 154,-6 160,0 166,0 166,0 278,0 278,0 284,0 290,-6 290,-12 290,-12 290,-41 290,-41 290,-47 284,-53 278,-53"/>
<text text-anchor="middle" x="222" y="-37.8" font-family="Helvetica,sans-Serif" font-size="14.00">squared_error = 0.0</text>
<text text-anchor="middle" x="222" y="-22.8" font-family="Helvetica,sans-Serif" font-size="14.00">samples = 38</text>
<text text-anchor="middle" x="222" y="-7.8" font-family="Helvetica,sans-Serif" font-size="14.00">value = 6.407</text>
</g>
<!-- 2&#45;&gt;4 -->
<g id="edge4" class="edge">
<title>2&#45;&gt;4</title>
<path fill="none" stroke="black" d="M219.41,-88.68C219.74,-80.9 220.09,-72.56 220.43,-64.63"/>
<polygon fill="black" stroke="black" points="223.91,-65.05 220.84,-54.91 216.92,-64.75 223.91,-65.05"/>
</g>
<!-- 6 -->
<g id="node7" class="node">
<title>6</title>
<path fill="#ea995f" stroke="black" d="M442,-53C442,-53 326,-53 326,-53 320,-53 314,-47 314,-41 314,-41 314,-12 314,-12 314,-6 320,0 326,0 326,0 442,0 442,0 448,0 454,-6 454,-12 454,-12 454,-41 454,-41 454,-47 448,-53 442,-53"/>
<text text-anchor="middle" x="384" y="-37.8" font-family="Helvetica,sans-Serif" font-size="14.00">squared_error = &#45;0.0</text>
<text text-anchor="middle" x="384" y="-22.8" font-family="Helvetica,sans-Serif" font-size="14.00">samples = 42</text>
<text text-anchor="middle" x="384" y="-7.8" font-family="Helvetica,sans-Serif" font-size="14.00">value = 6.908</text>
</g>
<!-- 5&#45;&gt;6 -->
<g id="edge6" class="edge">
<title>5&#45;&gt;6</title>
<path fill="none" stroke="black" d="M385.94,-88.68C385.7,-80.9 385.43,-72.56 385.18,-64.63"/>
<polygon fill="black" stroke="black" points="388.69,-64.79 384.87,-54.91 381.69,-65.01 388.69,-64.79"/>
</g>
<!-- 7 -->
<g id="node8" class="node">
<title>7</title>
<path fill="#e58139" stroke="black" d="M596,-53C596,-53 484,-53 484,-53 478,-53 472,-47 472,-41 472,-41 472,-12 472,-12 472,-6 478,0 484,0 484,0 596,0 596,0 602,0 608,-6 608,-12 608,-12 608,-41 608,-41 608,-47 602,-53 596,-53"/>
<text text-anchor="middle" x="540" y="-37.8" font-family="Helvetica,sans-Serif" font-size="14.00">squared_error = 0.0</text>
<text text-anchor="middle" x="540" y="-22.8" font-family="Helvetica,sans-Serif" font-size="14.00">samples = 229</text>
<text text-anchor="middle" x="540" y="-7.8" font-family="Helvetica,sans-Serif" font-size="14.00">value = 7.492</text>
</g>
<!-- 5&#45;&gt;7 -->
<g id="edge7" class="edge">
<title>5&#45;&gt;7</title>
<path fill="none" stroke="black" d="M440.94,-88.68C456.33,-79.18 473.05,-68.85 488.3,-59.43"/>
<polygon fill="black" stroke="black" points="490.12,-62.42 496.79,-54.19 486.44,-56.47 490.12,-62.42"/>
</g>
<!-- 9 -->
<g id="node10" class="node">
<title>9</title>
<path fill="#fef8f4" stroke="black" d="M612,-149.5C612,-149.5 500,-149.5 500,-149.5 494,-149.5 488,-143.5 488,-137.5 488,-137.5 488,-108.5 488,-108.5 488,-102.5 494,-96.5 500,-96.5 500,-96.5 612,-96.5 612,-96.5 618,-96.5 624,-102.5 624,-108.5 624,-108.5 624,-137.5 624,-137.5 624,-143.5 618,-149.5 612,-149.5"/>
<text text-anchor="middle" x="556" y="-134.3" font-family="Helvetica,sans-Serif" font-size="14.00">squared_error = 0.0</text>
<text text-anchor="middle" x="556" y="-119.3" font-family="Helvetica,sans-Serif" font-size="14.00">samples = 3</text>
<text text-anchor="middle" x="556" y="-104.3" font-family="Helvetica,sans-Serif" font-size="14.00">value = 4.607</text>
</g>
<!-- 8&#45;&gt;9 -->
<g id="edge9" class="edge">
<title>8&#45;&gt;9</title>
<path fill="none" stroke="black" d="M558.02,-192.6C557.72,-182.47 557.39,-171.28 557.09,-160.93"/>
<polygon fill="black" stroke="black" points="560.59,-161.11 556.8,-151.22 553.6,-161.32 560.59,-161.11"/>
</g>
<!-- 10 -->
<g id="node11" class="node">
<title>10</title>
<path fill="#ffffff" stroke="black" d="M770,-149.5C770,-149.5 654,-149.5 654,-149.5 648,-149.5 642,-143.5 642,-137.5 642,-137.5 642,-108.5 642,-108.5 642,-102.5 648,-96.5 654,-96.5 654,-96.5 770,-96.5 770,-96.5 776,-96.5 782,-102.5 782,-108.5 782,-108.5 782,-137.5 782,-137.5 782,-143.5 776,-149.5 770,-149.5"/>
<text text-anchor="middle" x="712" y="-134.3" font-family="Helvetica,sans-Serif" font-size="14.00">squared_error = &#45;0.0</text>
<text text-anchor="middle" x="712" y="-119.3" font-family="Helvetica,sans-Serif" font-size="14.00">samples = 143</text>
<text text-anchor="middle" x="712" y="-104.3" font-family="Helvetica,sans-Serif" font-size="14.00">value = 4.432</text>
</g>
<!-- 8&#45;&gt;10 -->
<g id="edge10" class="edge">
<title>8&#45;&gt;10</title>
<path fill="none" stroke="black" d="M609.1,-192.6C626.75,-180.84 646.53,-167.65 664,-156"/>
<polygon fill="black" stroke="black" points="665.8,-159 672.18,-150.55 661.92,-153.18 665.8,-159"/>
</g>
</g>
</svg>
