<?xml version="1.0" encoding="UTF-8" standalone="no"?>
<!DOCTYPE svg PUBLIC "-//W3C//DTD SVG 1.1//EN"
 "http://www.w3.org/Graphics/SVG/1.1/DTD/svg11.dtd">
<!-- Generated by graphviz version 7.0.0 (20221023.0053)
 -->
<!-- Title: Tree Pages: 1 -->
<svg width="922pt" height="373pt"
 viewBox="0.00 0.00 922.00 373.00" xmlns="http://www.w3.org/2000/svg" xmlns:xlink="http://www.w3.org/1999/xlink">
<g id="graph0" class="graph" transform="scale(1 1) rotate(0) translate(4 369)">
<title>Tree</title>
<polygon fill="white" stroke="none" points="-4,4 -4,-369 918,-369 918,4 -4,4"/>
<!-- 0 -->
<g id="node1" class="node">
<title>0</title>
<path fill="#efb083" stroke="black" d="M663.5,-365C663.5,-365 536.5,-365 536.5,-365 530.5,-365 524.5,-359 524.5,-353 524.5,-353 524.5,-309 524.5,-309 524.5,-303 530.5,-297 536.5,-297 536.5,-297 663.5,-297 663.5,-297 669.5,-297 675.5,-303 675.5,-309 675.5,-309 675.5,-353 675.5,-353 675.5,-359 669.5,-365 663.5,-365"/>
<text text-anchor="middle" x="600" y="-349.8" font-family="Helvetica,sans-Serif" font-size="14.00">clogp &lt;= 4.895</text>
<text text-anchor="middle" x="600" y="-334.8" font-family="Helvetica,sans-Serif" font-size="14.00">squared_error = 1.839</text>
<text text-anchor="middle" x="600" y="-319.8" font-family="Helvetica,sans-Serif" font-size="14.00">samples = 466</text>
<text text-anchor="middle" x="600" y="-304.8" font-family="Helvetica,sans-Serif" font-size="14.00">value = 6.35</text>
</g>
<!-- 1 -->
<g id="node2" class="node">
<title>1</title>
<path fill="#e78d4c" stroke="black" d="M532,-261C532,-261 392,-261 392,-261 386,-261 380,-255 380,-249 380,-249 380,-205 380,-205 380,-199 386,-193 392,-193 392,-193 532,-193 532,-193 538,-193 544,-199 544,-205 544,-205 544,-249 544,-249 544,-255 538,-261 532,-261"/>
<text text-anchor="middle" x="462" y="-245.8" font-family="Helvetica,sans-Serif" font-size="14.00">n_aromatic_rings &lt;= 1.5</text>
<text text-anchor="middle" x="462" y="-230.8" font-family="Helvetica,sans-Serif" font-size="14.00">squared_error = 0.353</text>
<text text-anchor="middle" x="462" y="-215.8" font-family="Helvetica,sans-Serif" font-size="14.00">samples = 320</text>
<text text-anchor="middle" x="462" y="-200.8" font-family="Helvetica,sans-Serif" font-size="14.00">value = 7.203</text>
</g>
<!-- 0&#45;&gt;1 -->
<g id="edge1" class="edge">
<title>0&#45;&gt;1</title>
<path fill="none" stroke="black" d="M554.81,-296.6C542.54,-287.53 529.13,-277.61 516.4,-268.21"/>
<polygon fill="black" stroke="black" points="518.63,-265.5 508.51,-262.37 514.47,-271.13 518.63,-265.5"/>
<text text-anchor="middle" x="511" y="-282.5" font-family="Helvetica,sans-Serif" font-size="14.00">True</text>
</g>
<!-- 8 -->
<g id="node9" class="node">
<title>8</title>
<path fill="#fffdfc" stroke="black" d="M751.5,-261C751.5,-261 624.5,-261 624.5,-261 618.5,-261 612.5,-255 612.5,-249 612.5,-249 612.5,-205 612.5,-205 612.5,-199 618.5,-193 624.5,-193 624.5,-193 751.5,-193 751.5,-193 757.5,-193 763.5,-199 763.5,-205 763.5,-205 763.5,-249 763.5,-249 763.5,-255 757.5,-261 751.5,-261"/>
<text text-anchor="middle" x="688" y="-245.8" font-family="Helvetica,sans-Serif" font-size="14.00">mw &lt;= 430.291</text>
<text text-anchor="middle" x="688" y="-230.8" font-family="Helvetica,sans-Serif" font-size="14.00">squared_error = 0.006</text>
<text text-anchor="middle" x="688" y="-215.8" font-family="Helvetica,sans-Serif" font-size="14.00">samples = 146</text>
<text text-anchor="middle" x="688" y="-200.8" font-family="Helvetica,sans-Serif" font-size="14.00">value = 4.481</text>
</g>
<!-- 0&#45;&gt;8 -->
<g id="edge8" class="edge">
<title>0&#45;&gt;8</title>
<path fill="none" stroke="black" d="M628.81,-296.6C636.11,-288.15 644.04,-278.96 651.65,-270.13"/>
<polygon fill="black" stroke="black" points="654.25,-272.48 658.13,-262.62 648.95,-267.9 654.25,-272.48"/>
<text text-anchor="middle" x="660.96" y="-282.71" font-family="Helvetica,sans-Serif" font-size="14.00">False</text>
</g>
<!-- 2 -->
<g id="node3" class="node">
<title>2</title>
<path fill="#f2c09b" stroke="black" d="M296,-157C296,-157 156,-157 156,-157 150,-157 144,-151 144,-145 144,-145 144,-101 144,-101 144,-95 150,-89 156,-89 156,-89 296,-89 296,-89 302,-89 308,-95 308,-101 308,-101 308,-145 308,-145 308,-151 302,-157 296,-157"/>
<text text-anchor="middle" x="226" y="-141.8" font-family="Helvetica,sans-Serif" font-size="14.00">n_aromatic_rings &lt;= 0.5</text>
<text text-anchor="middle" x="226" y="-126.8" font-family="Helvetica,sans-Serif" font-size="14.00">squared_error = 0.327</text>
<text text-anchor="middle" x="226" y="-111.8" font-family="Helvetica,sans-Serif" font-size="14.00">samples = 49</text>
<text text-anchor="middle" x="226" y="-96.8" font-family="Helvetica,sans-Serif" font-size="14.00">value = 5.972</text>
</g>
<!-- 1&#45;&gt;2 -->
<g id="edge2" class="edge">
<title>1&#45;&gt;2</title>
<path fill="none" stroke="black" d="M384.72,-192.6C362.11,-182.83 337.22,-172.07 313.99,-162.03"/>
<polygon fill="black" stroke="black" points="315.41,-158.83 304.84,-158.07 312.63,-165.25 315.41,-158.83"/>
</g>
<!-- 5 -->
<g id="node6" class="node">
<title>5</title>
<path fill="#e6843d" stroke="black" d="M535.5,-157C535.5,-157 388.5,-157 388.5,-157 382.5,-157 376.5,-151 376.5,-145 376.5,-145 376.5,-101 376.5,-101 376.5,-95 382.5,-89 388.5,-89 388.5,-89 535.5,-89 535.5,-89 541.5,-89 547.5,-95 547.5,-101 547.5,-101 547.5,-145 547.5,-145 547.5,-151 541.5,-157 535.5,-157"/>
<text text-anchor="middle" x="462" y="-141.8" font-family="Helvetica,sans-Serif" font-size="14.00">n_rotatable_bonds &lt;= 2.5</text>
<text text-anchor="middle" x="462" y="-126.8" font-family="Helvetica,sans-Serif" font-size="14.00">squared_error = 0.035</text>
<text text-anchor="middle" x="462" y="-111.8" font-family="Helvetica,sans-Serif" font-size="14.00">samples = 271</text>
<text text-anchor="middle" x="462" y="-96.8" font-family="Helvetica,sans-Serif" font-size="14.00">value = 7.426</text>
</g>
<!-- 1&#45;&gt;5 -->
<g id="edge5" class="edge">
<title>1&#45;&gt;5</title>
<path fill="none" stroke="black" d="M462,-192.6C462,-185.03 462,-176.87 462,-168.9"/>
<polygon fill="black" stroke="black" points="465.5,-168.99 462,-158.99 458.5,-168.99 465.5,-168.99"/>
</g>
<!-- 3 -->
<g id="node4" class="node">
<title>3</title>
<path fill="#f8decc" stroke="black" d="M128,-53C128,-53 12,-53 12,-53 6,-53 0,-47 0,-41 0,-41 0,-12 0,-12 0,-6 6,0 12,0 12,0 128,0 128,0 134,0 140,-6 140,-12 140,-12 140,-41 140,-41 140,-47 134,-53 128,-53"/>
<text text-anchor="middle" x="70" y="-37.8" font-family="Helvetica,sans-Serif" font-size="14.00">squared_error = &#45;0.0</text>
<text text-anchor="middle" x="70" y="-22.8" font-family="Helvetica,sans-Serif" font-size="14.00">samples = 18</text>
<text text-anchor="middle" x="70" y="-7.8" font-family="Helvetica,sans-Serif" font-size="14.00">value = 5.222</text>
</g>
<!-- 2&#45;&gt;3 -->
<g id="edge3" class="edge">
<title>2&#45;&gt;3</title>
<path fill="none" stroke="black" d="M171,-88.68C155.16,-79.09 137.94,-68.65 122.27,-59.16"/>
<polygon fill="black" stroke="black" points="124.41,-56.37 114.04,-54.18 120.78,-62.35 124.41,-56.37"/>
</g>
<!-- 4 -->
<g id="node5" class="node">
<title>4</title>
<path fill="#eeae7f" stroke="black" d="M282,-53C282,-53 170,-53 170,-53 164,-53 158,-47 158,-41 158,-41 158,-12 158,-12 158,-6 164,0 170,0 170,0 282,0 282,0 288,0 294,-6 294,-12 294,-12 294,-41 294,-41 294,-47 288,-53 282,-53"/>
<text text-anchor="middle" x="226" y="-37.8" font-family="Helvetica,sans-Serif" font-size="14.00">squared_error = 0.0</text>
<text text-anchor="middle" x="226" y="-22.8" font-family="Helvetica,sans-Serif" font-size="14.00">samples = 31</text>
<text text-anchor="middle" x="226" y="-7.8" font-family="Helvetica,sans-Serif" font-size="14.00">value = 6.407</text>
</g>
<!-- 2&#45;&gt;4 -->
<g id="edge4" class="edge">
<title>2&#45;&gt;4</title>
<path fill="none" stroke="black" d="M226,-88.68C226,-80.99 226,-72.76 226,-64.9"/>
<polygon fill="black" stroke="black" points="229.5,-64.91 226,-54.91 222.5,-64.91 229.5,-64.91"/>
</g>
<!-- 6 -->
<g id="node7" class="node">
<title>6</title>
<path fill="#ea995f" stroke="black" d="M436,-53C436,-53 324,-53 324,-53 318,-53 312,-47 312,-41 312,-41 312,-12 312,-12 312,-6 318,0 324,0 324,0 436,0 436,0 442,0 448,-6 448,-12 448,-12 448,-41 448,-41 448,-47 442,-53 436,-53"/>
<text text-anchor="middle" x="380" y="-37.8" font-family="Helvetica,sans-Serif" font-size="14.00">squared_error = 0.0</text>
<text text-anchor="middle" x="380" y="-22.8" font-family="Helvetica,sans-Serif" font-size="14.00">samples = 31</text>
<text text-anchor="middle" x="380" y="-7.8" font-family="Helvetica,sans-Serif" font-size="14.00">value = 6.908</text>
</g>
<!-- 5&#45;&gt;6 -->
<g id="edge6" class="edge">
<title>5&#45;&gt;6</title>
<path fill="none" stroke="black" d="M433.09,-88.68C425.55,-79.99 417.41,-70.62 409.83,-61.87"/>
<polygon fill="black" stroke="black" points="412.66,-59.8 403.46,-54.54 407.37,-64.38 412.66,-59.8"/>
</g>
<!-- 7 -->
<g id="node8" class="node">
<title>7</title>
<path fill="#e58139" stroke="black" d="M590,-53C590,-53 478,-53 478,-53 472,-53 466,-47 466,-41 466,-41 466,-12 466,-12 466,-6 472,0 478,0 478,0 590,0 590,0 596,0 602,-6 602,-12 602,-12 602,-41 602,-41 602,-47 596,-53 590,-53"/>
<text text-anchor="middle" x="534" y="-37.8" font-family="Helvetica,sans-Serif" font-size="14.00">squared_error = 0.0</text>
<text text-anchor="middle" x="534" y="-22.8" font-family="Helvetica,sans-Serif" font-size="14.00">samples = 240</text>
<text text-anchor="middle" x="534" y="-7.8" font-family="Helvetica,sans-Serif" font-size="14.00">value = 7.492</text>
</g>
<!-- 5&#45;&gt;7 -->
<g id="edge7" class="edge">
<title>5&#45;&gt;7</title>
<path fill="none" stroke="black" d="M487.38,-88.68C493.87,-80.18 500.85,-71.01 507.39,-62.42"/>
<polygon fill="black" stroke="black" points="510.08,-64.67 513.35,-54.6 504.51,-60.43 510.08,-64.67"/>
</g>
<!-- 9 -->
<g id="node10" class="node">
<title>9</title>
<path fill="#fef8f4" stroke="black" d="M744,-157C744,-157 632,-157 632,-157 626,-157 620,-151 620,-145 620,-145 620,-101 620,-101 620,-95 626,-89 632,-89 632,-89 744,-89 744,-89 750,-89 756,-95 756,-101 756,-101 756,-145 756,-145 756,-151 750,-157 744,-157"/>
<text text-anchor="middle" x="688" y="-141.8" font-family="Helvetica,sans-Serif" font-size="14.00">sas &lt;= 1.996</text>
<text text-anchor="middle" x="688" y="-126.8" font-family="Helvetica,sans-Serif" font-size="14.00">squared_error = 0.0</text>
<text text-anchor="middle" x="688" y="-111.8" font-family="Helvetica,sans-Serif" font-size="14.00">samples = 41</text>
<text text-anchor="middle" x="688" y="-96.8" font-family="Helvetica,sans-Serif" font-size="14.00">value = 4.607</text>
</g>
<!-- 8&#45;&gt;9 -->
<g id="edge9" class="edge">
<title>8&#45;&gt;9</title>
<path fill="none" stroke="black" d="M688,-192.6C688,-185.03 688,-176.87 688,-168.9"/>
<polygon fill="black" stroke="black" points="691.5,-168.99 688,-158.99 684.5,-168.99 691.5,-168.99"/>
</g>
<!-- 12 -->
<g id="node13" class="node">
<title>12</title>
<path fill="#ffffff" stroke="black" d="M902,-149.5C902,-149.5 786,-149.5 786,-149.5 780,-149.5 774,-143.5 774,-137.5 774,-137.5 774,-108.5 774,-108.5 774,-102.5 780,-96.5 786,-96.5 786,-96.5 902,-96.5 902,-96.5 908,-96.5 914,-102.5 914,-108.5 914,-108.5 914,-137.5 914,-137.5 914,-143.5 908,-149.5 902,-149.5"/>
<text text-anchor="middle" x="844" y="-134.3" font-family="Helvetica,sans-Serif" font-size="14.00">squared_error = &#45;0.0</text>
<text text-anchor="middle" x="844" y="-119.3" font-family="Helvetica,sans-Serif" font-size="14.00">samples = 105</text>
<text text-anchor="middle" x="844" y="-104.3" font-family="Helvetica,sans-Serif" font-size="14.00">value = 4.432</text>
</g>
<!-- 8&#45;&gt;12 -->
<g id="edge12" class="edge">
<title>8&#45;&gt;12</title>
<path fill="none" stroke="black" d="M739.08,-192.6C757,-180.89 777.08,-167.76 794.84,-156.14"/>
<polygon fill="black" stroke="black" points="796.71,-159.1 803.17,-150.7 792.88,-153.24 796.71,-159.1"/>
</g>
<!-- 10 -->
<g id="node11" class="node">
<title>10</title>
<path fill="#fef8f4" stroke="black" d="M744,-53C744,-53 632,-53 632,-53 626,-53 620,-47 620,-41 620,-41 620,-12 620,-12 620,-6 626,0 632,0 632,0 744,0 744,0 750,0 756,-6 756,-12 756,-12 756,-41 756,-41 756,-47 750,-53 744,-53"/>
<text text-anchor="middle" x="688" y="-37.8" font-family="Helvetica,sans-Serif" font-size="14.00">squared_error = 0.0</text>
<text text-anchor="middle" x="688" y="-22.8" font-family="Helvetica,sans-Serif" font-size="14.00">samples = 1</text>
<text text-anchor="middle" x="688" y="-7.8" font-family="Helvetica,sans-Serif" font-size="14.00">value = 4.607</text>
</g>
<!-- 9&#45;&gt;10 -->
<g id="edge10" class="edge">
<title>9&#45;&gt;10</title>
<path fill="none" stroke="black" d="M688,-88.68C688,-80.99 688,-72.76 688,-64.9"/>
<polygon fill="black" stroke="black" points="691.5,-64.91 688,-54.91 684.5,-64.91 691.5,-64.91"/>
</g>
<!-- 11 -->
<g id="node12" class="node">
<title>11</title>
<path fill="#fef8f4" stroke="black" d="M898,-53C898,-53 786,-53 786,-53 780,-53 774,-47 774,-41 774,-41 774,-12 774,-12 774,-6 780,0 786,0 786,0 898,0 898,0 904,0 910,-6 910,-12 910,-12 910,-41 910,-41 910,-47 904,-53 898,-53"/>
<text text-anchor="middle" x="842" y="-37.8" font-family="Helvetica,sans-Serif" font-size="14.00">squared_error = 0.0</text>
<text text-anchor="middle" x="842" y="-22.8" font-family="Helvetica,sans-Serif" font-size="14.00">samples = 40</text>
<text text-anchor="middle" x="842" y="-7.8" font-family="Helvetica,sans-Serif" font-size="14.00">value = 4.607</text>
</g>
<!-- 9&#45;&gt;11 -->
<g id="edge11" class="edge">
<title>9&#45;&gt;11</title>
<path fill="none" stroke="black" d="M742.29,-88.68C757.93,-79.09 774.93,-68.65 790.4,-59.16"/>
<polygon fill="black" stroke="black" points="791.82,-62.4 798.51,-54.19 788.16,-56.43 791.82,-62.4"/>
</g>
</g>
</svg>
