<?xml version="1.0" encoding="UTF-8" standalone="no"?>
<!DOCTYPE svg PUBLIC "-//W3C//DTD SVG 1.1//EN"
 "http://www.w3.org/Graphics/SVG/1.1/DTD/svg11.dtd">
<!-- Generated by graphviz version 7.0.0 (20221023.0053)
 -->
<!-- Title: Tree Pages: 1 -->
<svg width="802pt" height="373pt"
 viewBox="0.00 0.00 802.00 373.00" xmlns="http://www.w3.org/2000/svg" xmlns:xlink="http://www.w3.org/1999/xlink">
<g id="graph0" class="graph" transform="scale(1 1) rotate(0) translate(4 369)">
<title>Tree</title>
<polygon fill="white" stroke="none" points="-4,4 -4,-369 798,-369 798,4 -4,4"/>
<!-- 0 -->
<g id="node1" class="node">
<title>0</title>
<path fill="#f0b58b" stroke="black" d="M546.5,-365C546.5,-365 419.5,-365 419.5,-365 413.5,-365 407.5,-359 407.5,-353 407.5,-353 407.5,-309 407.5,-309 407.5,-303 413.5,-297 419.5,-297 419.5,-297 546.5,-297 546.5,-297 552.5,-297 558.5,-303 558.5,-309 558.5,-309 558.5,-353 558.5,-353 558.5,-359 552.5,-365 546.5,-365"/>
<text text-anchor="middle" x="483" y="-349.8" font-family="Helvetica,sans-Serif" font-size="14.00">clogp &lt;= 4.901</text>
<text text-anchor="middle" x="483" y="-334.8" font-family="Helvetica,sans-Serif" font-size="14.00">squared_error = 1.144</text>
<text text-anchor="middle" x="483" y="-319.8" font-family="Helvetica,sans-Serif" font-size="14.00">samples = 10</text>
<text text-anchor="middle" x="483" y="-304.8" font-family="Helvetica,sans-Serif" font-size="14.00">value = 6.228</text>
</g>
<!-- 1 -->
<g id="node2" class="node">
<title>1</title>
<path fill="#eca36f" stroke="black" d="M465,-261C465,-261 325,-261 325,-261 319,-261 313,-255 313,-249 313,-249 313,-205 313,-205 313,-199 319,-193 325,-193 325,-193 465,-193 465,-193 471,-193 477,-199 477,-205 477,-205 477,-249 477,-249 477,-255 471,-261 465,-261"/>
<text text-anchor="middle" x="395" y="-245.8" font-family="Helvetica,sans-Serif" font-size="14.00">n_aromatic_rings &lt;= 1.5</text>
<text text-anchor="middle" x="395" y="-230.8" font-family="Helvetica,sans-Serif" font-size="14.00">squared_error = 0.516</text>
<text text-anchor="middle" x="395" y="-215.8" font-family="Helvetica,sans-Serif" font-size="14.00">samples = 8</text>
<text text-anchor="middle" x="395" y="-200.8" font-family="Helvetica,sans-Serif" font-size="14.00">value = 6.656</text>
</g>
<!-- 0&#45;&gt;1 -->
<g id="edge1" class="edge">
<title>0&#45;&gt;1</title>
<path fill="none" stroke="black" d="M454.19,-296.6C446.89,-288.15 438.96,-278.96 431.35,-270.13"/>
<polygon fill="black" stroke="black" points="434.05,-267.9 424.87,-262.62 428.75,-272.48 434.05,-267.9"/>
<text text-anchor="middle" x="422.04" y="-282.71" font-family="Helvetica,sans-Serif" font-size="14.00">True</text>
</g>
<!-- 8 -->
<g id="node9" class="node">
<title>8</title>
<path fill="#fefbf9" stroke="black" d="M634.5,-261C634.5,-261 507.5,-261 507.5,-261 501.5,-261 495.5,-255 495.5,-249 495.5,-249 495.5,-205 495.5,-205 495.5,-199 501.5,-193 507.5,-193 507.5,-193 634.5,-193 634.5,-193 640.5,-193 646.5,-199 646.5,-205 646.5,-205 646.5,-249 646.5,-249 646.5,-255 640.5,-261 634.5,-261"/>
<text text-anchor="middle" x="571" y="-245.8" font-family="Helvetica,sans-Serif" font-size="14.00">tpsa &lt;= 17.085</text>
<text text-anchor="middle" x="571" y="-230.8" font-family="Helvetica,sans-Serif" font-size="14.00">squared_error = 0.008</text>
<text text-anchor="middle" x="571" y="-215.8" font-family="Helvetica,sans-Serif" font-size="14.00">samples = 2</text>
<text text-anchor="middle" x="571" y="-200.8" font-family="Helvetica,sans-Serif" font-size="14.00">value = 4.52</text>
</g>
<!-- 0&#45;&gt;8 -->
<g id="edge8" class="edge">
<title>0&#45;&gt;8</title>
<path fill="none" stroke="black" d="M511.81,-296.6C519.11,-288.15 527.04,-278.96 534.65,-270.13"/>
<polygon fill="black" stroke="black" points="537.25,-272.48 541.13,-262.62 531.95,-267.9 537.25,-272.48"/>
<text text-anchor="middle" x="543.96" y="-282.71" font-family="Helvetica,sans-Serif" font-size="14.00">False</text>
</g>
<!-- 2 -->
<g id="node3" class="node">
<title>2</title>
<path fill="#f1ba92" stroke="black" d="M289.5,-157C289.5,-157 170.5,-157 170.5,-157 164.5,-157 158.5,-151 158.5,-145 158.5,-145 158.5,-101 158.5,-101 158.5,-95 164.5,-89 170.5,-89 170.5,-89 289.5,-89 289.5,-89 295.5,-89 301.5,-95 301.5,-101 301.5,-101 301.5,-145 301.5,-145 301.5,-151 295.5,-157 289.5,-157"/>
<text text-anchor="middle" x="230" y="-141.8" font-family="Helvetica,sans-Serif" font-size="14.00">n_rings &lt;= 0.5</text>
<text text-anchor="middle" x="230" y="-126.8" font-family="Helvetica,sans-Serif" font-size="14.00">squared_error = 0.33</text>
<text text-anchor="middle" x="230" y="-111.8" font-family="Helvetica,sans-Serif" font-size="14.00">samples = 4</text>
<text text-anchor="middle" x="230" y="-96.8" font-family="Helvetica,sans-Serif" font-size="14.00">value = 6.111</text>
</g>
<!-- 1&#45;&gt;2 -->
<g id="edge2" class="edge">
<title>1&#45;&gt;2</title>
<path fill="none" stroke="black" d="M340.97,-192.6C325.87,-183.27 309.32,-173.04 293.72,-163.39"/>
<polygon fill="black" stroke="black" points="295.78,-160.55 285.44,-158.27 292.1,-166.5 295.78,-160.55"/>
</g>
<!-- 5 -->
<g id="node6" class="node">
<title>5</title>
<path fill="#e78d4c" stroke="black" d="M462.5,-157C462.5,-157 335.5,-157 335.5,-157 329.5,-157 323.5,-151 323.5,-145 323.5,-145 323.5,-101 323.5,-101 323.5,-95 329.5,-89 335.5,-89 335.5,-89 462.5,-89 462.5,-89 468.5,-89 474.5,-95 474.5,-101 474.5,-101 474.5,-145 474.5,-145 474.5,-151 468.5,-157 462.5,-157"/>
<text text-anchor="middle" x="399" y="-141.8" font-family="Helvetica,sans-Serif" font-size="14.00">n_lipinski_hba &lt;= 3.0</text>
<text text-anchor="middle" x="399" y="-126.8" font-family="Helvetica,sans-Serif" font-size="14.00">squared_error = 0.108</text>
<text text-anchor="middle" x="399" y="-111.8" font-family="Helvetica,sans-Serif" font-size="14.00">samples = 4</text>
<text text-anchor="middle" x="399" y="-96.8" font-family="Helvetica,sans-Serif" font-size="14.00">value = 7.2</text>
</g>
<!-- 1&#45;&gt;5 -->
<g id="edge5" class="edge">
<title>1&#45;&gt;5</title>
<path fill="none" stroke="black" d="M396.31,-192.6C396.61,-185.03 396.93,-176.87 397.24,-168.9"/>
<polygon fill="black" stroke="black" points="400.73,-169.12 397.63,-158.99 393.74,-168.84 400.73,-169.12"/>
</g>
<!-- 3 -->
<g id="node4" class="node">
<title>3</title>
<path fill="#f8decc" stroke="black" d="M124,-53C124,-53 12,-53 12,-53 6,-53 0,-47 0,-41 0,-41 0,-12 0,-12 0,-6 6,0 12,0 12,0 124,0 124,0 130,0 136,-6 136,-12 136,-12 136,-41 136,-41 136,-47 130,-53 124,-53"/>
<text text-anchor="middle" x="68" y="-37.8" font-family="Helvetica,sans-Serif" font-size="14.00">squared_error = 0.0</text>
<text text-anchor="middle" x="68" y="-22.8" font-family="Helvetica,sans-Serif" font-size="14.00">samples = 1</text>
<text text-anchor="middle" x="68" y="-7.8" font-family="Helvetica,sans-Serif" font-size="14.00">value = 5.222</text>
</g>
<!-- 2&#45;&gt;3 -->
<g id="edge3" class="edge">
<title>2&#45;&gt;3</title>
<path fill="none" stroke="black" d="M172.88,-88.68C156.44,-79.09 138.55,-68.65 122.28,-59.16"/>
<polygon fill="black" stroke="black" points="124.1,-56.17 113.7,-54.16 120.57,-62.22 124.1,-56.17"/>
</g>
<!-- 4 -->
<g id="node5" class="node">
<title>4</title>
<path fill="#eeae7f" stroke="black" d="M293.5,-53C293.5,-53 166.5,-53 166.5,-53 160.5,-53 154.5,-47 154.5,-41 154.5,-41 154.5,-12 154.5,-12 154.5,-6 160.5,0 166.5,0 166.5,0 293.5,0 293.5,0 299.5,0 305.5,-6 305.5,-12 305.5,-12 305.5,-41 305.5,-41 305.5,-47 299.5,-53 293.5,-53"/>
<text text-anchor="middle" x="230" y="-37.8" font-family="Helvetica,sans-Serif" font-size="14.00">squared_error = 0.088</text>
<text text-anchor="middle" x="230" y="-22.8" font-family="Helvetica,sans-Serif" font-size="14.00">samples = 3</text>
<text text-anchor="middle" x="230" y="-7.8" font-family="Helvetica,sans-Serif" font-size="14.00">value = 6.407</text>
</g>
<!-- 2&#45;&gt;4 -->
<g id="edge4" class="edge">
<title>2&#45;&gt;4</title>
<path fill="none" stroke="black" d="M230,-88.68C230,-80.99 230,-72.76 230,-64.9"/>
<polygon fill="black" stroke="black" points="233.5,-64.91 230,-54.91 226.5,-64.91 233.5,-64.91"/>
</g>
<!-- 6 -->
<g id="node7" class="node">
<title>6</title>
<path fill="#ea995f" stroke="black" d="M462.5,-53C462.5,-53 335.5,-53 335.5,-53 329.5,-53 323.5,-47 323.5,-41 323.5,-41 323.5,-12 323.5,-12 323.5,-6 329.5,0 335.5,0 335.5,0 462.5,0 462.5,0 468.5,0 474.5,-6 474.5,-12 474.5,-12 474.5,-41 474.5,-41 474.5,-47 468.5,-53 462.5,-53"/>
<text text-anchor="middle" x="399" y="-37.8" font-family="Helvetica,sans-Serif" font-size="14.00">squared_error = 0.008</text>
<text text-anchor="middle" x="399" y="-22.8" font-family="Helvetica,sans-Serif" font-size="14.00">samples = 2</text>
<text text-anchor="middle" x="399" y="-7.8" font-family="Helvetica,sans-Serif" font-size="14.00">value = 6.908</text>
</g>
<!-- 5&#45;&gt;6 -->
<g id="edge6" class="edge">
<title>5&#45;&gt;6</title>
<path fill="none" stroke="black" d="M399,-88.68C399,-80.99 399,-72.76 399,-64.9"/>
<polygon fill="black" stroke="black" points="402.5,-64.91 399,-54.91 395.5,-64.91 402.5,-64.91"/>
</g>
<!-- 7 -->
<g id="node8" class="node">
<title>7</title>
<path fill="#e58139" stroke="black" d="M631.5,-53C631.5,-53 504.5,-53 504.5,-53 498.5,-53 492.5,-47 492.5,-41 492.5,-41 492.5,-12 492.5,-12 492.5,-6 498.5,0 504.5,0 504.5,0 631.5,0 631.5,0 637.5,0 643.5,-6 643.5,-12 643.5,-12 643.5,-41 643.5,-41 643.5,-47 637.5,-53 631.5,-53"/>
<text text-anchor="middle" x="568" y="-37.8" font-family="Helvetica,sans-Serif" font-size="14.00">squared_error = 0.038</text>
<text text-anchor="middle" x="568" y="-22.8" font-family="Helvetica,sans-Serif" font-size="14.00">samples = 2</text>
<text text-anchor="middle" x="568" y="-7.8" font-family="Helvetica,sans-Serif" font-size="14.00">value = 7.492</text>
</g>
<!-- 5&#45;&gt;7 -->
<g id="edge7" class="edge">
<title>5&#45;&gt;7</title>
<path fill="none" stroke="black" d="M458.58,-88.68C475.9,-79 494.75,-68.46 511.85,-58.9"/>
<polygon fill="black" stroke="black" points="513.35,-62.07 520.37,-54.13 509.94,-55.96 513.35,-62.07"/>
</g>
<!-- 9 -->
<g id="node10" class="node">
<title>9</title>
<path fill="#fef8f4" stroke="black" d="M624,-149.5C624,-149.5 512,-149.5 512,-149.5 506,-149.5 500,-143.5 500,-137.5 500,-137.5 500,-108.5 500,-108.5 500,-102.5 506,-96.5 512,-96.5 512,-96.5 624,-96.5 624,-96.5 630,-96.5 636,-102.5 636,-108.5 636,-108.5 636,-137.5 636,-137.5 636,-143.5 630,-149.5 624,-149.5"/>
<text text-anchor="middle" x="568" y="-134.3" font-family="Helvetica,sans-Serif" font-size="14.00">squared_error = 0.0</text>
<text text-anchor="middle" x="568" y="-119.3" font-family="Helvetica,sans-Serif" font-size="14.00">samples = 1</text>
<text text-anchor="middle" x="568" y="-104.3" font-family="Helvetica,sans-Serif" font-size="14.00">value = 4.607</text>
</g>
<!-- 8&#45;&gt;9 -->
<g id="edge9" class="edge">
<title>8&#45;&gt;9</title>
<path fill="none" stroke="black" d="M570.02,-192.6C569.72,-182.47 569.39,-171.28 569.09,-160.93"/>
<polygon fill="black" stroke="black" points="572.59,-161.11 568.8,-151.22 565.6,-161.32 572.59,-161.11"/>
</g>
<!-- 10 -->
<g id="node11" class="node">
<title>10</title>
<path fill="#ffffff" stroke="black" d="M782,-149.5C782,-149.5 666,-149.5 666,-149.5 660,-149.5 654,-143.5 654,-137.5 654,-137.5 654,-108.5 654,-108.5 654,-102.5 660,-96.5 666,-96.5 666,-96.5 782,-96.5 782,-96.5 788,-96.5 794,-102.5 794,-108.5 794,-108.5 794,-137.5 794,-137.5 794,-143.5 788,-149.5 782,-149.5"/>
<text text-anchor="middle" x="724" y="-134.3" font-family="Helvetica,sans-Serif" font-size="14.00">squared_error = &#45;0.0</text>
<text text-anchor="middle" x="724" y="-119.3" font-family="Helvetica,sans-Serif" font-size="14.00">samples = 1</text>
<text text-anchor="middle" x="724" y="-104.3" font-family="Helvetica,sans-Serif" font-size="14.00">value = 4.432</text>
</g>
<!-- 8&#45;&gt;10 -->
<g id="edge10" class="edge">
<title>8&#45;&gt;10</title>
<path fill="none" stroke="black" d="M621.1,-192.6C638.75,-180.84 658.53,-167.65 676,-156"/>
<polygon fill="black" stroke="black" points="677.8,-159 684.18,-150.55 673.92,-153.18 677.8,-159"/>
</g>
</g>
</svg>
