<?xml version="1.0" encoding="UTF-8" standalone="no"?>
<!DOCTYPE svg PUBLIC "-//W3C//DTD SVG 1.1//EN"
 "http://www.w3.org/Graphics/SVG/1.1/DTD/svg11.dtd">
<!-- Generated by graphviz version 7.0.0 (20221023.0053)
 -->
<!-- Title: Tree Pages: 1 -->
<svg width="819pt" height="373pt"
 viewBox="0.00 0.00 819.00 373.00" xmlns="http://www.w3.org/2000/svg" xmlns:xlink="http://www.w3.org/1999/xlink">
<g id="graph0" class="graph" transform="scale(1 1) rotate(0) translate(4 369)">
<title>Tree</title>
<polygon fill="white" stroke="none" points="-4,4 -4,-369 815,-369 815,4 -4,4"/>
<!-- 0 -->
<g id="node1" class="node">
<title>0</title>
<path fill="#f0b58b" stroke="black" d="M561.5,-365C561.5,-365 434.5,-365 434.5,-365 428.5,-365 422.5,-359 422.5,-353 422.5,-353 422.5,-309 422.5,-309 422.5,-303 428.5,-297 434.5,-297 434.5,-297 561.5,-297 561.5,-297 567.5,-297 573.5,-303 573.5,-309 573.5,-309 573.5,-353 573.5,-353 573.5,-359 567.5,-365 561.5,-365"/>
<text text-anchor="middle" x="498" y="-349.8" font-family="Helvetica,sans-Serif" font-size="14.00">clogp &lt;= 4.901</text>
<text text-anchor="middle" x="498" y="-334.8" font-family="Helvetica,sans-Serif" font-size="14.00">squared_error = 1.144</text>
<text text-anchor="middle" x="498" y="-319.8" font-family="Helvetica,sans-Serif" font-size="14.00">samples = 10</text>
<text text-anchor="middle" x="498" y="-304.8" font-family="Helvetica,sans-Serif" font-size="14.00">value = 6.228</text>
</g>
<!-- 1 -->
<g id="node2" class="node">
<title>1</title>
<path fill="#eca36f" stroke="black" d="M480,-261C480,-261 340,-261 340,-261 334,-261 328,-255 328,-249 328,-249 328,-205 328,-205 328,-199 334,-193 340,-193 340,-193 480,-193 480,-193 486,-193 492,-199 492,-205 492,-205 492,-249 492,-249 492,-255 486,-261 480,-261"/>
<text text-anchor="middle" x="410" y="-245.8" font-family="Helvetica,sans-Serif" font-size="14.00">n_aromatic_rings &lt;= 1.5</text>
<text text-anchor="middle" x="410" y="-230.8" font-family="Helvetica,sans-Serif" font-size="14.00">squared_error = 0.516</text>
<text text-anchor="middle" x="410" y="-215.8" font-family="Helvetica,sans-Serif" font-size="14.00">samples = 8</text>
<text text-anchor="middle" x="410" y="-200.8" font-family="Helvetica,sans-Serif" font-size="14.00">value = 6.656</text>
</g>
<!-- 0&#45;&gt;1 -->
<g id="edge1" class="edge">
<title>0&#45;&gt;1</title>
<path fill="none" stroke="black" d="M469.19,-296.6C461.89,-288.15 453.96,-278.96 446.35,-270.13"/>
<polygon fill="black" stroke="black" points="449.05,-267.9 439.87,-262.62 443.75,-272.48 449.05,-267.9"/>
<text text-anchor="middle" x="437.04" y="-282.71" font-family="Helvetica,sans-Serif" font-size="14.00">True</text>
</g>
<!-- 8 -->
<g id="node9" class="node">
<title>8</title>
<path fill="#fefbf9" stroke="black" d="M649.5,-261C649.5,-261 522.5,-261 522.5,-261 516.5,-261 510.5,-255 510.5,-249 510.5,-249 510.5,-205 510.5,-205 510.5,-199 516.5,-193 522.5,-193 522.5,-193 649.5,-193 649.5,-193 655.5,-193 661.5,-199 661.5,-205 661.5,-205 661.5,-249 661.5,-249 661.5,-255 655.5,-261 649.5,-261"/>
<text text-anchor="middle" x="586" y="-245.8" font-family="Helvetica,sans-Serif" font-size="14.00">n_lipinski_hba &lt;= 4.0</text>
<text text-anchor="middle" x="586" y="-230.8" font-family="Helvetica,sans-Serif" font-size="14.00">squared_error = 0.008</text>
<text text-anchor="middle" x="586" y="-215.8" font-family="Helvetica,sans-Serif" font-size="14.00">samples = 2</text>
<text text-anchor="middle" x="586" y="-200.8" font-family="Helvetica,sans-Serif" font-size="14.00">value = 4.52</text>
</g>
<!-- 0&#45;&gt;8 -->
<g id="edge8" class="edge">
<title>0&#45;&gt;8</title>
<path fill="none" stroke="black" d="M526.81,-296.6C534.11,-288.15 542.04,-278.96 549.65,-270.13"/>
<polygon fill="black" stroke="black" points="552.25,-272.48 556.13,-262.62 546.95,-267.9 552.25,-272.48"/>
<text text-anchor="middle" x="558.96" y="-282.71" font-family="Helvetica,sans-Serif" font-size="14.00">False</text>
</g>
<!-- 2 -->
<g id="node3" class="node">
<title>2</title>
<path fill="#f1ba92" stroke="black" d="M295,-157C295,-157 155,-157 155,-157 149,-157 143,-151 143,-145 143,-145 143,-101 143,-101 143,-95 149,-89 155,-89 155,-89 295,-89 295,-89 301,-89 307,-95 307,-101 307,-101 307,-145 307,-145 307,-151 301,-157 295,-157"/>
<text text-anchor="middle" x="225" y="-141.8" font-family="Helvetica,sans-Serif" font-size="14.00">n_aromatic_rings &lt;= 0.5</text>
<text text-anchor="middle" x="225" y="-126.8" font-family="Helvetica,sans-Serif" font-size="14.00">squared_error = 0.33</text>
<text text-anchor="middle" x="225" y="-111.8" font-family="Helvetica,sans-Serif" font-size="14.00">samples = 4</text>
<text text-anchor="middle" x="225" y="-96.8" font-family="Helvetica,sans-Serif" font-size="14.00">value = 6.111</text>
</g>
<!-- 1&#45;&gt;2 -->
<g id="edge2" class="edge">
<title>1&#45;&gt;2</title>
<path fill="none" stroke="black" d="M349.42,-192.6C332.17,-183.09 313.24,-172.65 295.45,-162.85"/>
<polygon fill="black" stroke="black" points="297.48,-159.97 287.04,-158.2 294.1,-166.1 297.48,-159.97"/>
</g>
<!-- 5 -->
<g id="node6" class="node">
<title>5</title>
<path fill="#e78d4c" stroke="black" d="M484.5,-157C484.5,-157 337.5,-157 337.5,-157 331.5,-157 325.5,-151 325.5,-145 325.5,-145 325.5,-101 325.5,-101 325.5,-95 331.5,-89 337.5,-89 337.5,-89 484.5,-89 484.5,-89 490.5,-89 496.5,-95 496.5,-101 496.5,-101 496.5,-145 496.5,-145 496.5,-151 490.5,-157 484.5,-157"/>
<text text-anchor="middle" x="411" y="-141.8" font-family="Helvetica,sans-Serif" font-size="14.00">n_rotatable_bonds &lt;= 2.0</text>
<text text-anchor="middle" x="411" y="-126.8" font-family="Helvetica,sans-Serif" font-size="14.00">squared_error = 0.108</text>
<text text-anchor="middle" x="411" y="-111.8" font-family="Helvetica,sans-Serif" font-size="14.00">samples = 4</text>
<text text-anchor="middle" x="411" y="-96.8" font-family="Helvetica,sans-Serif" font-size="14.00">value = 7.2</text>
</g>
<!-- 1&#45;&gt;5 -->
<g id="edge5" class="edge">
<title>1&#45;&gt;5</title>
<path fill="none" stroke="black" d="M410.33,-192.6C410.4,-185.03 410.48,-176.87 410.56,-168.9"/>
<polygon fill="black" stroke="black" points="414.06,-169.02 410.66,-158.99 407.06,-168.95 414.06,-169.02"/>
</g>
<!-- 3 -->
<g id="node4" class="node">
<title>3</title>
<path fill="#f8decc" stroke="black" d="M124,-53C124,-53 12,-53 12,-53 6,-53 0,-47 0,-41 0,-41 0,-12 0,-12 0,-6 6,0 12,0 12,0 124,0 124,0 130,0 136,-6 136,-12 136,-12 136,-41 136,-41 136,-47 130,-53 124,-53"/>
<text text-anchor="middle" x="68" y="-37.8" font-family="Helvetica,sans-Serif" font-size="14.00">squared_error = 0.0</text>
<text text-anchor="middle" x="68" y="-22.8" font-family="Helvetica,sans-Serif" font-size="14.00">samples = 1</text>
<text text-anchor="middle" x="68" y="-7.8" font-family="Helvetica,sans-Serif" font-size="14.00">value = 5.222</text>
</g>
<!-- 2&#45;&gt;3 -->
<g id="edge3" class="edge">
<title>2&#45;&gt;3</title>
<path fill="none" stroke="black" d="M169.65,-88.68C153.71,-79.09 136.37,-68.65 120.61,-59.16"/>
<polygon fill="black" stroke="black" points="122.69,-56.33 112.32,-54.17 119.08,-62.33 122.69,-56.33"/>
</g>
<!-- 4 -->
<g id="node5" class="node">
<title>4</title>
<path fill="#eeae7f" stroke="black" d="M293.5,-53C293.5,-53 166.5,-53 166.5,-53 160.5,-53 154.5,-47 154.5,-41 154.5,-41 154.5,-12 154.5,-12 154.5,-6 160.5,0 166.5,0 166.5,0 293.5,0 293.5,0 299.5,0 305.5,-6 305.5,-12 305.5,-12 305.5,-41 305.5,-41 305.5,-47 299.5,-53 293.5,-53"/>
<text text-anchor="middle" x="230" y="-37.8" font-family="Helvetica,sans-Serif" font-size="14.00">squared_error = 0.088</text>
<text text-anchor="middle" x="230" y="-22.8" font-family="Helvetica,sans-Serif" font-size="14.00">samples = 3</text>
<text text-anchor="middle" x="230" y="-7.8" font-family="Helvetica,sans-Serif" font-size="14.00">value = 6.407</text>
</g>
<!-- 2&#45;&gt;4 -->
<g id="edge4" class="edge">
<title>2&#45;&gt;4</title>
<path fill="none" stroke="black" d="M226.76,-88.68C227.17,-80.9 227.62,-72.56 228.04,-64.63"/>
<polygon fill="black" stroke="black" points="231.52,-65.08 228.55,-54.91 224.53,-64.71 231.52,-65.08"/>
</g>
<!-- 6 -->
<g id="node7" class="node">
<title>6</title>
<path fill="#ea995f" stroke="black" d="M470.5,-53C470.5,-53 343.5,-53 343.5,-53 337.5,-53 331.5,-47 331.5,-41 331.5,-41 331.5,-12 331.5,-12 331.5,-6 337.5,0 343.5,0 343.5,0 470.5,0 470.5,0 476.5,0 482.5,-6 482.5,-12 482.5,-12 482.5,-41 482.5,-41 482.5,-47 476.5,-53 470.5,-53"/>
<text text-anchor="middle" x="407" y="-37.8" font-family="Helvetica,sans-Serif" font-size="14.00">squared_error = 0.008</text>
<text text-anchor="middle" x="407" y="-22.8" font-family="Helvetica,sans-Serif" font-size="14.00">samples = 2</text>
<text text-anchor="middle" x="407" y="-7.8" font-family="Helvetica,sans-Serif" font-size="14.00">value = 6.908</text>
</g>
<!-- 5&#45;&gt;6 -->
<g id="edge6" class="edge">
<title>5&#45;&gt;6</title>
<path fill="none" stroke="black" d="M409.59,-88.68C409.26,-80.9 408.91,-72.56 408.57,-64.63"/>
<polygon fill="black" stroke="black" points="412.08,-64.75 408.16,-54.91 405.09,-65.05 412.08,-64.75"/>
</g>
<!-- 7 -->
<g id="node8" class="node">
<title>7</title>
<path fill="#e58139" stroke="black" d="M639.5,-53C639.5,-53 512.5,-53 512.5,-53 506.5,-53 500.5,-47 500.5,-41 500.5,-41 500.5,-12 500.5,-12 500.5,-6 506.5,0 512.5,0 512.5,0 639.5,0 639.5,0 645.5,0 651.5,-6 651.5,-12 651.5,-12 651.5,-41 651.5,-41 651.5,-47 645.5,-53 639.5,-53"/>
<text text-anchor="middle" x="576" y="-37.8" font-family="Helvetica,sans-Serif" font-size="14.00">squared_error = 0.038</text>
<text text-anchor="middle" x="576" y="-22.8" font-family="Helvetica,sans-Serif" font-size="14.00">samples = 2</text>
<text text-anchor="middle" x="576" y="-7.8" font-family="Helvetica,sans-Serif" font-size="14.00">value = 7.492</text>
</g>
<!-- 5&#45;&gt;7 -->
<g id="edge7" class="edge">
<title>5&#45;&gt;7</title>
<path fill="none" stroke="black" d="M469.17,-88.68C486.08,-79 504.49,-68.46 521.18,-58.9"/>
<polygon fill="black" stroke="black" points="522.54,-62.15 529.48,-54.15 519.06,-56.08 522.54,-62.15"/>
</g>
<!-- 9 -->
<g id="node10" class="node">
<title>9</title>
<path fill="#fef8f4" stroke="black" d="M641,-149.5C641,-149.5 529,-149.5 529,-149.5 523,-149.5 517,-143.5 517,-137.5 517,-137.5 517,-108.5 517,-108.5 517,-102.5 523,-96.5 529,-96.5 529,-96.5 641,-96.5 641,-96.5 647,-96.5 653,-102.5 653,-108.5 653,-108.5 653,-137.5 653,-137.5 653,-143.5 647,-149.5 641,-149.5"/>
<text text-anchor="middle" x="585" y="-134.3" font-family="Helvetica,sans-Serif" font-size="14.00">squared_error = 0.0</text>
<text text-anchor="middle" x="585" y="-119.3" font-family="Helvetica,sans-Serif" font-size="14.00">samples = 1</text>
<text text-anchor="middle" x="585" y="-104.3" font-family="Helvetica,sans-Serif" font-size="14.00">value = 4.607</text>
</g>
<!-- 8&#45;&gt;9 -->
<g id="edge9" class="edge">
<title>8&#45;&gt;9</title>
<path fill="none" stroke="black" d="M585.67,-192.6C585.57,-182.47 585.46,-171.28 585.36,-160.93"/>
<polygon fill="black" stroke="black" points="588.86,-161.18 585.27,-151.22 581.87,-161.25 588.86,-161.18"/>
</g>
<!-- 10 -->
<g id="node11" class="node">
<title>10</title>
<path fill="#ffffff" stroke="black" d="M799,-149.5C799,-149.5 683,-149.5 683,-149.5 677,-149.5 671,-143.5 671,-137.5 671,-137.5 671,-108.5 671,-108.5 671,-102.5 677,-96.5 683,-96.5 683,-96.5 799,-96.5 799,-96.5 805,-96.5 811,-102.5 811,-108.5 811,-108.5 811,-137.5 811,-137.5 811,-143.5 805,-149.5 799,-149.5"/>
<text text-anchor="middle" x="741" y="-134.3" font-family="Helvetica,sans-Serif" font-size="14.00">squared_error = &#45;0.0</text>
<text text-anchor="middle" x="741" y="-119.3" font-family="Helvetica,sans-Serif" font-size="14.00">samples = 1</text>
<text text-anchor="middle" x="741" y="-104.3" font-family="Helvetica,sans-Serif" font-size="14.00">value = 4.432</text>
</g>
<!-- 8&#45;&gt;10 -->
<g id="edge10" class="edge">
<title>8&#45;&gt;10</title>
<path fill="none" stroke="black" d="M636.75,-192.6C654.63,-180.84 674.67,-167.65 692.37,-156"/>
<polygon fill="black" stroke="black" points="694.24,-158.96 700.67,-150.54 690.4,-153.11 694.24,-158.96"/>
</g>
</g>
</svg>
