<?xml version="1.0" encoding="UTF-8" standalone="no"?>
<!DOCTYPE svg PUBLIC "-//W3C//DTD SVG 1.1//EN"
 "http://www.w3.org/Graphics/SVG/1.1/DTD/svg11.dtd">
<!-- Generated by graphviz version 7.0.0 (20221023.0053)
 -->
<!-- Title: Tree Pages: 1 -->
<svg width="836pt" height="373pt"
 viewBox="0.00 0.00 836.00 373.00" xmlns="http://www.w3.org/2000/svg" xmlns:xlink="http://www.w3.org/1999/xlink">
<g id="graph0" class="graph" transform="scale(1 1) rotate(0) translate(4 369)">
<title>Tree</title>
<polygon fill="white" stroke="none" points="-4,4 -4,-369 832,-369 832,4 -4,4"/>
<!-- 0 -->
<g id="node1" class="node">
<title>0</title>
<path fill="#f0b58b" stroke="black" d="M573.5,-365C573.5,-365 446.5,-365 446.5,-365 440.5,-365 434.5,-359 434.5,-353 434.5,-353 434.5,-309 434.5,-309 434.5,-303 440.5,-297 446.5,-297 446.5,-297 573.5,-297 573.5,-297 579.5,-297 585.5,-303 585.5,-309 585.5,-309 585.5,-353 585.5,-353 585.5,-359 579.5,-365 573.5,-365"/>
<text text-anchor="middle" x="510" y="-349.8" font-family="Helvetica,sans-Serif" font-size="14.00">clogp &lt;= 4.901</text>
<text text-anchor="middle" x="510" y="-334.8" font-family="Helvetica,sans-Serif" font-size="14.00">squared_error = 1.144</text>
<text text-anchor="middle" x="510" y="-319.8" font-family="Helvetica,sans-Serif" font-size="14.00">samples = 10</text>
<text text-anchor="middle" x="510" y="-304.8" font-family="Helvetica,sans-Serif" font-size="14.00">value = 6.228</text>
</g>
<!-- 1 -->
<g id="node2" class="node">
<title>1</title>
<path fill="#eca36f" stroke="black" d="M479,-261C479,-261 339,-261 339,-261 333,-261 327,-255 327,-249 327,-249 327,-205 327,-205 327,-199 333,-193 339,-193 339,-193 479,-193 479,-193 485,-193 491,-199 491,-205 491,-205 491,-249 491,-249 491,-255 485,-261 479,-261"/>
<text text-anchor="middle" x="409" y="-245.8" font-family="Helvetica,sans-Serif" font-size="14.00">n_aromatic_rings &lt;= 1.5</text>
<text text-anchor="middle" x="409" y="-230.8" font-family="Helvetica,sans-Serif" font-size="14.00">squared_error = 0.516</text>
<text text-anchor="middle" x="409" y="-215.8" font-family="Helvetica,sans-Serif" font-size="14.00">samples = 8</text>
<text text-anchor="middle" x="409" y="-200.8" font-family="Helvetica,sans-Serif" font-size="14.00">value = 6.656</text>
</g>
<!-- 0&#45;&gt;1 -->
<g id="edge1" class="edge">
<title>0&#45;&gt;1</title>
<path fill="none" stroke="black" d="M476.93,-296.6C468.38,-287.97 459.08,-278.58 450.18,-269.58"/>
<polygon fill="black" stroke="black" points="452.73,-267.19 443.21,-262.55 447.76,-272.12 452.73,-267.19"/>
<text text-anchor="middle" x="442.02" y="-282.77" font-family="Helvetica,sans-Serif" font-size="14.00">True</text>
</g>
<!-- 8 -->
<g id="node9" class="node">
<title>8</title>
<path fill="#fefbf9" stroke="black" d="M703,-261C703,-261 521,-261 521,-261 515,-261 509,-255 509,-249 509,-249 509,-205 509,-205 509,-199 515,-193 521,-193 521,-193 703,-193 703,-193 709,-193 715,-199 715,-205 715,-205 715,-249 715,-249 715,-255 709,-261 703,-261"/>
<text text-anchor="middle" x="612" y="-245.8" font-family="Helvetica,sans-Serif" font-size="14.00">n_aromatic_carbocycles &lt;= 1.5</text>
<text text-anchor="middle" x="612" y="-230.8" font-family="Helvetica,sans-Serif" font-size="14.00">squared_error = 0.008</text>
<text text-anchor="middle" x="612" y="-215.8" font-family="Helvetica,sans-Serif" font-size="14.00">samples = 2</text>
<text text-anchor="middle" x="612" y="-200.8" font-family="Helvetica,sans-Serif" font-size="14.00">value = 4.52</text>
</g>
<!-- 0&#45;&gt;8 -->
<g id="edge8" class="edge">
<title>0&#45;&gt;8</title>
<path fill="none" stroke="black" d="M543.4,-296.6C552.03,-287.97 561.42,-278.58 570.42,-269.58"/>
<polygon fill="black" stroke="black" points="572.86,-272.09 577.46,-262.54 567.91,-267.14 572.86,-272.09"/>
<text text-anchor="middle" x="578.53" y="-282.77" font-family="Helvetica,sans-Serif" font-size="14.00">False</text>
</g>
<!-- 2 -->
<g id="node3" class="node">
<title>2</title>
<path fill="#f1ba92" stroke="black" d="M314,-157C314,-157 132,-157 132,-157 126,-157 120,-151 120,-145 120,-145 120,-101 120,-101 120,-95 126,-89 132,-89 132,-89 314,-89 314,-89 320,-89 326,-95 326,-101 326,-101 326,-145 326,-145 326,-151 320,-157 314,-157"/>
<text text-anchor="middle" x="223" y="-141.8" font-family="Helvetica,sans-Serif" font-size="14.00">n_aromatic_carbocycles &lt;= 0.5</text>
<text text-anchor="middle" x="223" y="-126.8" font-family="Helvetica,sans-Serif" font-size="14.00">squared_error = 0.33</text>
<text text-anchor="middle" x="223" y="-111.8" font-family="Helvetica,sans-Serif" font-size="14.00">samples = 4</text>
<text text-anchor="middle" x="223" y="-96.8" font-family="Helvetica,sans-Serif" font-size="14.00">value = 6.111</text>
</g>
<!-- 1&#45;&gt;2 -->
<g id="edge2" class="edge">
<title>1&#45;&gt;2</title>
<path fill="none" stroke="black" d="M348.1,-192.6C330.75,-183.09 311.71,-172.65 293.84,-162.85"/>
<polygon fill="black" stroke="black" points="295.82,-159.94 285.37,-158.2 292.45,-166.08 295.82,-159.94"/>
</g>
<!-- 5 -->
<g id="node6" class="node">
<title>5</title>
<path fill="#e78d4c" stroke="black" d="M483.5,-157C483.5,-157 356.5,-157 356.5,-157 350.5,-157 344.5,-151 344.5,-145 344.5,-145 344.5,-101 344.5,-101 344.5,-95 350.5,-89 356.5,-89 356.5,-89 483.5,-89 483.5,-89 489.5,-89 495.5,-95 495.5,-101 495.5,-101 495.5,-145 495.5,-145 495.5,-151 489.5,-157 483.5,-157"/>
<text text-anchor="middle" x="420" y="-141.8" font-family="Helvetica,sans-Serif" font-size="14.00">clogp &lt;= 3.604</text>
<text text-anchor="middle" x="420" y="-126.8" font-family="Helvetica,sans-Serif" font-size="14.00">squared_error = 0.108</text>
<text text-anchor="middle" x="420" y="-111.8" font-family="Helvetica,sans-Serif" font-size="14.00">samples = 4</text>
<text text-anchor="middle" x="420" y="-96.8" font-family="Helvetica,sans-Serif" font-size="14.00">value = 7.2</text>
</g>
<!-- 1&#45;&gt;5 -->
<g id="edge5" class="edge">
<title>1&#45;&gt;5</title>
<path fill="none" stroke="black" d="M412.6,-192.6C413.42,-185.03 414.3,-176.87 415.16,-168.9"/>
<polygon fill="black" stroke="black" points="418.64,-169.3 416.23,-158.98 411.68,-168.55 418.64,-169.3"/>
</g>
<!-- 3 -->
<g id="node4" class="node">
<title>3</title>
<path fill="#f8decc" stroke="black" d="M124,-53C124,-53 12,-53 12,-53 6,-53 0,-47 0,-41 0,-41 0,-12 0,-12 0,-6 6,0 12,0 12,0 124,0 124,0 130,0 136,-6 136,-12 136,-12 136,-41 136,-41 136,-47 130,-53 124,-53"/>
<text text-anchor="middle" x="68" y="-37.8" font-family="Helvetica,sans-Serif" font-size="14.00">squared_error = 0.0</text>
<text text-anchor="middle" x="68" y="-22.8" font-family="Helvetica,sans-Serif" font-size="14.00">samples = 1</text>
<text text-anchor="middle" x="68" y="-7.8" font-family="Helvetica,sans-Serif" font-size="14.00">value = 5.222</text>
</g>
<!-- 2&#45;&gt;3 -->
<g id="edge3" class="edge">
<title>2&#45;&gt;3</title>
<path fill="none" stroke="black" d="M168.35,-88.68C152.62,-79.09 135.5,-68.65 119.94,-59.16"/>
<polygon fill="black" stroke="black" points="122.12,-56.4 111.76,-54.18 118.48,-62.38 122.12,-56.4"/>
</g>
<!-- 4 -->
<g id="node5" class="node">
<title>4</title>
<path fill="#eeae7f" stroke="black" d="M293.5,-53C293.5,-53 166.5,-53 166.5,-53 160.5,-53 154.5,-47 154.5,-41 154.5,-41 154.5,-12 154.5,-12 154.5,-6 160.5,0 166.5,0 166.5,0 293.5,0 293.5,0 299.5,0 305.5,-6 305.5,-12 305.5,-12 305.5,-41 305.5,-41 305.5,-47 299.5,-53 293.5,-53"/>
<text text-anchor="middle" x="230" y="-37.8" font-family="Helvetica,sans-Serif" font-size="14.00">squared_error = 0.088</text>
<text text-anchor="middle" x="230" y="-22.8" font-family="Helvetica,sans-Serif" font-size="14.00">samples = 3</text>
<text text-anchor="middle" x="230" y="-7.8" font-family="Helvetica,sans-Serif" font-size="14.00">value = 6.407</text>
</g>
<!-- 2&#45;&gt;4 -->
<g id="edge4" class="edge">
<title>2&#45;&gt;4</title>
<path fill="none" stroke="black" d="M225.47,-88.68C226.04,-80.9 226.66,-72.56 227.25,-64.63"/>
<polygon fill="black" stroke="black" points="230.72,-65.13 227.97,-54.9 223.74,-64.62 230.72,-65.13"/>
</g>
<!-- 6 -->
<g id="node7" class="node">
<title>6</title>
<path fill="#ea995f" stroke="black" d="M476.5,-53C476.5,-53 349.5,-53 349.5,-53 343.5,-53 337.5,-47 337.5,-41 337.5,-41 337.5,-12 337.5,-12 337.5,-6 343.5,0 349.5,0 349.5,0 476.5,0 476.5,0 482.5,0 488.5,-6 488.5,-12 488.5,-12 488.5,-41 488.5,-41 488.5,-47 482.5,-53 476.5,-53"/>
<text text-anchor="middle" x="413" y="-37.8" font-family="Helvetica,sans-Serif" font-size="14.00">squared_error = 0.008</text>
<text text-anchor="middle" x="413" y="-22.8" font-family="Helvetica,sans-Serif" font-size="14.00">samples = 2</text>
<text text-anchor="middle" x="413" y="-7.8" font-family="Helvetica,sans-Serif" font-size="14.00">value = 6.908</text>
</g>
<!-- 5&#45;&gt;6 -->
<g id="edge6" class="edge">
<title>5&#45;&gt;6</title>
<path fill="none" stroke="black" d="M417.53,-88.68C416.96,-80.9 416.34,-72.56 415.75,-64.63"/>
<polygon fill="black" stroke="black" points="419.26,-64.62 415.03,-54.9 412.28,-65.13 419.26,-64.62"/>
</g>
<!-- 7 -->
<g id="node8" class="node">
<title>7</title>
<path fill="#e58139" stroke="black" d="M645.5,-53C645.5,-53 518.5,-53 518.5,-53 512.5,-53 506.5,-47 506.5,-41 506.5,-41 506.5,-12 506.5,-12 506.5,-6 512.5,0 518.5,0 518.5,0 645.5,0 645.5,0 651.5,0 657.5,-6 657.5,-12 657.5,-12 657.5,-41 657.5,-41 657.5,-47 651.5,-53 645.5,-53"/>
<text text-anchor="middle" x="582" y="-37.8" font-family="Helvetica,sans-Serif" font-size="14.00">squared_error = 0.038</text>
<text text-anchor="middle" x="582" y="-22.8" font-family="Helvetica,sans-Serif" font-size="14.00">samples = 2</text>
<text text-anchor="middle" x="582" y="-7.8" font-family="Helvetica,sans-Serif" font-size="14.00">value = 7.492</text>
</g>
<!-- 5&#45;&gt;7 -->
<g id="edge7" class="edge">
<title>5&#45;&gt;7</title>
<path fill="none" stroke="black" d="M477.12,-88.68C493.56,-79.09 511.45,-68.65 527.72,-59.16"/>
<polygon fill="black" stroke="black" points="529.43,-62.22 536.3,-54.16 525.9,-56.17 529.43,-62.22"/>
</g>
<!-- 9 -->
<g id="node10" class="node">
<title>9</title>
<path fill="#ffffff" stroke="black" d="M658,-149.5C658,-149.5 546,-149.5 546,-149.5 540,-149.5 534,-143.5 534,-137.5 534,-137.5 534,-108.5 534,-108.5 534,-102.5 540,-96.5 546,-96.5 546,-96.5 658,-96.5 658,-96.5 664,-96.5 670,-102.5 670,-108.5 670,-108.5 670,-137.5 670,-137.5 670,-143.5 664,-149.5 658,-149.5"/>
<text text-anchor="middle" x="602" y="-134.3" font-family="Helvetica,sans-Serif" font-size="14.00">squared_error = 0.0</text>
<text text-anchor="middle" x="602" y="-119.3" font-family="Helvetica,sans-Serif" font-size="14.00">samples = 1</text>
<text text-anchor="middle" x="602" y="-104.3" font-family="Helvetica,sans-Serif" font-size="14.00">value = 4.432</text>
</g>
<!-- 8&#45;&gt;9 -->
<g id="edge9" class="edge">
<title>8&#45;&gt;9</title>
<path fill="none" stroke="black" d="M608.73,-192.6C607.73,-182.47 606.64,-171.28 605.62,-160.93"/>
<polygon fill="black" stroke="black" points="609.13,-160.82 604.67,-151.21 602.16,-161.51 609.13,-160.82"/>
</g>
<!-- 10 -->
<g id="node11" class="node">
<title>10</title>
<path fill="#fef8f4" stroke="black" d="M816,-149.5C816,-149.5 700,-149.5 700,-149.5 694,-149.5 688,-143.5 688,-137.5 688,-137.5 688,-108.5 688,-108.5 688,-102.5 694,-96.5 700,-96.5 700,-96.5 816,-96.5 816,-96.5 822,-96.5 828,-102.5 828,-108.5 828,-108.5 828,-137.5 828,-137.5 828,-143.5 822,-149.5 816,-149.5"/>
<text text-anchor="middle" x="758" y="-134.3" font-family="Helvetica,sans-Serif" font-size="14.00">squared_error = &#45;0.0</text>
<text text-anchor="middle" x="758" y="-119.3" font-family="Helvetica,sans-Serif" font-size="14.00">samples = 1</text>
<text text-anchor="middle" x="758" y="-104.3" font-family="Helvetica,sans-Serif" font-size="14.00">value = 4.607</text>
</g>
<!-- 8&#45;&gt;10 -->
<g id="edge10" class="edge">
<title>8&#45;&gt;10</title>
<path fill="none" stroke="black" d="M659.81,-192.6C676.65,-180.84 695.53,-167.65 712.2,-156"/>
<polygon fill="black" stroke="black" points="713.77,-159.17 719.96,-150.57 709.76,-153.43 713.77,-159.17"/>
</g>
</g>
</svg>
