<?xml version="1.0" encoding="UTF-8" standalone="no"?>
<!DOCTYPE svg PUBLIC "-//W3C//DTD SVG 1.1//EN"
 "http://www.w3.org/Graphics/SVG/1.1/DTD/svg11.dtd">
<!-- Generated by graphviz version 7.0.0 (20221023.0053)
 -->
<!-- Title: Tree Pages: 1 -->
<svg width="814pt" height="373pt"
 viewBox="0.00 0.00 814.00 373.00" xmlns="http://www.w3.org/2000/svg" xmlns:xlink="http://www.w3.org/1999/xlink">
<g id="graph0" class="graph" transform="scale(1 1) rotate(0) translate(4 369)">
<title>Tree</title>
<polygon fill="white" stroke="none" points="-4,4 -4,-369 810,-369 810,4 -4,4"/>
<!-- 0 -->
<g id="node1" class="node">
<title>0</title>
<path fill="#f0b58b" stroke="black" d="M555.5,-365C555.5,-365 428.5,-365 428.5,-365 422.5,-365 416.5,-359 416.5,-353 416.5,-353 416.5,-309 416.5,-309 416.5,-303 422.5,-297 428.5,-297 428.5,-297 555.5,-297 555.5,-297 561.5,-297 567.5,-303 567.5,-309 567.5,-309 567.5,-353 567.5,-353 567.5,-359 561.5,-365 555.5,-365"/>
<text text-anchor="middle" x="492" y="-349.8" font-family="Helvetica,sans-Serif" font-size="14.00">clogp &lt;= 4.901</text>
<text text-anchor="middle" x="492" y="-334.8" font-family="Helvetica,sans-Serif" font-size="14.00">squared_error = 1.144</text>
<text text-anchor="middle" x="492" y="-319.8" font-family="Helvetica,sans-Serif" font-size="14.00">samples = 10</text>
<text text-anchor="middle" x="492" y="-304.8" font-family="Helvetica,sans-Serif" font-size="14.00">value = 6.228</text>
</g>
<!-- 1 -->
<g id="node2" class="node">
<title>1</title>
<path fill="#eca36f" stroke="black" d="M467,-261C467,-261 327,-261 327,-261 321,-261 315,-255 315,-249 315,-249 315,-205 315,-205 315,-199 321,-193 327,-193 327,-193 467,-193 467,-193 473,-193 479,-199 479,-205 479,-205 479,-249 479,-249 479,-255 473,-261 467,-261"/>
<text text-anchor="middle" x="397" y="-245.8" font-family="Helvetica,sans-Serif" font-size="14.00">n_aromatic_rings &lt;= 1.5</text>
<text text-anchor="middle" x="397" y="-230.8" font-family="Helvetica,sans-Serif" font-size="14.00">squared_error = 0.516</text>
<text text-anchor="middle" x="397" y="-215.8" font-family="Helvetica,sans-Serif" font-size="14.00">samples = 8</text>
<text text-anchor="middle" x="397" y="-200.8" font-family="Helvetica,sans-Serif" font-size="14.00">value = 6.656</text>
</g>
<!-- 0&#45;&gt;1 -->
<g id="edge1" class="edge">
<title>0&#45;&gt;1</title>
<path fill="none" stroke="black" d="M460.89,-296.6C452.94,-288.06 444.28,-278.77 435.99,-269.86"/>
<polygon fill="black" stroke="black" points="438.58,-267.51 429.21,-262.58 433.46,-272.28 438.58,-267.51"/>
<text text-anchor="middle" x="427.29" y="-282.76" font-family="Helvetica,sans-Serif" font-size="14.00">True</text>
</g>
<!-- 8 -->
<g id="node9" class="node">
<title>8</title>
<path fill="#fefbf9" stroke="black" d="M664.5,-261C664.5,-261 509.5,-261 509.5,-261 503.5,-261 497.5,-255 497.5,-249 497.5,-249 497.5,-205 497.5,-205 497.5,-199 503.5,-193 509.5,-193 509.5,-193 664.5,-193 664.5,-193 670.5,-193 676.5,-199 676.5,-205 676.5,-205 676.5,-249 676.5,-249 676.5,-255 670.5,-261 664.5,-261"/>
<text text-anchor="middle" x="587" y="-245.8" font-family="Helvetica,sans-Serif" font-size="14.00">n_rotatable_bonds &lt;= 13.0</text>
<text text-anchor="middle" x="587" y="-230.8" font-family="Helvetica,sans-Serif" font-size="14.00">squared_error = 0.008</text>
<text text-anchor="middle" x="587" y="-215.8" font-family="Helvetica,sans-Serif" font-size="14.00">samples = 2</text>
<text text-anchor="middle" x="587" y="-200.8" font-family="Helvetica,sans-Serif" font-size="14.00">value = 4.52</text>
</g>
<!-- 0&#45;&gt;8 -->
<g id="edge8" class="edge">
<title>0&#45;&gt;8</title>
<path fill="none" stroke="black" d="M523.11,-296.6C531.06,-288.06 539.72,-278.77 548.01,-269.86"/>
<polygon fill="black" stroke="black" points="550.54,-272.28 554.79,-262.58 545.42,-267.51 550.54,-272.28"/>
<text text-anchor="middle" x="556.71" y="-282.76" font-family="Helvetica,sans-Serif" font-size="14.00">False</text>
</g>
<!-- 2 -->
<g id="node3" class="node">
<title>2</title>
<path fill="#f1ba92" stroke="black" d="M298,-157C298,-157 158,-157 158,-157 152,-157 146,-151 146,-145 146,-145 146,-101 146,-101 146,-95 152,-89 158,-89 158,-89 298,-89 298,-89 304,-89 310,-95 310,-101 310,-101 310,-145 310,-145 310,-151 304,-157 298,-157"/>
<text text-anchor="middle" x="228" y="-141.8" font-family="Helvetica,sans-Serif" font-size="14.00">n_aromatic_rings &lt;= 0.5</text>
<text text-anchor="middle" x="228" y="-126.8" font-family="Helvetica,sans-Serif" font-size="14.00">squared_error = 0.33</text>
<text text-anchor="middle" x="228" y="-111.8" font-family="Helvetica,sans-Serif" font-size="14.00">samples = 4</text>
<text text-anchor="middle" x="228" y="-96.8" font-family="Helvetica,sans-Serif" font-size="14.00">value = 6.111</text>
</g>
<!-- 1&#45;&gt;2 -->
<g id="edge2" class="edge">
<title>1&#45;&gt;2</title>
<path fill="none" stroke="black" d="M341.66,-192.6C326.2,-183.27 309.25,-173.04 293.26,-163.39"/>
<polygon fill="black" stroke="black" points="295.13,-160.43 284.76,-158.26 291.51,-166.42 295.13,-160.43"/>
</g>
<!-- 5 -->
<g id="node6" class="node">
<title>5</title>
<path fill="#e78d4c" stroke="black" d="M467.5,-157C467.5,-157 340.5,-157 340.5,-157 334.5,-157 328.5,-151 328.5,-145 328.5,-145 328.5,-101 328.5,-101 328.5,-95 334.5,-89 340.5,-89 340.5,-89 467.5,-89 467.5,-89 473.5,-89 479.5,-95 479.5,-101 479.5,-101 479.5,-145 479.5,-145 479.5,-151 473.5,-157 467.5,-157"/>
<text text-anchor="middle" x="404" y="-141.8" font-family="Helvetica,sans-Serif" font-size="14.00">n_lipinski_hbd &lt;= 1.5</text>
<text text-anchor="middle" x="404" y="-126.8" font-family="Helvetica,sans-Serif" font-size="14.00">squared_error = 0.108</text>
<text text-anchor="middle" x="404" y="-111.8" font-family="Helvetica,sans-Serif" font-size="14.00">samples = 4</text>
<text text-anchor="middle" x="404" y="-96.8" font-family="Helvetica,sans-Serif" font-size="14.00">value = 7.2</text>
</g>
<!-- 1&#45;&gt;5 -->
<g id="edge5" class="edge">
<title>1&#45;&gt;5</title>
<path fill="none" stroke="black" d="M399.29,-192.6C399.81,-185.03 400.37,-176.87 400.92,-168.9"/>
<polygon fill="black" stroke="black" points="404.41,-169.2 401.6,-158.98 397.42,-168.72 404.41,-169.2"/>
</g>
<!-- 3 -->
<g id="node4" class="node">
<title>3</title>
<path fill="#f8decc" stroke="black" d="M124,-53C124,-53 12,-53 12,-53 6,-53 0,-47 0,-41 0,-41 0,-12 0,-12 0,-6 6,0 12,0 12,0 124,0 124,0 130,0 136,-6 136,-12 136,-12 136,-41 136,-41 136,-47 130,-53 124,-53"/>
<text text-anchor="middle" x="68" y="-37.8" font-family="Helvetica,sans-Serif" font-size="14.00">squared_error = 0.0</text>
<text text-anchor="middle" x="68" y="-22.8" font-family="Helvetica,sans-Serif" font-size="14.00">samples = 1</text>
<text text-anchor="middle" x="68" y="-7.8" font-family="Helvetica,sans-Serif" font-size="14.00">value = 5.222</text>
</g>
<!-- 2&#45;&gt;3 -->
<g id="edge3" class="edge">
<title>2&#45;&gt;3</title>
<path fill="none" stroke="black" d="M171.59,-88.68C155.35,-79.09 137.68,-68.65 121.61,-59.16"/>
<polygon fill="black" stroke="black" points="123.53,-56.24 113.14,-54.16 119.97,-62.26 123.53,-56.24"/>
</g>
<!-- 4 -->
<g id="node5" class="node">
<title>4</title>
<path fill="#eeae7f" stroke="black" d="M293.5,-53C293.5,-53 166.5,-53 166.5,-53 160.5,-53 154.5,-47 154.5,-41 154.5,-41 154.5,-12 154.5,-12 154.5,-6 160.5,0 166.5,0 166.5,0 293.5,0 293.5,0 299.5,0 305.5,-6 305.5,-12 305.5,-12 305.5,-41 305.5,-41 305.5,-47 299.5,-53 293.5,-53"/>
<text text-anchor="middle" x="230" y="-37.8" font-family="Helvetica,sans-Serif" font-size="14.00">squared_error = 0.088</text>
<text text-anchor="middle" x="230" y="-22.8" font-family="Helvetica,sans-Serif" font-size="14.00">samples = 3</text>
<text text-anchor="middle" x="230" y="-7.8" font-family="Helvetica,sans-Serif" font-size="14.00">value = 6.407</text>
</g>
<!-- 2&#45;&gt;4 -->
<g id="edge4" class="edge">
<title>2&#45;&gt;4</title>
<path fill="none" stroke="black" d="M228.71,-88.68C228.87,-80.99 229.04,-72.76 229.21,-64.9"/>
<polygon fill="black" stroke="black" points="232.71,-64.98 229.42,-54.91 225.71,-64.83 232.71,-64.98"/>
</g>
<!-- 6 -->
<g id="node7" class="node">
<title>6</title>
<path fill="#e58139" stroke="black" d="M465.5,-53C465.5,-53 338.5,-53 338.5,-53 332.5,-53 326.5,-47 326.5,-41 326.5,-41 326.5,-12 326.5,-12 326.5,-6 332.5,0 338.5,0 338.5,0 465.5,0 465.5,0 471.5,0 477.5,-6 477.5,-12 477.5,-12 477.5,-41 477.5,-41 477.5,-47 471.5,-53 465.5,-53"/>
<text text-anchor="middle" x="402" y="-37.8" font-family="Helvetica,sans-Serif" font-size="14.00">squared_error = 0.038</text>
<text text-anchor="middle" x="402" y="-22.8" font-family="Helvetica,sans-Serif" font-size="14.00">samples = 2</text>
<text text-anchor="middle" x="402" y="-7.8" font-family="Helvetica,sans-Serif" font-size="14.00">value = 7.492</text>
</g>
<!-- 5&#45;&gt;6 -->
<g id="edge6" class="edge">
<title>5&#45;&gt;6</title>
<path fill="none" stroke="black" d="M403.29,-88.68C403.13,-80.99 402.96,-72.76 402.79,-64.9"/>
<polygon fill="black" stroke="black" points="406.29,-64.83 402.58,-54.91 399.29,-64.98 406.29,-64.83"/>
</g>
<!-- 7 -->
<g id="node8" class="node">
<title>7</title>
<path fill="#ea995f" stroke="black" d="M634.5,-53C634.5,-53 507.5,-53 507.5,-53 501.5,-53 495.5,-47 495.5,-41 495.5,-41 495.5,-12 495.5,-12 495.5,-6 501.5,0 507.5,0 507.5,0 634.5,0 634.5,0 640.5,0 646.5,-6 646.5,-12 646.5,-12 646.5,-41 646.5,-41 646.5,-47 640.5,-53 634.5,-53"/>
<text text-anchor="middle" x="571" y="-37.8" font-family="Helvetica,sans-Serif" font-size="14.00">squared_error = 0.008</text>
<text text-anchor="middle" x="571" y="-22.8" font-family="Helvetica,sans-Serif" font-size="14.00">samples = 2</text>
<text text-anchor="middle" x="571" y="-7.8" font-family="Helvetica,sans-Serif" font-size="14.00">value = 6.908</text>
</g>
<!-- 5&#45;&gt;7 -->
<g id="edge7" class="edge">
<title>5&#45;&gt;7</title>
<path fill="none" stroke="black" d="M462.88,-88.68C479.99,-79 498.62,-68.46 515.52,-58.9"/>
<polygon fill="black" stroke="black" points="516.94,-62.11 523.92,-54.14 513.5,-56.02 516.94,-62.11"/>
</g>
<!-- 9 -->
<g id="node10" class="node">
<title>9</title>
<path fill="#fef8f4" stroke="black" d="M636,-149.5C636,-149.5 524,-149.5 524,-149.5 518,-149.5 512,-143.5 512,-137.5 512,-137.5 512,-108.5 512,-108.5 512,-102.5 518,-96.5 524,-96.5 524,-96.5 636,-96.5 636,-96.5 642,-96.5 648,-102.5 648,-108.5 648,-108.5 648,-137.5 648,-137.5 648,-143.5 642,-149.5 636,-149.5"/>
<text text-anchor="middle" x="580" y="-134.3" font-family="Helvetica,sans-Serif" font-size="14.00">squared_error = 0.0</text>
<text text-anchor="middle" x="580" y="-119.3" font-family="Helvetica,sans-Serif" font-size="14.00">samples = 1</text>
<text text-anchor="middle" x="580" y="-104.3" font-family="Helvetica,sans-Serif" font-size="14.00">value = 4.607</text>
</g>
<!-- 8&#45;&gt;9 -->
<g id="edge9" class="edge">
<title>8&#45;&gt;9</title>
<path fill="none" stroke="black" d="M584.71,-192.6C584.01,-182.47 583.24,-171.28 582.53,-160.93"/>
<polygon fill="black" stroke="black" points="586.04,-160.95 581.87,-151.22 579.06,-161.43 586.04,-160.95"/>
</g>
<!-- 10 -->
<g id="node11" class="node">
<title>10</title>
<path fill="#ffffff" stroke="black" d="M794,-149.5C794,-149.5 678,-149.5 678,-149.5 672,-149.5 666,-143.5 666,-137.5 666,-137.5 666,-108.5 666,-108.5 666,-102.5 672,-96.5 678,-96.5 678,-96.5 794,-96.5 794,-96.5 800,-96.5 806,-102.5 806,-108.5 806,-108.5 806,-137.5 806,-137.5 806,-143.5 800,-149.5 794,-149.5"/>
<text text-anchor="middle" x="736" y="-134.3" font-family="Helvetica,sans-Serif" font-size="14.00">squared_error = &#45;0.0</text>
<text text-anchor="middle" x="736" y="-119.3" font-family="Helvetica,sans-Serif" font-size="14.00">samples = 1</text>
<text text-anchor="middle" x="736" y="-104.3" font-family="Helvetica,sans-Serif" font-size="14.00">value = 4.432</text>
</g>
<!-- 8&#45;&gt;10 -->
<g id="edge10" class="edge">
<title>8&#45;&gt;10</title>
<path fill="none" stroke="black" d="M635.79,-192.6C652.97,-180.84 672.24,-167.65 689.26,-156"/>
<polygon fill="black" stroke="black" points="690.93,-159.1 697.2,-150.56 686.97,-153.32 690.93,-159.1"/>
</g>
</g>
</svg>
